<?xml version="1.0" encoding="utf-8"?>
<!-- Generator: Adobe Illustrator 22.1.0, SVG Export Plug-In . SVG Version: 6.00 Build 0)  -->
<svg version="1.1" id="Capa_1" xmlns="http://www.w3.org/2000/svg" xmlns:xlink="http://www.w3.org/1999/xlink" x="0px" y="0px"
	 viewBox="0 0 204.9 300.8" style="enable-background:new 0 0 204.9 300.8;" xml:space="preserve">
<style type="text/css">
	.st0{fill:#164194;}
	.st1{fill:#F5A800;}
	.st2{fill:none;stroke:#164194;stroke-width:0;stroke-linecap:round;stroke-linejoin:round;}
</style>
<path class="st0" d="M23.1,217.5c0,0.3,0,0.5-0.1,0.6c-0.1,0.1-0.3,0.1-0.5,0.1H10.7c-0.2,0-0.3,0-0.3-0.1c-0.1-0.1-0.1-0.2-0.1-0.4
	c0-0.9,0-1.6,0.1-2.2c0.1-0.6,0.2-1.1,0.2-1.5c0.1-0.4,0.2-0.7,0.3-1c0.1-0.3,0.2-0.5,0.3-0.7c0.3-0.7,0.7-1.3,1.2-1.8
	c0.5-0.5,1.1-1.1,1.7-1.6c0.6-0.5,1.2-1,1.8-1.4c0.6-0.5,1.2-1,1.7-1.5c0.5-0.5,0.9-1.1,1.2-1.7c0.3-0.6,0.5-1.3,0.5-2
	c0-1-0.2-1.7-0.7-2.1c-0.5-0.5-1.1-0.7-2-0.7c-0.8,0-1.3,0.2-1.8,0.5c-0.4,0.4-0.7,0.7-1,1.2c-0.2,0.4-0.4,0.8-0.6,1.1
	c-0.1,0.4-0.3,0.5-0.5,0.5c-0.1,0-0.2,0-0.4-0.1l-2.1-0.8c-0.2-0.1-0.3-0.3-0.3-0.5c0-0.3,0.1-0.8,0.4-1.4c0.2-0.6,0.6-1.2,1.2-1.8
	c0.6-0.6,1.3-1.1,2.2-1.6c0.9-0.5,2-0.7,3.2-0.7c2,0,3.5,0.5,4.6,1.6c1.1,1.1,1.6,2.6,1.6,4.6c0,1.2-0.2,2.2-0.6,3.1
	c-0.4,0.9-0.9,1.6-1.5,2.3c-0.6,0.7-1.3,1.3-2,1.8c-0.7,0.6-1.4,1.1-2.1,1.6c-0.5,0.4-0.9,0.8-1.2,1.1c-0.3,0.3-0.5,0.6-0.7,0.9
	c-0.2,0.2-0.3,0.5-0.3,0.8c-0.1,0.3-0.1,0.5-0.1,0.9h7.7c0.3,0,0.5,0,0.6,0.1c0.1,0.1,0.1,0.3,0.1,0.6V217.5z"/>
<path class="st0" d="M40.2,207.3c0,3.7-0.7,6.6-2,8.6c-1.3,1.9-3.2,2.9-5.8,2.9c-2.5,0-4.5-1-5.8-2.9c-1.3-2-2-4.8-2-8.5
	c0-3.7,0.6-6.6,1.9-8.5c1.3-2,3.2-2.9,5.8-2.9c2.5,0,4.5,1,5.8,2.9C39.6,200.7,40.2,203.6,40.2,207.3 M32.5,215.3
	c0.7,0,1.3-0.2,1.8-0.6c0.5-0.4,0.8-0.9,1.1-1.7c0.3-0.7,0.4-1.5,0.5-2.5c0.1-1,0.2-2,0.2-3.1c0-1.1-0.1-2.1-0.2-3.1
	c-0.1-1-0.3-1.8-0.5-2.5c-0.3-0.7-0.6-1.3-1.1-1.7c-0.5-0.4-1.1-0.6-1.8-0.6c-0.7,0-1.3,0.2-1.8,0.6c-0.5,0.4-0.8,1-1.1,1.7
	c-0.3,0.7-0.5,1.6-0.6,2.5c-0.1,1-0.1,2-0.1,3.1c0,1.1,0,2.1,0.1,3.1c0.1,1,0.3,1.8,0.6,2.5c0.3,0.7,0.6,1.3,1.1,1.7
	C31.2,215,31.8,215.3,32.5,215.3"/>
<path class="st0" d="M54.6,217.8c0,0.2,0,0.3-0.1,0.4c-0.1,0.1-0.2,0.1-0.4,0.1h-10c-0.2,0-0.3,0-0.4-0.1c0-0.1-0.1-0.2-0.1-0.4
	v-2.1c0-0.2,0-0.3,0.1-0.4c0.1-0.1,0.2-0.1,0.4-0.1h3.3v-13.8l-3.5,2.2c-0.1,0-0.2,0.1-0.2,0.1c-0.1,0-0.1,0.1-0.2,0.1
	c-0.1,0-0.3-0.2-0.4-0.4l-0.9-1.5c-0.1-0.1-0.1-0.2-0.1-0.4c0-0.2,0.1-0.3,0.4-0.5l6.2-4.4h2.3c0.3,0,0.5,0,0.6,0.1
	c0,0.1,0.1,0.3,0.1,0.5v18.1h2.6c0.2,0,0.3,0,0.4,0.1c0,0.1,0.1,0.2,0.1,0.4V217.8z"/>
<path class="st0" d="M69.6,218.1c0,0.3,0,0.5-0.1,0.5c-0.1,0.1-0.3,0.1-0.5,0.1h-2.8c-0.3,0-0.5,0-0.5-0.1c-0.1-0.1-0.1-0.3-0.1-0.5
	v-4.2h-8c-0.3,0-0.5,0-0.6-0.1c-0.1-0.1-0.1-0.3-0.1-0.5v-3.4l8.1-13.5c0.2-0.3,0.3-0.4,0.4-0.4c0.1,0,0.2,0,0.2,0
	c0,0,0.1,0.1,0.2,0.1l1.9,0.8c0.1,0,0.2,0.1,0.4,0.1c0.1,0.1,0.2,0.2,0.2,0.3c0,0.1,0,0.2-0.1,0.2c0,0.1-0.1,0.2-0.1,0.2l-7.6,12.9
	h5l0.5-5.3c0-0.3,0.1-0.4,0.2-0.5c0.1-0.1,0.3-0.1,0.5-0.1h2.3c0.3,0,0.5,0.1,0.5,0.1c0.1,0.1,0.1,0.3,0.1,0.5v5.2h1.8
	c0.3,0,0.5,0,0.6,0.1c0.1,0.1,0.1,0.3,0.1,0.7v1.8c0,0.3,0,0.4-0.1,0.5c-0.1,0.1-0.3,0.1-0.6,0.1h-1.8V218.1z"/>
<path class="st0" d="M23.1,246.7c0,0.3,0,0.5-0.1,0.6c-0.1,0.1-0.3,0.1-0.5,0.1H10.7c-0.2,0-0.3,0-0.3-0.1c-0.1,0-0.1-0.2-0.1-0.4
	c0-0.9,0-1.6,0.1-2.2c0.1-0.6,0.2-1.1,0.2-1.5c0.1-0.4,0.2-0.7,0.3-1c0.1-0.3,0.2-0.5,0.3-0.7c0.3-0.7,0.7-1.3,1.2-1.8
	c0.5-0.6,1.1-1.1,1.7-1.6c0.6-0.5,1.2-1,1.8-1.5c0.6-0.4,1.2-1,1.7-1.5c0.5-0.5,0.9-1.1,1.2-1.7c0.3-0.6,0.5-1.3,0.5-2.1
	c0-1-0.2-1.7-0.7-2.2c-0.5-0.4-1.1-0.7-2-0.7c-0.8,0-1.3,0.2-1.8,0.6c-0.4,0.3-0.7,0.7-1,1.1c-0.2,0.4-0.4,0.8-0.6,1.2
	c-0.1,0.3-0.3,0.5-0.5,0.5c-0.1,0-0.2,0-0.4-0.1l-2.1-0.8c-0.2-0.1-0.3-0.3-0.3-0.5c0-0.3,0.1-0.8,0.4-1.4c0.2-0.6,0.6-1.3,1.2-1.8
	c0.6-0.6,1.3-1.1,2.2-1.6c0.9-0.4,2-0.7,3.2-0.7c2,0,3.5,0.5,4.6,1.6c1.1,1,1.6,2.6,1.6,4.6c0,1.2-0.2,2.3-0.6,3.1
	c-0.4,0.8-0.9,1.6-1.5,2.3c-0.6,0.7-1.3,1.2-2,1.8c-0.7,0.6-1.4,1.1-2.1,1.7c-0.5,0.4-0.9,0.8-1.2,1.1c-0.3,0.3-0.5,0.6-0.7,0.9
	c-0.2,0.3-0.3,0.5-0.3,0.8c-0.1,0.3-0.1,0.5-0.1,0.9h7.7c0.3,0,0.5,0,0.6,0.1c0.1,0.1,0.1,0.3,0.1,0.5V246.7z"/>
<path class="st0" d="M40.2,236.5c0,3.7-0.7,6.6-2,8.5c-1.3,2-3.2,2.9-5.8,2.9c-2.5,0-4.5-1-5.8-2.9c-1.3-1.9-2-4.8-2-8.5
	c0-3.7,0.6-6.5,1.9-8.5c1.3-2,3.2-2.9,5.8-2.9c2.5,0,4.5,1,5.8,2.9C39.6,229.9,40.2,232.7,40.2,236.5 M32.5,244.4
	c0.7,0,1.3-0.2,1.8-0.6c0.5-0.4,0.8-1,1.1-1.7c0.3-0.7,0.4-1.6,0.5-2.5c0.1-0.9,0.2-2,0.2-3.1c0-1.1-0.1-2.1-0.2-3.1
	c-0.1-1-0.3-1.8-0.5-2.5c-0.3-0.7-0.6-1.3-1.1-1.7c-0.5-0.4-1.1-0.6-1.8-0.6c-0.7,0-1.3,0.2-1.8,0.6c-0.5,0.4-0.8,1-1.1,1.7
	c-0.3,0.7-0.5,1.6-0.6,2.5c-0.1,1-0.1,2-0.1,3.1c0,1.1,0,2.1,0.1,3.1c0.1,1,0.3,1.8,0.6,2.5c0.3,0.7,0.6,1.3,1.1,1.7
	C31.2,244.2,31.8,244.4,32.5,244.4"/>
<path class="st0" d="M54.8,246.7c0,0.3,0,0.5-0.1,0.6c-0.1,0.1-0.3,0.1-0.5,0.1H42.4c-0.2,0-0.3,0-0.3-0.1c-0.1,0-0.1-0.2-0.1-0.4
	c0-0.9,0-1.6,0.1-2.2c0.1-0.6,0.2-1.1,0.2-1.5c0.1-0.4,0.2-0.7,0.3-1c0.1-0.3,0.2-0.5,0.3-0.7c0.3-0.7,0.7-1.3,1.2-1.8
	c0.5-0.6,1.1-1.1,1.7-1.6c0.6-0.5,1.2-1,1.9-1.5c0.6-0.4,1.2-1,1.7-1.5c0.5-0.5,0.9-1.1,1.2-1.7c0.3-0.6,0.5-1.3,0.5-2.1
	c0-1-0.2-1.7-0.7-2.2c-0.5-0.4-1.1-0.7-2-0.7c-0.7,0-1.3,0.2-1.7,0.6c-0.4,0.3-0.7,0.7-1,1.1c-0.2,0.4-0.4,0.8-0.6,1.2
	c-0.1,0.3-0.3,0.5-0.5,0.5c-0.1,0-0.2,0-0.3-0.1l-2.1-0.8c-0.2-0.1-0.4-0.3-0.4-0.5c0-0.3,0.1-0.8,0.4-1.4c0.2-0.6,0.7-1.3,1.2-1.8
	c0.6-0.6,1.3-1.1,2.2-1.6c0.9-0.4,2-0.7,3.2-0.7c2,0,3.5,0.5,4.6,1.6c1.1,1,1.6,2.6,1.6,4.6c0,1.2-0.2,2.3-0.6,3.1
	c-0.4,0.8-0.9,1.6-1.5,2.3c-0.6,0.7-1.3,1.2-2,1.8c-0.7,0.6-1.4,1.1-2.1,1.7c-0.5,0.4-0.9,0.8-1.2,1.1c-0.3,0.3-0.5,0.6-0.7,0.9
	c-0.2,0.3-0.3,0.5-0.3,0.8c-0.1,0.3-0.1,0.5-0.1,0.9h7.7c0.3,0,0.5,0,0.6,0.1c0.1,0.1,0.1,0.3,0.1,0.5V246.7z"/>
<path class="st0" d="M71.9,236.5c0,3.7-0.7,6.6-2,8.5c-1.3,2-3.2,2.9-5.8,2.9c-2.6,0-4.5-1-5.8-2.9c-1.3-1.9-2-4.8-2-8.5
	c0-3.7,0.6-6.5,1.9-8.5c1.3-2,3.2-2.9,5.8-2.9c2.5,0,4.4,1,5.8,2.9C71.3,229.9,71.9,232.7,71.9,236.5 M64.2,244.4
	c0.7,0,1.3-0.2,1.8-0.6c0.5-0.4,0.8-1,1.1-1.7c0.3-0.7,0.4-1.6,0.5-2.5c0.1-0.9,0.2-2,0.2-3.1c0-1.1-0.1-2.1-0.2-3.1
	c-0.1-1-0.3-1.8-0.5-2.5c-0.3-0.7-0.6-1.3-1.1-1.7c-0.5-0.4-1.1-0.6-1.8-0.6c-0.7,0-1.3,0.2-1.8,0.6c-0.5,0.4-0.8,1-1.1,1.7
	c-0.3,0.7-0.5,1.6-0.5,2.5c-0.1,1-0.2,2-0.2,3.1c0,1.1,0,2.1,0.2,3.1c0.1,1,0.3,1.8,0.5,2.5c0.3,0.7,0.6,1.3,1.1,1.7
	C62.9,244.2,63.5,244.4,64.2,244.4"/>
<path class="st0" d="M96.5,245.8c0,1.4-0.3,1.5-1.6,1.5H75.7c-1.3,0-1.6-0.2-1.6-1.5v-4c0-1.4,0.3-1.6,1.6-1.6h3.9v-36.5h-3.9
	c-1.3,0-1.6-0.2-1.6-1.6v-4c0-1.3,0.3-1.6,1.6-1.6h17.8c6.2,0,17.7,0,17.7,13.9c0,12.2-9.3,16.5-17.3,16.5h-4v13.2h5
	c1.3,0,1.6,0.2,1.6,1.6V245.8 M92.2,219.3c4.5,0,8.8-0.7,8.8-8.2c0-6.4-4.1-6.7-8-6.7h-3.1v14.9H92.2z"/>
<path class="st0" d="M131.5,249c-11.8,0-18.9-8.7-18.9-26.6c0-18,7.2-26.6,18.9-26.6c11.7,0,18.9,8.7,18.9,26.6
	C150.4,240.3,143.3,249,131.5,249 M139.6,222.4c0-11.6-2.4-18.9-8.1-18.9c-5.7,0-8.1,7.3-8.1,18.9c0,11.5,2.4,18.8,8.1,18.8
	C137.2,241.2,139.6,234,139.6,222.4"/>
<path class="st0" d="M193.3,245.8c0,1.4-0.3,1.5-1.6,1.5h-9.7c-1.2,0-1.2-0.1-1.7-1l-10.3-19.9h-3.6v13.8h3.6c1.3,0,1.6,0.2,1.6,1.6
	v4c0,1.4-0.3,1.5-1.6,1.5h-17.7c-1.3,0-1.6-0.2-1.6-1.5v-4c0-1.4,0.3-1.6,1.6-1.6h3.9v-36.5h-3.9c-1.3,0-1.6-0.2-1.6-1.6v-4
	c0-1.3,0.3-1.6,1.6-1.6h17.8c5.9,0,17.7,0.4,17.7,14.3c0,9.6-5.9,12.3-8.6,13.7l9.2,15.6h3.5c1.3,0,1.6,0.2,1.6,1.6V245.8
	 M168.3,218.6c4.9,0,9.1-0.7,9.1-7.6c0-6.4-4.3-6.7-8.3-6.7h-2.8v14.2H168.3z"/>
<rect x="9.5" y="187.8" class="st0" width="183.8" height="1.4"/>
<path class="st0" d="M12.3,268.5c0,0.4-0.1,0.4-0.4,0.4h-1.8c-0.3,0-0.4,0-0.4-0.4v-12.6c0-0.4,0.1-0.4,0.4-0.4h3.2
	c1.6,0,4.5,0,4.5,3.7c0,3.2-2.4,4.4-4.5,4.4h-1V268.5 M12.9,261.5c1.2,0,2.2-0.2,2.2-2.2c0-1.7-1-1.8-2-1.8h-0.8v3.9H12.9z"/>
<path class="st0" d="M21.4,268.5c0,0.4-0.1,0.4-0.4,0.4h-1.8c-0.3,0-0.4,0-0.4-0.4v-12.6c0-0.4,0.1-0.4,0.4-0.4h3.2
	c1.5,0,4.6,0.1,4.6,3.8c0,2.5-1.5,3.2-2.2,3.6l2.9,5.2c0.1,0.1,0.2,0.3,0.2,0.4c0,0.1-0.2,0.2-0.4,0.2l-1.6,0.5
	c-0.1,0-0.2,0.1-0.3,0.1c-0.1,0-0.3-0.3-0.5-0.6l-2.6-5.3h-0.9V268.5 M21.9,261.3c1.3,0,2.4-0.2,2.4-2c0-1.7-1.1-1.8-2.1-1.8h-0.7
	v3.8H21.9z"/>
<path class="st0" d="M32.7,269.2c-3,0-4.9-2.3-4.9-7.1c0-4.8,1.9-7.1,4.9-7.1c3,0,4.9,2.3,4.9,7.1C37.6,266.9,35.7,269.2,32.7,269.2
	 M34.8,262.2c0-3.1-0.6-5-2.1-5c-1.5,0-2.1,1.9-2.1,5c0,3,0.6,5,2.1,5C34.2,267.1,34.8,265.2,34.8,262.2"/>
<path class="st0" d="M47.9,267.7c0,0.8-2.3,1.5-3.9,1.5c-3.5,0-5.3-2.2-5.3-7c0-4.7,1.8-7.2,5.3-7.2c1.8,0,3.6,0.9,3.6,1.2
	c0,0.1,0,0.2-0.1,0.3l-0.6,1.3c-0.1,0.2-0.1,0.2-0.2,0.2c-0.1,0-1.2-0.9-2.5-0.9c-2,0-2.6,1.8-2.6,4.9c0,3.1,0.5,5,2.6,5
	c0.7,0,1.2-0.2,1.4-0.3V264H44c-0.3,0-0.4-0.1-0.4-0.4v-1.3c0-0.4,0.1-0.4,0.4-0.4h3.4c0.3,0,0.4,0.1,0.4,0.4V267.7"/>
<path class="st0" d="M52,268.5c0,0.4-0.1,0.4-0.4,0.4h-1.8c-0.4,0-0.4,0-0.4-0.4v-12.6c0-0.4,0.1-0.4,0.4-0.4h3.2
	c1.5,0,4.6,0.1,4.6,3.8c0,2.5-1.5,3.2-2.2,3.6l2.9,5.2c0.1,0.1,0.2,0.3,0.2,0.4c0,0.1-0.2,0.2-0.4,0.2l-1.6,0.5
	c-0.1,0-0.2,0.1-0.3,0.1c-0.1,0-0.2-0.3-0.4-0.6l-2.6-5.3H52V268.5 M52.5,261.3c1.3,0,2.3-0.2,2.3-2c0-1.7-1.1-1.8-2.1-1.8H52v3.8
	H52.5z"/>
<path class="st0" d="M61.5,268.5c-0.1,0.4-0.1,0.4-0.4,0.4h-2c-0.3,0-0.4,0-0.4-0.2c0-0.1,0.1-0.3,0.1-0.3l3.9-12.6
	c0.1-0.3,0.1-0.3,0.4-0.3h2c0.3,0,0.3,0.1,0.4,0.3l3.8,12.6c0,0.1,0.1,0.3,0.1,0.3c0,0.2-0.2,0.2-0.4,0.2h-2.2c-0.2,0-0.2,0-0.3-0.4
	l-0.9-3.2h-3.4L61.5,268.5 M64.4,260.2c-0.2-0.8-0.3-1.9-0.4-2.8h0c-0.1,0.9-0.3,1.9-0.4,2.8l-0.9,3.4h2.6L64.4,260.2z"/>
<path class="st0" d="M81.6,268.5c0,0.4-0.1,0.4-0.4,0.4h-1.7c-0.3,0-0.4,0-0.4-0.4l-0.2-6.6c0-0.7-0.1-2.4-0.1-3.1h0
	c-0.1,0.7-0.5,2.3-0.7,3l-1.2,3.9c-0.1,0.3-0.1,0.3-0.4,0.3h-1.2c-0.3,0-0.3-0.1-0.4-0.3l-1.1-3.9c-0.2-0.7-0.6-2.4-0.7-3h0
	c0,0.7,0,2.4,0,3.1l-0.2,6.6c0,0.4,0,0.4-0.4,0.4h-1.4c-0.3,0-0.4,0-0.4-0.4l0.6-12.6c0-0.4,0.1-0.4,0.4-0.4h1.9
	c0.3,0,0.3,0,0.4,0.3l1.6,5c0.3,0.8,0.5,1.6,0.6,2.4h0c0.1-0.8,0.2-1.1,0.6-2.4l1.7-5c0.1-0.3,0.1-0.3,0.5-0.3h1.9
	c0.3,0,0.4,0.1,0.4,0.6L81.6,268.5"/>
<path class="st0" d="M94.2,268.5c0,0.4-0.1,0.4-0.4,0.4h-1.7c-0.3,0-0.4,0-0.4-0.4l-0.1-6.6c0-0.7-0.1-2.4-0.1-3.1h0
	c-0.1,0.7-0.5,2.3-0.7,3l-1.2,3.9c-0.1,0.3-0.1,0.3-0.4,0.3h-1.2c-0.3,0-0.3-0.1-0.4-0.3l-1.1-3.9c-0.2-0.7-0.6-2.4-0.7-3h0
	c0,0.7,0,2.4,0,3.1l-0.2,6.6c0,0.4-0.1,0.4-0.4,0.4h-1.4c-0.3,0-0.4,0-0.4-0.4l0.5-12.6c0-0.4,0.1-0.4,0.4-0.4h1.9
	c0.3,0,0.3,0,0.4,0.3l1.6,5c0.3,0.8,0.5,1.6,0.6,2.4h0.1c0.1-0.8,0.2-1.1,0.6-2.4l1.7-5c0.1-0.3,0.1-0.3,0.5-0.3h1.9
	c0.3,0,0.4,0.1,0.4,0.6L94.2,268.5"/>
<path class="st0" d="M98,268.5c-0.1,0.4-0.1,0.4-0.4,0.4h-2c-0.3,0-0.4,0-0.4-0.2c0-0.1,0.1-0.3,0.1-0.3l3.9-12.6
	c0.1-0.3,0.1-0.3,0.4-0.3h2.1c0.3,0,0.3,0.1,0.4,0.3l3.8,12.6c0,0.1,0.1,0.3,0.1,0.3c0,0.2-0.2,0.2-0.4,0.2h-2.2
	c-0.2,0-0.2,0-0.3-0.4l-0.9-3.2h-3.4L98,268.5 M100.9,260.2c-0.2-0.8-0.3-1.9-0.4-2.8h0c-0.1,0.9-0.2,1.9-0.4,2.8l-0.9,3.4h2.6
	L100.9,260.2z"/>
<path class="st0" d="M115.8,269.2c-3.1,0-4.9-2.3-4.9-7.1c0-4.8,1.9-7.1,4.9-7.1c3,0,4.9,2.3,4.9,7.1
	C120.6,266.9,118.8,269.2,115.8,269.2 M117.8,262.2c0-3.1-0.6-5-2.1-5c-1.5,0-2.1,1.9-2.1,5c0,3,0.7,5,2.1,5
	C117.2,267.1,117.8,265.2,117.8,262.2"/>
<path class="st0" d="M124.6,268.5c0,0.4-0.1,0.4-0.5,0.4h-1.8c-0.3,0-0.4,0-0.4-0.4v-12.6c0-0.4,0.1-0.4,0.4-0.4h3.2
	c1.6,0,4.6,0,4.6,3.7c0,3.2-2.4,4.4-4.5,4.4h-1V268.5 M125.1,261.5c1.2,0,2.2-0.2,2.2-2.2c0-1.7-1-1.8-2.1-1.8h-0.8v3.9H125.1z"/>
<path class="st0" d="M138.5,268.5c0,0.4-0.1,0.4-0.4,0.4h-6.5c-0.3,0-0.4,0-0.4-0.4v-12.6c0-0.4,0.1-0.4,0.4-0.4h6.4
	c0.4,0,0.5,0,0.5,0.2c0,0.1,0,0.2,0,0.3l-0.4,1.3c-0.1,0.3-0.3,0.3-0.5,0.3h-3.8v3.2h3.3c0.3,0,0.4,0.1,0.4,0.4v1.3
	c0,0.4-0.1,0.4-0.4,0.4h-3.3v3.8h4.2c0.3,0,0.4,0,0.4,0.4V268.5"/>
<path class="st0" d="M142.2,268.5c0,0.4-0.1,0.4-0.4,0.4H140c-0.3,0-0.4,0-0.4-0.4v-12.6c0-0.4,0.1-0.4,0.4-0.4h3.2
	c1.5,0,4.5,0.1,4.5,3.8c0,2.5-1.5,3.2-2.2,3.6l2.9,5.2c0,0.1,0.2,0.3,0.2,0.4c0,0.1-0.2,0.2-0.4,0.2l-1.7,0.5
	c-0.1,0-0.2,0.1-0.3,0.1c-0.1,0-0.3-0.3-0.5-0.6l-2.6-5.3h-1V268.5 M142.7,261.3c1.3,0,2.4-0.2,2.4-2c0-1.7-1.1-1.8-2.2-1.8h-0.7
	v3.8H142.7z"/>
<path class="st0" d="M151.7,268.5c-0.1,0.4-0.1,0.4-0.4,0.4h-2c-0.2,0-0.4,0-0.4-0.2c0-0.1,0.1-0.3,0.1-0.3l3.9-12.6
	c0.1-0.3,0.1-0.3,0.4-0.3h2.1c0.3,0,0.3,0.1,0.4,0.3l3.8,12.6c0,0.1,0.1,0.3,0.1,0.3c0,0.2-0.2,0.2-0.4,0.2h-2.2
	c-0.2,0-0.3,0-0.4-0.4l-0.9-3.2h-3.4L151.7,268.5 M154.6,260.2c-0.2-0.8-0.3-1.9-0.4-2.8h0c-0.1,0.9-0.3,1.9-0.5,2.8l-0.9,3.4h2.6
	L154.6,260.2z"/>
<path class="st0" d="M163.5,268.5c0,0.4-0.1,0.4-0.4,0.4h-1.8c-0.3,0-0.4,0-0.4-0.4v-10.6h-2.6c-0.3,0-0.3-0.1-0.3-0.3v-1.7
	c0-0.3,0.1-0.3,0.3-0.3h8.1c0.4,0,0.5,0,0.5,0.2c0,0.1,0,0.2-0.1,0.3l-0.4,1.5c-0.1,0.3-0.3,0.3-0.5,0.3h-2.4V268.5"/>
<path class="st0" d="M173,268.5c0,0.4-0.1,0.4-0.4,0.4h-4.8c-0.3,0-0.4,0-0.4-0.4v-1.1c0-0.3,0.1-0.4,0.4-0.4h1.1v-9.7h-1.1
	c-0.3,0-0.4-0.1-0.4-0.4v-1.1c0-0.4,0.1-0.4,0.4-0.4h4.8c0.3,0,0.4,0,0.4,0.4v1.1c0,0.3-0.1,0.4-0.4,0.4h-1.1v9.7h1.1
	c0.3,0,0.4,0.1,0.4,0.4V268.5"/>
<path class="st0" d="M180.4,268.7c-0.1,0.3-0.1,0.3-0.4,0.3h-2.2c-0.3,0-0.4-0.1-0.4-0.3l-3.4-12.4c0-0.1-0.1-0.3-0.1-0.4
	c0-0.1,0.2-0.2,0.4-0.2l2-0.3c0.1,0,0.1,0,0.3,0c0.1,0,0.2,0,0.3,0.4l1.6,7.9c0.1,0.6,0.4,2.1,0.5,2.9h0.1c0.1-0.9,0.4-2.3,0.6-2.9
	l1.9-7.9c0.1-0.4,0.2-0.4,0.3-0.4c0.2,0,0.2,0,0.3,0l1.7,0.2c0.2,0,0.4,0.1,0.4,0.2c0,0.1-0.1,0.3-0.1,0.4L180.4,268.7"/>
<path class="st0" d="M188.6,269.2c-3,0-4.9-2.3-4.9-7.1c0-4.8,1.8-7.1,4.9-7.1c3,0,4.9,2.3,4.9,7.1
	C193.5,266.9,191.6,269.2,188.6,269.2 M190.7,262.2c0-3.1-0.6-5-2.1-5c-1.5,0-2.1,1.9-2.1,5c0,3,0.6,5,2.1,5
	C190.1,267.1,190.7,265.2,190.7,262.2"/>
<path class="st0" d="M12.4,288.7c0,0.3-0.1,0.4-0.4,0.4h-1.8c-0.3,0-0.4-0.1-0.4-0.4V276c0-0.3,0.1-0.4,0.4-0.4h3.2
	c1.5,0,4.6,0.1,4.6,3.8c0,2.5-1.5,3.3-2.2,3.6l2.9,5.2c0.1,0.1,0.2,0.3,0.2,0.4c0,0.1-0.2,0.1-0.4,0.2l-1.6,0.5c-0.1,0-0.2,0-0.3,0
	c-0.1,0-0.3-0.3-0.4-0.6l-2.7-5.3h-0.9V288.7 M12.9,281.5c1.3,0,2.4-0.2,2.4-2c0-1.7-1.1-1.8-2.1-1.8h-0.7v3.8H12.9z"/>
<path class="st0" d="M27.4,288.7c0,0.3-0.1,0.4-0.4,0.4h-6.5c-0.3,0-0.4-0.1-0.4-0.4V276c0-0.3,0.1-0.4,0.4-0.4H27
	c0.4,0,0.5,0,0.5,0.2c0,0.1,0,0.1,0,0.3l-0.4,1.3c-0.1,0.3-0.3,0.3-0.4,0.3h-3.8v3.2h3.3c0.4,0,0.4,0,0.4,0.4v1.3
	c0,0.3-0.1,0.4-0.4,0.4h-3.3v3.9H27c0.3,0,0.4,0.1,0.4,0.4V288.7"/>
<path class="st0" d="M37.8,287.9c0,0.8-2.3,1.6-3.9,1.6c-3.4,0-5.3-2.2-5.3-7c0-4.6,1.8-7.1,5.3-7.1c1.8,0,3.7,0.9,3.7,1.2
	c0,0,0,0.1-0.1,0.3l-0.6,1.3c-0.1,0.1-0.1,0.2-0.2,0.2c-0.1,0-1.2-0.9-2.5-0.9c-2,0-2.7,1.9-2.7,4.8c0,3,0.5,5,2.6,5
	c0.7,0,1.2-0.2,1.4-0.3v-2.9H34c-0.3,0-0.4,0-0.4-0.4v-1.3c0-0.4,0.1-0.4,0.4-0.4h3.4c0.3,0,0.4,0,0.4,0.4V287.9"/>
<path class="st0" d="M45,288.7c0,0.3-0.1,0.4-0.4,0.4h-4.8c-0.3,0-0.4-0.1-0.4-0.4v-1.1c0-0.4,0.1-0.5,0.4-0.5h1.1v-9.6h-1.1
	c-0.3,0-0.4-0.1-0.4-0.4V276c0-0.3,0.1-0.4,0.4-0.4h4.8c0.3,0,0.4,0.1,0.4,0.4v1.1c0,0.4-0.1,0.4-0.4,0.4h-1.1v9.6h1.1
	c0.3,0,0.4,0.1,0.4,0.5V288.7"/>
<path class="st0" d="M51.2,289.4c-3,0-4.9-2.3-4.9-7.1c0-4.8,1.9-7.1,4.9-7.1c3,0,4.9,2.3,4.9,7.1C56.1,287.1,54.3,289.4,51.2,289.4
	 M53.3,282.4c0-3-0.6-5-2.1-5c-1.4,0-2.1,2-2.1,5c0,3.1,0.6,5,2.1,5C52.7,287.3,53.3,285.4,53.3,282.4"/>
<path class="st0" d="M67.4,288.7c0,0.3-0.1,0.4-0.4,0.4h-1.3c-0.3,0-0.3-0.1-0.4-0.3l-3.6-6.7c-0.6-1.1-0.9-1.8-1.1-2.6h0
	c0,0.3,0.1,1.2,0.1,2.1v7.1c0,0.3-0.1,0.4-0.4,0.4h-1.5c-0.3,0-0.4-0.1-0.4-0.4V276c0-0.3,0.1-0.4,0.4-0.4h1.6c0.3,0,0.4,0,0.5,0.2
	L64,282c0.5,1,0.9,2,1.2,2.8h0c0-0.6-0.1-2-0.1-2.5V276c0-0.3,0.1-0.4,0.4-0.4H67c0.4,0,0.4,0.1,0.4,0.4V288.7"/>
<path class="st0" d="M77.3,288.7c0,0.3-0.1,0.4-0.4,0.4h-6.4c-0.3,0-0.4-0.1-0.4-0.4V276c0-0.3,0.1-0.4,0.4-0.4h6.4
	c0.4,0,0.5,0,0.5,0.2c0,0.1,0,0.1-0.1,0.3l-0.4,1.3c-0.1,0.3-0.3,0.3-0.4,0.3h-3.8v3.2h3.3c0.4,0,0.4,0,0.4,0.4v1.3
	c0,0.3-0.1,0.4-0.4,0.4h-3.3v3.9h4.2c0.3,0,0.4,0.1,0.4,0.4V288.7"/>
<path class="st0" d="M92,288.7c-0.1,0.3-0.1,0.4-0.5,0.4h-6.4c-0.3,0-0.4-0.1-0.4-0.4V276c0-0.3,0.1-0.4,0.4-0.4H87
	c0.3,0,0.4,0.1,0.4,0.4v10.7h4.7c0.3,0,0.3,0.1,0.3,0.3c0,0,0,0.1,0,0.3L92,288.7"/>
<path class="st0" d="M96.1,288.7c-0.1,0.3-0.1,0.4-0.4,0.4h-2c-0.2,0-0.4-0.1-0.4-0.2c0-0.1,0.1-0.3,0.1-0.3l3.9-12.6
	c0.1-0.3,0.1-0.3,0.4-0.3h2c0.3,0,0.3,0.1,0.4,0.3l3.9,12.6c0,0.1,0.1,0.2,0.1,0.3c0,0.1-0.2,0.2-0.4,0.2h-2.2
	c-0.2,0-0.2-0.1-0.3-0.4l-0.9-3.2h-3.4L96.1,288.7 M98.9,280.3c-0.2-0.8-0.4-1.9-0.4-2.8h0c-0.1,0.8-0.3,2-0.5,2.8l-0.9,3.4h2.6
	L98.9,280.3z"/>
<path class="st0" d="M113.3,288.7c-0.1,0.3-0.1,0.4-0.4,0.4H105c-0.3,0-0.3-0.1-0.3-0.3v-1.6l5.3-9.1h-4.8c-0.2,0-0.3-0.1-0.3-0.2
	c0-0.1,0-0.1,0-0.2l0.4-1.5c0.1-0.3,0.1-0.4,0.4-0.4h6.7c0.4,0,0.4,0.1,0.4,0.4v1.8l-5.2,8.9h5.6c0.2,0.1,0.3,0.1,0.3,0.3
	c0,0,0,0.1,0,0.2L113.3,288.7"/>
<path class="st0" d="M119.9,288.7c0,0.3-0.1,0.4-0.4,0.4h-4.8c-0.3,0-0.4-0.1-0.4-0.4v-1.1c0-0.4,0.1-0.5,0.4-0.5h1.1v-9.6h-1.1
	c-0.3,0-0.4-0.1-0.4-0.4V276c0-0.3,0.1-0.4,0.4-0.4h4.8c0.3,0,0.4,0.1,0.4,0.4v1.1c0,0.4-0.1,0.4-0.4,0.4h-1.1v9.6h1.1
	c0.3,0,0.4,0.1,0.4,0.5V288.7"/>
<path class="st0" d="M126.1,289.4c-3,0-4.9-2.3-4.9-7.1c0-4.8,1.9-7.1,4.9-7.1c3,0,4.9,2.3,4.9,7.1
	C131,287.1,129.2,289.4,126.1,289.4 M128.2,282.4c0-3-0.6-5-2.1-5c-1.5,0-2.1,2-2.1,5c0,3.1,0.6,5,2.1,5
	C127.6,287.3,128.2,285.4,128.2,282.4"/>
<polygon class="st1" points="122.6,5.9 106,30.5 80.6,26.3 105.2,45.2 105.2,73.5 118.5,54.7 147.7,57.1 125.9,42.8 143.8,23.1 
	123.1,30 "/>
<path class="st0" d="M153.8,77.3c0-0.1-0.2-0.2-0.4-0.3L153.8,77.3z"/>
<path class="st0" d="M151,76.5L151,76.5C151,76.5,151,76.5,151,76.5"/>
<path class="st0" d="M151,76.5L151,76.5C151,76.6,151,76.6,151,76.5C151,76.6,151,76.6,151,76.5"/>
<path class="st0" d="M153.4,77l-0.2-0.2C153.2,76.9,153.3,76.9,153.4,77"/>
<path class="st0" d="M175.4,91.2L175.4,91.2C175.4,91.2,175.4,91.2,175.4,91.2L175.4,91.2z"/>
<path class="st0" d="M176,91.4c0,0,0,0.1,0,0.1C176.1,91.5,176.1,91.5,176,91.4"/>
<path class="st0" d="M16.1,142.3c-0.2,0.3-0.4,0.6-0.5,0.9C15.9,143,16.1,142.7,16.1,142.3"/>
<path class="st0" d="M12.9,134.4c-0.7,2-1,3.4-1.7,5.1c-0.3,1.6-0.4,3.2-0.8,4.8c-0.2,0.4-0.5,0.7-0.8,1l1.4-1.2
	c0.7-0.5-0.3-2.2,0-3.5c0-0.2,1.1,0.5,1.1,0c0.1-1,0-2,0.4-2.7c-0.1-0.5,1.5-0.3,1.4-0.8C14,136.1,13.4,133.1,12.9,134.4"/>
<path class="st0" d="M59.9,101.7c-0.1,0.1,0-1.2-0.2-0.9c-0.4,0.4-0.8,1-1.1,1c-0.2,0.3-0.4-1.2-0.5-0.9c-0.4,0.4-1.5,2.2-0.9,2.1
	c0.9-0.2,1.5-0.5,2.3-0.7l2-1.6c0.2-0.1,0.4,0.1,0.5,0.2l-0.7-0.7C60.9,99.7,60.4,101.5,59.9,101.7"/>
<path class="st0" d="M58.3,99.4l0.3-0.1c-0.2-0.7-0.7-1.6-0.7-1.6c-1.1,0-2.2-0.1-3.2-0.3c-0.1,0.3-0.1,0.6-0.3,0.4
	c-0.1-0.3-0.2-0.4-0.2-0.5l-0.4-0.1l-0.2,0.1l0.1-0.1l-1-0.2l-0.2,0.1c-0.3,0.2-0.5,0.4-0.6-0.3l-0.2,0l0,0.1l-0.1-0.1l-0.8-0.2
	l-1.6-0.4c-2.8-0.7-5.5-0.8-8.4-1.2c1.6-2.4,3.4-4.8,5.1-7c5.1-6.3,8-13.3,16-14.9c2.9-0.6,6.9-3.6,9.6-4.7c2.5-3.7-1.3-8.4-1.7-8.6
	c-4.3-3.4-5.3-0.5-11.6,0c4.2-0.5-0.8,4-5.7,3.7c-8.1-0.6-10.7,9.1-15.1,13.9c-1.1,1.2-1.9,2.9-2.8,4.6c-2.6,3.2-4.4,6.7-6,10.4
	c-1.8-0.1-3.5-0.5-5.4-2.3c-1.4-1.2-3.9-0.5-5.2-0.3c-1.8,2.3-0.8,8.2-0.8,8.5c1.1,5,2,2.2,4.2,5.1c-1.5-1.6,1.1-3.2,2.6,0.2
	c-0.6,1.4-1.3,2.9-2,4.3c-1.1,2.4-0.9,5.1-1.2,7.4c-0.4,1.6-1.8,2.9-2.3,4.1c-0.9,1.9-1.2,3.7-1.4,5.5c0.6-1.8,0.8-3.2,1.5-5.2
	c0.5-1.3,1.2,1.6,1.2,2.6c0.1,0.5-1.5,0.4-1.4,0.9c-0.4,0.8-0.2,1.8-0.2,2.8c0.1,0.5-1.1-0.1-1.1,0.1c-0.3,1.3,0.9,2.9,0.2,3.5
	l-1.3,1.3l-0.5,0.9v0.8c0,1.9-0.2,3.9-0.5,5.8l0.1,0l-0.2,0.6c0.8-0.1,2.2-0.9,2.2-0.9c1.1-2.4,2.3-4.7,3.5-6.8
	c-0.2-0.3-0.4-0.5-0.1-0.7l0.7-0.3l0.5-0.9l0.1-0.4l0.1,0.2l1.2-2.1l0.1-0.5c0.1-0.6,0.2-1.2,0.9-1.3l0.2-0.4l-0.1,0l0.2-0.1
	l0.9-1.6l1.8-3.2c2.7-4.6,4.9-9,7.2-13.5c3.8,1.3,7.3-0.8,11.2-0.4c1.1,0,2-1.3,3-2c0.7-0.2,1.4,0.4,1.9,0.4c0.9,0,1.6-0.5,2.3-1.1
	c-0.8,0.3-1.4,0.6-2.3,0.8c-0.6,0.1,0.5-1.8,0.8-2.1c0.2-0.3,0.4,1.2,0.6,0.9c0.4,0,0.7-0.6,1.1-1c0.2-0.3,0.1,1.1,0.2,0.9
	c0.5-0.3,1-2,1.3-1.6l0.7,0.7c0.1,0.1,0.3,0.2,0.4,0.1l0.3-0.3c0.7-0.8,1.6-1.5,2.3-2V99.4z M53.2,97.5c-0.1,0-0.1,0-0.1,0.1
	C53.1,97.5,53.2,97.5,53.2,97.5C53.2,97.5,53.3,97.5,53.2,97.5C53.3,97.5,53.2,97.5,53.2,97.5"/>
<path class="st0" d="M114,121.9l0.7,0.8l-0.1-0.7C114.6,121.7,114.3,121.8,114,121.9"/>
<polygon class="st0" points="115.6,123.4 115.8,123.4 115.4,123.3 "/>
<path class="st0" d="M116.3,123.7c0.1,0.2,0.4,0.5,0.7,0.5C116.9,123.9,116.6,123.8,116.3,123.7"/>
<path class="st0" d="M115.8,123.4L115.8,123.4l0.5,0.2l-0.2-0.6C116.1,123.2,116,123.4,115.8,123.4"/>
<path class="st0" d="M121.3,120.6c0.4-0.2,0,1.5,0.4,1.3c0.9-0.1,3-1.2,2.1-1.5c-1.4-0.3-2.3-0.5-3.6-1c-1.1-0.3-2.5-0.3-3.6-0.9
	c-0.3-0.2-0.4-0.5-0.6-0.8l0.5,1.4c0.1,0.8,2-0.1,2.9,0.2c0.2,0-0.6,1-0.2,1C120,120.6,120.8,120.3,121.3,120.6"/>
<path class="st0" d="M111.5,117.3c0.1-1.2-0.1-2.1-0.7-2.8c-0.3,0.2-0.7,0.4-0.7,0.7c0.2,0.1,0.7,0.3,0.7,0.3
	c-0.5,1.2,0.2,1.8,1.1,2.2l0.3-0.7C111.8,116.7,111.5,116.8,111.5,117.3"/>
<polygon class="st0" points="110.9,114.5 110.5,114.1 110.4,114.1 110.8,114.5 "/>
<path class="st0" d="M126.4,81.6c-0.1-0.1-0.1-0.2-0.2-0.3C126.3,81.4,126.3,81.5,126.4,81.6"/>
<path class="st0" d="M121,94.3c-0.1-0.1-0.1-0.1-0.2-0.2c1.8,1,4.7,1.6,5.8,2.2c2.1-1.3,6-5.8,5.7-6.4c0.8-5.5-2.2-4.3-5.8-8.3
	c2,2.4-3.2,1.8-6.3-1.7c-1.6-2.9-8.7-3.8-13.7,2.6c-4.8,10.2,1.6,13.9,2.1,16.7c0.8,1.6,2,2.7,3.2,4c2.3,3.8,6.2,6.9,8,8.3
	c2.6,2.5,5.4,5.1,7,8c0.8,1.2,2,1.8,2.8,2.2c-0.7,0.6-1.5,1.8-1.8,1.4l-1.1-0.7c-0.2-0.1-0.4-0.3-0.6-0.3l-0.5,0.2
	c-1.3,0.6-2.9,0.6-4.5,0.5l0,0.1l-0.5-0.2c-0.1,0.8,0.6,2.1,0.6,2.1c2.1,0.9,4.2,1.6,6.4,1.8c0.2-0.2,0.3-0.5,0.5-0.4
	c0.2,0.2,0.3,0.4,0.5,0.5l0.9,0.1l0.3-0.1l-0.2,0.1l2.2,0.1l0.4-0.2c0.5-0.3,0.9-0.6,1.5,0l0.4-0.1l-0.1-0.1l0.2,0
	c0.6-0.3,1.2-0.4,1.8-0.9c1.1-0.8,1.9-2.4,1.9-3.8c-0.7-8.6-5.8-12.8-10.1-18.9C125,100,122.7,97.3,121,94.3"/>
<path class="st0" d="M100.5,126.9c-0.4,0.2-0.8,0.2-1.2,0.3l0.7,0.2C100.3,127.5,100.4,127.2,100.5,126.9"/>
<path class="st0" d="M97.8,128.1c-0.2-0.1-0.3-0.3,0-0.4h0l-0.6,0.3L97.8,128.1z"/>
<polygon class="st0" points="97.9,127.5 97.7,127.6 98.1,127.4 "/>
<path class="st0" d="M97.1,127.9c-0.3,0-0.7,0-1.1,0.2C96.4,128.1,96.8,128,97.1,127.9"/>
<path class="st0" d="M97.8,132c-0.2,0.2-0.3-0.9-0.8-0.6c-1.2,0.4-2.2,0.9-3.4,1c-0.6,0.3-1.4-1.1-1.9-0.9c-1.2,0.3-4.9,0.8-2.9,1.3
	c3,0.4,5,0.3,7.6-0.2c2.1-0.6,3.9-1.6,5.6-2.6c0.5-0.2,1-0.4,1.5-0.5l-2.2,0.3C100.3,129.8,99.5,131.3,97.8,132"/>
<path class="st0" d="M106.8,125c1.4,0,2.5-0.7,3.5-1.4c-0.2-0.2-0.4-0.5-0.8-0.4c-0.1,0.2-0.4,0.7-0.4,0.7c-1.3-0.1-2,0.8-2.9,1.5
	l0.7,0.2C107.4,125.3,107.4,125,106.8,125"/>
<polygon class="st0" points="110.3,123.6 110.3,123.7 110.9,123.1 110.8,123.1 "/>
<path class="st0" d="M92.5,130.5L92.5,130.5l0.8-0.1c-0.6-0.6-2.1-1.5-2.1-1.5c-3.1-0.4-5.7-1.9-8-3.6c-0.3,0-0.6,0.1-0.7-0.2
	l-0.3-0.8l-0.9-0.9l-0.4-0.3l0.2,0.1l-1.9-2.1l-0.4-0.4c-0.5-0.5-1-1-0.8-1.6l-0.3-0.4l0,0.1l0-0.2l-1.1-1.8c-0.6-1.3-0.9-2.6-1.4-4
	c-1.3-4.5-2.1-9.1-1.9-13.7c0.2,0,0.3,0.1,0.4,0.1c-0.2,0-0.3-0.1-0.4-0.1c0-0.4,0-0.8,0.1-1.2c1.7-0.4,5.4-0.3,8,1
	c3.4,1.6,7.1,1.6,12.2-0.8c1.3-1.1,3.3-0.9,5.2-6c0.5-3.4,0-3.1,0-4.9c0.1-2.4-1-5.3-2.1-8.1c-1.6-2.9-4.6-5.3-8.4-6.2
	c-8.8-3.5-19.1,5-20.4,11.2c-0.5,1.3-0.9,2.7-1.3,4c-0.5,0-1-0.1-1.4-0.1c-3.8,1-3.6,5.7-3.2,6.2c0.9,1.8,1.9,2.6,3.2,3.1
	c-0.1,2.2-0.1,4.5,0.2,6.7c0.1,3.7,2.3,6.5,3.4,9.2c1,2,1.4,4.3,2.1,6c1.5,2.4,3.1,4.4,5,5.8c-1.8-1.9-3-3.4-4.8-5.8
	c-0.9-1.7,1.8,0.5,2.9,1.3c0.5,0.3,0,1.7,0.5,2c0.6,1,1.6,1.6,2.8,2.2c0.6,0.2-0.3,0.9,0,1c1.5,1.1,3.3,0.9,3.9,1.8l1.7,1.6l1.2,0.8
	l1,0.2C87.6,130.6,90.2,130.8,92.5,130.5 M76.7,87.2c1.9-4.6,6.5-5.4,9.3-4.3c3,0.9,0.5,3.5,3.9,6.3c-3.4-1.9-6.9,1.3-11.4-0.6
	c-0.7-0.1-1.5-0.2-2.4-0.2C76.3,88,76.5,87.6,76.7,87.2"/>
<path class="st0" d="M149.1,122.9l0.1,0.1C149.2,122.9,149.1,122.9,149.1,122.9"/>
<path class="st0" d="M151.8,113.1L151.8,113.1C151.8,113.1,151.8,113.1,151.8,113.1"/>
<path class="st0" d="M150,118.9c-0.1,0-0.1-0.1-0.2-0.1C149.9,118.8,149.9,118.9,150,118.9"/>
<line class="st2" x1="152.9" y1="104.1" x2="153" y2="104.2"/>
<line class="st2" x1="140.6" y1="101" x2="140.6" y2="100.9"/>
<path class="st0" d="M154.3,94.1c0,0,0.1,0.1,0.1,0.1C154.5,94.1,154.4,94.1,154.3,94.1"/>
<path class="st2" d="M154.3,88.8C154.3,88.8,154.3,88.8,154.3,88.8"/>
<path class="st0" d="M149.8,119.3C149.8,119.3,149.8,119.3,149.8,119.3C149.8,119.3,149.9,119.3,149.8,119.3"/>
<path class="st0" d="M141.4,114.7L141.4,114.7C141.4,114.7,141.4,114.7,141.4,114.7L141.4,114.7z"/>
<path class="st0" d="M141.8,114.9c0.1-0.1-0.1-0.2-0.4-0.2C141.4,114.8,141.5,114.8,141.8,114.9"/>
<path class="st2" d="M141.6,114.3C141.6,114.3,141.6,114.3,141.6,114.3"/>
<path class="st0" d="M140.5,118.2C140.6,118.2,140.6,118.2,140.5,118.2C140.6,118.2,140.6,118.2,140.5,118.2L140.5,118.2z"/>
<path class="st0" d="M140.7,117.4c-0.1,0-0.1,0-0.2,0C140.6,117.4,140.7,117.4,140.7,117.4"/>
<polygon class="st0" points="140.9,112.2 140.9,112.2 140.9,112.2 "/>
<path class="st0" d="M140.1,134.6C140.1,134.6,140.1,134.6,140.1,134.6C140.1,134.7,140.1,134.6,140.1,134.6"/>
<path class="st0" d="M140.9,115.5c0,0-0.1,0-0.1,0C140.8,115.5,140.9,115.5,140.9,115.5"/>
<path class="st0" d="M140.5,118.3L140.5,118.3c0-0.1-0.2-0.1-0.3-0.2L140.5,118.3z"/>
<path class="st0" d="M141.3,113.5c0,0-0.1,0-0.1,0C141.2,113.5,141.2,113.5,141.3,113.5"/>
<path class="st0" d="M140.5,112.2c0.1,0.1,0.2,0,0.4,0C140.8,112.2,140.6,112.2,140.5,112.2"/>
<path class="st0" d="M141.5,121.2c0,0-0.1,0-0.2,0C141.4,121.2,141.5,121.2,141.5,121.2"/>
<path class="st0" d="M141.4,119.2c0,0,0.1,0.1,0.2,0.1C141.5,119.3,141.5,119.3,141.4,119.2"/>
<path class="st0" d="M156.8,100c0,0.1,0.1,0.1,0.1,0.2C156.8,100.1,156.8,100,156.8,100"/>
<path class="st0" d="M160,99.8l0,0.1C160,99.9,160,99.8,160,99.8"/>
<path class="st0" d="M155,100.3C155,100.3,155,100.2,155,100.3c-0.1,0-0.1,0-0.1,0L155,100.3z"/>
<path class="st0" d="M166,97.9L166,97.9C166,97.9,166.1,97.9,166,97.9"/>
<path class="st0" d="M162.4,98.9c0-0.1,0-0.1,0-0.2C162.3,98.8,162.3,98.8,162.4,98.9"/>
<path class="st2" d="M151,98.3C151,98.3,151,98.4,151,98.3"/>
<line class="st2" x1="170.7" y1="94.8" x2="170.8" y2="94.9"/>
<line class="st2" x1="164" y1="84.1" x2="164" y2="84.1"/>
<path class="st0" d="M162.1,98.9C162.1,98.9,162,98.9,162.1,98.9C162.1,98.9,162.1,99,162.1,98.9"/>
<path class="st0" d="M159.1,90.3L159.1,90.3L159.1,90.3C159.1,90.3,159.1,90.3,159.1,90.3"/>
<path class="st0" d="M159.2,90.7c0.1,0,0-0.2-0.1-0.4C159.1,90.3,159.1,90.4,159.2,90.7"/>
<path class="st2" d="M159.4,90.3C159.4,90.3,159.4,90.3,159.4,90.3"/>
<path class="st0" d="M157.1,91C157.1,91,157.1,91,157.1,91C157.1,91,157.1,91,157.1,91L157.1,91z"/>
<path class="st0" d="M157.5,90.7c0,0.1,0.1,0.1,0.1,0.1C157.5,90.8,157.5,90.7,157.5,90.7"/>
<polygon class="st0" points="159.8,88.9 159.8,88.9 159.8,88.9 "/>
<path class="st0" d="M182.2,81.9c-0.3-0.3-0.4-0.6-0.9-0.9c-0.1-0.2,0.6,0.3,0.2,0c-0.3-0.1-0.8-0.8-1.4-1l0-0.1
	c-0.2-0.2,0.2,0.3-0.2-0.1l0.6,0.6c-0.1,0-0.3-0.1-0.5-0.3c0.2,0.3,1,1,0.6,0.8l0-0.1c-0.1,0.1-0.5-0.3-0.6-0.4l0,0l-0.4-0.2
	c0.3,0.1-0.2-0.4-0.2-0.3c-0.3-0.1,0.2,0.1,0.2,0.2c0,0.1-0.3-0.2-0.5-0.4l-0.1,0.1c-0.3-0.3,0.1,0-0.3-0.3l0.2,0.4
	c-0.8-0.6,0.2,0.4-0.5-0.1c-0.1-0.2-0.3-0.2-0.5-0.4l-0.1,0.2c-0.1-0.1-0.2-0.2-0.2-0.2c-0.2-0.1,0.1,0.2,0.1,0.2
	c-0.2-0.2-0.1,0.1-0.6-0.3c-0.4-0.2,0.6,0.6,0.2,0.5c-0.3-0.2,0-0.2-0.3-0.4l0,0.2c-0.1-0.1-0.5-0.5-0.3-0.4c-0.7,0-2.3-1.3-2.2-0.6
	c-0.4-0.3-0.2-0.2-0.4-0.5c0.3,0.6-1-0.4-1.1-0.2l0.3,0.3c-1.1-0.6-0.8,0.2-1.4,0.1l0.2,0.2c0.2,0.3,0.2,0.4,0.3,0.5
	c-0.1-0.1-0.5-0.6-0.5-0.4c0.1,0.1,0.2,0.2,0.4,0.3c-0.9-0.5-1.2,0.1-1.9,0.1c-0.3,0.7-1.3,0.7-1.7,1.3c0.1-0.1,0.7,0.7,0.4,0.5
	c-1.2-1.1-0.1,0.4-1-0.2c0,0.7-1.2-0.2-0.6,1l-0.3-0.3c-0.2-0.1,0,0.1,0,0.2l-0.1-0.1c-0.2,0,0,0.4-0.2,0.3l0.3,0.4
	c0,0.1-0.3-0.3-0.2,0l-0.2-0.2l0.2,0.4c-0.6-0.7-0.2,0.1-0.5-0.2c0,0.2,0.1,0.6-0.1,0.6c-0.3-0.3-0.5-0.2-0.7-0.3
	c-0.1,0.3-0.3,0.6-0.7,0.6l0.4,0.5l0,0.1c-0.1-0.1-0.1-0.1-0.2-0.2c-0.5-0.5,0,0.3-0.3,0c0.4,0.4,0.1,0,0.1,0
	c0.2,0.2,0.5,0.7,0.3,0.5l-0.1-0.1l0.1,0.3c-0.3-0.4-0.5-0.5-0.7-0.8c-0.2,0.2,0.2,1-0.2,1c-0.3-0.4-0.1,0.2-0.6-0.5
	c0.1,0.4,0.5,0.5,0.8,1.1c0,0,0.1,0.2-0.1,0c-0.1-0.2-0.4-0.4-0.4-0.5l0,0.1c0,0-0.1-0.2-0.1-0.2c0.1,0.5-0.7-0.2-0.5,0.3
	c0.2,0.3,0.1,0,0.3,0.3c0.2,0.6-0.5-0.3-0.4,0.1l-0.2-0.4c0.1,0.3,0.3,0.6,0,0.4c-0.3-0.4-0.2-0.4-0.3-0.6c-0.1,0-0.1,0.2,0.2,0.6
	c0,0.2-0.3-0.2-0.4-0.3c0.1,0.1,0.3,0.2,0.4,0.5c-0.3-0.2-0.4,0-0.5,0c-0.1-0.1-0.2-0.3-0.2-0.3c0.3,0.6-0.4-0.3-0.4-0.1
	c-0.2,0.4-0.3,1.3-0.7,1.3c0.3,0.6,0.2,0.7,0.2,0.9l-0.5-0.7l0.1,0.3c-0.2-0.2,0-0.2-0.3-0.4l0.3,0.5c-0.2-0.3-0.4,0-0.6-0.6
	l-0.3,0.2c-0.1,0,0.4,0.7,0.2,0.5c-0.2-0.2-0.1-0.2-0.3-0.4c-0.6-0.4,0.7,1.6,0.2,1.5l0-0.1c0.1,0.2,0,0.3,0.1,0.4
	c0.6,0.7-0.2-0.4,0.1,0c0.4,0.6,0.1,0.4,0.5,0.9c-0.2-0.2,0,0.2,0,0.3c-0.4-0.3-0.3,0-0.7-0.4c0.1,0.2,0.5,0.9,0.4,1
	c-0.4-0.5-0.3-0.5-0.5-0.6l0.2,0.4c-0.1,0-0.2-0.1-0.3-0.3c-0.1,0,0.3,0.6,0,0.4l-0.2-0.4c0,0.2,0,0.1-0.2,0.2
	c-0.1-0.2-0.1-0.2,0-0.2c-0.4-0.5,0.1,0.3,0,0.3c0.1,0.2,0.2,0.2,0.5,0.6c-0.1,0,0.2,0.6-0.1,0.2l-0.2-0.4c0.1,0.4,0.3,0.5,0,0.4
	c0,0-0.1-0.1-0.1-0.2c0.2,0.5-0.1,0.2-0.3,0.2l0-0.1c0,0.2,0.2,0.5,0.2,0.5c0.2,0.2,0.3,0.3,0.5,0.6c-0.5-0.6,0.3,0.8,0,0.5
	c-0.1-0.2-0.3-0.5-0.1-0.3c-0.4-0.7-0.7-1.2-0.8-1.5c0,0.2,0,0.3-0.1,0l0.4,0.6c0,0-0.1,0-0.1,0c0.2,0.4,0.5,0.6,0.6,0.9
	c0,0.2-0.4-0.6-0.3-0.3c0,0.3,0.4,0.7,0.1,0.5c0-0.1-0.1-0.2,0-0.1c-0.2-0.2-0.1,0.2-0.6-0.5c-0.1-0.2-0.2-0.4-0.2-0.3l0.1,0.1
	c-0.2-0.5,0,0.1-0.3-0.3c0.1,0.3,0,0.2-0.1,0.2l0.3,0.4c0.7,1.4-0.6-0.9-0.6-0.6c0.1,0.4,0.1,0.1,0.3,0.4c-0.1,0-0.4-0.4-0.4-0.1
	c-0.1-0.2-0.4-0.3-0.7-0.8c0.1,0.2-0.3-0.1-0.1,0.4c0.4,0.3-0.2-0.6,0.3,0l0.3,0.5c-0.1,0-0.1,0.3-0.2,0.2c0.1,0.1,0.2,0.2,0.2,0.3
	c0,0.3,0.3,0.8,0,0.7c-0.3-0.4-0.2-0.4-0.2-0.5c-0.3-0.3-0.1,0-0.3,0c-0.3-0.4,0.1,0-0.1-0.4l-0.1,0.2c0,0,0,0,0-0.1
	c0.4,0.7-0.1,0-0.1,0.3c-0.2,0.1,0.3,1,0.5,1.6c-0.1-0.2-0.3-0.3-0.3-0.5c0.2,0.3,0.1,0,0-0.1c0,0.1-0.5-0.5-0.7-0.8
	c0,0.3,0.3,0.3,0.3,0.6l-0.2,0c0.2,0.3,0.3,0.4,0.4,0.7c0,0.1-0.1,0.1-0.2,0.1c-0.1-0.2-0.3-0.5-0.3-0.5c-0.1-0.1-0.2-0.1,0,0.3
	c0.3,0.2,0,0.4,0.4,0.8l-0.3-0.2c0,0-0.1-0.2,0-0.2c-0.3-0.5,0,0.2,0,0.3c-0.1-0.1-0.2-0.1-0.3-0.3c0.1,0.2-0.1,0.1-0.3-0.2
	c0,0.1,0.2,0.3,0.3,0.5l-0.2,0c-0.2-0.3-0.7-1-0.7-1.2c0.1,0.3,0.5,0.8,0.4,0.9c-0.3-0.6-0.4-0.4-0.7-1c-0.3-0.4-0.4-0.3-0.4-0.1
	c0.2,0.5,0.2,0.2,0.5,0.6c-0.1,0.3,0.6,1.5,0.3,1.4l0.1,0.1c0.1,0.3,0,0.2,0.2,0.6c-0.3-0.6-1-1.4-1.1-1.2c0.2,0.3,0.4,0.5,0.6,0.9
	l-0.1,0.1c0,0-0.1-0.1-0.1-0.2c0,0.3-0.6-0.6-0.2,0l-0.6-0.7l0.2,0.3c0.2,0.3,0.1,0.4,0.1,0.5c0.1,0.4-0.1,0.2-0.4-0.2
	c0.2,0.2,0.5,0.7,0.5,0.8c-0.5-0.9-0.4-0.2-0.6-0.7c0,0-0.3-0.2,0,0.2l-0.3-0.5c0.1,0,0.1-0.1-0.1-0.2c0.1,0,0.3,0.1,0.4,0.1
	c-0.3-0.4-0.5-0.6-1.1-1c1.1,0.1,0-0.2,0.6-0.2l-0.4-0.1c0.3-0.1,0.4-0.2,0.7-0.2l-0.5-0.2l0.5,0c0.1-0.2-0.3-0.7,0.6-0.7
	c-0.6-0.6-0.4-1.4-0.2-2c-0.4-0.1-0.4-0.3-0.4-0.5l0.6-0.1c-0.2-0.2-0.8-0.4-0.5-0.5c0.1,0,0.1,0,0.1,0c-0.1-0.2,0.2-0.3-0.3-0.5
	c0-0.2,0.3-0.3,0.8-0.2c-0.9-0.1,0.2-0.3,0.2-0.3s0.2-0.5,0.4-1.3c0.2-0.8,0.5-1.8,0.6-3c0.1-1.1,0.1-2.3-0.2-3.4
	c-0.3-1.1-0.9-2.1-2-2.8c-0.4-0.2-0.7-0.4-1.2-0.5c-0.1-0.2,0.6-0.1,0.2-0.2c-0.3,0.1-1.1-0.3-1.7-0.3l-0.1-0.1
	c-0.3-0.1,0.3,0.3-0.2,0.1l0.8,0.2c-0.1,0.1-0.3,0.1-0.6,0.1c0.3,0.2,1.4,0.5,0.9,0.6l0-0.1c0,0.2-0.5,0-0.7,0l0,0l-0.4,0.1
	c0.3-0.1-0.3-0.4-0.3-0.3c-0.3,0.2,0.2,0,0.3,0.2c0,0.1-0.4,0-0.7-0.1l0,0.2c-0.4-0.1,0-0.1-0.4-0.1l0.3,0.3c-1-0.2,0.4,0.4-0.5,0.3
	c-0.2-0.2-0.3-0.1-0.6-0.1l0,0.4c-0.1,0-0.3-0.2-0.2-0.1c-0.3,0,0.2,0.2,0.2,0.2c-0.3,0-0.1,0.3-0.7,0.2c-0.5,0.2,0.8,0.3,0.4,0.5
	c-0.4,0,0-0.2-0.5-0.2l0.1,0.3c-0.2-0.1-0.6-0.2-0.5-0.3c-0.7,0.7-2.7,0.7-2.3,1.6c-0.5,0-0.3-0.1-0.6-0.2c0.5,0.6-1.1,0.6-1.1,1
	l0.4,0.1c-1.3,0.5-0.7,1.3-1.3,2l0.3-0.1c0.4,0.1,0.4,0.3,0.5,0.4c-0.2,0-0.8-0.2-0.7,0c0.1,0,0.3-0.1,0.5,0c-1.1,0.5-1,1.8-1.6,2.7
	c0.2,1.4-0.7,2.8-0.6,4.1c0-0.2,0.9,0,0.7,0.1c-1.6,0.3,0.2,0.7-0.9,1.1c0.5,0.8-1,1.4,0.2,2.1l-0.5,0c-0.2,0.1,0.1,0.1,0.1,0.2
	l-0.1,0c-0.2,0.2,0.3,0.6,0,0.7l0.5,0c0,0.2-0.4,0.1-0.1,0.2l-0.3,0l0.5,0.2c-0.9-0.1-0.1,0.4-0.5,0.5c0.1,0.2,0.5,0.6,0.3,0.9
	c-0.5,0-0.5,0.4-0.7,0.6c0.1,0.5,0.2,1.1,0,1.6l0.6,0l0,0.1c-0.1,0-0.2,0-0.3,0c-0.7,0.1,0.2,0.4-0.2,0.4c0.5,0,0.1-0.1,0.1-0.2
	c0.3-0.1,0.8,0.1,0.5,0.2l-0.1,0l0.3,0.1c-0.5,0-0.7,0.1-1.1,0c0.1,0.5,0.8,0.9,0.6,1.3c-0.5-0.1,0.1,0.4-0.8,0.2
	c0.3,0.3,0.7,0,1.3,0.2c0,0.1,0.2,0.2-0.1,0.2c-0.2-0.1-0.5,0-0.6-0.1l0.1,0.2c-0.1,0-0.2,0-0.2-0.1c0.5,0.4-0.6,0.6-0.2,1
	c0.3,0.1,0.1-0.1,0.4-0.1c0.6,0.4-0.6,0.2-0.2,0.6l-0.4-0.1c0.3,0.1,0.7,0.2,0.3,0.4c-0.5,0-0.4-0.2-0.6-0.3c0,0.1,0.1,0.5,0.5,0.4
	c0.2,0.2-0.3,0.2-0.5,0.2c0.1,0,0.4-0.1,0.6,0c-0.3,0.2-0.3,0.5-0.4,0.8c-0.1,0-0.3,0-0.4,0c0.7,0.3-0.5,0.1-0.4,0.4
	c0.1,0.8,0.7,1.8,0.4,2.5c0.7,0.2,0.7,0.5,0.8,0.7l-0.9-0.1l0.3,0.2c-0.3,0.1-0.2-0.2-0.5-0.1l0.6,0.1c-0.3,0-0.3,0.5-0.9,0.1
	l-0.1,0.8c0,0.2,0.7,0.2,0.5,0.3c-0.3,0-0.2-0.1-0.5-0.1c-0.7,0.5,1.7,0.8,1.2,1.3l-0.1-0.1c0.2,0.1,0.2,0.3,0.3,0.3
	c0.9,0-0.5-0.1,0.1-0.3c0.8,0.1,0.4,0.2,1,0.3c-0.3,0.1,0.1,0.2,0.2,0.3c-0.5,0.1-0.2,0.4-0.8,0.5c0.2,0.1,1,0.3,1,0.5
	c-0.6,0.1-0.6-0.1-0.8,0.1l0.4,0.1c-0.1,0.1-0.2,0.1-0.4,0.1c0,0.2,0.6,0.2,0.3,0.4l-0.4-0.2c0.2,0.2,0.1,0.2,0,0.4
	c-0.3,0-0.2-0.1-0.2-0.2c-0.7,0,0.3,0.2,0.2,0.3c0.2,0,0.3-0.1,0.7,0c-0.1,0.1,0.6,0.3,0,0.3l-0.4-0.2c0.3,0.3,0.5,0.2,0.3,0.4
	c0,0-0.1,0-0.2,0c0.6,0.2,0,0.4,0,0.6l-0.1-0.1c0.1,0.1,0.5,0.2,0.5,0.2c0.3-0.1,0.4-0.1,0.8,0c-0.8,0.1,0.8,0.4,0.4,0.6
	c-0.3,0-0.6-0.1-0.3-0.2c-0.7-0.2-1.4-0.2-1.7-0.5c0.2,0.1,0.3,0.3-0.1,0.2l0.7,0.1c0,0.1,0,0.1,0,0.2c0.4,0.1,0.7-0.1,1,0.1
	c0.2,0.2-0.7,0-0.4,0.1c0.3,0.3,0.7,0.2,0.5,0.4c-0.1,0-0.2-0.1-0.1-0.1c-0.3,0.1,0.1,0.4-0.8,0.4c-0.2,0-0.4-0.1-0.4-0.1l0.1,0
	c-0.5-0.2,0,0.1-0.5,0.1c0.3,0.1,0.2,0.2,0.1,0.3l0.5,0c1.5,0.5-1-0.1-0.9,0.2c0.3,0.3,0.2-0.1,0.5,0.1c-0.1,0.1-0.6,0.1-0.4,0.4
	c-0.2,0-0.5,0.1-1.1,0.1c0.2,0.2-0.3,0.4,0.3,0.5c0.5-0.2-0.6-0.3,0.2-0.5l0.6,0.1c0,0.2,0.2,0.4,0,0.5c0.1,0,0.3,0,0.4,0
	c0.2,0.3,0.7,0.4,0.5,0.6c-0.5,0-0.4-0.2-0.5-0.3c-0.4,0.1,0,0.2-0.2,0.4c-0.5,0,0-0.2-0.4-0.2l0.1,0.3c0,0-0.1,0-0.1,0
	c0.8,0.1-0.1,0.2,0.1,0.4c0,0.4,1,0.6,1.5,0.8c-0.2,0-0.4,0-0.6,0c0.3-0.1,0.1-0.1-0.1-0.1c0.1,0.1-0.8,0.2-1.1,0.1
	c0.2,0.2,0.4,0,0.6,0.1l-0.1,0.3c0.4,0,0.5-0.1,0.8,0.1c0.1,0.1,0,0.2,0,0.4c-0.2,0-0.6,0-0.6-0.1c-0.2,0.1-0.2,0.2,0.2,0.3
	c0.4-0.2,0.3,0.3,0.9,0.3l-0.4,0.2c0,0-0.2-0.1-0.2-0.1c-0.6,0,0.2,0.2,0.2,0.2c-0.1,0.1-0.2,0.2-0.4,0.2c0.2,0.1,0,0.2-0.3,0.2
	c0.1,0.1,0.4,0,0.6,0.1l-0.1,0.3c-0.3,0-1.2-0.1-1.3-0.1c0.3,0.1,1,0.1,0.9,0.3c-0.6-0.2-0.5,0.2-1.2,0c-0.5,0.1-0.5,0.3-0.3,0.5
	c0.5,0.1,0.3-0.1,0.8-0.1c0.1,0.4,1.5,0.6,1.3,0.9l0.2-0.1c0.3,0.2,0.2,0.2,0.6,0.3c-0.6-0.1-1.7,0.1-1.6,0.4c0.3,0.1,0.6-0.1,1.1,0
	l0.1,0.2c-0.1,0-0.2,0-0.2-0.1c0.2,0.2-0.9,0.3-0.1,0.4l-1,0.1l0.4,0c0.3,0.1,0.4,0.3,0.5,0.3c0.3,0.3,0,0.3-0.4,0.4
	c0.3,0,0.9-0.1,1,0.1c-1-0.1-0.4,0.3-1,0.3c0,0.1-0.3,0.2,0.1,0.2l-0.6-0.1c0.9,0.1,0.8,0.3,1,0.6c-1.2-0.2,0.1,0.2-1,0.2
	c0.8,0.1,0.3,0.4,1,0.5c0,0.2-0.7,0.1-1,0.1l0.3,0.1c-0.4,0-0.5,0.3-0.8,0.5l0.7,0.2l-0.3,0c0.2,0,0.3,0.2,0.6,0.1l-0.1,0.1
	c0.8,0.1,0.2,0.1,0.5,0.3c-0.1,0-0.3,0-0.4,0c0,0.1-0.4,0-0.7,0c0.2,0,1.4,0.4,1.8,0.2c0.3,0,0.5,0.2,0.4,0.2l-0.7,0l0.7,0.2
	c0.1,0.1-0.4,0.2-0.5,0.3c0-0.1-1.3-0.4-1.4-0.1c-0.1-0.2-0.5-0.3-0.6-0.3c0,0.1-0.1,0.1-0.4,0c0.2,0.2,0.4,0.1,0.5,0.3
	c-0.6-0.1-0.8,0-1.1,0.1l0.5-0.1c0.1,0,0.1,0,0.2,0c0.1,0,0.2-0.1,0.4,0c0,0,0.8,0.3,0.4,0.3c1-0.1,0.7,0.4,1.3,0.4
	c0.2,0,0.2,0.2-0.1,0.2c-0.5-0.2-0.7,0.1-1.2,0c0.2,0.1,0.5-0.1,0.7,0c0,0.1-0.4,0.2-0.6,0.2l-0.1-0.1l-0.3,0.1
	c0.3,0.1,0.6-0.1,0.7,0.1c-0.1,0,0,0.2-0.2,0.2c-0.4-0.1-1-0.1-1.1-0.2c0,0.1,0.1,0.5,0.7,0.4l0,0.1c0.3-0.1,0.8-0.2,0.8,0l-0.1,0
	l0.5,0.2l-0.3,0.1c0.2,0,0.3,0.1,0.3,0.1c-0.2,0-0.3,0.1-0.5,0c0,0.2,0.3,0.2,0.5,0.2c0,0.1-0.1,0.1-0.5,0.1c-0.1,0.1,0,0.4-0.4,0.5
	c0.3,0.2,0.1,0,0.6,0.1c-1.1,0.1-0.5,0.6-0.4,0.9c1,0,0.1,0.1,1,0.2c-0.3-0.1-0.8,0.2-1-0.1l0.1,0.2c-0.6,0.1-0.4-0.3-1.1-0.2
	c0,0.2,1.1,0.4,0.7,0.6c-0.7-0.1,0.2,0.2-0.5,0.1c-0.2-0.1-0.2-0.1-0.2-0.2l-0.1,0c-0.2,0.4,0.8,0.2,1.3,0.5
	c0.1,0.3-0.6,0.2-0.9,0.1c-0.1,0-0.1,0.1,0.1,0.2c-0.2-0.2,0.6-0.2,1-0.1c-0.8,0-0.1,0.4,0.2,0.5c0.9-0.3,0.1-0.3,1-0.5
	c-0.2-0.1-1-0.1-0.6-0.3c0.3,0.2,0.4,0,0.5,0c-0.4,0-0.2-0.2-0.3-0.2c0.3,0,0.9,0.2,1.1,0l-1-0.1c0.2-0.1,0.7,0.1,0.5-0.1
	c0.5,0.1,0.8,0,0.9,0.3c0.8-0.2-0.4-0.5-0.7-0.7c0.1,0,0.2,0,0.2,0.1c-0.2-0.1-0.2-0.2-0.3-0.2c0.2-0.1,0.4,0.2,0.7,0.1l0-0.2
	c0,0,0.1,0,0.1,0c-0.1-0.1-0.2-0.1,0-0.1c0.3,0.1,0.6,0.2,0.9,0.2l-0.6-0.3c0.3,0.1,0.6-0.2,0.8,0l-0.1-0.4l0.6,0
	c-0.1-0.1-0.2-0.1-0.3,0c0.2-0.1-1.1-0.6,0.2-0.5c-0.5-0.3-0.3-0.4-0.6-0.8c0.6,0.3,0.8-0.2,1,0.1c0.3-0.1-0.4-0.2-0.5-0.4
	c0.3-0.1,0.9,0,1.1,0.2l-0.3-0.2l0.1,0l-0.3-0.2c0.4-0.1,0.7,0,0.8-0.1l-0.6-0.1l0.3-0.1c-0.3,0-0.4-0.1-0.4-0.2l0.1,0l-0.1-0.1
	c0.3,0.2,0.1-0.1,0.5,0c0-0.1,0-0.1-0.1-0.3l-0.4,0c-0.3-0.3,0.6,0,0.6-0.2l-0.5,0c0.8-0.2-0.4-0.6,0.1-0.7c0.1,0.1,0.6,0.2,0.5,0.1
	c-0.1-0.2,0-0.5-0.5-0.8c0.7,0,0.9,0,1.2-0.2c0-0.2-0.1-0.2-0.5-0.3c0.3-0.1-0.1-0.4,0.4-0.4c-0.4-0.1,0.1-0.1-0.2-0.2l0.2,0l-0.5,0
	c1-0.2-0.5-0.5,0.4-0.7l0.1,0.1l-0.2-0.1c0.2,0,0.3,0.1,0.6,0.1l0.1-0.5l-0.4,0.1c0-0.1-0.5-0.2-0.2-0.3c0.7,0.3,0-0.2,0.6-0.2
	l0.2,0.1c0-0.2,0-0.2-0.5-0.2c-0.1-0.2,0.9-0.1,0.4-0.3l0,0.1c-0.3,0-0.6-0.1-0.6-0.2c0.1,0,0.3-0.1,0.3,0c-0.2-0.2,0.1-0.4-0.1-0.5
	c0.1-0.1,0.5,0,0.6,0c-0.4-0.4,0.1-0.1-0.3-0.5l0.3,0l-0.3-0.1l0.6-0.1l-0.3,0c0-0.1-0.2-0.2,0-0.3l0.4,0.1
	c-0.2-0.3,0.7-0.3,0.2-0.6c0.1,0,0.2,0,0.2,0.1c-0.6-0.3,0.7-0.1,0-0.5c0.1,0,0.3,0,0.4,0l-0.2-0.1l0.5,0.1l-0.7-0.2l0.5,0l-0.2-0.1
	c1,0,0.3-0.3,1-0.4l-0.7,0c-1.3-0.6,0.9-1,0.3-1.6l0.5,0.1l-0.6-0.3c0.4-0.1,0.4,0.1,0.7,0.1c-0.3-0.3-0.7-0.2-0.9-0.5
	c0.4-0.1,0.4,0.1,0.5,0.2c-0.2-0.3-0.5-0.7-0.2-0.9c-0.1,0-0.2,0-0.2,0c-0.2-0.2,0-0.4,0-0.6c0.2,0,0.3,0.1,0.3,0.1
	c0-0.1,0.2-0.1,0-0.2l0.4,0.1c0.1-0.1-0.3-0.5,0.3-0.4c-0.2,0-0.6,0-0.5-0.2c0.8,0-0.3-0.4,0.1-0.5c0.2,0,0.2,0.2,0.2,0.2
	c0.2-0.1-0.1-0.2-0.4-0.3l0.3,0.1l-0.4-0.5c0.8,0-0.1-0.5,0.5-0.4c0-0.2-0.4,0.1-0.4-0.1c0.3,0-0.1-0.2,0.4-0.1l0.1,0l0-0.2l0.5,0.1
	c-0.1-0.1-0.6-0.3-1-0.3c0.3-0.1,0.1-0.3,0.5-0.3l0.1,0.1c-0.2-0.4,1.4-0.4,0.6-0.8c0.1,0,0.2,0,0.2,0l0.1-0.2l0.4,0.1l-0.5-0.4
	l0.3,0c0.1-0.2,0-0.6,0-0.9l0.1,0.1c-0.4-0.4,0.3-0.3,0-0.6c0.1,0,0.1,0,0.1,0l0-0.2l0.2,0.1c-0.5-0.2,0.8-0.4,0.3-0.3
	c-0.2-0.1-0.5-0.3-0.8-0.4c0-0.2,0.3,0,0.6-0.1c0-0.2-0.4-0.2-0.1-0.4l0.3,0c0-0.1-0.2-0.2-0.2-0.3l0.1,0.1
	c-0.5-0.3,0.8-0.2-0.3-0.5c0.2-0.1,0.1-0.3,0.6-0.2c-0.3-0.3-0.4-0.6-0.6-0.9c0.8,0,0-0.1,0.5-0.2l-0.5,0c0-0.4,1.1-0.8,1-1.3l0.5,0
	l-0.5-0.1c0.3-0.5,0.5-1.1,0.6-1.5c-0.2-0.2-0.7-0.4-0.6-0.6l0.1,0c-0.2-0.4-0.4-0.8-0.1-1.2c0.2,0,0.3,0,0.4,0.1
	c-0.5-0.1,0-0.2,0-0.3l-0.3,0.1c-0.4-0.2,0-0.3,0.3-0.3l-0.5-0.2c0,0,0.1,0,0.2,0l-0.2-0.1l0.6,0c-0.1-0.1-0.2-0.3-0.8-0.4
	c0.2,0,0.4-0.2,0.5,0l0.2-0.7l-0.2,0.1c-0.5,0-0.7-0.3-0.5-0.4c0.4,0.2,0.6,0.1,1,0c-0.2-0.1-0.4,0-0.7,0c-0.3-0.1-0.4-0.4-0.2-0.5
	l0.2,0.1c-0.2-0.2,0.6-0.2,0.6-0.3c-0.4-0.2,0-0.2-0.8-0.3c-0.1-0.2,0.5,0,0.6-0.1c-0.4-0.1-0.1-0.4,0.3-0.4
	c-1.1-0.2,0.5-0.5-0.5-0.6l0.6-0.1c-0.3,0-0.8-0.1-0.9-0.2c0.3-0.1,0.7,0,1-0.1l-0.4-0.1c0-0.1-0.1-0.2-0.2-0.2c0,0,0-0.1,0-0.2
	c0-0.1,0.1-0.1,0.1-0.2c0,0.1,0.1,0.2,0.2,0.4c-0.1-0.5,0-0.4,0.1-0.8c0.2,0.6,0.5,0.6,0.5,0.9c0.2,0.2-0.1-0.4-0.1-0.6
	c0.2,0.2,0.5,0.8,0.5,1l-0.1-0.3l0.1,0.1l-0.1-0.4c0.2,0.3,0.3,0.6,0.5,0.6l-0.3-0.5l0.2,0.3c-0.2-0.2-0.2-0.3-0.1-0.4l0.1,0.1
	l0-0.1c0.1,0.3,0.1,0.1,0.3,0.4c0.1,0,0.1,0,0.1-0.2l-0.2-0.3c0-0.4,0.3,0.5,0.4,0.5l-0.2-0.4c0.5,0.6,0.1-0.5,0.4-0.2
	c0,0.1,0.3,0.6,0.2,0.5c0-0.2,0.3-0.2,0.1-0.7c0.4,0.5,0.5,0.7,0.7,0.9c0.1-0.1,0-0.1-0.1-0.5c0.2,0.2,0.2-0.2,0.4,0.2
	c-0.2-0.3,0.1,0,0-0.3l0.1,0.2l-0.2-0.4c0.6,0.8-0.1-0.6,0.5,0.1l0,0.1l0-0.2c0.1,0.2,0.2,0.3,0.3,0.5l0.3-0.1l-0.2-0.3
	c0-0.1-0.2-0.5,0-0.3c0.2,0.6,0.1,0,0.4,0.4l0,0.2c0.1-0.1,0.1-0.1-0.2-0.5c0-0.2,0.5,0.7,0.4,0.2l-0.1,0c-0.2-0.2-0.3-0.6-0.2-0.6
	c0,0.1,0.2,0.2,0.2,0.3c0-0.2,0.2-0.1,0.2-0.2c0.1,0.1,0.3,0.4,0.3,0.5c0-0.4,0.1,0,0.1-0.4l0.1,0.2l-0.1-0.3l0.4,0.4l-0.2-0.3
	c0-0.1,0-0.2,0.1-0.2l0.2,0.3c0-0.3,0.5,0.4,0.4-0.1c0,0.1,0.1,0.2,0.1,0.2c-0.2-0.6,0.5,0.5,0.2-0.2c0.1,0.1,0.2,0.2,0.2,0.3
	l-0.1-0.2l0.3,0.4l-0.3-0.7l0.3,0.4l-0.1-0.2c0.6,0.8,0.3,0.1,0.8,0.7l-0.4-0.5c-0.5-1.3,0.9,0.3,0.9-0.4l0.3,0.4l-0.2-0.6
	c0.3,0.3,0.2,0.4,0.4,0.6c0-0.3-0.4-0.7-0.3-0.9c0.3,0.2,0.2,0.3,0.2,0.5c0-0.3,0-0.7,0.3-0.5c0-0.1-0.1-0.1-0.1-0.2
	c0-0.3,0.2-0.1,0.3-0.2c0.1,0.2,0.1,0.2,0.1,0.3c0.1,0,0.2,0.1,0.1-0.1l0.2,0.4c0.1,0,0.1-0.4,0.4,0c-0.1-0.2-0.3-0.5-0.2-0.5
	c0.5,0.6,0-0.4,0.3-0.1c0.1,0.2,0,0.2,0.1,0.2c0.2,0.1,0-0.2-0.1-0.4l0.2,0.3l0-0.5c0.5,0.6,0.2-0.2,0.5,0.2c0.1,0-0.3-0.2-0.2-0.4
	c0.2,0.3,0-0.2,0.3,0.2l0,0.1l0.1-0.1l0.2,0.5c0-0.1-0.2-0.6-0.4-0.9c0.2,0.2,0.2-0.1,0.5,0.3l0,0.1c0.1-0.3,1.1,1,0.7,0.2
	c0,0.1,0.1,0.2,0.1,0.2l0.1,0l0.2,0.3l-0.1-0.6l0.1,0.2c0.2,0,0.3-0.2,0.4-0.4l0,0.1c-0.1-0.4,0.3,0.1,0.3-0.2c0,0.1,0,0.1,0,0.1
	l0.1-0.1l0.1,0.2c-0.2-0.5,0.6,0.4,0.3,0.1c-0.1-0.2-0.2-0.5-0.3-0.8c0.1-0.1,0.2,0.3,0.4,0.4c0.1,0-0.1-0.4,0.1-0.3l0.1,0.2
	c0-0.1,0-0.3,0-0.3l0,0.1c-0.2-0.5,0.6,0.5,0-0.5c0.2,0.1,0.2-0.1,0.5,0.4c0-0.4,0-0.6,0-0.9c0.5,0.7,0-0.1,0.4,0.3l-0.3-0.4
	c0.2-0.2,1.1,0.5,1.2,0.2l0.3,0.4l-0.2-0.4c0.4,0,0.8-0.1,1-0.2c-0.1-0.2-0.3-0.8-0.1-0.7l0,0.1c0-0.3,0.1-0.6,0.5-0.6
	c0.1,0.2,0.2,0.3,0.3,0.4c-0.3-0.4,0.1-0.1,0.2-0.1l-0.3-0.2c-0.2-0.4,0.1-0.1,0.4,0.1l-0.2-0.5c0,0,0.1,0.1,0.1,0.1l-0.1-0.2
	L171,95c-0.1-0.1,0-0.3-0.3-0.8c0.1,0.2,0.3,0.2,0.3,0.3l0.4-0.1l-0.2-0.1c-0.3-0.4-0.4-0.7-0.2-0.5c0.2,0.3,0.4,0.5,0.6,0.8
	c-0.1-0.2-0.3-0.3-0.4-0.5c-0.1-0.3-0.1-0.5,0-0.4l0.1,0.2c0-0.2,0.5,0.4,0.5,0.3c-0.2-0.3,0.1-0.1-0.4-0.7c0-0.2,0.4,0.4,0.4,0.4
	c-0.2-0.3,0.1-0.2,0.4,0.1c-0.6-0.9,0.5,0.1-0.1-0.6l0.4,0.4c-0.2-0.2-0.5-0.7-0.5-0.8c0.2,0.2,0.5,0.5,0.7,0.7l-0.5-0.8
	c1,0.5,1-0.3,1.9,0c0-0.3,0-0.8,0.3-0.9l0.1,0.1l0.4,0l-0.4-0.2c0-0.1-0.1-0.3-0.1-0.3c0.5,0.1,1.1,0.3,1-0.3
	c-0.5-1,0.7,0.6,0.4-0.1c0.1,0.1,0.1,0.2,0.2,0.3c-0.1-0.4-0.1-0.7-0.3-1.3c0.7,0.8,0.1-0.1,0.5,0.3l-0.3-0.3
	c0.2,0.2,0.4,0.2,0.6,0.4l-0.3-0.5l0.3,0.3c0.1-0.1,0.1-0.5,0.8,0.1c-0.2-0.7,0.3-0.9,0.8-1.1c-0.2-0.3-0.1-0.4-0.1-0.5l0.4,0.3
	c0-0.2-0.4-0.8-0.1-0.6c0,0,0.1,0.1,0.1,0.1c0-0.1,0.3,0,0-0.4c0.1-0.1,0.4,0.1,0.7,0.5c-0.6-0.7,0.3-0.1,0.3-0.1s1.4-0.6,2.5-1.7
	C182.8,85.8,183.6,83.9,182.2,81.9 M153.3,96c0,0.1,0.1,0.1,0.1,0.2C153.3,96.2,153.3,96.1,153.3,96C153.3,96.1,153.3,96,153.3,96
	 M153.6,96.5C153.6,96.5,153.6,96.5,153.6,96.5c0.2,0.3,0.2,0.5,0.1,0.4l-0.1-0.2C153.5,96.6,153.5,96.5,153.6,96.5 M152.6,94.9
	C152.5,94.9,152.5,94.9,152.6,94.9C152.5,94.9,152.5,94.9,152.6,94.9 M151,98.3C151,98.3,151,98.4,151,98.3
	C151,98.4,151,98.3,151,98.3 M153.2,100.1l-0.6-0.1c0.1-0.1,0.3-0.2,0.4-0.3L153.2,100.1z M153.9,95.3
	C153.9,95.2,153.9,95.2,153.9,95.3c0.1,0,0.1,0,0.1,0.1C154,95.4,153.9,95.3,153.9,95.3 M154.3,95.1c-0.6-1-0.1,0-0.5-0.6
	c0,0,0,0,0,0l0,0c0,0-0.1-0.1-0.1-0.2c0,0.1,0.1,0.1,0.1,0.2c-0.7-0.3,0.1-0.3,0.3-0.3C154.5,94.9,154.3,95,154.3,95.1"/>
<path class="st0" d="M158.5,90.2c0,0,0-0.1-0.1-0.1C158.4,90.2,158.5,90.2,158.5,90.2"/>
<path class="st0" d="M157,91L157,91c0-0.1,0-0.2-0.1-0.3L157,91z"/>
<path class="st0" d="M159.5,89.7c0,0,0-0.1-0.1-0.1C159.5,89.6,159.5,89.7,159.5,89.7"/>
<path class="st0" d="M159.8,88.9c-0.1-0.1-0.1-0.2-0.2-0.3C159.6,88.7,159.7,88.8,159.8,88.9"/>
<path class="st0" d="M156.4,93c0,0-0.1-0.1-0.1-0.2C156.4,92.9,156.4,92.9,156.4,93"/>
<path class="st2" d="M152.5,94.9C152.5,94.9,152.5,94.9,152.5,94.9"/>
<path class="st0" d="M157.2,92.2c0,0,0-0.1-0.1-0.2C157.2,92.1,157.2,92.2,157.2,92.2"/>
<path class="st0" d="M155.4,94.4C155.4,94.4,155.4,94.4,155.4,94.4C155.3,94.1,155.4,94.2,155.4,94.4"/>
<path class="st0" d="M154.2,94.1c0.1,0.2,0.1,0.3,0.2,0.4C154.4,94.5,154.4,94.4,154.2,94.1"/>
<path class="st0" d="M18,151.3c0,0.3-0.1,0.3-0.4,0.3h-3.8v2.1h3.1c0.3,0,0.4,0,0.4,0.4v2.2c0,0.3-0.1,0.4-0.4,0.4h-3.1v4.7
	c0,0.4-0.1,0.4-0.4,0.4h-2.9c-0.4,0-0.4,0-0.4-0.4V149c0-0.4,0-0.4,0.4-0.4H18c0.3,0,0.4,0.1,0.4,0.2c0,0.1,0,0.2,0,0.3L18,151.3z"
	/>
<path class="st0" d="M24.1,162.2c-3.7,0-5.3-2.6-5.3-7.1c0-3,0.9-6.8,5.4-6.8c3.7,0,5.3,2.5,5.3,6.8
	C29.5,159.5,27.9,162.2,24.1,162.2 M24.2,151c-0.8,0-1.6,1.1-1.6,4.3c0,3.2,0.7,4.1,1.6,4.1c0.8,0,1.5-0.9,1.5-4.2
	C25.7,151.9,25,151,24.2,151"/>
<path class="st0" d="M41.1,161.8h-2.2c-0.3,0-0.4-0.1-0.6-0.4l-3-5.4c-0.3-0.5-0.5-1-0.9-2c0.2,1.1,0.3,1.7,0.3,2.2v5.1
	c0,0.4-0.1,0.4-0.4,0.4h-2.6c-0.4,0-0.4,0-0.4-0.4V149c0-0.3,0-0.4,0.4-0.4h2.5c0.3,0,0.4,0,0.5,0.3l2.8,4.8c0.3,0.5,0.5,1.2,0.9,2
	c-0.1-0.9-0.3-1.7-0.3-2.3V149c0-0.3,0-0.4,0.4-0.4h2.5c0.4,0,0.4,0,0.4,0.4v12.5C41.5,161.8,41.4,161.8,41.1,161.8"/>
<path class="st0" d="M48.1,161.8H44c-0.4,0-0.4,0-0.4-0.4V149c0-0.3,0.1-0.4,0.4-0.4h3.4c4.5,0,6.3,1.8,6.3,6.5
	C53.7,159.2,52.4,161.8,48.1,161.8 M50,154.8c0-1.7-0.1-3.2-2.1-3.2h-0.5v7.3h0.6c2,0,2.1-1.2,2.1-3.6V154.8z"/>
<path class="st0" d="M60.5,162.2c-3.7,0-5.3-2.6-5.3-7.1c0-3,0.9-6.8,5.4-6.8c3.7,0,5.3,2.5,5.3,6.8
	C65.9,159.5,64.2,162.2,60.5,162.2 M60.5,151c-0.8,0-1.6,1.1-1.6,4.3c0,3.2,0.7,4.1,1.6,4.1c0.8,0,1.5-0.9,1.5-4.2
	C62.1,151.9,61.4,151,60.5,151"/>
<path class="st0" d="M79.9,151.3c0,0.3-0.2,0.3-0.4,0.3h-3.8v1.9h3.1c0.3,0,0.4,0,0.4,0.4v2.2c0,0.3-0.1,0.4-0.4,0.4h-3.1v2.3h4
	c0.4,0,0.4,0.1,0.4,0.4v2.2c0,0.4,0,0.4-0.4,0.4h-7.4c-0.4,0-0.4,0-0.4-0.4V149c0-0.3,0-0.4,0.4-0.4h7.5c0.3,0,0.4,0.1,0.4,0.2
	c0,0.1,0,0.2,0,0.3L79.9,151.3z"/>
<path class="st0" d="M87,162.2c-3.8,0-5-1.8-5-4.8V149c0-0.3,0-0.4,0.4-0.4h3c0.4,0,0.4,0.1,0.4,0.4v8.1c0,1.8,0.4,2.2,1.5,2.2
	c1.1,0,1.6-0.6,1.6-2.1V149c0-0.3,0.1-0.4,0.4-0.4h2.8c0.4,0,0.4,0.1,0.4,0.4v8.2C92.5,160.7,90.3,162.2,87,162.2"/>
<path class="st0" d="M104.8,161.4c0,0.1-0.1,0.2-0.3,0.2l-3,0.5c-0.1,0-0.2,0-0.2,0c-0.1,0-0.2-0.1-0.3-0.3l-2.5-5.2h-0.2v4.7
	c0,0.4-0.1,0.4-0.4,0.4H95c-0.4,0-0.4,0-0.4-0.4V149c0-0.4,0-0.4,0.4-0.4h3.8c1.9,0,2.9,0.2,3.8,0.9c0.8,0.7,1.2,1.8,1.2,2.9
	c0,1.7-0.8,3-2,3.7l2.9,5C104.7,161.2,104.8,161.3,104.8,161.4 M98.9,151.3h-0.6v2.8h0.5c1.2,0,1.6-0.4,1.6-1.5
	C100.3,151.6,99.8,151.3,98.9,151.3"/>
<path class="st0" d="M111,162.2c-3.7,0-5.3-2.6-5.3-7.1c0-3,0.9-6.8,5.4-6.8c3.7,0,5.3,2.5,5.3,6.8
	C116.4,159.5,114.8,162.2,111,162.2 M111.1,151c-0.8,0-1.6,1.1-1.6,4.3c0,3.2,0.7,4.1,1.6,4.1c0.8,0,1.5-0.9,1.5-4.2
	C112.6,151.9,111.9,151,111.1,151"/>
<path class="st0" d="M122.6,156.9H122v4.5c0,0.4-0.1,0.4-0.4,0.4h-2.9c-0.4,0-0.4,0-0.4-0.4V149c0-0.4,0-0.4,0.4-0.4h3.8
	c1.9,0,2.9,0.2,3.8,0.9c0.8,0.7,1.2,1.8,1.2,2.9C127.4,155.1,125.5,156.9,122.6,156.9 M122.5,151.3H122v2.8h0.4
	c1.2,0,1.6-0.4,1.6-1.5C124,151.6,123.5,151.3,122.5,151.3"/>
<path class="st0" d="M136.9,151.3c0,0.3-0.2,0.3-0.4,0.3h-3.8v1.9h3.1c0.3,0,0.4,0,0.4,0.4v2.2c0,0.3-0.1,0.4-0.4,0.4h-3.1v2.3h4
	c0.4,0,0.4,0.1,0.4,0.4v2.2c0,0.4,0,0.4-0.4,0.4h-7.4c-0.4,0-0.4,0-0.4-0.4V149c0-0.3,0-0.4,0.4-0.4h7.5c0.3,0,0.4,0.1,0.4,0.2
	c0,0.1,0,0.2,0,0.3L136.9,151.3z"/>
<path class="st0" d="M143.6,162.2c-3.7,0-5.3-2.6-5.3-7.1c0-3,0.9-6.8,5.4-6.8c3.7,0,5.3,2.5,5.3,6.8
	C149,159.5,147.4,162.2,143.6,162.2 M143.7,151c-0.8,0-1.6,1.1-1.6,4.3c0,3.2,0.7,4.1,1.6,4.1c0.8,0,1.5-0.9,1.5-4.2
	C145.2,151.9,144.5,151,143.7,151"/>
<path class="st0" d="M14.2,179.2c-1.4,0-4.6-0.7-4.6-1.4c0,0,0-0.1,0-0.1l0.7-2.5c0-0.1,0.1-0.2,0.2-0.2c0.1,0,0.1,0,0.2,0.1
	c1,0.6,2.6,1.1,3.5,1.1c0.8,0,1.2-0.4,1.2-1c0-0.8-0.4-1-2.3-1.9c-2-0.9-3.3-1.7-3.3-3.9c0-2.5,1.9-4,4.8-4c1.8,0,4.2,0.8,4.2,1.4
	c0,0,0,0.1,0,0.1l-0.8,2.3c0,0.1-0.1,0.1-0.2,0.1c0,0-0.1,0-0.2,0c-0.8-0.3-2.1-0.9-3-0.9c-0.9,0-1.2,0.3-1.2,0.8
	c0,0.5,0.4,0.8,1.5,1.2c2.2,1,4.1,1.9,4.1,4.5C19,177.5,17,179.2,14.2,179.2"/>
<path class="st0" d="M26.8,178.9c-0.1,0.3-0.1,0.3-0.4,0.3h-3.1c-0.3,0-0.3,0-0.4-0.3l-3.6-12.5c0-0.1-0.1-0.2-0.1-0.3
	c0-0.1,0.1-0.2,0.3-0.2l3.3-0.3c0.2,0,0.3,0.1,0.3,0.3l1.3,6.4c0.1,0.7,0.2,1.5,0.4,2.7c0.1-1,0.3-2,0.4-2.7l1.4-6.4
	c0.1-0.3,0.1-0.3,0.3-0.3l3.1,0.2c0.3,0,0.4,0.1,0.4,0.3c0,0.1,0,0.1,0,0.2L26.8,178.9z"/>
<path class="st0" d="M37,179h-5.1c-0.4,0-0.4,0-0.4-0.4v-2c0-0.4,0-0.4,0.4-0.4h0.6v-7.6h-0.6c-0.4,0-0.4,0-0.4-0.4v-2
	c0-0.3,0-0.4,0.4-0.4H37c0.4,0,0.4,0.1,0.4,0.4v2c0,0.4,0,0.4-0.4,0.4h-0.7v7.6H37c0.4,0,0.4,0.1,0.4,0.4v2
	C37.4,178.9,37.4,179,37,179"/>
<path class="st0" d="M47,178.6c0,0.3-0.1,0.3-0.4,0.3h-7.2c-0.4,0-0.4,0-0.4-0.4v-12.5c0-0.3,0-0.4,0.4-0.4h2.9
	c0.3,0,0.4,0.1,0.4,0.4v9.6H47c0.3,0,0.4,0,0.4,0.3c0,0.1,0,0.1,0,0.2L47,178.6z"/>
<path class="st0" d="M53,179.3c-3.8,0-5-1.8-5-4.8v-8.4c0-0.3,0-0.4,0.4-0.4h3c0.4,0,0.4,0.1,0.4,0.4v8.1c0,1.8,0.4,2.2,1.5,2.2
	c1.1,0,1.6-0.6,1.6-2.1v-8.1c0-0.3,0.1-0.4,0.4-0.4h2.8c0.4,0,0.4,0.1,0.4,0.4v8.2C58.5,177.8,56.3,179.3,53,179.3"/>
<path class="st0" d="M64.9,174h-0.6v4.5c0,0.4-0.1,0.4-0.4,0.4H61c-0.4,0-0.4,0-0.4-0.4v-12.5c0-0.4,0-0.4,0.4-0.4h3.8
	c1.9,0,2.9,0.2,3.8,0.9c0.8,0.7,1.2,1.8,1.2,2.9C69.7,172.2,67.8,174,64.9,174 M64.9,168.4h-0.5v2.8h0.4c1.2,0,1.6-0.4,1.6-1.5
	C66.3,168.7,65.8,168.4,64.9,168.4"/>
<path class="st0" d="M75.6,174H75v4.5c0,0.4-0.1,0.4-0.4,0.4h-2.9c-0.4,0-0.4,0-0.4-0.4v-12.5c0-0.4,0-0.4,0.4-0.4h3.8
	c1.9,0,2.9,0.2,3.8,0.9c0.8,0.7,1.2,1.8,1.2,2.9C80.5,172.2,78.5,174,75.6,174 M75.6,168.4H75v2.8h0.4c1.2,0,1.6-0.4,1.6-1.5
	C77.1,168.7,76.6,168.4,75.6,168.4"/>
<path class="st0" d="M87,179.3c-3.7,0-5.3-2.6-5.3-7.1c0-3,0.9-6.8,5.4-6.8c3.7,0,5.3,2.5,5.3,6.8C92.4,176.6,90.7,179.3,87,179.3
	 M87.1,168.2c-0.8,0-1.6,1.1-1.6,4.3c0,3.2,0.7,4.1,1.6,4.1c0.8,0,1.5-0.9,1.5-4.2C88.6,169.1,87.9,168.2,87.1,168.2"/>
<path class="st0" d="M108.7,178.5c0,0.1-0.1,0.2-0.3,0.2l-3,0.5c-0.1,0-0.2,0-0.2,0c-0.1,0-0.2-0.1-0.3-0.3l-2.5-5.2h-0.2v4.7
	c0,0.4-0.1,0.4-0.4,0.4h-2.9c-0.4,0-0.4,0-0.4-0.4v-12.5c0-0.4,0-0.4,0.4-0.4h3.8c1.9,0,2.9,0.2,3.8,0.9c0.8,0.7,1.2,1.8,1.2,2.9
	c0,1.7-0.8,3-2,3.7l2.9,5C108.7,178.3,108.7,178.4,108.7,178.5 M102.8,168.4h-0.6v2.8h0.5c1.2,0,1.6-0.4,1.6-1.5
	C104.2,168.7,103.7,168.4,102.8,168.4"/>
<path class="st0" d="M117.9,168.4c0,0.3-0.2,0.3-0.4,0.3h-3.8v1.9h3.1c0.3,0,0.4,0,0.4,0.4v2.2c0,0.3-0.1,0.4-0.4,0.4h-3.1v2.3h4
	c0.4,0,0.4,0.1,0.4,0.4v2.2c0,0.4,0,0.4-0.4,0.4h-7.4c-0.4,0-0.4,0-0.4-0.4v-12.5c0-0.3,0-0.4,0.4-0.4h7.5c0.3,0,0.4,0.1,0.4,0.2
	c0,0.1,0,0.2,0,0.3L117.9,168.4z"/>
<path class="st0" d="M125.2,179.3c-3.9,0-5.8-2.5-5.8-6.8v-0.1c0-4.4,1.9-7,5.8-7c1.4,0,3.1,0.4,4.1,1.2c0.1,0.1,0.1,0.2,0.1,0.3
	c0,0,0,0.1,0,0.1l-1.1,2.3c0,0.1-0.1,0.1-0.2,0.1c-0.1,0-0.2-0.1-0.3-0.1c-0.6-0.3-1.5-0.8-2.6-0.8c-1.2,0-2.1,0.7-2.1,3.8
	c0,1.5,0.3,4.1,2.2,4.1c0.3,0,0.7-0.1,1-0.2v-1.8l-1.5,0c-0.3,0-0.4,0-0.4-0.3v-2.1c0-0.4,0-0.4,0.4-0.4h4.5c0.3,0,0.4,0.1,0.4,0.4
	v5.6C129.7,178.4,127,179.3,125.2,179.3"/>
<path class="st0" d="M136.6,179h-5.1c-0.4,0-0.4,0-0.4-0.4v-2c0-0.4,0-0.4,0.4-0.4h0.6v-7.6h-0.6c-0.4,0-0.4,0-0.4-0.4v-2
	c0-0.3,0-0.4,0.4-0.4h5.1c0.4,0,0.4,0.1,0.4,0.4v2c0,0.4,0,0.4-0.4,0.4h-0.7v7.6h0.7c0.4,0,0.4,0.1,0.4,0.4v2
	C137,178.9,137,179,136.6,179"/>
<path class="st0" d="M143.6,179.3c-3.7,0-5.3-2.6-5.3-7.1c0-3,0.9-6.8,5.4-6.8c3.7,0,5.3,2.5,5.3,6.8
	C149,176.6,147.3,179.3,143.6,179.3 M143.6,168.2c-0.8,0-1.6,1.1-1.6,4.3c0,3.2,0.7,4.1,1.6,4.1c0.8,0,1.5-0.9,1.5-4.2
	C145.2,169.1,144.5,168.2,143.6,168.2"/>
<path class="st0" d="M160.5,179h-2.2c-0.3,0-0.4-0.1-0.6-0.4l-3-5.4c-0.3-0.5-0.5-1-0.9-2c0.2,1.1,0.3,1.7,0.3,2.2v5.1
	c0,0.4-0.1,0.4-0.4,0.4h-2.6c-0.4,0-0.4,0-0.4-0.4v-12.5c0-0.3,0-0.4,0.4-0.4h2.5c0.3,0,0.4,0,0.5,0.3l2.8,4.8
	c0.3,0.5,0.5,1.2,0.9,2c-0.1-0.9-0.3-1.7-0.3-2.3v-4.5c0-0.3,0-0.4,0.4-0.4h2.5c0.4,0,0.4,0,0.4,0.4v12.5
	C160.9,178.9,160.9,179,160.5,179"/>
<path class="st0" d="M174.3,178.7c0,0.2-0.1,0.2-0.4,0.2h-3.3c-0.3,0-0.3,0-0.4-0.3l-0.7-2.8h-2.5l-0.8,2.8
	c-0.1,0.3-0.1,0.3-0.4,0.3h-3c-0.3,0-0.4-0.1-0.4-0.2c0-0.1,0-0.2,0.1-0.3l4-12.5c0.1-0.3,0.1-0.3,0.4-0.3h2.9c0.3,0,0.3,0,0.4,0.3
	l4.1,12.5C174.3,178.6,174.3,178.7,174.3,178.7 M168.5,171c-0.1-0.5-0.3-1.6-0.3-2.2c-0.1,0.6-0.2,1.6-0.3,2.2l-0.5,2.3h1.6
	L168.5,171z"/>
<path class="st0" d="M183.8,178.6c0,0.3-0.1,0.3-0.4,0.3h-7.2c-0.4,0-0.4,0-0.4-0.4v-12.5c0-0.3,0-0.4,0.4-0.4h2.9
	c0.3,0,0.4,0.1,0.4,0.4v9.6h4.3c0.3,0,0.4,0,0.4,0.3c0,0.1,0,0.1,0,0.2L183.8,178.6z"/>
<path class="st0" d="M193.1,168.4c0,0.3-0.2,0.3-0.4,0.3h-3.8v1.9h3.1c0.3,0,0.4,0,0.4,0.4v2.2c0,0.3-0.1,0.4-0.4,0.4h-3.1v2.3h4
	c0.4,0,0.4,0.1,0.4,0.4v2.2c0,0.4,0,0.4-0.4,0.4h-7.4c-0.4,0-0.4,0-0.4-0.4v-12.5c0-0.3,0-0.4,0.4-0.4h7.5c0.3,0,0.4,0.1,0.4,0.2
	c0,0.1,0,0.2,0,0.3L193.1,168.4z"/>
<path class="st0" d="M158.4,161.8h-4.1c-0.4,0-0.4,0-0.4-0.4v-12.5c0-0.3,0.1-0.4,0.4-0.4h3.4c4.5,0,6.3,1.8,6.3,6.5
	C164,159.1,162.7,161.8,158.4,161.8 M160.2,154.7c0-1.7-0.1-3.2-2.1-3.2h-0.5v7.3h0.6c2,0,2.1-1.2,2.1-3.6V154.7z"/>
<path class="st0" d="M170.8,161.8h-5.1c-0.4,0-0.4,0-0.4-0.4v-2c0-0.4,0-0.4,0.4-0.4h0.6v-7.6h-0.6c-0.4,0-0.4,0-0.4-0.4v-2
	c0-0.3,0-0.4,0.4-0.4h5.1c0.4,0,0.4,0.1,0.4,0.4v2c0,0.4,0,0.4-0.4,0.4h-0.7v7.6h0.7c0.4,0,0.4,0.1,0.4,0.4v2
	C171.2,161.7,171.2,161.8,170.8,161.8"/>
</svg>
