<?xml version="1.0" encoding="utf-8"?>
<!-- Generator: Adobe Illustrator 22.1.0, SVG Export Plug-In . SVG Version: 6.00 Build 0)  -->
<svg version="1.1" id="Capa_1" xmlns="http://www.w3.org/2000/svg" xmlns:xlink="http://www.w3.org/1999/xlink" x="0px" y="0px"
	 viewBox="0 0 448.5 205.6" style="enable-background:new 0 0 448.5 205.6;" xml:space="preserve">
<style type="text/css">
	.st0{fill:#020203;}
	.st1{fill:#FFFFFF;}
</style>
<g>
	<path class="st0" d="M0,0h14.3v48.6c0,3.6,1.5,5.4,4.6,5.4c0.7,0,1.5-0.1,2.4-0.3c0.9-0.2,1.7-0.5,2.4-0.9l1.9,10.7
		c-1.8,0.8-3.8,1.5-6.2,2c-2.3,0.5-4.5,0.7-6.5,0.7c-4.1,0-7.3-1.1-9.5-3.2C1.1,60.7,0,57.6,0,53.6V0z"/>
	<path class="st0" d="M28.4,13V0h14.3v13H28.4z M28.4,65.3V18.3h14.3v46.9H28.4z"/>
	<path class="st0" d="M63,65.3L46.4,18.3h14.8l10.3,35.5l10.4-35.5h13.3L78.6,65.3H63z"/>
	<path class="st0" d="M121.4,66.2c-3.9,0-7.5-0.6-10.6-1.9s-5.8-3-8-5.2c-2.2-2.2-3.8-4.8-5-7.6c-1.1-2.9-1.7-5.9-1.7-9.1
		c0-3.4,0.6-6.6,1.7-9.6c1.1-3,2.8-5.6,4.9-7.9c2.1-2.3,4.8-4.1,7.9-5.4c3.1-1.3,6.7-2,10.7-2c4,0,7.5,0.7,10.6,2
		c3.1,1.3,5.7,3.1,7.9,5.3c2.1,2.2,3.8,4.8,4.9,7.7c1.1,2.9,1.7,6,1.7,9.2c0,0.8,0,1.7-0.1,2.5c-0.1,0.8-0.1,1.5-0.3,2.1h-34.7
		c0.2,3.2,1.4,5.6,3.4,7.2c2.1,1.6,4.4,2.5,7,2.5c2.1,0,4.1-0.5,6-1.5c1.9-1,3.2-2.4,3.9-4.1l12.2,3.4c-1.8,3.7-4.7,6.7-8.6,9
		C131.4,65,126.8,66.2,121.4,66.2z M131.3,37.4c-0.3-3-1.4-5.3-3.2-7.1c-1.8-1.7-4.1-2.6-6.9-2.6c-2.8,0-5.1,0.9-6.9,2.6
		c-1.8,1.8-2.9,4.1-3.2,7H131.3z"/>
</g>
<g>
	<path class="st1" d="M123.4,111.9v-38l-13.8,27.6h-7.9L88,73.9v38H73.3V48.4h15.9l16.5,33.2l16.5-33.2h15.8v63.5H123.4z"/>
	<path class="st1" d="M175.8,99.4c2.5,0,4.6-0.5,6.3-1.6c1.7-1,3.1-2.4,4.2-4.2c1.1-1.7,1.8-3.7,2.3-5.9c0.4-2.2,0.7-4.5,0.7-6.8
		V48.4H204v32.5c0,4.4-0.6,8.5-1.7,12.3c-1.1,3.8-2.8,7.2-5.1,10c-2.3,2.9-5.2,5.1-8.8,6.8c-3.5,1.6-7.8,2.5-12.7,2.5
		c-5.1,0-9.4-0.9-13-2.6c-3.6-1.7-6.5-4-8.7-6.9c-2.2-2.9-3.9-6.2-4.9-10.1c-1-3.8-1.6-7.8-1.6-12V48.4h14.7v32.5
		c0,2.4,0.2,4.8,0.7,7c0.5,2.2,1.3,4.2,2.3,5.9c1.1,1.7,2.5,3.1,4.2,4.1C171.2,98.8,173.3,99.4,175.8,99.4z"/>
	<path class="st1" d="M251.6,67c-0.2-0.2-0.8-0.7-1.9-1.3c-1.1-0.7-2.4-1.3-4-2.1c-1.6-0.7-3.4-1.3-5.3-1.9
		c-1.9-0.5-3.8-0.8-5.7-0.8c-5.2,0-7.9,1.8-7.9,5.3c0,1.1,0.3,2,0.8,2.7c0.6,0.7,1.4,1.4,2.5,1.9c1.1,0.6,2.5,1.1,4.2,1.6
		c1.7,0.5,3.6,1,5.8,1.6c3,0.8,5.8,1.7,8.2,2.7c2.4,1,4.5,2.2,6.2,3.7c1.7,1.5,3,3.2,3.9,5.3c0.9,2.1,1.4,4.6,1.4,7.5
		c0,3.6-0.7,6.6-2,9.1c-1.3,2.5-3.1,4.5-5.3,6c-2.2,1.5-4.7,2.6-7.6,3.3c-2.9,0.7-5.8,1-8.9,1c-2.3,0-4.7-0.2-7.2-0.5
		c-2.4-0.4-4.8-0.9-7.2-1.6c-2.3-0.7-4.6-1.5-6.8-2.5c-2.2-1-4.2-2.1-6-3.3l6.4-12.8c0.2,0.3,1,0.9,2.3,1.7c1.3,0.8,2.9,1.7,4.9,2.5
		c1.9,0.8,4.1,1.6,6.5,2.2c2.4,0.7,4.8,1,7.2,1c5.2,0,7.8-1.6,7.8-4.7c0-1.2-0.4-2.2-1.2-3c-0.8-0.8-1.8-1.5-3.2-2.1
		c-1.4-0.6-3-1.2-4.9-1.7s-3.9-1.1-6.1-1.8c-2.9-0.9-5.5-1.9-7.6-2.9c-2.1-1-3.9-2.3-5.3-3.6c-1.4-1.4-2.4-3-3.1-4.7
		c-0.7-1.8-1-3.9-1-6.3c0-3.3,0.6-6.3,1.9-8.9c1.3-2.6,3-4.7,5.1-6.5c2.1-1.8,4.6-3.1,7.5-4c2.8-0.9,5.8-1.3,9-1.3
		c2.2,0,4.4,0.2,6.5,0.6c2.1,0.4,4.2,1,6.2,1.6c2,0.7,3.8,1.4,5.5,2.2c1.7,0.8,3.3,1.7,4.7,2.5L251.6,67z"/>
	<path class="st1" d="M311.5,99v12.9h-44.6V48.4h43.8v12.9h-29.2v12.3h25v11.9h-25V99H311.5z"/>
	<path class="st1" d="M345.9,99.4c2.5,0,4.6-0.5,6.3-1.6c1.7-1,3.1-2.4,4.2-4.2c1.1-1.7,1.8-3.7,2.3-5.9c0.4-2.2,0.7-4.5,0.7-6.8
		V48.4h14.7v32.5c0,4.4-0.6,8.5-1.7,12.3c-1.1,3.8-2.8,7.2-5.1,10c-2.3,2.9-5.2,5.1-8.8,6.8c-3.5,1.6-7.8,2.5-12.7,2.5
		c-5.1,0-9.4-0.9-13-2.6c-3.6-1.7-6.5-4-8.7-6.9c-2.2-2.9-3.9-6.2-4.9-10.1c-1-3.8-1.6-7.8-1.6-12V48.4h14.7v32.5
		c0,2.4,0.2,4.8,0.7,7c0.5,2.2,1.3,4.2,2.3,5.9c1.1,1.7,2.5,3.1,4.2,4.1C341.3,98.8,343.4,99.4,345.9,99.4z"/>
	<path class="st1" d="M433.8,111.9v-38L420,101.5h-7.9l-13.8-27.6v38h-14.7V48.4h15.9l16.5,33.2l16.5-33.2h15.8v63.5H433.8z"/>
</g>
<g>
	<path class="st0" d="M0,93.2h14.3v48.6c0,3.6,1.5,5.4,4.6,5.4c0.7,0,1.5-0.1,2.4-0.3s1.7-0.5,2.4-0.9l1.9,10.7
		c-1.8,0.8-3.8,1.5-6.2,2c-2.3,0.5-4.5,0.7-6.5,0.7c-4.1,0-7.3-1.1-9.5-3.2c-2.2-2.1-3.3-5.2-3.3-9.3V93.2z"/>
	<path class="st0" d="M28.4,106.2v-13h14.3v13H28.4z M28.4,158.5v-46.9h14.3v46.9H28.4z"/>
	<path class="st0" d="M63,158.5l-16.6-46.9h14.8L71.5,147l10.4-35.5h13.3l-16.5,46.9H63z"/>
	<path class="st0" d="M121.4,159.4c-3.9,0-7.5-0.6-10.6-1.9s-5.8-3-8-5.2c-2.2-2.2-3.8-4.8-5-7.6c-1.1-2.9-1.7-5.9-1.7-9.1
		c0-3.4,0.6-6.6,1.7-9.6c1.1-3,2.8-5.6,4.9-7.9c2.1-2.3,4.8-4.1,7.9-5.4c3.1-1.3,6.7-2,10.7-2c4,0,7.5,0.7,10.6,2
		c3.1,1.3,5.7,3.1,7.9,5.3c2.1,2.2,3.8,4.8,4.9,7.7c1.1,2.9,1.7,6,1.7,9.2c0,0.8,0,1.7-0.1,2.5c-0.1,0.8-0.1,1.5-0.3,2.1h-34.7
		c0.2,3.2,1.4,5.6,3.4,7.2c2.1,1.6,4.4,2.5,7,2.5c2.1,0,4.1-0.5,6-1.5c1.9-1,3.2-2.4,3.9-4.1l12.2,3.4c-1.8,3.7-4.7,6.7-8.6,9
		C131.4,158.2,126.8,159.4,121.4,159.4z M131.3,130.6c-0.3-3-1.4-5.3-3.2-7.1c-1.8-1.7-4.1-2.6-6.9-2.6c-2.8,0-5.1,0.9-6.9,2.6
		c-1.8,1.8-2.9,4.1-3.2,7H131.3z"/>
</g>
<g>
	<path class="st1" d="M69.7,172.8c0-3.8,0.7-7.6,2.1-11.4c1.4-3.8,3.5-7.2,6.3-10.2c2.7-3,6.1-5.4,10-7.2c3.9-1.8,8.4-2.8,13.4-2.8
		c6,0,11.1,1.3,15.5,3.8s7.6,5.9,9.8,10l-11.3,7.9c-0.7-1.7-1.6-3.1-2.7-4.2c-1.1-1.1-2.3-2-3.6-2.7c-1.3-0.7-2.7-1.2-4-1.4
		c-1.4-0.3-2.7-0.4-4-0.4c-2.8,0-5.2,0.6-7.3,1.7c-2.1,1.1-3.8,2.6-5.2,4.4c-1.4,1.8-2.4,3.8-3,6.1c-0.7,2.3-1,4.6-1,6.9
		c0,2.5,0.4,4.9,1.2,7.2c0.8,2.3,1.9,4.4,3.4,6.2c1.5,1.8,3.2,3.2,5.3,4.2c2.1,1,4.4,1.6,6.9,1.6c1.3,0,2.7-0.2,4.1-0.5
		c1.4-0.3,2.7-0.8,4-1.5c1.3-0.7,2.5-1.6,3.5-2.7c1.1-1.1,1.9-2.5,2.6-4.1l12,7.1c-1,2.3-2.4,4.4-4.2,6.3c-1.9,1.8-4,3.4-6.5,4.7
		c-2.4,1.3-5,2.2-7.8,2.9c-2.7,0.7-5.4,1-8,1c-4.6,0-8.8-0.9-12.7-2.8c-3.8-1.9-7.2-4.4-9.9-7.5c-2.8-3.1-4.9-6.6-6.4-10.6
		C70.4,180.8,69.7,176.8,69.7,172.8z"/>
	<path class="st1" d="M187.8,141.6v63.5h-14.7v-26h-25.3v26h-14.7v-63.5h14.7v24.6h25.3v-24.6H187.8z"/>
	<path class="st1" d="M215.4,141.6h13.2l23.2,63.5h-15l-4.9-14.2h-19.8l-4.8,14.2h-15L215.4,141.6z M229.5,180.7l-7.4-22.4
		l-7.6,22.4H229.5z"/>
	<path class="st1" d="M271.1,168.8v36.3h-14.7v-63.5h11.4l29.6,37.3v-37.3h14.7v63.5h-11.8L271.1,168.8z"/>
	<path class="st1" d="M366.2,198.8c-4.8,4.5-10.4,6.7-16.7,6.7c-4.2,0-8.1-0.8-11.8-2.4c-3.7-1.6-6.9-3.8-9.7-6.7
		c-2.8-2.9-5-6.3-6.6-10.3c-1.6-4-2.4-8.5-2.4-13.3c0-4.4,0.8-8.5,2.4-12.3c1.6-3.9,3.8-7.2,6.7-10.1c2.8-2.9,6.2-5.1,10.1-6.8
		c3.9-1.7,8-2.5,12.5-2.5c5.9,0,11.1,1.2,15.5,3.7c4.4,2.5,7.7,5.9,9.9,10.1l-10.9,8.2c-1.4-2.9-3.5-5.1-6.2-6.7
		c-2.7-1.6-5.6-2.4-8.8-2.4c-2.4,0-4.7,0.5-6.7,1.5c-2,1-3.7,2.4-5.1,4.1c-1.4,1.8-2.5,3.8-3.3,6.1c-0.8,2.3-1.2,4.8-1.2,7.5
		c0,2.7,0.4,5.3,1.3,7.6c0.8,2.3,2,4.3,3.5,6c1.5,1.7,3.3,3,5.3,4c2.1,1,4.3,1.4,6.8,1.4c5.7,0,10.9-2.7,15.5-8v-2h-12.3v-10.6h24.5
		v33.2h-12.2V198.8z"/>
	<path class="st1" d="M431,192.2v12.9h-44.6v-63.5h43.8v12.9H401v12.3h25v11.9h-25v13.5H431z"/>
</g>
</svg>
