<?xml version="1.0" encoding="utf-8"?>
<!-- Generator: Adobe Illustrator 22.1.0, SVG Export Plug-In . SVG Version: 6.00 Build 0)  -->
<svg version="1.1" id="Capa_1" xmlns="http://www.w3.org/2000/svg" xmlns:xlink="http://www.w3.org/1999/xlink" x="0px" y="0px"
	 viewBox="0 0 54.3 42.4" style="enable-background:new 0 0 54.3 42.4;" xml:space="preserve">
<style type="text/css">
	.st0{fill:#164194;}
	.st1{fill:#FFE549;}
</style>
<g>
	<path d="M3.2,41.1c0,0.2,0,0.4-0.1,0.6C3,41.9,2.9,42,2.8,42.1c-0.1,0.1-0.3,0.2-0.5,0.3s-0.4,0.1-0.6,0.1s-0.4,0-0.6-0.1
		s-0.3-0.1-0.5-0.3c-0.1-0.1-0.2-0.3-0.3-0.4c-0.1-0.2-0.1-0.4-0.1-0.6v-2.2c0,0,0,0,0-0.1c0,0,0,0,0.1,0h0.1c0,0,0.1,0,0.2,0
		s0.1,0,0.2,0h0.1c0,0,0,0,0.1,0c0,0,0,0,0,0.1V41c0,0.1,0,0.3,0.1,0.4c0,0.1,0.1,0.2,0.2,0.3s0.1,0.1,0.2,0.2
		c0.1,0,0.2,0.1,0.3,0.1c0.1,0,0.2,0,0.3-0.1c0.1,0,0.2-0.1,0.2-0.2c0.1-0.1,0.1-0.2,0.1-0.3s0.1-0.2,0.1-0.3v-2.2c0,0,0,0,0-0.1
		s0,0,0.1,0h0.1c0,0,0.1,0,0.2,0c0.1,0,0.1,0,0.2,0s0.1,0,0.1,0s0,0,0.1,0c0,0,0,0,0,0.1v2.2H3.2z"/>
	<path d="M7,42.2L7,42.2c0,0.1,0,0.2-0.1,0.2H6.8H6.7H6.4c-0.1,0-0.1,0-0.2,0c0,0-0.1,0-0.1-0.1L6,42.2c0-0.1-0.1-0.1-0.1-0.2
		L5,40.3c-0.1-0.1-0.1-0.2-0.2-0.3c-0.1-0.1-0.1-0.2-0.1-0.3l0,0c0,0.1,0,0.3,0,0.4c0,0.1,0,0.3,0,0.4v1.9c0,0,0,0,0,0.1
		c0,0,0,0-0.1,0H4.5c0,0-0.1,0-0.2,0c-0.1,0-0.1,0-0.2,0H4c0,0,0,0-0.1,0c0,0,0,0,0-0.1v-3.3c0-0.1,0-0.2,0.1-0.2s0.1-0.1,0.2-0.1
		h0.4c0.1,0,0.1,0,0.2,0c0,0,0.1,0,0.1,0.1L5,39c0,0,0.1,0.1,0.1,0.2l0.7,1.3c0,0.1,0.1,0.2,0.1,0.2L6,40.9c0,0.1,0.1,0.2,0.1,0.2
		c0,0.1,0.1,0.1,0.1,0.2l0,0c0-0.1,0-0.3,0-0.4c0-0.1,0-0.3,0-0.4v-1.6c0,0,0,0,0-0.1c0,0,0,0,0.1,0h0.1c0,0,0.1,0,0.2,0
		c0.1,0,0.1,0,0.2,0s0.1,0,0.1,0l0,0c0,0,0,0,0,0.1L7,42.2L7,42.2z"/>
	<path d="M8.4,42.3C8.4,42.4,8.4,42.4,8.4,42.3C8.4,42.4,8.4,42.4,8.4,42.3c-0.1,0.1-0.1,0.1-0.2,0.1c0,0-0.1,0-0.2,0
		c-0.1,0-0.1,0-0.2,0H7.7c0,0,0,0-0.1,0c0,0,0,0,0-0.1v-3.4c0,0,0,0,0-0.1s0,0,0.1,0h0.1c0,0,0.1,0,0.2,0c0.1,0,0.1,0,0.2,0h0.1
		c0,0,0,0,0.1,0c0,0,0,0,0,0.1L8.4,42.3L8.4,42.3z"/>
	<path d="M12.4,40.6c0,0.3,0,0.6-0.1,0.8S12.1,41.8,12,42c-0.1,0.2-0.3,0.3-0.5,0.4c-0.2,0.1-0.5,0.1-0.8,0.1s-0.5,0-0.7-0.1
		s-0.4-0.2-0.5-0.3c-0.1-0.2-0.2-0.3-0.3-0.6c-0.1-0.2-0.1-0.5-0.1-0.8s0-0.6,0.1-0.8s0.2-0.4,0.3-0.6c0.1-0.2,0.3-0.3,0.5-0.4
		c0.2-0.1,0.5-0.1,0.8-0.1s0.5,0,0.7,0.1s0.4,0.2,0.5,0.3c0.1,0.2,0.2,0.3,0.3,0.6C12.4,40,12.4,40.3,12.4,40.6L12.4,40.6z
		 M11.7,40.6c0-0.2,0-0.4,0-0.5c0-0.2-0.1-0.3-0.2-0.4c-0.1-0.1-0.2-0.2-0.3-0.3s-0.3-0.1-0.4-0.1c-0.2,0-0.3,0-0.5,0.1
		c-0.1,0.1-0.2,0.2-0.3,0.3s-0.1,0.2-0.2,0.4c0,0.2,0,0.3,0,0.5s0,0.4,0,0.5c0,0.2,0.1,0.3,0.2,0.4c0.1,0.1,0.2,0.2,0.3,0.3
		c0.1,0.1,0.2,0.1,0.4,0.1s0.3,0,0.5-0.1c0.1-0.1,0.2-0.2,0.3-0.3s0.1-0.3,0.2-0.4C11.7,41,11.7,40.8,11.7,40.6L11.7,40.6z
		 M10.9,37.8C10.9,37.8,11,37.8,10.9,37.8c0.1-0.1,0.1-0.1,0.2-0.1s0.1,0,0.1,0s0.1,0,0.2,0c0.1,0,0.2,0,0.2,0h0.1c0,0,0,0,0,0.1
		c0,0,0,0-0.1,0.1L11,38.5c0,0,0,0-0.1,0c0,0,0,0-0.1,0h-0.1h-0.1c-0.1,0-0.1,0-0.2,0s-0.1,0-0.1,0l0,0c0,0,0,0,0-0.1L10.9,37.8
		L10.9,37.8z"/>
	<path d="M16,42.2L16,42.2c0,0.1,0,0.2-0.1,0.2h-0.1h-0.1h-0.3c-0.1,0-0.1,0-0.2,0s-0.1,0-0.1-0.1L15,42.2c0-0.1-0.1-0.1-0.1-0.2
		L14,40.3c-0.1-0.1-0.1-0.2-0.2-0.3c-0.1-0.1-0.1-0.2-0.1-0.3l0,0c0,0.1,0,0.3,0,0.4c0,0.1,0,0.3,0,0.4v1.9c0,0,0,0,0,0.1
		c0,0,0,0-0.1,0h-0.1c0,0-0.1,0-0.2,0c-0.1,0-0.1,0-0.2,0s-0.1,0-0.1,0s0,0-0.1,0c0,0,0,0,0-0.1v-3.3c0-0.1,0-0.2,0.1-0.2
		s0.1-0.1,0.2-0.1h0.4c0.1,0,0.1,0,0.2,0c0,0,0.1,0,0.1,0.1L14,39c0,0,0.1,0.1,0.1,0.2l0.7,1.3c0,0.1,0.1,0.2,0.1,0.2
		c0,0.1,0.1,0.2,0.1,0.2c0,0.1,0.1,0.2,0.1,0.2c0,0.1,0.1,0.1,0.1,0.2l0,0c0-0.1,0-0.3,0-0.4c0-0.1,0-0.3,0-0.4v-1.6c0,0,0,0,0-0.1
		c0,0,0,0,0.1,0h0.1c0,0,0.1,0,0.2,0c0.1,0,0.1,0,0.2,0s0.1,0,0.1,0l0,0c0,0,0,0,0,0.1L16,42.2L16,42.2z"/>
	<path d="M20.1,42.2C20.1,42.3,20.1,42.3,20.1,42.2v0.2l0,0l0,0h-1.8c-0.1,0-0.1,0-0.2-0.1c0,0-0.1-0.1-0.1-0.2v-3.2
		c0-0.1,0-0.1,0.1-0.2c0,0,0.1-0.1,0.2-0.1h1.8l0,0l0,0v0.1v0.1c0,0.1,0,0.1,0,0.1V39l0,0l0,0h-1.3v0.9h1.1l0,0l0,0V40v0.1
		c0,0.1,0,0.1,0,0.1v0.1l0,0l0,0h-1.1v1h1.3l0,0l0,0v0.1C20.1,42.1,20.1,42.1,20.1,42.2L20.1,42.2z"/>
	<path d="M23.7,41.1c0,0.2,0,0.4-0.1,0.6c-0.1,0.2-0.2,0.3-0.3,0.4c-0.1,0.1-0.3,0.2-0.5,0.3s-0.4,0.1-0.6,0.1c-0.2,0-0.4,0-0.6-0.1
		c-0.2-0.1-0.3-0.1-0.5-0.3c-0.1-0.1-0.2-0.3-0.3-0.4c-0.1-0.2-0.1-0.4-0.1-0.6v-2.2c0,0,0,0,0-0.1s0,0,0.1,0h0.1c0,0,0.1,0,0.2,0
		c0.1,0,0.1,0,0.2,0h0.1c0,0,0,0,0.1,0s0,0,0,0.1V41c0,0.1,0,0.3,0.1,0.4c0,0.1,0.1,0.2,0.2,0.3c0.1,0.1,0.1,0.1,0.2,0.2
		c0.1,0,0.2,0.1,0.3,0.1s0.2,0,0.3-0.1c0.1,0,0.2-0.1,0.2-0.2c0.1-0.1,0.1-0.2,0.1-0.3s0.1-0.2,0.1-0.3v-2.2c0,0,0,0,0-0.1
		s0,0,0.1,0h0.1c0,0,0.1,0,0.2,0c0.1,0,0.1,0,0.2,0s0.1,0,0.1,0s0,0,0.1,0c0,0,0,0,0,0.1L23.7,41.1L23.7,41.1z"/>
	<path d="M27.1,42.3C27.1,42.4,27.1,42.4,27.1,42.3C27.1,42.4,27.1,42.4,27.1,42.3c-0.1,0.1-0.1,0.1-0.2,0.1c-0.1,0-0.1,0-0.2,0
		c-0.1,0-0.1,0-0.2,0h-0.1c0,0,0,0-0.1,0c0,0,0,0,0-0.1L26,41.5c0-0.1-0.1-0.2-0.1-0.2c0-0.1-0.1-0.1-0.1-0.2c0,0-0.1-0.1-0.2-0.1
		c-0.1,0-0.1,0-0.2,0h-0.2v1.4c0,0,0,0,0,0.1c0,0,0,0-0.1,0H25c0,0-0.1,0-0.2,0c-0.1,0-0.1,0-0.2,0h-0.1c0,0,0,0-0.1,0
		c0,0,0,0,0-0.1v-3.3c0-0.1,0-0.1,0.1-0.2c0,0,0.1-0.1,0.2-0.1h0.9c0.1,0,0.2,0,0.2,0c0.1,0,0.1,0,0.2,0c0.1,0,0.3,0.1,0.4,0.1
		c0.1,0.1,0.2,0.1,0.3,0.2c0.1,0.1,0.1,0.2,0.2,0.3c0,0.1,0.1,0.2,0.1,0.4c0,0.1,0,0.2,0,0.3s-0.1,0.2-0.1,0.3
		c-0.1,0.1-0.1,0.1-0.2,0.2c-0.1,0.1-0.2,0.1-0.3,0.1c0.1,0,0.1,0.1,0.2,0.1l0.1,0.1c0,0.1,0.1,0.1,0.1,0.2c0,0.1,0.1,0.1,0.1,0.2
		l0.3,0.7C27.1,42.2,27.1,42.2,27.1,42.3L27.1,42.3L27.1,42.3z M26.2,39.9c0-0.1,0-0.2-0.1-0.3s-0.1-0.1-0.3-0.2h-0.1
		c0,0-0.1,0-0.2,0h-0.3v1h0.3c0.1,0,0.2,0,0.3,0s0.1-0.1,0.2-0.1c0.1,0,0.1-0.1,0.1-0.2C26.2,40,26.2,40,26.2,39.9L26.2,39.9z"/>
	<path d="M30.9,40.6c0,0.3,0,0.6-0.1,0.8s-0.2,0.4-0.3,0.6c-0.1,0.2-0.3,0.3-0.5,0.4c-0.2,0.1-0.5,0.1-0.8,0.1s-0.5,0-0.7-0.1
		s-0.4-0.2-0.5-0.3c-0.1-0.2-0.2-0.3-0.3-0.6c-0.1-0.2-0.1-0.5-0.1-0.8s0-0.6,0.1-0.8s0.2-0.4,0.3-0.6c0.1-0.2,0.3-0.3,0.5-0.4
		c0.2-0.1,0.5-0.1,0.8-0.1s0.5,0,0.7,0.1s0.4,0.2,0.5,0.3c0.1,0.2,0.2,0.3,0.3,0.6C30.8,40,30.9,40.3,30.9,40.6L30.9,40.6z
		 M30.1,40.6c0-0.2,0-0.4,0-0.5c0-0.2-0.1-0.3-0.2-0.4c-0.1-0.1-0.2-0.2-0.3-0.3s-0.3-0.1-0.4-0.1c-0.2,0-0.3,0-0.5,0.1
		c-0.1,0.1-0.2,0.2-0.3,0.3s-0.1,0.2-0.2,0.4c0,0.2,0,0.3,0,0.5s0,0.4,0,0.5c0,0.2,0.1,0.3,0.2,0.4c0.1,0.1,0.2,0.2,0.3,0.3
		s0.3,0.1,0.5,0.1s0.3,0,0.5-0.1c0.1-0.1,0.2-0.2,0.3-0.3s0.1-0.3,0.2-0.4C30.1,41,30.1,40.8,30.1,40.6L30.1,40.6z"/>
	<path d="M33.9,39.9c0,0.2,0,0.4-0.1,0.5c-0.1,0.2-0.2,0.3-0.3,0.4c-0.1,0.1-0.3,0.2-0.4,0.2c-0.2,0.1-0.4,0.1-0.6,0.1h-0.3v1.2
		c0,0,0,0,0,0.1c0,0,0,0-0.1,0H32c0,0-0.1,0-0.2,0c-0.1,0-0.1,0-0.2,0h-0.1c0,0,0,0-0.1,0c0,0,0,0,0-0.1V39c0-0.1,0-0.2,0.1-0.2
		c0,0,0.1-0.1,0.2-0.1h0.8c0.1,0,0.2,0,0.2,0c0.1,0,0.2,0,0.3,0s0.2,0.1,0.3,0.1c0.1,0.1,0.2,0.1,0.3,0.2c0.1,0.1,0.1,0.2,0.2,0.3
		C33.9,39.6,33.9,39.8,33.9,39.9L33.9,39.9z M33.2,40c0-0.1,0-0.2-0.1-0.3c0-0.1-0.1-0.1-0.2-0.2c-0.1,0-0.1-0.1-0.2-0.1
		c-0.1,0-0.1,0-0.2,0h-0.3v1.2h0.3c0.1,0,0.2,0,0.3,0s0.1-0.1,0.2-0.1c0.1-0.1,0.1-0.1,0.1-0.2C33.1,40.1,33.2,40.1,33.2,40L33.2,40
		z"/>
	<path d="M36.6,42.2C36.6,42.3,36.6,42.3,36.6,42.2v0.2l0,0l0,0h-1.8c-0.1,0-0.1,0-0.2-0.1c0,0-0.1-0.1-0.1-0.2v-3.2
		c0-0.1,0-0.1,0.1-0.2c0,0,0.1-0.1,0.2-0.1h1.7l0,0l0,0v0.1v0.1c0,0.1,0,0.1,0,0.1V39l0,0l0,0h-1.3v0.9h1.1l0,0l0,0V40v0.1
		c0,0.1,0,0.1,0,0.1v0.1l0,0l0,0h-1.1v1h1.3l0,0l0,0v0.1C36.6,42.1,36.6,42.1,36.6,42.2L36.6,42.2z"/>
	<path d="M40.2,42.2c0,0.1,0,0.1,0,0.2v0.1h-0.1c-0.1,0-0.1,0-0.2,0s-0.2,0-0.2,0c-0.1,0-0.1,0-0.1,0s0,0-0.1,0c0,0,0,0,0-0.1
		l-0.2-0.7h-1.4l-0.2,0.7c0,0,0,0,0,0.1c0,0,0,0-0.1,0s-0.1,0-0.1,0s-0.1,0-0.2,0s-0.2,0-0.2,0H37v-0.1c0,0,0-0.1,0-0.2l1.1-3.2
		v-0.1c0,0,0,0,0.1,0h0.1c0.1,0,0.1,0,0.2,0s0.2,0,0.3,0c0.1,0,0.1,0,0.2,0h0.1c0,0,0,0,0,0.1L40.2,42.2L40.2,42.2z M38.5,39.5
		L38.5,39.5L38,41h1L38.5,39.5L38.5,39.5z"/>
	<polygon class="st0" points="0,0 54.3,0 54.3,36.2 0,36.2 	"/>
	<polygon class="st1" points="26,7.9 27.2,7 28.3,7.9 27.9,6.5 29.1,5.7 27.6,5.7 27.2,4.3 26.7,5.7 25.3,5.7 26.5,6.5 	"/>
	<polygon class="st1" points="20.1,9.5 21.3,8.6 22.4,9.5 22,8.1 23.1,7.3 21.7,7.3 21.3,5.9 20.8,7.3 19.4,7.3 20.5,8.1 	"/>
	<polygon class="st1" points="16.9,10.3 16.5,11.6 15,11.6 16.2,12.5 15.8,13.8 16.9,13 18.1,13.8 17.6,12.5 18.8,11.6 17.4,11.6 	
		"/>
	<polygon class="st1" points="15.3,18.9 16.5,19.7 16,18.4 17.2,17.5 15.8,17.5 15.3,16.2 14.9,17.6 13.4,17.5 14.6,18.4 14.2,19.7 
			"/>
	<polygon class="st1" points="17.4,23.5 16.9,22.1 16.5,23.5 15,23.5 16.2,24.3 15.8,25.7 16.9,24.8 18.1,25.7 17.6,24.3 18.8,23.5 
			"/>
	<polygon class="st1" points="21.7,27.8 21.3,26.5 20.8,27.8 19.4,27.8 20.6,28.7 20.1,30 21.3,29.2 22.4,30 22,28.7 23.1,27.8 	"/>
	<polygon class="st1" points="27.6,29.4 27.2,28 26.7,29.4 25.3,29.4 26.5,30.2 26,31.6 27.2,30.8 28.3,31.6 27.9,30.2 29.1,29.4 	
		"/>
	<polygon class="st1" points="33.5,27.8 33.1,26.5 32.7,27.8 31.2,27.8 32.4,28.7 32,30 33.1,29.2 34.3,30 33.8,28.7 35,27.8 	"/>
	<polygon class="st1" points="37.9,23.5 37.5,22.1 37,23.5 35.6,23.5 36.7,24.3 36.3,25.7 37.5,24.8 38.6,25.7 38.2,24.3 39.3,23.5 
			"/>
	<polygon class="st1" points="40.9,17.5 39.5,17.5 39,16.2 38.6,17.5 37.2,17.5 38.3,18.4 37.9,19.7 39,18.9 40.2,19.7 39.7,18.4 	
		"/>
	<polygon class="st1" points="36.3,13.8 37.5,13 38.6,13.8 38.2,12.4 39.3,11.6 37.9,11.6 37.5,10.2 37,11.6 35.6,11.6 36.7,12.4 	
		"/>
	<polygon class="st1" points="33.1,5.9 32.7,7.3 31.2,7.3 32.4,8.1 32,9.5 33.1,8.6 34.3,9.5 33.8,8.1 35,7.3 33.6,7.3 	"/>
</g>
</svg>
