<?xml version="1.0" encoding="utf-8"?>
<!-- Generator: Adobe Illustrator 22.1.0, SVG Export Plug-In . SVG Version: 6.00 Build 0)  -->
<svg version="1.1" id="Capa_1" xmlns="http://www.w3.org/2000/svg" xmlns:xlink="http://www.w3.org/1999/xlink" x="0px" y="0px"
	 viewBox="0 0 300 237.4" style="enable-background:new 0 0 300 237.4;" xml:space="preserve">
<style type="text/css">
	.st0{fill:#2B4E9D;}
	.st1{fill:#F8E925;}
</style>
<rect x="5.8" y="5.6" class="st0" width="288.5" height="192.4"/>
<polygon class="st1" points="143.9,47.6 149.9,43.1 156,47.6 153.7,40.3 159.9,35.9 152.2,35.9 149.9,28.6 147.6,35.9 140,35.9 
	146.2,40.3 "/>
<polygon class="st1" points="112.4,56 118.4,51.5 124.5,56 122.2,48.7 128.4,44.4 120.8,44.4 118.4,37 116.1,44.4 108.5,44.4 
	114.7,48.7 "/>
<polygon class="st1" points="95.4,60.2 93.1,67.5 85.5,67.5 91.6,71.9 89.4,79.1 95.4,74.6 101.5,79.1 99.2,71.9 105.4,67.5 
	97.7,67.5 "/>
<polygon class="st1" points="86.9,106.1 93.1,110.5 90.7,103.3 96.9,98.9 89.2,98.9 86.9,91.7 84.6,98.9 76.9,98.9 83.2,103.3 
	80.9,110.5 "/>
<polygon class="st1" points="97.7,130.5 95.4,123.2 93.1,130.5 85.5,130.5 91.6,134.9 89.3,142 95.4,137.7 101.5,142 99.2,134.9 
	105.3,130.5 "/>
<polygon class="st1" points="120.9,153.5 118.5,146.3 116.1,153.5 108.5,153.5 114.7,158 112.4,165.2 118.5,160.7 124.6,165.2 
	122.3,158 128.5,153.5 "/>
<polygon class="st1" points="152.3,161.9 149.9,154.6 147.7,162 140,161.9 146.2,166.4 143.9,173.5 149.9,169.1 156,173.5 
	153.7,166.4 159.9,161.9 "/>
<polygon class="st1" points="183.7,153.5 181.4,146.3 179.1,153.5 171.4,153.5 177.7,158 175.3,165.2 181.4,160.7 187.5,165.2 
	185.1,158 191.3,153.5 "/>
<polygon class="st1" points="206.9,130.5 204.5,123.2 202.2,130.5 194.5,130.5 200.7,134.9 198.4,142 204.5,137.7 210.5,142 
	208.2,134.9 214.4,130.5 "/>
<polygon class="st1" points="222.8,98.8 215.2,98.8 212.9,91.5 210.5,98.8 202.9,98.8 209.1,103.2 206.8,110.4 212.9,106 219,110.4 
	216.6,103.2 "/>
<polygon class="st1" points="198.4,79 204.5,74.6 210.6,79 208.2,71.8 214.4,67.4 206.9,67.4 204.5,60.1 202.2,67.4 194.6,67.4 
	200.7,71.8 "/>
<polygon class="st1" points="181.4,37 179.2,44.4 171.6,44.4 177.7,48.7 175.4,56 181.5,51.6 187.6,56 185.3,48.7 191.5,44.4 
	183.9,44.4 "/>
<path d="M66.3,230.3c-1.4,1.2-3.3,1.9-5.8,1.9c-2.6,0-4.6-0.6-6.1-1.8c-1.4-1.2-2.1-3.2-2.1-5.9v-12.9h2.6v12.9
	c0,1.8,0.5,3.1,1.5,4.1c0.9,1,2.3,1.4,4.1,1.4c1.7,0,3-0.5,3.9-1.4c0.9-0.9,1.3-2.2,1.3-4.1v-12.9h2.7v12.9
	C68.4,227.1,67.7,229.1,66.3,230.3"/>
<path d="M74.5,217.2v2.4h0.1c1-1.8,2.6-2.8,4.7-2.8c1,0,1.8,0.2,2.4,0.5c0.6,0.3,1.2,0.7,1.6,1.1c0.4,0.5,0.7,1,0.8,1.7
	c0.2,0.6,0.3,1.4,0.3,2.1v9.6h-2.4v-9.9c0-0.8-0.3-1.6-0.8-2.1c-0.6-0.5-1.3-0.8-2.2-0.8c-0.7,0-1.4,0.1-1.9,0.3
	c-0.6,0.2-1,0.5-1.4,1c-0.3,0.4-0.6,0.9-0.8,1.4c-0.1,0.5-0.3,1.2-0.3,1.8v8.2h-2.4v-14.6H74.5"/>
<path d="M88.1,217.2h2.4v14.5h-2.4V217.2z M88.1,211.7h2.4v2.9h-2.4V211.7z"/>
<path d="M96.3,226.9c0.2,0.7,0.5,1.2,1,1.7c0.4,0.5,0.9,0.8,1.4,1.1c0.6,0.2,1.2,0.3,1.8,0.3c0.6,0,1.2-0.2,1.7-0.3
	c0.6-0.3,1.1-0.6,1.5-1.1c0.4-0.5,0.7-1.1,0.9-1.7c0.2-0.7,0.4-1.4,0.4-2.3c0-0.9-0.2-1.7-0.4-2.4c-0.2-0.7-0.6-1.2-0.9-1.8
	c-0.5-0.4-1-0.8-1.5-1c-0.5-0.3-1.1-0.3-1.7-0.3c-0.6,0-1.2,0-1.8,0.3c-0.5,0.2-1,0.6-1.4,1c-0.5,0.5-0.8,1-1,1.8
	c-0.3,0.7-0.4,1.4-0.4,2.4C95.9,225.4,96,226.2,96.3,226.9 M93.9,221.5c0.3-0.9,0.7-1.6,1.3-2.4c0.6-0.7,1.4-1.2,2.1-1.6
	c0.9-0.4,2-0.7,3.1-0.7c1.1,0,2.2,0.3,3,0.7c0.9,0.4,1.6,0.9,2.3,1.6c0.6,0.7,1.1,1.5,1.4,2.4c0.3,1,0.5,2,0.5,3.1
	c0,1.1-0.2,2-0.5,2.9c-0.2,0.9-0.7,1.7-1.4,2.5c-0.6,0.6-1.3,1.2-2.3,1.6c-0.8,0.4-1.9,0.6-3,0.6c-1.1,0-2.2-0.2-3.1-0.6
	c-0.8-0.4-1.6-1-2.1-1.6c-0.6-0.7-1.1-1.5-1.3-2.5c-0.4-0.9-0.4-1.9-0.4-2.9C93.5,223.5,93.5,222.5,93.9,221.5"/>
<path d="M112.6,217.2v2.4h0.1c1-1.8,2.6-2.8,4.7-2.8c1,0,1.8,0.2,2.4,0.5c0.6,0.3,1.2,0.7,1.6,1.1c0.4,0.5,0.6,1,0.9,1.7
	c0.1,0.6,0.2,1.4,0.2,2.1v9.6H120v-9.9c0-0.8-0.3-1.6-0.8-2.1c-0.5-0.5-1.3-0.8-2.2-0.8c-0.7,0-1.4,0.1-1.9,0.3
	c-0.5,0.2-1,0.5-1.4,1c-0.3,0.4-0.5,0.9-0.7,1.4c-0.2,0.5-0.3,1.2-0.3,1.8v8.2h-2.4v-14.6H112.6"/>
<path d="M135.7,221.5c-0.2-0.5-0.5-0.9-0.9-1.3c-0.4-0.3-0.7-0.6-1.2-0.8c-0.6-0.2-1.1-0.3-1.7-0.3c-0.6,0-1.1,0-1.6,0.3
	c-0.5,0.2-0.9,0.5-1.3,0.9c-0.3,0.3-0.7,0.8-0.8,1.2c-0.2,0.5-0.3,1.1-0.4,1.6h8.4C136,222.6,136,222,135.7,221.5 M136.3,230.9
	c-1.1,0.8-2.4,1.2-4.1,1.2c-1.1,0-2.1-0.2-3-0.5c-0.8-0.4-1.5-0.9-2.1-1.6c-0.6-0.8-1-1.5-1.4-2.4c-0.2-0.9-0.4-2-0.4-3.1
	c0-1.1,0.2-2.1,0.5-3c0.4-1,0.9-1.7,1.5-2.4c0.6-0.7,1.3-1.3,2.2-1.6c0.8-0.3,1.7-0.6,2.8-0.6c1.3,0,2.3,0.4,3.2,0.8
	c0.8,0.6,1.5,1.3,2.1,2.1c0.4,0.8,0.8,1.7,1.1,2.7c0.2,0.9,0.3,1.8,0.2,2.8h-10.8c0,0.6,0,1.2,0.2,1.8c0.2,0.6,0.5,1,0.9,1.5
	c0.3,0.4,0.9,0.8,1.5,1.1c0.5,0.2,1.3,0.4,2,0.4c1,0,1.8-0.2,2.5-0.7c0.6-0.4,1.1-1.2,1.3-2.2h2.4
	C138.1,228.8,137.4,230,136.3,230.9"/>
<path d="M158.7,221.5c-0.3-0.5-0.5-0.9-0.8-1.3c-0.4-0.3-0.9-0.6-1.4-0.8c-0.5-0.2-1-0.3-1.6-0.3c-0.7,0-1.2,0-1.7,0.3
	c-0.5,0.2-0.9,0.5-1.3,0.9c-0.4,0.3-0.6,0.8-0.8,1.2c-0.2,0.5-0.4,1.1-0.4,1.6h8.3C159,222.6,158.9,222,158.7,221.5 M159.2,230.9
	c-1.1,0.8-2.5,1.2-4.2,1.2c-1.1,0-2.1-0.2-3-0.5c-0.8-0.4-1.5-0.9-2.2-1.6c-0.5-0.8-1-1.5-1.3-2.4c-0.3-0.9-0.4-2-0.5-3.1
	c0-1.1,0.2-2.1,0.5-3c0.4-1,0.8-1.7,1.4-2.4c0.6-0.7,1.4-1.3,2.2-1.6c0.8-0.3,1.7-0.6,2.7-0.6c1.3,0,2.4,0.4,3.2,0.8
	c0.8,0.6,1.6,1.3,2.1,2.1c0.4,0.8,0.8,1.7,1,2.7c0.3,0.9,0.3,1.8,0.3,2.8h-10.9c0,0.6,0,1.2,0.2,1.8c0.2,0.6,0.5,1,0.9,1.5
	c0.3,0.4,0.8,0.8,1.4,1.1c0.6,0.2,1.2,0.4,2,0.4c1,0,1.9-0.2,2.5-0.7c0.7-0.4,1-1.2,1.3-2.2h2.4C161.1,228.8,160.3,230,159.2,230.9"
	/>
<path d="M173.9,231.8v-2.3h-0.1c-0.5,0.9-1.1,1.6-1.9,2c-0.8,0.4-1.8,0.6-2.8,0.6c-1,0-1.8-0.1-2.4-0.4c-0.6-0.2-1.2-0.6-1.6-1.1
	c-0.4-0.4-0.7-1.1-0.8-1.6c-0.2-0.7-0.2-1.3-0.2-2.2v-9.6h2.4v9.8c0,1,0.2,1.6,0.8,2.2c0.5,0.5,1.2,0.8,2.1,0.8
	c0.7,0,1.4-0.1,1.9-0.3c0.6-0.2,1-0.6,1.4-1c0.4-0.4,0.6-0.9,0.8-1.4c0.2-0.6,0.3-1.2,0.3-1.9v-8.2h2.4v14.6H173.9"/>
<path d="M181.8,217.2v3.1h0.1c0.6-1.2,1.3-2.1,2.1-2.7c0.8-0.5,1.9-0.8,3.2-0.8v2.6c-1,0-1.8,0.2-2.5,0.4c-0.7,0.3-1.2,0.7-1.7,1.1
	c-0.4,0.5-0.7,1.1-0.9,1.9c-0.2,0.7-0.3,1.6-0.3,2.5v6.5h-2.3v-14.6H181.8"/>
<path d="M190.7,226.9c0.2,0.7,0.5,1.2,1,1.7c0.4,0.5,0.9,0.8,1.5,1.1c0.5,0.2,1.1,0.3,1.7,0.3c0.6,0,1.1-0.2,1.7-0.3
	c0.5-0.3,1-0.6,1.5-1.1c0.3-0.5,0.7-1.1,1-1.7c0.2-0.7,0.3-1.4,0.3-2.3c0-0.9-0.2-1.7-0.3-2.4c-0.2-0.7-0.6-1.2-1-1.8
	c-0.5-0.4-1-0.8-1.5-1c-0.6-0.3-1.1-0.3-1.7-0.3c-0.6,0-1.2,0-1.7,0.3c-0.6,0.2-1.1,0.6-1.5,1c-0.4,0.5-0.7,1-1,1.8
	c-0.3,0.7-0.4,1.4-0.4,2.4C190.3,225.4,190.4,226.2,190.7,226.9 M188.2,221.5c0.3-0.9,0.8-1.6,1.4-2.4c0.6-0.7,1.3-1.2,2.2-1.6
	c0.9-0.4,1.9-0.7,3.1-0.7c1.1,0,2.2,0.3,3.1,0.7c0.9,0.4,1.6,0.9,2.2,1.6c0.6,0.7,1,1.5,1.3,2.4c0.3,1,0.5,2,0.5,3.1
	c0,1.1-0.2,2-0.5,2.9c-0.3,0.9-0.7,1.7-1.3,2.5c-0.7,0.6-1.3,1.2-2.2,1.6c-0.9,0.4-2,0.6-3.1,0.6c-1.1,0-2.1-0.2-3.1-0.6
	c-0.9-0.4-1.6-1-2.2-1.6c-0.6-0.7-1.1-1.5-1.4-2.5c-0.3-0.9-0.4-1.9-0.4-2.9C187.8,223.5,187.9,222.5,188.2,221.5"/>
<path d="M215.7,222.4c-0.1-0.6-0.4-1.2-0.8-1.7c-0.3-0.6-0.8-0.9-1.4-1.2c-0.6-0.2-1.3-0.5-2-0.5c-0.8,0-1.5,0.2-2.1,0.5
	c-0.5,0.3-1,0.7-1.4,1.3c-0.4,0.4-0.6,1-0.8,1.7c-0.2,0.6-0.2,1.3-0.2,2c0,0.8,0,1.4,0.2,2.1c0.2,0.6,0.4,1.1,0.8,1.7
	c0.3,0.6,0.9,0.9,1.4,1.3c0.6,0.3,1.2,0.5,2.1,0.5c0.9,0,1.5-0.3,2.1-0.5c0.5-0.4,1-0.7,1.3-1.3c0.3-0.5,0.6-1.1,0.8-1.8
	c0.2-0.6,0.2-1.3,0.2-2C216,223.7,215.9,223,215.7,222.4 M207.2,217.2v2h0.1c0.4-0.8,1-1.4,1.8-1.8c0.9-0.4,1.8-0.6,2.8-0.6
	c1.2,0,2.2,0.3,2.9,0.7c0.9,0.4,1.6,1,2.1,1.7c0.6,0.7,1,1.5,1.3,2.4c0.2,1,0.4,1.9,0.4,3c0,1-0.2,2.1-0.4,3
	c-0.3,0.9-0.7,1.7-1.3,2.4c-0.6,0.6-1.3,1.2-2.1,1.6c-0.8,0.4-1.7,0.5-2.9,0.5c-0.3,0-0.7,0-1.1,0c-0.5-0.1-0.9-0.2-1.4-0.4
	c-0.4-0.1-0.8-0.3-1.2-0.6c-0.4-0.3-0.7-0.7-1-1.2h-0.1v7.6h-2.4v-20.2H207.2z"/>
<path d="M231.2,221.5c-0.2-0.5-0.6-0.9-0.9-1.3c-0.5-0.3-0.8-0.6-1.4-0.8c-0.4-0.2-1-0.3-1.5-0.3c-0.6,0-1.3,0-1.7,0.3
	c-0.5,0.2-0.9,0.5-1.3,0.9c-0.3,0.3-0.6,0.8-0.8,1.2c-0.2,0.5-0.4,1.1-0.4,1.6h8.4C231.5,222.6,231.4,222,231.2,221.5 M231.7,230.9
	c-1.2,0.8-2.5,1.2-4.1,1.2c-1.1,0-2.1-0.2-3-0.5c-0.9-0.4-1.7-0.9-2.2-1.6c-0.6-0.8-1-1.5-1.3-2.4c-0.3-0.9-0.5-2-0.5-3.1
	c0-1.1,0.2-2.1,0.5-3c0.4-1,0.8-1.7,1.4-2.4c0.6-0.7,1.4-1.3,2.2-1.6c0.8-0.3,1.7-0.6,2.7-0.6c1.3,0,2.3,0.4,3.2,0.8
	c0.9,0.6,1.5,1.3,2,2.1c0.6,0.8,0.9,1.7,1.1,2.7c0.1,0.9,0.2,1.8,0.2,2.8h-10.9c0,0.6,0,1.2,0.2,1.8c0.1,0.6,0.5,1,0.8,1.5
	c0.4,0.4,0.9,0.8,1.4,1.1c0.6,0.2,1.3,0.4,2,0.4c1,0,1.9-0.2,2.5-0.7c0.6-0.4,1.1-1.2,1.3-2.2h2.4
	C233.5,228.8,232.8,230,231.7,230.9"/>
<path d="M244.4,224.8c-0.5,0.1-1.1,0.2-1.5,0.3c-0.6,0.1-1.1,0.1-1.7,0.2c-0.5,0.1-1.1,0.2-1.5,0.4c-0.4,0.2-0.8,0.5-1,0.8
	c-0.2,0.4-0.5,0.9-0.5,1.4c0,0.4,0.2,0.7,0.3,1.1c0.2,0.3,0.4,0.5,0.6,0.7c0.3,0.2,0.5,0.2,0.9,0.3c0.3,0.1,0.7,0.2,1,0.2
	c0.8,0,1.4-0.2,2.1-0.4c0.5-0.2,0.9-0.5,1.3-0.8c0.4-0.4,0.6-0.7,0.8-1.1c0.2-0.4,0.3-0.7,0.3-1.1v-2.5
	C245.2,224.5,244.9,224.6,244.4,224.8 M247.7,232.1c-0.6,0-1.1-0.2-1.5-0.5c-0.4-0.3-0.5-0.9-0.5-1.7c-0.7,0.8-1.5,1.4-2.4,1.7
	c-0.8,0.3-1.8,0.5-2.8,0.5c-0.7,0-1.3-0.1-1.9-0.2c-0.6-0.2-1.1-0.3-1.5-0.7c-0.5-0.3-0.8-0.7-1.1-1.3c-0.2-0.5-0.4-1.1-0.4-1.8
	c0-0.9,0.2-1.5,0.4-2.1c0.3-0.5,0.7-0.9,1.2-1.4c0.5-0.3,0.9-0.5,1.6-0.7c0.5-0.1,1.1-0.3,1.8-0.4c0.7-0.2,1.3-0.3,1.9-0.4
	c0.7,0,1.1-0.2,1.5-0.3c0.4-0.1,0.8-0.2,1.1-0.5c0.3-0.2,0.4-0.5,0.4-1c0-0.5-0.1-0.9-0.3-1.3c-0.2-0.3-0.5-0.5-0.8-0.7
	c-0.3-0.1-0.7-0.2-1-0.3c-0.3,0-0.8-0.1-1.1-0.1c-1,0-1.9,0.2-2.6,0.6c-0.6,0.4-1,1.1-1.1,2.2h-2.4c0.1-0.9,0.3-1.7,0.6-2.3
	c0.3-0.6,0.8-1.1,1.3-1.5c0.5-0.4,1.2-0.7,1.9-0.8c0.8-0.2,1.6-0.4,2.4-0.4c0.7,0,1.2,0.2,1.9,0.3c0.7,0.1,1.3,0.3,1.8,0.5
	c0.5,0.4,0.9,0.7,1.3,1.3c0.3,0.5,0.5,1.1,0.5,2v7.5c0,0.5,0.1,1,0.1,1.3c0.1,0.2,0.3,0.4,0.7,0.4c0.1,0,0.4-0.1,0.7-0.2v1.8
	C249,232,248.4,232.1,247.7,232.1"/>
</svg>
