<?xml version="1.0" encoding="utf-8"?>
<!-- Generator: Adobe Illustrator 22.1.0, SVG Export Plug-In . SVG Version: 6.00 Build 0)  -->
<svg version="1.1" id="Capa_1" xmlns="http://www.w3.org/2000/svg" xmlns:xlink="http://www.w3.org/1999/xlink" x="0px" y="0px"
	 viewBox="0 0 595.3 661.1" style="enable-background:new 0 0 595.3 661.1;" xml:space="preserve">
<style type="text/css">
	.st0{fill:#FFFFFF;}
</style>
<g>
	<g>
		<g>
			<path class="st0" d="M576.1,326.9h-40.6c0-132.6-107.9-240.5-240.5-240.5S54.5,194.3,54.5,326.9H14c0-155,126.1-281,281-281
				C450,45.8,576.1,171.9,576.1,326.9"/>
		</g>
	</g>
	<g>
		<g>
			<path class="st0" d="M518.1,326.9h-40.6c0-100.7-81.9-182.5-182.5-182.5s-182.5,81.9-182.5,182.5H71.9
				c0-123,100.1-223.1,223.1-223.1C418.1,103.8,518.1,203.9,518.1,326.9"/>
		</g>
	</g>
	<g>
		<g>
			<path class="st0" d="M460.2,326.9h-40.6c0-68.7-55.9-124.6-124.6-124.6s-124.6,55.9-124.6,124.6h-40.6
				c0-91.1,74.1-165.2,165.1-165.2C386.1,161.7,460.2,235.8,460.2,326.9"/>
		</g>
	</g>
	<g>
		<g>
			<path class="st0" d="M402.3,326.9h-40.6c0-36.7-29.9-66.6-66.6-66.6s-66.6,29.9-66.6,66.6h-40.6c0-59.1,48.1-107.2,107.2-107.2
				S402.3,267.8,402.3,326.9"/>
		</g>
	</g>
	<g>
		<g>
			<path class="st0" d="M344.3,326.9h-40.6c0-4.8-3.9-8.7-8.7-8.7c-4.8,0-8.7,3.9-8.7,8.7h-40.6c0-27.2,22.1-49.3,49.3-49.3
				C322.2,277.6,344.3,299.7,344.3,326.9"/>
		</g>
	</g>
</g>
<rect x="302.9" y="383.7" class="st0" width="5.8" height="162.6"/>
<polygon class="st0" points="46,534.6 29.5,496.4 20.3,544.5 25.5,544.5 31.3,513.7 31.4,513.7 46,546.3 60.6,513.7 60.8,513.7 
	66.6,544.5 71.8,544.5 62.6,496.4 "/>
<g>
	<g>
		<g>
			<path class="st0" d="M82.5,526.1c0,3.4-0.1,7.2,2,10.1c2,2.8,5.8,4.3,9.2,4.3c3.3,0,6.8-1.5,8.9-4c2.4-2.9,2.2-6.9,2.2-10.4V499
				h5.1v28.4c0,4.9-0.4,8.9-4,12.6c-3.1,3.4-7.6,5.2-12.2,5.2c-4.3,0-8.7-1.6-11.7-4.6c-4-3.8-4.5-8-4.5-13.1V499h5.1
				C82.5,499,82.5,526.1,82.5,526.1z"/>
		</g>
	</g>
	<g>
		<g>
			<path class="st0" d="M139.4,507.9c-1.8-3.1-4-4.9-7.8-4.9c-4,0-7.5,2.9-7.5,7.1c0,3.9,4,5.7,7.1,7.1l3,1.3
				c5.9,2.6,10.9,5.5,10.9,12.8c0,8-6.4,14-14.3,14c-7.3,0-12.7-4.7-14.2-11.8l4.9-1.4c0.7,4.6,4.2,8.4,9.1,8.4
				c4.9,0,9.3-3.7,9.3-8.9c0-5.3-4.2-7.1-8.4-9l-2.8-1.2c-5.3-2.4-9.9-5.1-9.9-11.6c0-7,6-11.6,12.7-11.6c5.1,0,9.3,2.6,11.7,7.1
				L139.4,507.9z"/>
		</g>
	</g>
</g>
<polygon class="st0" points="152.5,499 176,499 176,503.7 157.5,503.7 157.5,517.2 175.5,517.2 175.5,521.9 157.5,521.9 
	157.5,539.8 176,539.8 176,544.5 152.5,544.5 "/>
<g>
	<g>
		<g>
			<path class="st0" d="M189.6,526.1c0,3.4-0.1,7.2,2,10.1c2,2.8,5.8,4.3,9.2,4.3c3.3,0,6.8-1.5,8.9-4c2.4-2.9,2.2-6.9,2.2-10.4V499
				h5.1v28.4c0,4.9-0.4,8.9-4,12.6c-3.1,3.4-7.7,5.2-12.2,5.2c-4.3,0-8.7-1.6-11.7-4.6c-4-3.8-4.5-8-4.5-13.1V499h5.1v27.1H189.6z"
				/>
		</g>
	</g>
</g>
<polygon class="st0" points="248.3,534.6 231.8,496.4 222.6,544.5 227.8,544.5 233.6,513.7 233.7,513.7 248.3,546.3 262.9,513.7 
	263.1,513.7 268.9,544.5 274.1,544.5 264.9,496.4 "/>
<g>
	<g>
		<g>
			<path class="st0" d="M364.3,509c-3.6-3.7-8.6-6-13.9-6c-10.1,0-18.3,8.8-18.3,18.8s8.3,18.8,18.4,18.8c5.1,0,10.1-2.4,13.7-6v6.3
				c-3.9,2.8-8.7,4.5-13.6,4.5c-12.8,0-23.7-10.4-23.7-23.3c0-13,10.7-23.7,23.7-23.7c5.1,0,9.5,1.4,13.6,4.5L364.3,509L364.3,509z"
				/>
		</g>
	</g>
</g>
<polygon class="st0" points="401.3,517.5 401.3,499 406.4,499 406.4,544.5 401.3,544.5 401.3,522.2 378.1,522.2 378.1,544.5 
	373,544.5 373,499 378.1,499 378.1,517.5 "/>
<path class="st0" d="M432.4,508.7l-7.8,18.2H440L432.4,508.7z M422.6,531.6l-5.5,12.9h-5.5l21-47.6l20.4,47.6h-5.6l-5.4-12.9H422.6z
	"/>
<polygon class="st0" points="458.2,544.5 463.3,544.5 463.3,509.4 498.7,546.5 498.7,499 493.6,499 493.6,534.2 458.2,497.1 "/>
<g>
	<g>
		<g>
			<path class="st0" d="M550.4,521.6c0.1,6.1-0.5,11.2-4.7,16s-10.5,7.6-16.8,7.6c-12.8,0-23.4-10.6-23.4-23.4
				c0-13,10.6-23.6,23.7-23.6c8,0,14.4,3.6,19.2,9.8l-3.7,3.4c-3.8-5.4-8.9-8.6-15.6-8.6c-10.4,0-18.6,8.7-18.6,19
				c0,4.8,1.9,9.4,5.3,12.8c3.3,3.3,8.1,5.8,12.9,5.8c7.9,0,16.2-5.8,16.2-14.2h-13.5v-4.7h19V521.6z"/>
		</g>
	</g>
</g>
<polygon class="st0" points="557.5,499 557.5,544.5 581.1,544.5 581.1,539.8 562.6,539.8 562.6,521.9 580.5,521.9 580.5,517.2 
	562.6,517.2 562.6,503.7 581.1,503.7 581.1,499 "/>
<g>
	<g>
		<g>
			<path class="st0" d="M89.2,468.9c-1.9,0-3.5-1.6-3.5-3.5v-54.8c0-1.9,1.6-3.5,3.5-3.5s3.5,1.6,3.5,3.5v54.8
				C92.7,467.4,91.1,468.9,89.2,468.9 M216.3,439.2c5.4,1.5,12.8-2.2,16.6-6.7c2.2-2.6,3.3-6.3,2.7-8.6c-0.2-0.8-0.8-2-2.9-2.6
				c-5.5-1.8-11.3,2.6-13.8,7.9C217.4,432.1,216.5,435.6,216.3,439.2 M237.4,470.2c-7.2,0-14-2.4-19.4-7.3
				c-10.4-9.4-10.6-25.9-5.4-36.7c3.8-7.8,12.8-14.6,22.3-11.5c3.8,1.2,6.4,3.8,7.4,7.4c1.5,5.2-1,11.3-4,15
				c-4.8,5.7-13.6,10.4-21.6,9.4c0.8,4.4,2.7,8.4,6,11.4c8,7.2,19.7,7.4,31.1,0.6c5.2-3.1,9.2-6.1,12.1-9.1c1.3-1.4,3.5-1.4,4.9-0.1
				s1.4,3.5,0.1,4.9c-3.3,3.4-7.8,6.8-13.5,10.2C250.7,468.2,243.8,470.2,237.4,470.2 M151.4,472.4L151.4,472.4
				c-1.2-0.1-2.3-0.7-2.9-1.7c-4.8-8-8.6-16.8-12.3-25.3c-4.3-9.9-8.8-20.1-14.8-29.2c-1.1-1.6-0.6-3.8,1-4.8c1.6-1.1,3.8-0.6,4.8,1
				c6.3,9.6,10.9,20.1,15.3,30.2c3.1,7.2,6.1,14.1,9.7,20.6c2.1-2.2,4.6-4.9,5-5.4c3.3-4.2,4.5-6.3,5.8-8.5c1.4-2.3,2.8-4.6,6.2-9.1
				c1.6-2.1,3.6-5,5.8-8.1c3.8-5.4,8.1-11.6,11.7-15.6c1.3-1.4,3.5-1.6,4.9-0.3c1.4,1.3,1.6,3.5,0.3,4.9c-3.3,3.7-7.5,9.7-11.2,14.9
				c-2.2,3.2-4.4,6.2-6,8.4c-3.2,4.1-4.4,6.2-5.7,8.4c-1.4,2.3-2.8,4.7-6.3,9.2C162.7,462.2,154.6,472.4,151.4,472.4 M39.5,475.5
				c-3.3,0-6.6-1-9.5-3.5c-5.7-5-5.2-13.8-4.8-20.8c0.1-1.6,0.2-3,0.2-4.4c0-7.5,0.3-15,0.6-22.3c0.4-10.6,0.8-21.6,0.4-32.3
				c-0.1-1.9,1.4-3.6,3.3-3.6s3.6,1.4,3.6,3.3c0.5,11,0.1,22.1-0.3,32.9c-0.3,7.2-0.6,14.7-0.6,22.1c0,1.4-0.1,3-0.2,4.7
				c-0.3,5.5-0.7,12.4,2.5,15.2c4.3,3.8,12.6,0.4,17.1-3.2c1.5-1.2,3.7-0.9,4.9,0.6s0.9,3.7-0.6,4.9C52.5,471.9,46,475.5,39.5,475.5
				"/>
		</g>
	</g>
	<g>
		<g>
			<path class="st0" d="M94.2,396.1c0,2.9-2.2,5.2-4.9,5.2c-2.7,0-4.9-2.3-4.9-5.2s2.2-5.2,4.9-5.2S94.2,393.2,94.2,396.1"/>
		</g>
	</g>
	<g>
		<g>
			<path class="st0" d="M390.4,469c-1.9,0-3.4-1.5-3.4-3.4v-54.2c0-1.9,1.5-3.4,3.4-3.4s3.4,1.5,3.4,3.4v54.2
				C393.8,467.5,392.3,469,390.4,469 M516.2,439.5c5.3,1.4,12.7-2.2,16.4-6.6c2.2-2.6,3.3-6.2,2.6-8.5c-0.2-0.8-0.8-1.9-2.8-2.6
				c-5.4-1.8-11.2,2.6-13.7,7.8C517.3,432.5,516.4,436,516.2,439.5 M537.1,470.2c-7.2,0-13.9-2.4-19.2-7.2
				c-10.3-9.3-10.5-25.7-5.3-36.4c3.7-7.8,12.7-14.4,22-11.4c3.7,1.2,6.4,3.8,7.3,7.3c1.5,5.2-0.9,11.2-4,14.8
				c-4.7,5.6-13.4,10.3-21.4,9.3c0.8,4.3,2.7,8.4,5.9,11.2c7.9,7.1,19.5,7.4,30.8,0.6c5.1-3.1,9.2-6.1,11.9-9
				c1.3-1.4,3.5-1.4,4.9-0.1s1.4,3.5,0.1,4.9c-3.2,3.4-7.7,6.8-13.4,10.1C550.2,468.3,543.5,470.2,537.1,470.2 M452,472.4L452,472.4
				c-1.2-0.1-2.3-0.7-2.8-1.7c-4.8-8-8.5-16.7-12.2-25.1c-4.3-9.8-8.7-19.9-14.6-28.9c-1-1.6-0.6-3.7,1-4.8c1.6-1.1,3.7-0.6,4.8,1
				c6.3,9.5,10.8,19.9,15.2,29.9c3.1,7.1,6.1,13.9,9.6,20.4c2.1-2.2,4.5-4.8,4.9-5.3c3.2-4.1,4.5-6.2,5.8-8.4c1.3-2.3,2.7-4.6,6.2-9
				c1.6-2,3.6-4.9,5.8-8c3.8-5.4,8-11.4,11.6-15.4c1.3-1.4,3.4-1.6,4.9-0.3c1.4,1.3,1.6,3.4,0.3,4.9c-3.3,3.7-7.4,9.6-11.1,14.8
				c-2.3,3.2-4.3,6.2-6,8.3c-3.2,4.1-4.4,6.1-5.7,8.3c-1.4,2.3-2.7,4.6-6.3,9.1C463.1,462.3,455.2,472.4,452,472.4 M341.2,475.5
				c-3.3,0-6.6-0.9-9.4-3.4c-5.6-4.9-5.2-13.6-4.8-20.6c0.1-1.5,0.2-3,0.2-4.3c0-7.4,0.3-14.9,0.6-22.1c0.4-10.5,0.8-21.4,0.3-32
				c-0.1-1.9,1.4-3.5,3.3-3.6c1.8-0.1,3.5,1.4,3.6,3.3c0.5,10.9,0.1,21.9-0.3,32.6c-0.3,7.2-0.6,14.6-0.6,21.9c0,1.4-0.1,3-0.2,4.7
				c-0.3,5.5-0.7,12.3,2.4,15c4.2,3.7,12.5,0.4,17-3.1c1.5-1.2,3.7-0.9,4.8,0.6c1.2,1.5,0.9,3.7-0.6,4.8
				C354.1,471.9,347.6,475.5,341.2,475.5"/>
		</g>
	</g>
	<g>
		<g>
			<path class="st0" d="M395.4,396.9c0,2.9-2.2,5.2-4.9,5.2c-2.7,0-4.9-2.3-4.9-5.2s2.2-5.2,4.9-5.2
				C393.2,391.7,395.4,394,395.4,396.9"/>
		</g>
	</g>
</g>
<g>
	<path class="st0" d="M45.2,609.9c-0.1-0.1-0.4-0.3-0.9-0.6s-1.1-0.6-1.9-1s-1.6-0.6-2.5-0.9c-0.9-0.3-1.8-0.4-2.7-0.4
		c-2.5,0-3.7,0.8-3.7,2.5c0,0.5,0.1,0.9,0.4,1.3s0.7,0.6,1.2,0.9c0.5,0.3,1.2,0.5,2,0.7s1.7,0.5,2.7,0.8c1.4,0.4,2.7,0.8,3.9,1.3
		c1.1,0.5,2.1,1,2.9,1.7s1.4,1.5,1.8,2.5c0.4,1,0.7,2.2,0.7,3.5c0,1.7-0.3,3.1-0.9,4.3s-1.5,2.1-2.5,2.8s-2.2,1.2-3.6,1.6
		c-1.3,0.3-2.7,0.5-4.2,0.5c-1.1,0-2.2-0.1-3.4-0.3c-1.1-0.2-2.3-0.4-3.4-0.7s-2.1-0.7-3.2-1.2s-2-1-2.8-1.6l3-6
		c0.1,0.1,0.5,0.4,1.1,0.8c0.6,0.4,1.4,0.8,2.3,1.2c0.9,0.4,1.9,0.7,3,1s2.3,0.5,3.4,0.5c2.4,0,3.7-0.7,3.7-2.2c0-0.6-0.2-1-0.5-1.4
		c-0.4-0.4-0.9-0.7-1.5-1s-1.4-0.6-2.3-0.8s-1.8-0.5-2.9-0.8c-1.4-0.4-2.6-0.9-3.6-1.4s-1.8-1.1-2.5-1.7c-0.7-0.6-1.1-1.4-1.5-2.2
		c-0.3-0.8-0.5-1.8-0.5-2.9c0-1.6,0.3-3,0.9-4.2s1.4-2.2,2.4-3s2.2-1.4,3.5-1.9c1.3-0.4,2.7-0.6,4.2-0.6c1,0,2.1,0.1,3.1,0.3
		s2,0.4,2.9,0.8c0.9,0.3,1.8,0.7,2.6,1.1s1.5,0.8,2.2,1.2L45.2,609.9z"/>
	<path class="st0" d="M62.9,631c-1.5,0-2.8-0.3-4-0.9c-1.2-0.6-2.2-1.4-3.1-2.4c-0.9-1-1.5-2.2-2-3.5s-0.7-2.8-0.7-4.3
		c0-1.6,0.3-3.1,0.8-4.5s1.2-2.6,2.1-3.6c0.9-1,2-1.8,3.2-2.4c1.3-0.6,2.6-0.9,4.2-0.9c1.7,0,3.1,0.4,4.4,1.1c1.2,0.7,2.2,1.7,3,3
		V609h5.8v20.5c0,1.7-0.3,3.2-0.9,4.5s-1.5,2.5-2.6,3.4s-2.5,1.7-4,2.2s-3.3,0.8-5.2,0.8c-2.4,0-4.4-0.4-6.1-1.1
		c-1.7-0.8-3.2-1.8-4.4-3.3l3.6-3.7c0.8,0.9,1.8,1.7,3,2.2s2.5,0.8,3.9,0.8c0.8,0,1.6-0.1,2.3-0.3s1.4-0.6,1.9-1s1-1.1,1.3-1.8
		s0.5-1.6,0.5-2.7v-2.1c-0.7,1.2-1.6,2.2-2.9,2.8C65.7,630.7,64.3,631,62.9,631z M65.2,625.7c1,0,2-0.3,2.8-0.9
		c0.8-0.6,1.4-1.3,1.9-2.2V618c-0.4-1.2-1.1-2.1-2.1-2.8c-0.9-0.7-1.9-1-2.9-1c-0.7,0-1.4,0.2-2,0.5s-1.1,0.8-1.6,1.3
		c-0.4,0.5-0.8,1.2-1,1.9s-0.4,1.4-0.4,2.2s0.1,1.6,0.4,2.2c0.3,0.7,0.6,1.3,1.1,1.8s1,0.9,1.7,1.2
		C63.7,625.6,64.4,625.7,65.2,625.7z"/>
	<path class="st0" d="M89.5,631.4c-2.3,0-4-0.7-5.1-2.1c-1.2-1.4-1.7-3.5-1.7-6.2V609h6.7v12.6c0,1.3,0.3,2.4,0.8,3.1
		c0.5,0.7,1.3,1.1,2.3,1.1c0.9,0,1.8-0.2,2.6-0.7c0.8-0.5,1.6-1.3,2.2-2.5V609h6.7v14.5c0,0.7,0.1,1.1,0.3,1.4
		c0.2,0.3,0.6,0.4,1.1,0.5v5.7c-0.6,0.1-1.2,0.2-1.6,0.3s-0.9,0.1-1.2,0.1c-2.4,0-3.8-0.9-4.1-2.8l-0.1-1.3c-1,1.5-2.3,2.5-3.8,3.2
		C93.1,631,91.4,631.4,89.5,631.4z"/>
	<path class="st0" d="M117.1,631.4c-1.1,0-2.1-0.2-3-0.5s-1.7-0.8-2.4-1.5s-1.2-1.4-1.6-2.2c-0.4-0.9-0.6-1.8-0.6-2.8
		c0-1.1,0.2-2.1,0.7-3s1.1-1.7,2-2.3c0.8-0.6,1.8-1.1,3-1.5c1.1-0.4,2.4-0.5,3.8-0.5c0.9,0,1.8,0.1,2.7,0.2c0.9,0.2,1.6,0.4,2.3,0.7
		v-1c0-2.5-1.5-3.8-4.4-3.8c-1.2,0-2.4,0.2-3.4,0.6c-1.1,0.4-2.2,1-3.4,1.8l-2-4.2c1.5-1,3-1.7,4.5-2.1c1.6-0.5,3.2-0.7,5-0.7
		c3.3,0,5.9,0.8,7.7,2.4s2.7,3.9,2.7,6.9v5.7c0,0.7,0.1,1.1,0.3,1.4c0.2,0.3,0.6,0.4,1.1,0.5v5.7c-0.6,0.1-1.1,0.2-1.6,0.3
		s-0.9,0.1-1.3,0.1c-1.3,0-2.2-0.2-2.9-0.7c-0.6-0.5-1.1-1.2-1.2-2.1l-0.1-1c-1,1.3-2.1,2.2-3.5,2.9
		C120.1,631,118.6,631.4,117.1,631.4z M119.1,626.5c0.7,0,1.4-0.1,2.1-0.4c0.7-0.3,1.3-0.6,1.7-1c0.6-0.5,1-1,1-1.6v-2.1
		c-0.6-0.2-1.2-0.4-1.9-0.5c-0.7-0.1-1.3-0.2-1.9-0.2c-1.2,0-2.2,0.3-3,0.8c-0.8,0.6-1.2,1.3-1.2,2.2c0,0.8,0.3,1.5,0.9,2
		C117.4,626.3,118.1,626.5,119.1,626.5z"/>
	<path class="st0" d="M151.1,614.6c-1.6,0-3.1,0.3-4.4,0.8c-1.3,0.5-2.3,1.3-2.9,2.3v13.2h-6.7v-22h6.2v4.5c0.8-1.5,1.7-2.6,2.9-3.5
		s2.5-1.3,3.8-1.3c0.3,0,0.5,0,0.7,0c0.1,0,0.3,0,0.4,0V614.6L151.1,614.6z"/>
	<path class="st0" d="M163.7,631.4c-1.5,0-2.9-0.3-4.2-0.9c-1.3-0.6-2.4-1.4-3.3-2.4c-0.9-1-1.6-2.2-2.2-3.6
		c-0.5-1.4-0.8-2.9-0.8-4.6c0-1.6,0.2-3.1,0.7-4.5s1.1-2.6,2-3.6s1.9-1.8,3.1-2.4c1.2-0.6,2.5-0.9,3.9-0.9c1.5,0,2.9,0.4,4.2,1.1
		c1.2,0.7,2.2,1.7,2.9,2.9v-12.2h6.7v23.1c0,0.7,0.1,1.1,0.3,1.4c0.2,0.3,0.6,0.4,1.1,0.5v5.7c-0.6,0.1-1.1,0.2-1.6,0.3
		s-0.9,0.1-1.3,0.1c-1.2,0-2.1-0.2-2.9-0.7c-0.7-0.5-1.1-1.2-1.3-2.1l-0.1-1.1c-0.8,1.4-1.8,2.4-3.2,3.1
		C166.6,631,165.2,631.4,163.7,631.4z M165.5,625.7c0.9,0,1.8-0.3,2.7-0.8s1.5-1.3,2-2.2V618c-0.4-1.1-1.1-2-2-2.8
		c-0.9-0.7-1.9-1.1-2.9-1.1c-0.7,0-1.4,0.2-2,0.5s-1.1,0.8-1.6,1.3c-0.4,0.5-0.8,1.1-1,1.8s-0.4,1.4-0.4,2.2s0.1,1.6,0.4,2.3
		s0.6,1.3,1.1,1.8s1,0.9,1.7,1.2C164,625.6,164.8,625.7,165.5,625.7z"/>
	<path class="st0" d="M183.7,606.4v-6.1h6.7v6.1H183.7z M183.7,630.9v-22h6.7v22H183.7z"/>
	<path class="st0" d="M218.7,631.4c-1.8,0-3.5-0.3-5-0.9S211,629,210,628s-1.8-2.2-2.3-3.6c-0.5-1.4-0.8-2.8-0.8-4.3
		c0-1.6,0.3-3.1,0.8-4.5s1.3-2.7,2.3-3.7c1-1.1,2.2-1.9,3.7-2.5s3.1-0.9,5-0.9s3.5,0.3,5,0.9c1.5,0.6,2.7,1.4,3.7,2.5
		c1,1,1.8,2.3,2.3,3.6c0.5,1.4,0.8,2.8,0.8,4.3c0,0.4,0,0.8,0,1.2s-0.1,0.7-0.1,1H214c0.1,1.5,0.7,2.6,1.6,3.4
		c1,0.8,2.1,1.2,3.3,1.2c1,0,1.9-0.2,2.8-0.7c0.9-0.5,1.5-1.1,1.8-1.9l5.7,1.6c-0.9,1.7-2.2,3.2-4,4.2
		C223.5,630.8,221.3,631.4,218.7,631.4z M223.4,617.8c-0.1-1.4-0.6-2.5-1.5-3.3s-1.9-1.2-3.2-1.2s-2.4,0.4-3.3,1.2
		c-0.9,0.8-1.4,1.9-1.5,3.3H223.4L223.4,617.8z"/>
	<path class="st0" d="M251.3,630.9l-7.8-22h6.9l4.8,16.7l4.9-16.7h6.3l-7.8,22H251.3z"/>
	<path class="st0" d="M280.3,631.4c-1.9,0-3.5-0.3-5-0.9s-2.7-1.4-3.7-2.5c-1-1-1.8-2.3-2.3-3.7s-0.8-2.8-0.8-4.3s0.3-3,0.8-4.3
		c0.5-1.4,1.3-2.6,2.3-3.7s2.2-1.9,3.7-2.5s3.1-0.9,5-0.9s3.5,0.3,5,0.9c1.5,0.6,2.7,1.5,3.7,2.5s1.8,2.3,2.3,3.7s0.8,2.8,0.8,4.3
		s-0.3,3-0.8,4.3c-0.5,1.4-1.3,2.6-2.3,3.7s-2.2,1.9-3.7,2.5C283.9,631.1,282.2,631.4,280.3,631.4z M275.4,619.9
		c0,1.7,0.5,3.1,1.4,4.2c0.9,1,2.1,1.6,3.5,1.6c0.7,0,1.3-0.1,1.9-0.4c0.6-0.3,1.1-0.7,1.5-1.2s0.8-1.1,1-1.8
		c0.3-0.7,0.4-1.5,0.4-2.3c0-1.7-0.5-3.1-1.4-4.2c-0.9-1.1-2.1-1.6-3.5-1.6c-0.7,0-1.4,0.1-2,0.4c-0.6,0.3-1.1,0.7-1.6,1.2
		c-0.4,0.5-0.8,1.1-1,1.8S275.4,619.1,275.4,619.9z"/>
	<path class="st0" d="M295.8,619.9c0-1.5,0.3-3,0.8-4.3c0.5-1.4,1.3-2.6,2.3-3.7c1-1,2.2-1.9,3.7-2.5s3.1-0.9,5-0.9
		c2.5,0,4.7,0.5,6.4,1.6s3,2.5,3.9,4.2l-6.6,2c-0.9-1.4-2.1-2.1-3.8-2.1c-1.4,0-2.6,0.5-3.5,1.6c-0.9,1-1.4,2.4-1.4,4.2
		c0,0.9,0.1,1.7,0.4,2.4s0.6,1.3,1.1,1.8c0.4,0.5,1,0.9,1.6,1.2s1.2,0.4,1.9,0.4c0.8,0,1.6-0.2,2.3-0.6c0.7-0.4,1.2-0.9,1.6-1.6
		l6.6,2c-0.8,1.7-2.1,3.1-3.9,4.2c-1.8,1.1-3.9,1.6-6.5,1.6c-1.8,0-3.5-0.3-5-0.9c-1.5-0.6-2.7-1.5-3.7-2.5s-1.8-2.3-2.3-3.7
		C296.1,622.9,295.8,621.4,295.8,619.9z"/>
	<path class="st0" d="M322.8,606.4v-6.1h6.7v6.1H322.8z M322.8,630.9v-22h6.7v22H322.8z"/>
	<path class="st0" d="M356.4,631.4c-1.5,0-2.9-0.3-4.2-0.9c-1.3-0.6-2.4-1.4-3.3-2.4s-1.6-2.2-2.2-3.6c-0.5-1.4-0.8-2.9-0.8-4.6
		c0-1.6,0.2-3.1,0.7-4.5s1.1-2.6,2-3.6s1.9-1.8,3.1-2.4s2.5-0.9,3.9-0.9c1.5,0,2.9,0.4,4.2,1.1c1.2,0.7,2.2,1.7,2.9,2.9v-12.2h6.7
		v23.1c0,0.7,0.1,1.1,0.3,1.4c0.2,0.3,0.6,0.4,1.1,0.5v5.7c-0.6,0.1-1.1,0.2-1.6,0.3s-0.9,0.1-1.3,0.1c-1.2,0-2.1-0.2-2.9-0.7
		c-0.7-0.5-1.1-1.2-1.3-2.1l-0.1-1.1c-0.8,1.4-1.8,2.4-3.2,3.1C359.3,631,357.9,631.4,356.4,631.4z M358.2,625.7
		c0.9,0,1.8-0.3,2.7-0.8c0.9-0.5,1.5-1.3,2-2.2V618c-0.4-1.1-1.1-2-2-2.8c-0.9-0.7-1.9-1.1-2.9-1.1c-0.7,0-1.4,0.2-2,0.5
		s-1.1,0.8-1.6,1.3c-0.4,0.5-0.8,1.1-1,1.8s-0.4,1.4-0.4,2.2s0.1,1.6,0.4,2.3s0.6,1.3,1.1,1.8s1,0.9,1.7,1.2
		C356.7,625.6,357.4,625.7,358.2,625.7z"/>
	<path class="st0" d="M382.6,631.4c-1.1,0-2.1-0.2-3-0.5s-1.7-0.8-2.4-1.5c-0.7-0.6-1.2-1.4-1.6-2.2c-0.4-0.9-0.6-1.8-0.6-2.8
		c0-1.1,0.2-2.1,0.7-3s1.1-1.7,2-2.3c0.8-0.6,1.8-1.1,3-1.5c1.1-0.4,2.4-0.5,3.8-0.5c0.9,0,1.8,0.1,2.7,0.2c0.9,0.2,1.6,0.4,2.3,0.7
		v-1c0-2.5-1.5-3.8-4.4-3.8c-1.2,0-2.4,0.2-3.4,0.6c-1.1,0.4-2.2,1-3.4,1.8l-2-4.2c1.5-1,3-1.7,4.5-2.1c1.6-0.5,3.2-0.7,5-0.7
		c3.3,0,5.9,0.8,7.7,2.4c1.8,1.6,2.7,3.9,2.7,6.9v5.7c0,0.7,0.1,1.1,0.3,1.4c0.2,0.3,0.6,0.4,1.1,0.5v5.7c-0.6,0.1-1.1,0.2-1.6,0.3
		c-0.5,0-0.9,0.1-1.3,0.1c-1.3,0-2.2-0.2-2.9-0.7c-0.6-0.5-1-1.2-1.2-2.1l-0.1-1c-1,1.3-2.1,2.2-3.5,2.9
		C385.6,631,384.2,631.4,382.6,631.4z M384.6,626.5c0.7,0,1.4-0.1,2.1-0.4s1.3-0.6,1.7-1c0.6-0.5,1-1,1-1.6v-2.1
		c-0.6-0.2-1.2-0.4-1.9-0.5c-0.7-0.1-1.3-0.2-1.9-0.2c-1.2,0-2.2,0.3-3,0.8c-0.8,0.6-1.2,1.3-1.2,2.2c0,0.8,0.3,1.5,0.9,2
		C382.9,626.3,383.7,626.5,384.6,626.5z"/>
	<path class="st0" d="M436.2,607.2h-9.1V631h-6.9v-23.8h-9.1v-6h25.1V607.2z"/>
	<path class="st0" d="M450.1,614.6c-1.6,0-3.1,0.3-4.4,0.8s-2.3,1.3-2.9,2.3v13.2h-6.7v-22h6.2v4.5c0.8-1.5,1.7-2.6,2.9-3.5
		c1.2-0.8,2.5-1.3,3.8-1.3c0.3,0,0.5,0,0.7,0c0.1,0,0.3,0,0.4,0V614.6L450.1,614.6z"/>
	<path class="st0" d="M460.6,631.4c-1.1,0-2.1-0.2-3-0.5s-1.7-0.8-2.4-1.5c-0.7-0.6-1.2-1.4-1.6-2.2c-0.4-0.9-0.6-1.8-0.6-2.8
		c0-1.1,0.2-2.1,0.7-3s1.1-1.7,2-2.3c0.8-0.6,1.8-1.1,3-1.5c1.1-0.4,2.4-0.5,3.8-0.5c0.9,0,1.8,0.1,2.7,0.2c0.9,0.2,1.6,0.4,2.3,0.7
		v-1c0-2.5-1.5-3.8-4.4-3.8c-1.2,0-2.4,0.2-3.4,0.6c-1.1,0.4-2.2,1-3.4,1.8l-2-4.2c1.5-1,3-1.7,4.5-2.1c1.6-0.5,3.2-0.7,5-0.7
		c3.3,0,5.9,0.8,7.7,2.4c1.8,1.6,2.7,3.9,2.7,6.9v5.7c0,0.7,0.1,1.1,0.3,1.4c0.2,0.3,0.6,0.4,1.1,0.5v5.7c-0.6,0.1-1.1,0.2-1.6,0.3
		c-0.5,0-0.9,0.1-1.3,0.1c-1.3,0-2.2-0.2-2.9-0.7c-0.6-0.5-1-1.2-1.2-2.1l-0.1-1c-1,1.3-2.1,2.2-3.5,2.9
		C463.5,631,462.1,631.4,460.6,631.4z M462.5,626.5c0.7,0,1.4-0.1,2.1-0.4s1.3-0.6,1.7-1c0.6-0.5,1-1,1-1.6v-2.1
		c-0.6-0.2-1.2-0.4-1.9-0.5c-0.7-0.1-1.3-0.2-1.9-0.2c-1.2,0-2.2,0.3-3,0.8c-0.8,0.6-1.2,1.3-1.2,2.2c0,0.8,0.3,1.5,0.9,2
		C460.8,626.3,461.6,626.5,462.5,626.5z"/>
	<path class="st0" d="M480.6,606.4v-6.1h6.7v6.1H480.6z M480.6,630.9v-22h6.7v22H480.6z"/>
	<path class="st0" d="M499.9,631.4c-1.1,0-2.1-0.2-3-0.5s-1.7-0.8-2.4-1.5c-0.7-0.6-1.2-1.4-1.6-2.2c-0.4-0.9-0.6-1.8-0.6-2.8
		c0-1.1,0.2-2.1,0.7-3s1.1-1.7,2-2.3c0.8-0.6,1.8-1.1,3-1.5c1.1-0.4,2.4-0.5,3.8-0.5c0.9,0,1.8,0.1,2.7,0.2c0.9,0.2,1.6,0.4,2.3,0.7
		v-1c0-2.5-1.5-3.8-4.4-3.8c-1.2,0-2.4,0.2-3.4,0.6c-1.1,0.4-2.2,1-3.4,1.8l-2-4.2c1.5-1,3-1.7,4.5-2.1c1.6-0.5,3.2-0.7,5-0.7
		c3.3,0,5.9,0.8,7.7,2.4c1.8,1.6,2.7,3.9,2.7,6.9v5.7c0,0.7,0.1,1.1,0.3,1.4c0.2,0.3,0.6,0.4,1.1,0.5v5.7c-0.6,0.1-1.1,0.2-1.6,0.3
		c-0.5,0-0.9,0.1-1.3,0.1c-1.3,0-2.2-0.2-2.9-0.7c-0.6-0.5-1-1.2-1.2-2.1l-0.1-1c-1,1.3-2.1,2.2-3.5,2.9
		C502.8,631,501.4,631.4,499.9,631.4z M501.8,626.5c0.7,0,1.4-0.1,2.1-0.4s1.3-0.6,1.7-1c0.6-0.5,1-1,1-1.6v-2.1
		c-0.6-0.2-1.2-0.4-1.9-0.5c-0.7-0.1-1.3-0.2-1.9-0.2c-1.2,0-2.2,0.3-3,0.8c-0.8,0.6-1.2,1.3-1.2,2.2c0,0.8,0.3,1.5,0.9,2
		C500.1,626.3,500.9,626.5,501.8,626.5z"/>
	<path class="st0" d="M541.2,630.9h-6.7v-12.4c0-1.5-0.3-2.5-0.8-3.2s-1.3-1-2.2-1c-0.5,0-1,0.1-1.4,0.3c-0.5,0.2-0.9,0.5-1.4,0.8
		s-0.8,0.8-1.2,1.2c-0.3,0.5-0.6,1-0.8,1.6v12.6H520v-22h6v3.7c0.8-1.3,2-2.3,3.4-3c1.5-0.7,3.2-1.1,5.1-1.1c1.4,0,2.6,0.3,3.4,0.8
		c0.9,0.5,1.5,1.2,2,2s0.8,1.7,0.9,2.7c0.2,1,0.2,1.9,0.2,2.9L541.2,630.9L541.2,630.9z"/>
	<path class="st0" d="M557.8,631.4c-1.9,0-3.5-0.3-5-0.9s-2.7-1.4-3.7-2.5s-1.8-2.3-2.3-3.7s-0.8-2.8-0.8-4.3s0.3-3,0.8-4.3
		c0.5-1.4,1.3-2.6,2.3-3.7s2.2-1.9,3.7-2.5s3.1-0.9,5-0.9s3.5,0.3,5,0.9c1.5,0.6,2.7,1.5,3.7,2.5s1.8,2.3,2.3,3.7s0.8,2.8,0.8,4.3
		s-0.3,3-0.8,4.3c-0.5,1.4-1.3,2.6-2.3,3.7s-2.2,1.9-3.7,2.5S559.7,631.4,557.8,631.4z M552.9,619.9c0,1.7,0.5,3.1,1.4,4.2
		s2.1,1.6,3.5,1.6c0.7,0,1.3-0.1,1.9-0.4c0.6-0.3,1.1-0.7,1.5-1.2s0.8-1.1,1-1.8s0.4-1.5,0.4-2.3c0-1.7-0.5-3.1-1.4-4.2
		c-0.9-1.1-2.1-1.6-3.5-1.6c-0.7,0-1.4,0.1-2,0.4c-0.6,0.3-1.1,0.7-1.6,1.2c-0.4,0.5-0.8,1.1-1,1.8S552.9,619.1,552.9,619.9z"/>
</g>
</svg>
