<?xml version="1.0" encoding="utf-8"?>
<!-- Generator: Adobe Illustrator 16.0.0, SVG Export Plug-In . SVG Version: 6.00 Build 0)  -->
<!DOCTYPE svg PUBLIC "-//W3C//DTD SVG 1.1//EN" "http://www.w3.org/Graphics/SVG/1.1/DTD/svg11.dtd">
<svg version="1.1" id="Capa_1" xmlns="http://www.w3.org/2000/svg" xmlns:xlink="http://www.w3.org/1999/xlink" x="0px" y="0px"
	 width="595.28px" height="661.111px" viewBox="0 0 595.28 661.111" enable-background="new 0 0 595.28 661.111"
	 xml:space="preserve">
<g>
	<defs>
		<rect id="SVGID_1_" x="14" y="45.828" width="567.064" height="500.674"/>
	</defs>
	<clipPath id="SVGID_2_">
		<use xlink:href="#SVGID_1_"  overflow="visible"/>
	</clipPath>
	<path clip-path="url(#SVGID_2_)" d="M576.094,326.877h-40.562c0-132.604-107.883-240.488-240.487-240.488
		c-132.599,0-240.482,107.884-240.482,240.488H14c0-154.972,126.076-281.05,281.044-281.05
		C450.018,45.827,576.094,171.905,576.094,326.877"/>
	<path clip-path="url(#SVGID_2_)" d="M518.146,326.877h-40.562c0-100.652-81.888-182.539-182.541-182.539
		c-100.649,0-182.536,81.887-182.536,182.539H71.947c0-123.019,100.08-223.103,223.098-223.103
		C418.063,103.774,518.146,203.858,518.146,326.877"/>
	<path clip-path="url(#SVGID_2_)" d="M460.196,326.877h-40.562c0-68.7-55.891-124.59-124.59-124.59
		c-68.698,0-124.585,55.891-124.585,124.59h-40.562c0-91.067,74.083-165.153,165.147-165.153
		C386.109,161.724,460.196,235.81,460.196,326.877"/>
	<path clip-path="url(#SVGID_2_)" d="M402.25,326.877h-40.562c0-36.746-29.897-66.642-66.643-66.642
		c-36.744,0-66.639,29.896-66.639,66.642h-40.562c0-59.113,48.091-107.204,107.201-107.204
		C354.158,219.673,402.25,267.764,402.25,326.877"/>
	<path clip-path="url(#SVGID_2_)" d="M344.299,326.877h-40.562c0-4.791-3.901-8.693-8.693-8.693c-4.79,0-8.692,3.902-8.692,8.693
		H245.79c0-27.16,22.095-49.255,49.254-49.255C322.204,277.622,344.299,299.717,344.299,326.877"/>
</g>
<rect x="302.947" y="383.674" width="5.791" height="162.643"/>
<polygon points="46.003,534.572 29.493,496.436 20.274,544.451 25.455,544.451 31.301,513.725 31.423,513.725 46.003,546.318 
	60.639,513.725 60.762,513.725 66.608,544.451 71.788,544.451 62.568,496.436 "/>
<g>
	<defs>
		<rect id="SVGID_3_" x="14" y="45.828" width="567.064" height="500.674"/>
	</defs>
	<clipPath id="SVGID_4_">
		<use xlink:href="#SVGID_3_"  overflow="visible"/>
	</clipPath>
	<path clip-path="url(#SVGID_4_)" d="M82.495,526.076c0,3.375-0.12,7.23,1.99,10.123c1.985,2.77,5.841,4.338,9.152,4.338
		c3.255,0,6.812-1.508,8.921-4.039c2.408-2.889,2.229-6.867,2.229-10.422v-27.051h5.061v28.436c0,4.943-0.365,8.857-3.979,12.594
		c-3.131,3.375-7.648,5.182-12.232,5.182c-4.274,0-8.674-1.629-11.746-4.641c-3.976-3.795-4.457-7.953-4.457-13.135v-28.436h5.061
		V526.076z"/>
	<path clip-path="url(#SVGID_4_)" d="M139.416,507.883c-1.81-3.135-3.979-4.941-7.835-4.941c-4.038,0-7.532,2.893-7.532,7.051
		c0,3.916,4.038,5.723,7.11,7.107l3.013,1.324c5.905,2.592,10.903,5.543,10.903,12.775c0,7.953-6.383,14.037-14.277,14.037
		c-7.29,0-12.711-4.699-14.159-11.75l4.942-1.385c0.661,4.639,4.218,8.436,9.097,8.436c4.878,0,9.335-3.736,9.335-8.857
		c0-5.301-4.154-7.107-8.372-9.037l-2.77-1.207c-5.3-2.406-9.884-5.121-9.884-11.627c0-7.047,5.969-11.566,12.717-11.566
		c5.058,0,9.336,2.59,11.747,7.051L139.416,507.883z"/>
</g>
<polygon points="152.477,499.025 176.034,499.025 176.034,503.725 157.538,503.725 157.538,517.219 175.493,517.219 
	175.493,521.918 157.538,521.918 157.538,539.752 176.034,539.752 176.034,544.453 152.477,544.453 "/>
<g>
	<defs>
		<rect id="SVGID_5_" x="14" y="45.828" width="567.064" height="500.674"/>
	</defs>
	<clipPath id="SVGID_6_">
		<use xlink:href="#SVGID_5_"  overflow="visible"/>
	</clipPath>
	<path clip-path="url(#SVGID_6_)" d="M189.577,526.076c0,3.375-0.12,7.23,1.989,10.123c1.986,2.77,5.846,4.338,9.157,4.338
		c3.255,0,6.808-1.508,8.917-4.039c2.408-2.889,2.229-6.867,2.229-10.422v-27.051h5.061v28.436c0,4.943-0.362,8.857-3.975,12.594
		c-3.136,3.375-7.652,5.182-12.232,5.182c-4.278,0-8.675-1.629-11.747-4.641c-3.979-3.795-4.457-7.953-4.457-13.135v-28.436h5.058
		V526.076z"/>
</g>
<polygon points="248.303,534.572 231.793,496.436 222.578,544.451 227.759,544.451 233.601,513.725 233.723,513.725 
	248.303,546.318 262.943,513.725 263.062,513.725 268.908,544.451 274.089,544.451 264.869,496.436 "/>
<g>
	<defs>
		<rect id="SVGID_7_" x="14" y="45.828" width="567.064" height="500.674"/>
	</defs>
	<clipPath id="SVGID_8_">
		<use xlink:href="#SVGID_7_"  overflow="visible"/>
	</clipPath>
	<path clip-path="url(#SVGID_8_)" d="M364.25,508.967c-3.617-3.736-8.619-6.025-13.859-6.025c-10.119,0-18.316,8.797-18.316,18.797
		s8.257,18.799,18.436,18.799c5.121,0,10.123-2.412,13.74-6.023v6.262c-3.919,2.834-8.738,4.461-13.557,4.461
		c-12.833,0-23.677-10.426-23.677-23.318c0-13.012,10.664-23.676,23.677-23.676c5.061,0,9.518,1.447,13.557,4.461V508.967z"/>
</g>
<polygon points="401.346,517.461 401.346,499.025 406.408,499.025 406.408,544.453 401.346,544.453 401.346,522.162 
	378.092,522.162 378.092,544.453 373.03,544.453 373.03,499.025 378.092,499.025 378.092,517.461 "/>
<path d="M432.418,508.664l-7.771,18.197h15.363L432.418,508.664z M422.601,531.559l-5.482,12.895h-5.543l20.966-47.596
	l20.422,47.596h-5.604L442,531.559H422.601z"/>
<polygon points="458.189,544.453 463.251,544.453 463.251,509.447 498.678,546.502 498.678,499.025 493.616,499.025 
	493.616,534.211 458.189,497.096 "/>
<g>
	<defs>
		<rect id="SVGID_9_" x="14" y="45.828" width="567.064" height="500.674"/>
	</defs>
	<clipPath id="SVGID_10_">
		<use xlink:href="#SVGID_9_"  overflow="visible"/>
	</clipPath>
	<path clip-path="url(#SVGID_10_)" d="M550.351,521.619c0.123,6.145-0.541,11.207-4.7,16.025
		c-4.154,4.818-10.481,7.592-16.809,7.592c-12.772,0-23.377-10.604-23.377-23.379c0-13.012,10.604-23.615,23.681-23.615
		c7.95,0,14.396,3.553,19.219,9.82l-3.677,3.434c-3.796-5.359-8.917-8.555-15.603-8.555c-10.365,0-18.559,8.734-18.559,18.977
		c0,4.822,1.93,9.398,5.304,12.834c3.312,3.312,8.133,5.785,12.894,5.785c7.891,0,16.207-5.785,16.207-14.217h-13.497v-4.701
		H550.351z"/>
</g>
<polygon points="557.507,499.025 557.507,544.453 581.063,544.453 581.063,539.754 562.568,539.754 562.568,521.918 
	580.519,521.918 580.519,517.219 562.568,517.219 562.568,503.725 581.063,503.725 581.063,499.025 "/>
<g>
	<defs>
		<rect id="SVGID_11_" x="14" y="45.828" width="567.064" height="500.674"/>
	</defs>
	<clipPath id="SVGID_12_">
		<use xlink:href="#SVGID_11_"  overflow="visible"/>
	</clipPath>
	<path clip-path="url(#SVGID_12_)" d="M89.215,468.934c-1.919,0-3.48-1.559-3.48-3.482v-54.789c0-1.924,1.561-3.484,3.48-3.484
		c1.926,0,3.483,1.561,3.483,3.484v54.789C92.699,467.375,91.142,468.934,89.215,468.934 M216.266,439.174
		c5.385,1.451,12.833-2.201,16.618-6.693c2.18-2.582,3.329-6.266,2.671-8.564c-0.228-0.809-0.776-1.961-2.875-2.645
		c-5.455-1.756-11.311,2.619-13.827,7.871C217.433,432.111,216.533,435.6,216.266,439.174 M237.354,470.18
		c-7.233,0-13.989-2.447-19.409-7.311c-10.425-9.365-10.552-25.916-5.371-36.736c3.75-7.844,12.83-14.559,22.256-11.482
		c3.786,1.23,6.422,3.842,7.424,7.357c1.497,5.246-0.956,11.299-4.049,14.965c-4.784,5.67-13.557,10.391-21.578,9.357
		c0.798,4.369,2.713,8.428,5.972,11.357c8.028,7.201,19.655,7.438,31.114,0.621c5.184-3.082,9.24-6.137,12.056-9.076
		c1.328-1.385,3.536-1.43,4.92-0.107c1.393,1.332,1.442,3.535,0.11,4.924c-3.252,3.395-7.804,6.844-13.529,10.246
		C250.666,468.225,243.822,470.18,237.354,470.18 M151.443,472.377h-0.077c-1.153-0.064-2.208-0.703-2.802-1.699
		c-4.798-8.045-8.622-16.832-12.326-25.328c-4.306-9.881-8.76-20.102-14.753-29.184c-1.058-1.607-0.615-3.77,0.988-4.826
		c1.613-1.062,3.768-0.613,4.826,0.988c6.323,9.588,10.9,20.086,15.321,30.24c3.143,7.207,6.138,14.082,9.681,20.598
		c2.094-2.213,4.562-4.885,4.969-5.381c3.263-4.17,4.5-6.25,5.814-8.457c1.35-2.273,2.752-4.625,6.211-9.094
		c1.592-2.055,3.624-4.951,5.828-8.09c3.803-5.418,8.116-11.557,11.673-15.564c1.272-1.438,3.473-1.578,4.914-0.295
		c1.437,1.275,1.571,3.477,0.295,4.912c-3.297,3.717-7.487,9.686-11.185,14.949c-2.235,3.189-4.351,6.201-6.017,8.354
		c-3.199,4.129-4.429,6.199-5.736,8.393c-1.364,2.291-2.777,4.668-6.327,9.201C162.664,462.195,154.618,472.377,151.443,472.377
		 M39.5,475.486c-3.332,0-6.636-0.953-9.483-3.455c-5.687-5.006-5.202-13.762-4.815-20.795c0.084-1.561,0.168-3.041,0.168-4.357
		c0-7.465,0.296-15.029,0.584-22.346c0.415-10.633,0.843-21.623,0.351-32.283c-0.091-1.922,1.392-3.551,3.318-3.643
		c1.891,0.016,3.55,1.396,3.635,3.318c0.506,10.961,0.073,22.102-0.345,32.879c-0.285,7.248-0.576,14.742-0.576,22.074
		c0,1.434-0.088,3.043-0.183,4.742c-0.302,5.527-0.682,12.41,2.464,15.18c4.288,3.779,12.612,0.426,17.149-3.156
		c1.511-1.184,3.701-0.928,4.893,0.576c1.188,1.512,0.931,3.701-0.577,4.893C52.547,471.9,45.968,475.486,39.5,475.486"/>
	<path clip-path="url(#SVGID_12_)" d="M94.234,396.088c0,2.879-2.207,5.217-4.928,5.217c-2.72,0-4.927-2.338-4.927-5.217
		s2.207-5.215,4.927-5.215C92.027,390.873,94.234,393.209,94.234,396.088"/>
	<path clip-path="url(#SVGID_12_)" d="M390.395,469c-1.905,0-3.449-1.543-3.449-3.447v-54.248c0-1.906,1.544-3.449,3.449-3.449
		c1.904,0,3.447,1.543,3.447,3.449v54.248C393.842,467.457,392.299,469,390.395,469 M516.189,439.531
		c5.3,1.424,12.698-2.178,16.449-6.629c2.158-2.555,3.298-6.199,2.646-8.473c-0.225-0.803-0.771-1.941-2.847-2.615
		c-5.413-1.752-11.202,2.586-13.69,7.789C517.342,432.541,516.449,435.992,516.189,439.531 M537.071,470.232
		c-7.164,0-13.856-2.422-19.22-7.238c-10.323-9.266-10.45-25.654-5.325-36.369c3.722-7.773,12.72-14.393,22.042-11.369
		c3.747,1.215,6.358,3.803,7.35,7.277c1.483,5.199-0.946,11.189-4.007,14.82c-4.742,5.617-13.413,10.287-21.367,9.264
		c0.791,4.324,2.686,8.35,5.912,11.246c7.943,7.131,19.462,7.363,30.805,0.617c5.146-3.061,9.159-6.084,11.937-8.986
		c1.322-1.371,3.504-1.424,4.875-0.109c1.378,1.314,1.424,3.498,0.108,4.875c-3.204,3.354-7.712,6.766-13.392,10.146
		C550.248,468.299,543.471,470.232,537.071,470.232 M452,472.4h-0.092c-1.139-0.074-2.169-0.703-2.752-1.68
		c-4.752-7.969-8.541-16.672-12.208-25.086c-4.263-9.779-8.667-19.895-14.601-28.887c-1.048-1.588-0.608-3.729,0.98-4.775
		c1.589-1.055,3.73-0.605,4.777,0.98c6.26,9.486,10.787,19.879,15.163,29.93c3.11,7.139,6.08,13.949,9.592,20.402
		c2.066-2.189,4.51-4.824,4.907-5.314c3.233-4.135,4.464-6.195,5.761-8.379c1.343-2.252,2.728-4.582,6.155-9.012
		c1.573-2.031,3.585-4.896,5.768-8.004c3.764-5.363,8.035-11.443,11.553-15.416c1.267-1.42,3.441-1.557,4.869-0.293
		c1.423,1.264,1.557,3.441,0.291,4.869c-3.258,3.676-7.409,9.588-11.068,14.801c-2.253,3.209-4.334,6.168-5.958,8.268
		c-3.17,4.092-4.39,6.141-5.683,8.312c-1.354,2.271-2.749,4.623-6.261,9.111C463.124,462.312,455.237,472.4,452,472.4
		 M341.171,475.482c-3.301,0-6.573-0.941-9.388-3.424c-5.631-4.945-5.153-13.615-4.771-20.586c0.084-1.543,0.169-3.006,0.169-4.312
		c0-7.393,0.291-14.879,0.576-22.121c0.411-10.525,0.836-21.408,0.349-31.967c-0.088-1.9,1.381-3.516,3.286-3.602
		c1.793-0.1,3.515,1.381,3.603,3.285c0.503,10.85,0.071,21.885-0.348,32.555c-0.278,7.174-0.569,14.59-0.569,21.85
		c0,1.42-0.085,3.012-0.179,4.691c-0.304,5.477-0.676,12.295,2.438,15.031c4.229,3.732,12.479,0.428,16.984-3.121
		c1.501-1.18,3.666-0.918,4.843,0.576c1.178,1.492,0.921,3.662-0.576,4.844C354.088,471.939,347.575,475.482,341.171,475.482"/>
	<path clip-path="url(#SVGID_12_)" d="M395.364,396.875c0,2.854-2.184,5.164-4.875,5.164c-2.7,0-4.883-2.311-4.883-5.164
		s2.183-5.166,4.883-5.166C393.181,391.709,395.364,394.021,395.364,396.875"/>
</g>
<g>
	<path d="M45.22,609.86c-0.084-0.111-0.378-0.321-0.882-0.63c-0.504-0.308-1.134-0.63-1.89-0.966s-1.583-0.63-2.478-0.882
		c-0.896-0.253-1.792-0.379-2.688-0.379c-2.464,0-3.696,0.826-3.696,2.479c0,0.504,0.133,0.924,0.399,1.26
		c0.266,0.336,0.657,0.638,1.176,0.903c0.518,0.267,1.169,0.511,1.953,0.734c0.784,0.225,1.694,0.477,2.73,0.757
		c1.428,0.392,2.715,0.818,3.864,1.28c1.148,0.462,2.121,1.036,2.919,1.723c0.798,0.687,1.414,1.519,1.848,2.499
		c0.434,0.98,0.651,2.156,0.651,3.527c0,1.681-0.315,3.102-0.945,4.264s-1.463,2.1-2.499,2.813c-1.036,0.714-2.226,1.232-3.57,1.554
		c-1.344,0.322-2.73,0.483-4.158,0.483c-1.092,0-2.212-0.084-3.36-0.252c-1.148-0.168-2.268-0.413-3.36-0.735
		c-1.092-0.321-2.149-0.706-3.171-1.154c-1.022-0.448-1.967-0.967-2.835-1.555l3.024-6.006c0.112,0.141,0.476,0.406,1.092,0.798
		c0.616,0.393,1.379,0.784,2.289,1.177c0.91,0.392,1.925,0.742,3.045,1.05c1.12,0.309,2.253,0.462,3.402,0.462
		c2.436,0,3.654-0.741,3.654-2.227c0-0.56-0.183-1.021-0.546-1.386c-0.364-0.363-0.868-0.692-1.512-0.986
		c-0.645-0.295-1.407-0.567-2.289-0.819s-1.841-0.531-2.877-0.84c-1.372-0.42-2.562-0.875-3.57-1.365
		c-1.008-0.489-1.841-1.057-2.499-1.701c-0.659-0.644-1.148-1.386-1.47-2.226c-0.322-0.84-0.483-1.82-0.483-2.94
		c0-1.567,0.294-2.954,0.882-4.158c0.588-1.203,1.386-2.219,2.394-3.045c1.008-0.825,2.177-1.449,3.507-1.869
		c1.33-0.42,2.737-0.63,4.221-0.63c1.036,0,2.058,0.099,3.066,0.294c1.008,0.196,1.974,0.448,2.898,0.756
		c0.924,0.309,1.785,0.658,2.583,1.051c0.798,0.393,1.533,0.784,2.205,1.176L45.22,609.86z"/>
	<path d="M62.86,631.028c-1.456,0-2.786-0.294-3.99-0.882c-1.205-0.588-2.233-1.386-3.087-2.395
		c-0.854-1.008-1.519-2.184-1.995-3.527c-0.477-1.345-0.714-2.786-0.714-4.326c0-1.624,0.252-3.129,0.756-4.515
		c0.504-1.387,1.204-2.59,2.1-3.612c0.896-1.021,1.974-1.827,3.234-2.415c1.26-0.588,2.646-0.882,4.158-0.882
		c1.68,0,3.143,0.356,4.389,1.07c1.246,0.715,2.247,1.701,3.003,2.961v-3.611h5.838v20.538c0,1.68-0.315,3.191-0.945,4.536
		c-0.63,1.344-1.505,2.484-2.625,3.423c-1.12,0.938-2.464,1.659-4.032,2.163c-1.568,0.504-3.29,0.756-5.166,0.756
		c-2.38,0-4.41-0.378-6.09-1.134c-1.68-0.757-3.15-1.849-4.41-3.276l3.612-3.654c0.812,0.924,1.82,1.659,3.024,2.205
		c1.204,0.546,2.492,0.819,3.864,0.819c0.812,0,1.582-0.112,2.31-0.336c0.728-0.225,1.372-0.567,1.932-1.029
		c0.56-0.462,1.001-1.064,1.323-1.806c0.321-0.742,0.483-1.631,0.483-2.667v-2.143c-0.672,1.232-1.638,2.163-2.898,2.793
		C65.674,630.713,64.315,631.028,62.86,631.028z M65.17,625.694c1.036,0,1.959-0.287,2.772-0.861
		c0.812-0.573,1.442-1.309,1.89-2.205v-4.619c-0.448-1.177-1.134-2.107-2.058-2.793c-0.924-0.687-1.904-1.029-2.94-1.029
		c-0.729,0-1.393,0.161-1.995,0.482c-0.603,0.322-1.12,0.757-1.554,1.303c-0.435,0.546-0.771,1.176-1.008,1.89
		c-0.238,0.714-0.357,1.449-0.357,2.205c0,0.812,0.133,1.562,0.399,2.247c0.266,0.687,0.637,1.281,1.113,1.785
		c0.476,0.504,1.029,0.896,1.659,1.176C63.721,625.555,64.414,625.694,65.17,625.694z"/>
	<path d="M89.529,631.364c-2.268,0-3.983-0.707-5.145-2.121c-1.162-1.413-1.743-3.492-1.743-6.237v-14.111h6.72v12.642
		c0,1.344,0.266,2.373,0.798,3.087c0.531,0.714,1.288,1.071,2.268,1.071c0.896,0,1.764-0.237,2.604-0.714
		c0.84-0.476,1.582-1.302,2.226-2.479v-13.607h6.72v14.49c0,0.672,0.105,1.141,0.315,1.406c0.21,0.267,0.581,0.428,1.113,0.483v5.67
		c-0.644,0.14-1.19,0.231-1.638,0.273c-0.448,0.042-0.854,0.062-1.218,0.062c-2.408,0-3.78-0.938-4.116-2.813l-0.126-1.345
		c-1.008,1.456-2.262,2.527-3.759,3.213C93.05,631.021,91.377,631.364,89.529,631.364z"/>
	<path d="M117.124,631.364c-1.092,0-2.107-0.175-3.045-0.525c-0.938-0.35-1.743-0.84-2.415-1.47s-1.204-1.371-1.596-2.226
		c-0.393-0.854-0.588-1.785-0.588-2.793c0-1.092,0.231-2.086,0.693-2.982c0.462-0.896,1.113-1.665,1.953-2.31
		c0.84-0.644,1.833-1.148,2.982-1.513c1.148-0.363,2.422-0.546,3.822-0.546c0.924,0,1.82,0.078,2.688,0.231
		c0.868,0.154,1.624,0.385,2.268,0.693v-1.009c0-2.547-1.47-3.821-4.41-3.821c-1.204,0-2.352,0.203-3.444,0.608
		c-1.092,0.406-2.241,1.016-3.444,1.827l-1.974-4.2c1.456-0.951,2.967-1.665,4.536-2.142c1.567-0.476,3.234-0.714,4.998-0.714
		c3.332,0,5.908,0.784,7.728,2.352c1.82,1.568,2.73,3.864,2.73,6.888v5.671c0,0.672,0.105,1.141,0.315,1.406
		c0.21,0.267,0.581,0.428,1.113,0.483v5.67c-0.588,0.14-1.12,0.231-1.596,0.273s-0.91,0.062-1.302,0.062
		c-1.26,0-2.212-0.245-2.856-0.735c-0.645-0.489-1.05-1.183-1.218-2.078l-0.126-1.009c-0.98,1.261-2.149,2.227-3.507,2.898
		C120.07,631.028,118.636,631.364,117.124,631.364z M119.098,626.534c0.728,0,1.435-0.126,2.121-0.378
		c0.686-0.252,1.253-0.588,1.701-1.008c0.644-0.504,0.966-1.036,0.966-1.596v-2.101c-0.588-0.224-1.225-0.398-1.911-0.524
		c-0.687-0.126-1.323-0.189-1.911-0.189c-1.232,0-2.247,0.28-3.045,0.84c-0.798,0.561-1.197,1.288-1.197,2.185
		c0,0.812,0.308,1.477,0.924,1.995C117.361,626.275,118.146,626.534,119.098,626.534z"/>
	<path d="M151.144,614.648c-1.624,0.028-3.094,0.294-4.41,0.798c-1.317,0.504-2.268,1.26-2.856,2.268v13.23h-6.72v-22.05h6.174
		v4.452c0.756-1.484,1.729-2.646,2.919-3.486c1.19-0.84,2.457-1.273,3.801-1.302c0.308,0,0.531,0,0.672,0
		c0.14,0,0.28,0.015,0.42,0.042V614.648z"/>
	<path d="M163.702,631.364c-1.512,0-2.905-0.287-4.179-0.861c-1.274-0.573-2.373-1.378-3.297-2.415
		c-0.924-1.035-1.646-2.246-2.163-3.633c-0.519-1.386-0.777-2.904-0.777-4.557c0-1.596,0.238-3.094,0.714-4.494
		c0.476-1.399,1.147-2.61,2.016-3.633c0.868-1.021,1.897-1.827,3.087-2.415c1.189-0.588,2.499-0.882,3.927-0.882
		c1.54,0,2.933,0.364,4.179,1.092c1.246,0.729,2.205,1.708,2.877,2.939v-12.222h6.72v23.101c0,0.672,0.105,1.141,0.315,1.406
		c0.21,0.267,0.581,0.428,1.113,0.483v5.67c-0.616,0.14-1.148,0.231-1.596,0.273c-0.448,0.042-0.868,0.062-1.26,0.062
		c-1.176,0-2.128-0.245-2.856-0.735c-0.729-0.489-1.148-1.196-1.26-2.12l-0.126-1.135c-0.784,1.372-1.841,2.395-3.171,3.066
		C166.635,631.028,165.214,631.364,163.702,631.364z M165.508,625.694c0.924,0,1.812-0.273,2.667-0.819
		c0.854-0.546,1.505-1.295,1.953-2.247v-4.619c-0.42-1.12-1.099-2.037-2.037-2.751c-0.938-0.715-1.911-1.071-2.919-1.071
		c-0.729,0-1.393,0.161-1.995,0.482c-0.603,0.322-1.127,0.75-1.575,1.281c-0.448,0.532-0.792,1.148-1.029,1.848
		c-0.238,0.701-0.357,1.443-0.357,2.227c0,0.812,0.133,1.568,0.399,2.268c0.266,0.7,0.63,1.303,1.092,1.807
		c0.462,0.504,1.021,0.896,1.68,1.176C164.044,625.555,164.752,625.694,165.508,625.694z"/>
	<path d="M183.694,606.374v-6.09h6.72v6.09H183.694z M183.694,630.944v-22.05h6.72v22.05H183.694z"/>
	<path d="M218.721,631.364c-1.848,0-3.507-0.301-4.977-0.903c-1.47-0.602-2.716-1.42-3.738-2.457
		c-1.022-1.035-1.8-2.232-2.331-3.591c-0.532-1.357-0.798-2.778-0.798-4.263c0-1.596,0.266-3.101,0.798-4.515
		c0.531-1.414,1.302-2.653,2.31-3.718c1.008-1.063,2.247-1.903,3.717-2.52c1.47-0.615,3.143-0.924,5.019-0.924
		c1.875,0,3.542,0.309,4.998,0.924c1.456,0.616,2.688,1.449,3.696,2.499c1.008,1.05,1.771,2.262,2.289,3.633
		c0.518,1.372,0.777,2.814,0.777,4.326c0,0.393-0.014,0.777-0.042,1.155s-0.07,0.707-0.126,0.986h-16.296
		c0.112,1.484,0.651,2.611,1.617,3.381c0.966,0.771,2.064,1.155,3.297,1.155c0.98,0,1.925-0.237,2.835-0.714
		c0.91-0.476,1.519-1.119,1.827-1.932l5.712,1.596c-0.868,1.736-2.212,3.15-4.032,4.242
		C223.452,630.818,221.268,631.364,218.721,631.364z M223.383,617.841c-0.141-1.4-0.645-2.506-1.512-3.318
		c-0.868-0.812-1.946-1.218-3.234-1.218c-1.316,0-2.401,0.413-3.255,1.238c-0.854,0.826-1.352,1.926-1.491,3.298H223.383z"/>
	<path d="M251.27,630.944l-7.812-22.05h6.93l4.83,16.674l4.872-16.674h6.258l-7.77,22.05H251.27z"/>
	<path d="M280.334,631.364c-1.876,0-3.549-0.309-5.019-0.924s-2.709-1.449-3.717-2.499c-1.008-1.05-1.771-2.269-2.289-3.654
		c-0.519-1.386-0.777-2.835-0.777-4.347s0.259-2.961,0.777-4.347c0.518-1.387,1.281-2.604,2.289-3.654
		c1.008-1.05,2.247-1.89,3.717-2.521c1.47-0.63,3.143-0.944,5.019-0.944c1.875,0,3.542,0.314,4.998,0.944
		c1.456,0.631,2.688,1.471,3.696,2.521c1.008,1.05,1.778,2.268,2.31,3.654c0.532,1.386,0.798,2.835,0.798,4.347
		s-0.259,2.961-0.777,4.347c-0.519,1.386-1.281,2.604-2.289,3.654c-1.008,1.05-2.247,1.884-3.717,2.499
		C283.883,631.056,282.21,631.364,280.334,631.364z M275.42,619.94c0,1.736,0.462,3.129,1.386,4.179
		c0.924,1.05,2.1,1.575,3.528,1.575c0.7,0,1.344-0.14,1.932-0.42c0.588-0.279,1.098-0.672,1.533-1.176
		c0.434-0.504,0.777-1.113,1.029-1.827c0.252-0.714,0.378-1.491,0.378-2.331c0-1.736-0.462-3.129-1.386-4.179
		c-0.924-1.051-2.086-1.575-3.486-1.575c-0.7,0-1.351,0.141-1.953,0.42c-0.603,0.28-1.12,0.672-1.554,1.176
		c-0.435,0.504-0.777,1.113-1.029,1.827S275.42,619.101,275.42,619.94z"/>
	<path d="M295.832,619.898c0-1.512,0.266-2.961,0.798-4.347c0.531-1.387,1.302-2.604,2.31-3.654c1.007-1.05,2.247-1.883,3.716-2.499
		c1.471-0.615,3.143-0.924,5.02-0.924c2.547,0,4.689,0.539,6.426,1.617s3.038,2.484,3.906,4.221l-6.553,1.974
		c-0.867-1.399-2.141-2.1-3.821-2.1c-1.4,0-2.569,0.519-3.507,1.554c-0.938,1.036-1.407,2.422-1.407,4.158
		c0,0.868,0.126,1.659,0.378,2.373s0.602,1.323,1.051,1.827c0.447,0.504,0.972,0.896,1.574,1.176c0.602,0.28,1.239,0.42,1.911,0.42
		c0.84,0,1.61-0.203,2.31-0.609c0.699-0.405,1.219-0.931,1.555-1.574l6.552,2.016c-0.812,1.708-2.107,3.108-3.886,4.2
		c-1.777,1.092-3.941,1.638-6.488,1.638c-1.848,0-3.507-0.314-4.977-0.945c-1.471-0.63-2.717-1.47-3.738-2.52
		c-1.022-1.05-1.8-2.269-2.331-3.654C296.098,622.859,295.832,621.41,295.832,619.898z"/>
	<path d="M322.754,606.374v-6.09h6.719v6.09H322.754z M322.754,630.944v-22.05h6.719v22.05H322.754z"/>
	<path d="M356.395,631.364c-1.512,0-2.906-0.287-4.18-0.861c-1.273-0.573-2.373-1.378-3.297-2.415
		c-0.924-1.035-1.645-2.246-2.162-3.633c-0.52-1.386-0.777-2.904-0.777-4.557c0-1.596,0.237-3.094,0.714-4.494
		c0.476-1.399,1.147-2.61,2.016-3.633c0.868-1.021,1.897-1.827,3.087-2.415s2.5-0.882,3.928-0.882c1.539,0,2.932,0.364,4.179,1.092
		c1.245,0.729,2.205,1.708,2.877,2.939v-12.222h6.72v23.101c0,0.672,0.105,1.141,0.314,1.406c0.211,0.267,0.582,0.428,1.113,0.483
		v5.67c-0.615,0.14-1.148,0.231-1.596,0.273c-0.448,0.042-0.868,0.062-1.26,0.062c-1.176,0-2.129-0.245-2.855-0.735
		c-0.729-0.489-1.148-1.196-1.261-2.12l-0.126-1.135c-0.784,1.372-1.842,2.395-3.171,3.066
		C359.327,631.028,357.906,631.364,356.395,631.364z M358.2,625.694c0.924,0,1.812-0.273,2.667-0.819
		c0.854-0.546,1.505-1.295,1.953-2.247v-4.619c-0.42-1.12-1.1-2.037-2.037-2.751c-0.938-0.715-1.911-1.071-2.919-1.071
		c-0.729,0-1.394,0.161-1.995,0.482c-0.603,0.322-1.127,0.75-1.574,1.281c-0.449,0.532-0.792,1.148-1.029,1.848
		c-0.238,0.701-0.357,1.443-0.357,2.227c0,0.812,0.133,1.568,0.398,2.268c0.267,0.7,0.631,1.303,1.093,1.807s1.021,0.896,1.68,1.176
		C356.736,625.555,357.444,625.694,358.2,625.694z"/>
	<path d="M382.645,631.364c-1.093,0-2.107-0.175-3.045-0.525c-0.938-0.35-1.743-0.84-2.415-1.47
		c-0.673-0.63-1.205-1.371-1.597-2.226c-0.393-0.854-0.588-1.785-0.588-2.793c0-1.092,0.231-2.086,0.693-2.982
		c0.462-0.896,1.113-1.665,1.953-2.31c0.84-0.644,1.833-1.148,2.981-1.513c1.148-0.363,2.422-0.546,3.822-0.546
		c0.924,0,1.819,0.078,2.688,0.231c0.868,0.154,1.624,0.385,2.269,0.693v-1.009c0-2.547-1.47-3.821-4.41-3.821
		c-1.204,0-2.352,0.203-3.444,0.608c-1.092,0.406-2.24,1.016-3.443,1.827l-1.975-4.2c1.456-0.951,2.968-1.665,4.536-2.142
		c1.568-0.476,3.234-0.714,4.998-0.714c3.332,0,5.908,0.784,7.729,2.352c1.819,1.568,2.729,3.864,2.729,6.888v5.671
		c0,0.672,0.105,1.141,0.315,1.406c0.21,0.267,0.58,0.428,1.112,0.483v5.67c-0.588,0.14-1.12,0.231-1.596,0.273
		c-0.477,0.042-0.91,0.062-1.302,0.062c-1.26,0-2.212-0.245-2.856-0.735c-0.645-0.489-1.05-1.183-1.218-2.078l-0.126-1.009
		c-0.98,1.261-2.149,2.227-3.507,2.898C385.591,631.028,384.156,631.364,382.645,631.364z M384.618,626.534
		c0.728,0,1.435-0.126,2.121-0.378c0.686-0.252,1.253-0.588,1.701-1.008c0.644-0.504,0.966-1.036,0.966-1.596v-2.101
		c-0.588-0.224-1.226-0.398-1.911-0.524c-0.687-0.126-1.323-0.189-1.911-0.189c-1.232,0-2.247,0.28-3.045,0.84
		c-0.798,0.561-1.197,1.288-1.197,2.185c0,0.812,0.309,1.477,0.925,1.995C382.882,626.275,383.666,626.534,384.618,626.534z"/>
	<path d="M436.235,607.172h-9.072v23.772h-6.888v-23.772h-9.114v-6.048h25.074V607.172z"/>
	<path d="M450.096,614.648c-1.624,0.028-3.094,0.294-4.41,0.798s-2.268,1.26-2.855,2.268v13.23h-6.721v-22.05h6.175v4.452
		c0.756-1.484,1.729-2.646,2.919-3.486c1.189-0.84,2.457-1.273,3.801-1.302c0.308,0,0.531,0,0.672,0c0.14,0,0.279,0.015,0.42,0.042
		V614.648z"/>
	<path d="M460.554,631.364c-1.093,0-2.107-0.175-3.045-0.525c-0.938-0.35-1.743-0.84-2.415-1.47
		c-0.673-0.63-1.205-1.371-1.597-2.226c-0.393-0.854-0.588-1.785-0.588-2.793c0-1.092,0.231-2.086,0.693-2.982
		c0.462-0.896,1.113-1.665,1.953-2.31c0.84-0.644,1.833-1.148,2.981-1.513c1.148-0.363,2.422-0.546,3.822-0.546
		c0.924,0,1.819,0.078,2.688,0.231c0.868,0.154,1.624,0.385,2.269,0.693v-1.009c0-2.547-1.47-3.821-4.41-3.821
		c-1.204,0-2.352,0.203-3.444,0.608c-1.092,0.406-2.24,1.016-3.443,1.827l-1.975-4.2c1.456-0.951,2.968-1.665,4.536-2.142
		c1.568-0.476,3.234-0.714,4.998-0.714c3.332,0,5.908,0.784,7.729,2.352c1.819,1.568,2.729,3.864,2.729,6.888v5.671
		c0,0.672,0.105,1.141,0.315,1.406c0.21,0.267,0.58,0.428,1.112,0.483v5.67c-0.588,0.14-1.12,0.231-1.596,0.273
		c-0.477,0.042-0.91,0.062-1.302,0.062c-1.26,0-2.212-0.245-2.856-0.735c-0.645-0.489-1.05-1.183-1.218-2.078l-0.126-1.009
		c-0.98,1.261-2.149,2.227-3.507,2.898C463.5,631.028,462.065,631.364,460.554,631.364z M462.527,626.534
		c0.728,0,1.435-0.126,2.121-0.378c0.686-0.252,1.253-0.588,1.701-1.008c0.644-0.504,0.966-1.036,0.966-1.596v-2.101
		c-0.588-0.224-1.226-0.398-1.911-0.524c-0.687-0.126-1.323-0.189-1.911-0.189c-1.232,0-2.247,0.28-3.045,0.84
		c-0.798,0.561-1.197,1.288-1.197,2.185c0,0.812,0.309,1.477,0.925,1.995C460.791,626.275,461.575,626.534,462.527,626.534z"/>
	<path d="M480.587,606.374v-6.09h6.721v6.09H480.587z M480.587,630.944v-22.05h6.721v22.05H480.587z"/>
	<path d="M499.865,631.364c-1.093,0-2.107-0.175-3.045-0.525c-0.938-0.35-1.743-0.84-2.415-1.47
		c-0.673-0.63-1.205-1.371-1.597-2.226c-0.393-0.854-0.588-1.785-0.588-2.793c0-1.092,0.231-2.086,0.693-2.982
		c0.462-0.896,1.113-1.665,1.953-2.31c0.84-0.644,1.833-1.148,2.981-1.513c1.148-0.363,2.422-0.546,3.822-0.546
		c0.924,0,1.819,0.078,2.688,0.231c0.868,0.154,1.624,0.385,2.269,0.693v-1.009c0-2.547-1.47-3.821-4.41-3.821
		c-1.204,0-2.352,0.203-3.444,0.608c-1.092,0.406-2.24,1.016-3.443,1.827l-1.975-4.2c1.456-0.951,2.968-1.665,4.536-2.142
		c1.568-0.476,3.234-0.714,4.998-0.714c3.332,0,5.908,0.784,7.729,2.352c1.819,1.568,2.729,3.864,2.729,6.888v5.671
		c0,0.672,0.105,1.141,0.315,1.406c0.21,0.267,0.58,0.428,1.112,0.483v5.67c-0.588,0.14-1.12,0.231-1.596,0.273
		c-0.477,0.042-0.91,0.062-1.302,0.062c-1.26,0-2.212-0.245-2.856-0.735c-0.645-0.489-1.05-1.183-1.218-2.078l-0.126-1.009
		c-0.98,1.261-2.149,2.227-3.507,2.898C502.812,631.028,501.377,631.364,499.865,631.364z M501.839,626.534
		c0.728,0,1.435-0.126,2.121-0.378c0.686-0.252,1.253-0.588,1.701-1.008c0.644-0.504,0.966-1.036,0.966-1.596v-2.101
		c-0.588-0.224-1.226-0.398-1.911-0.524c-0.687-0.126-1.323-0.189-1.911-0.189c-1.232,0-2.247,0.28-3.045,0.84
		c-0.798,0.561-1.197,1.288-1.197,2.185c0,0.812,0.309,1.477,0.925,1.995C500.103,626.275,500.887,626.534,501.839,626.534z"/>
	<path d="M541.15,630.944h-6.72v-12.39c0-1.456-0.272-2.513-0.818-3.171c-0.547-0.658-1.268-0.987-2.163-0.987
		c-0.477,0-0.952,0.099-1.429,0.294c-0.477,0.196-0.938,0.469-1.386,0.819c-0.448,0.35-0.847,0.763-1.197,1.238
		c-0.35,0.477-0.623,0.994-0.818,1.555v12.642h-6.721v-22.05h6.049v3.696c0.812-1.316,1.959-2.331,3.443-3.046
		c1.484-0.714,3.192-1.07,5.124-1.07c1.428,0,2.576,0.259,3.444,0.776c0.867,0.519,1.539,1.19,2.016,2.017
		c0.476,0.826,0.791,1.729,0.945,2.709c0.153,0.98,0.23,1.932,0.23,2.855V630.944z"/>
	<path d="M557.782,631.364c-1.876,0-3.549-0.309-5.019-0.924s-2.709-1.449-3.717-2.499s-1.771-2.269-2.289-3.654
		c-0.519-1.386-0.777-2.835-0.777-4.347s0.259-2.961,0.777-4.347c0.518-1.387,1.281-2.604,2.289-3.654s2.247-1.89,3.717-2.521
		c1.47-0.63,3.143-0.944,5.019-0.944s3.542,0.314,4.998,0.944c1.456,0.631,2.688,1.471,3.696,2.521s1.778,2.268,2.311,3.654
		c0.531,1.386,0.798,2.835,0.798,4.347s-0.26,2.961-0.777,4.347c-0.519,1.386-1.281,2.604-2.289,3.654s-2.247,1.884-3.717,2.499
		S559.658,631.364,557.782,631.364z M552.869,619.94c0,1.736,0.462,3.129,1.386,4.179s2.1,1.575,3.527,1.575
		c0.7,0,1.345-0.14,1.933-0.42c0.588-0.279,1.099-0.672,1.533-1.176c0.434-0.504,0.776-1.113,1.028-1.827s0.378-1.491,0.378-2.331
		c0-1.736-0.462-3.129-1.386-4.179c-0.924-1.051-2.086-1.575-3.486-1.575c-0.7,0-1.351,0.141-1.952,0.42
		c-0.603,0.28-1.121,0.672-1.555,1.176c-0.435,0.504-0.776,1.113-1.028,1.827S552.869,619.101,552.869,619.94z"/>
</g>
</svg>
