<?xml version="1.0" encoding="utf-8"?>
<!-- Generator: Adobe Illustrator 22.1.0, SVG Export Plug-In . SVG Version: 6.00 Build 0)  -->
<svg version="1.1" id="Capa_1" xmlns="http://www.w3.org/2000/svg" xmlns:xlink="http://www.w3.org/1999/xlink" x="0px" y="0px"
	 viewBox="0 0 55.1 42.3" style="enable-background:new 0 0 55.1 42.3;" xml:space="preserve">
<g>
	<path d="M4.2,41.1c0,0.2,0,0.4-0.1,0.6C4,41.9,3.9,42,3.8,42.1c-0.1,0.1-0.3,0.2-0.5,0.3s-0.4,0.1-0.6,0.1c-0.2,0-0.4,0-0.6-0.1
		s-0.3-0.1-0.4-0.3c-0.1-0.1-0.2-0.3-0.3-0.4c-0.1-0.2-0.1-0.4-0.1-0.6v-2.2l0,0c0,0,0,0,0.1,0h0.1c0,0,0.1,0,0.2,0s0.1,0,0.2,0H2
		c0,0,0,0,0.1,0l0,0V41c0,0.1,0,0.3,0.1,0.4c0,0.1,0.1,0.2,0.1,0.3c0.1,0.1,0.1,0.1,0.2,0.2c0.1,0,0.2,0.1,0.3,0.1s0.2,0,0.3-0.1
		c0.1,0,0.2-0.1,0.2-0.2c0.1-0.1,0.1-0.1,0.1-0.2c0-0.1,0.1-0.2,0.1-0.3v-2.1l0,0c0,0,0,0,0.1,0h0.1c0,0,0.1,0,0.2,0
		c0.1,0,0.1,0,0.2,0h0.1c0,0,0,0,0.1,0l0,0L4.2,41.1L4.2,41.1z"/>
	<path d="M7.9,42.2L7.9,42.2c0,0.1,0,0.2-0.1,0.2H7.7H7.6H7.3c-0.1,0-0.1,0-0.2,0c0,0-0.1,0-0.1-0.1l-0.1-0.1c0,0-0.1-0.1-0.1-0.2
		l-0.9-1.7c-0.1-0.1-0.1-0.2-0.2-0.3c-0.1-0.1-0.1-0.2-0.1-0.3l0,0c0,0.1,0,0.3,0,0.4c0,0.1,0,0.3,0,0.4v1.9l0,0c0,0,0,0-0.1,0H5.4
		c0,0-0.1,0-0.2,0c-0.1,0-0.1,0-0.2,0s-0.1,0-0.1,0l0,0l0,0v-3.2c0-0.1,0-0.2,0.1-0.2s0.1-0.1,0.2-0.1h0.4c0.1,0,0.1,0,0.2,0
		c0,0,0.1,0,0.1,0.1L6,39.1c0,0,0.1,0.1,0.1,0.2l0.7,1.3c0,0.1,0.1,0.2,0.1,0.2L7,41c0,0.1,0.1,0.2,0.1,0.2c0,0.1,0.1,0.1,0.1,0.2
		l0,0c0-0.1,0-0.3,0-0.4c0-0.1,0-0.3,0-0.4v-1.7l0,0c0,0,0,0,0.1,0h0.1c0,0,0.1,0,0.2,0c0.1,0,0.1,0,0.2,0h0.1l0,0l0,0
		C7.9,38.9,7.9,42.2,7.9,42.2z"/>
	<path d="M9.3,42.3C9.3,42.4,9.3,42.4,9.3,42.3C9.3,42.4,9.2,42.4,9.3,42.3c-0.1,0.1-0.1,0.1-0.2,0.1c0,0-0.1,0-0.2,0
		c-0.1,0-0.1,0-0.2,0H8.6c0,0,0,0-0.1,0l0,0v-3.3l0,0c0,0,0,0,0.1,0h0.1c0,0,0.1,0,0.2,0c0.1,0,0.1,0,0.2,0h0.1c0,0,0,0,0.1,0l0,0
		C9.3,39.1,9.3,42.3,9.3,42.3z"/>
	<path d="M11.7,37.9C11.7,37.9,11.8,37.9,11.7,37.9c0.1-0.1,0.1-0.1,0.2-0.1H12c0,0,0.1,0,0.2,0c0.1,0,0.1,0,0.2,0h0.1
		c0,0,0,0,0,0.1c0,0,0,0-0.1,0.1l-0.6,0.5c0,0,0,0-0.1,0c0,0,0,0-0.1,0h-0.1h-0.1c-0.1,0-0.1,0-0.1,0h-0.1l0,0c0,0,0,0,0-0.1
		L11.7,37.9z M12.4,40.7c0-0.2,0-0.4,0-0.5c0-0.2-0.1-0.3-0.1-0.4c-0.1-0.1-0.2-0.2-0.3-0.3s-0.3-0.1-0.4-0.1c-0.2,0-0.3,0-0.4,0.1
		c-0.1,0.1-0.2,0.2-0.3,0.3s-0.1,0.2-0.2,0.4c0,0.1,0,0.3,0,0.5s0,0.4,0,0.5c0,0.2,0.1,0.3,0.1,0.4c0.1,0.1,0.2,0.2,0.3,0.3
		s0.3,0.1,0.4,0.1c0.2,0,0.3,0,0.4-0.1c0.1-0.1,0.2-0.2,0.3-0.3s0.1-0.2,0.2-0.4C12.4,41,12.4,40.8,12.4,40.7z M13.2,40.6
		c0,0.3,0,0.6-0.1,0.8s-0.2,0.4-0.3,0.6c-0.1,0.2-0.3,0.3-0.5,0.4c-0.2,0.1-0.5,0.1-0.7,0.1c-0.3,0-0.5,0-0.7-0.1s-0.4-0.2-0.5-0.3
		s-0.2-0.3-0.3-0.6c-0.2-0.2-0.2-0.5-0.2-0.8s0-0.5,0.1-0.8c0.1-0.2,0.2-0.4,0.3-0.6c0.1-0.2,0.3-0.3,0.5-0.4
		c0.2-0.1,0.5-0.1,0.7-0.1c0.3,0,0.5,0,0.7,0.1s0.4,0.2,0.5,0.3s0.2,0.3,0.3,0.6C13.2,40.1,13.2,40.3,13.2,40.6z"/>
	<path d="M16.7,42.2L16.7,42.2c0,0.1,0,0.2-0.1,0.2h-0.1h-0.1h-0.3c-0.1,0-0.1,0-0.2,0c0,0-0.1,0-0.1-0.1l-0.1-0.1
		c0-0.1-0.1-0.1-0.1-0.2l-0.9-1.7c-0.1-0.1-0.1-0.2-0.2-0.3c-0.1-0.1-0.1-0.2-0.1-0.3l0,0c0,0.1,0,0.3,0,0.4c0,0.1,0,0.3,0,0.4v1.9
		l0,0c0,0,0,0-0.1,0h-0.1c0,0-0.1,0-0.2,0c-0.1,0-0.1,0-0.2,0s-0.1,0-0.1,0l0,0l0,0v-3.2c0-0.1,0-0.2,0.1-0.2s0.1-0.1,0.2-0.1h0.4
		c0.1,0,0.1,0,0.2,0c0,0,0.1,0,0.1,0.1l0.1,0.1c0,0,0.1,0.1,0.1,0.2l0.7,1.3c0,0.1,0.1,0.2,0.1,0.2c0,0.1,0.1,0.2,0.1,0.2
		c0,0.1,0.1,0.2,0.1,0.2c0,0.1,0.1,0.1,0.1,0.2l0,0c0-0.1,0-0.3,0-0.4c0-0.1,0-0.3,0-0.4v-1.7l0,0c0,0,0,0,0.1,0h0.1
		c0,0,0.1,0,0.2,0c0.1,0,0.1,0,0.2,0h0.1l0,0l0,0L16.7,42.2L16.7,42.2z"/>
	<path d="M20.7,42.2C20.7,42.3,20.7,42.3,20.7,42.2v0.2l0,0l0,0h-1.8c-0.1,0-0.1,0-0.2-0.1c0,0-0.1-0.1-0.1-0.2V39
		c0-0.1,0-0.1,0.1-0.2c0,0,0.1-0.1,0.2-0.1h1.8l0,0l0,0v0.1v0.1c0,0.1,0,0.1,0,0.1v0.1l0,0l0,0h-1.3V40h1.1l0,0l0,0c0,0,0,0,0,0.1
		v0.1c0,0.1,0,0.1,0,0.1v0.1l0,0l0,0h-1.1v1h1.3l0,0l0,0v0.1C20.7,42.1,20.7,42.1,20.7,42.2z"/>
	<path d="M24.2,41.1c0,0.2,0,0.4-0.1,0.6c-0.1,0.2-0.2,0.3-0.3,0.4c-0.1,0.1-0.3,0.2-0.5,0.3s-0.4,0.1-0.6,0.1c-0.2,0-0.4,0-0.6-0.1
		c-0.2-0.1-0.3-0.1-0.4-0.3c-0.1-0.1-0.2-0.3-0.3-0.4c-0.1-0.2-0.1-0.4-0.1-0.6v-2.2l0,0c0,0,0,0,0.1,0h0.1c0,0,0.1,0,0.2,0
		c0.1,0,0.1,0,0.2,0H22c0,0,0,0,0.1,0l0,0V41c0,0.1,0,0.3,0.1,0.4c0,0.1,0.1,0.2,0.1,0.3c0.1,0.1,0.1,0.1,0.2,0.2
		c0.1,0,0.2,0.1,0.3,0.1s0.2,0,0.3-0.1c0.1,0,0.2-0.1,0.2-0.2c0.1-0.1,0.1-0.1,0.1-0.2c0-0.1,0.1-0.2,0.1-0.3v-2.1l0,0
		c0,0,0,0,0.1,0h0.1c0,0,0.1,0,0.2,0c0.1,0,0.1,0,0.2,0h0.1c0,0,0,0,0.1,0l0,0L24.2,41.1L24.2,41.1z"/>
	<path d="M26.6,39.9c0-0.1,0-0.2-0.1-0.3s-0.1-0.1-0.3-0.2h-0.1c0,0-0.1,0-0.2,0h-0.3v1H26c0.1,0,0.2,0,0.3,0s0.1-0.1,0.2-0.1
		c0.1,0,0.1-0.1,0.1-0.2C26.6,40.1,26.6,40,26.6,39.9z M27.5,42.4L27.5,42.4L27.5,42.4c-0.1,0.1-0.1,0.1-0.2,0.1c-0.1,0-0.1,0-0.2,0
		c-0.1,0-0.1,0-0.2,0h-0.1c0,0,0,0-0.1,0c0,0,0,0,0-0.1l-0.3-0.8c0-0.1-0.1-0.2-0.1-0.2c0-0.1-0.1-0.1-0.1-0.2c0,0-0.1-0.1-0.2-0.1
		c-0.1,0-0.1,0-0.2,0h-0.2v1.3l0,0c0,0,0,0-0.1,0h-0.1c0,0-0.1,0-0.2,0c-0.1,0-0.1,0-0.2,0h-0.1c0,0,0,0-0.1,0l0,0v-3.2
		c0-0.1,0-0.1,0.1-0.2c0,0,0.1-0.1,0.2-0.1H26c0.1,0,0.2,0,0.2,0s0.1,0,0.2,0c0.1,0,0.3,0.1,0.4,0.1c0.1,0,0.2,0.1,0.3,0.2
		c0.1,0.1,0.1,0.2,0.2,0.3c0,0.1,0.1,0.2,0.1,0.4c0,0.1,0,0.2,0,0.3s-0.1,0.2-0.1,0.3s-0.1,0.1-0.2,0.2c-0.1,0.1-0.2,0.1-0.3,0.1
		c0.1,0,0.1,0.1,0.1,0.1L27,41c0,0.1,0.1,0.1,0.1,0.2c0,0.1,0.1,0.1,0.1,0.2l0.3,0.7C27.5,42.2,27.5,42.2,27.5,42.4
		C27.5,42.3,27.5,42.3,27.5,42.4z"/>
	<path d="M30.4,40.7c0-0.2,0-0.4,0-0.5c0-0.2-0.1-0.3-0.1-0.4c-0.1-0.1-0.2-0.2-0.3-0.3s-0.3-0.1-0.4-0.1c-0.2,0-0.3,0-0.4,0.1
		c-0.1,0.1-0.2,0.2-0.3,0.3s-0.1,0.2-0.2,0.4c0,0.1,0,0.3,0,0.5s0,0.4,0,0.5c0,0.2,0.1,0.3,0.1,0.4c0.1,0.1,0.2,0.2,0.3,0.3
		s0.3,0.1,0.4,0.1c0.2,0,0.3,0,0.4-0.1c0.1-0.1,0.2-0.2,0.3-0.3s0.1-0.2,0.2-0.4C30.4,41,30.4,40.8,30.4,40.7z M31.2,40.6
		c0,0.3,0,0.6-0.1,0.8s-0.2,0.4-0.3,0.6c-0.1,0.2-0.3,0.3-0.5,0.4c-0.2,0.1-0.5,0.1-0.7,0.1c-0.3,0-0.5,0-0.7-0.1s-0.4-0.2-0.5-0.3
		s-0.2-0.3-0.3-0.6C28,41.3,28,41,28,40.7s0-0.5,0.1-0.8c0.1-0.2,0.2-0.4,0.3-0.6c0.1-0.2,0.3-0.3,0.5-0.4c0.2-0.1,0.5-0.1,0.7-0.1
		c0.3,0,0.5,0,0.7,0.1s0.4,0.2,0.5,0.3s0.2,0.3,0.3,0.6S31.2,40.3,31.2,40.6z"/>
	<path d="M33.4,40c0-0.1,0-0.2-0.1-0.3c0-0.1-0.1-0.1-0.2-0.2c-0.1,0-0.1-0.1-0.2-0.1s-0.1,0-0.2,0h-0.3v1.2h0.3c0.1,0,0.2,0,0.3,0
		s0.1-0.1,0.2-0.1c0-0.1,0.1-0.1,0.1-0.2C33.4,40.2,33.4,40.1,33.4,40z M34.2,40c0,0.2,0,0.4-0.1,0.5c-0.1,0.2-0.2,0.3-0.3,0.4
		c-0.1,0.1-0.3,0.2-0.4,0.2c-0.2,0.1-0.4,0.1-0.6,0.1h-0.3v1.1l0,0c0,0,0,0-0.1,0h-0.1c0,0-0.1,0-0.2,0s-0.1,0-0.2,0h-0.1
		c0,0,0,0-0.1,0l0,0v-3.2c0-0.1,0-0.2,0.1-0.2c0,0,0.1-0.1,0.2-0.1h0.8c0.1,0,0.2,0,0.2,0c0.1,0,0.2,0,0.3,0s0.2,0.1,0.3,0.1
		c0.1,0.1,0.2,0.1,0.3,0.2c0.1,0.1,0.1,0.2,0.2,0.3C34.1,39.7,34.2,39.8,34.2,40z"/>
	<path d="M36.8,42.2C36.8,42.3,36.8,42.3,36.8,42.2v0.2l0,0l0,0h-1.9c-0.1,0-0.1,0-0.2-0.1c0,0-0.1-0.1-0.1-0.2V39
		c0-0.1,0-0.1,0.1-0.2c0,0,0.1-0.1,0.2-0.1h1.8l0,0l0,0v0.1v0.1c0,0.1,0,0.1,0,0.1v0.1l0,0l0,0h-1.3V40h1.1l0,0l0,0c0,0,0,0,0,0.1
		v0.1c0,0.1,0,0.1,0,0.1v0.1l0,0l0,0h-1.1v1h1.3l0,0l0,0v0.1C36.8,42.1,36.8,42.1,36.8,42.2z"/>
	<path d="M38.6,39.6L38.6,39.6l-0.5,1.5h1L38.6,39.6z M40.3,42.2c0,0.1,0,0.1,0,0.2s0,0.1,0,0.1h-0.1c-0.1,0-0.1,0-0.2,0
		s-0.2,0-0.2,0c-0.1,0-0.1,0-0.1,0s0,0-0.1,0c0,0,0,0,0-0.1l-0.2-0.7h-1.3l-0.2,0.7c0,0,0,0,0,0.1c0,0,0,0-0.1,0h-0.1
		c0,0-0.1,0-0.2,0s-0.1,0-0.2,0h-0.1v-0.1c0,0,0-0.1,0-0.2l1.1-3.1V39c0,0,0,0,0.1,0h0.1c0.1,0,0.1,0,0.2,0s0.2,0,0.3,0
		c0.1,0,0.1,0,0.1,0h0.1c0,0,0,0,0,0.1L40.3,42.2z"/>
	<path d="M0,0v37.4h55.1V0H0z M54.1,36.3h-53V1h53V36.3z"/>
	<polygon points="26.5,8.7 27.6,7.9 28.7,8.7 28.3,7.4 29.4,6.6 28,6.6 27.6,5.2 27.2,6.6 25.8,6.6 26.9,7.4 	"/>
	<polygon points="20.7,10.3 21.8,9.4 22.9,10.3 22.5,8.9 23.6,8.1 22.2,8.1 21.8,6.8 21.4,8.1 20,8.1 21.1,8.9 	"/>
	<polygon points="17.6,11 17.1,12.4 15.7,12.4 16.9,13.2 16.4,14.5 17.6,13.7 18.7,14.5 18.3,13.2 19.4,12.4 18,12.4 	"/>
	<polygon points="16,19.5 17.1,20.3 16.7,19 17.8,18.2 16.4,18.2 16,16.8 15.6,18.2 14.2,18.2 15.3,19 14.9,20.3 	"/>
	<polygon points="18,23.9 17.6,22.6 17.1,23.9 15.7,23.9 16.9,24.8 16.4,26.1 17.6,25.3 18.7,26.1 18.3,24.8 19.4,23.9 	"/>
	<polygon points="22.2,28.2 21.8,26.9 21.4,28.2 20,28.2 21.1,29 20.7,30.3 21.8,29.5 22.9,30.3 22.5,29 23.6,28.2 	"/>
	<polygon points="28,29.7 27.6,28.4 27.2,29.7 25.8,29.7 26.9,30.5 26.5,31.9 27.6,31 28.7,31.9 28.3,30.5 29.4,29.7 	"/>
	<polygon points="33.8,28.2 33.4,26.9 32.9,28.2 31.5,28.2 32.7,29 32.2,30.3 33.4,29.5 34.5,30.3 34.1,29 35.2,28.2 	"/>
	<polygon points="38,23.9 37.6,22.6 37.2,23.9 35.8,23.9 36.9,24.8 36.5,26.1 37.6,25.3 38.7,26.1 38.3,24.8 39.4,23.9 	"/>
	<polygon points="41,18.1 39.6,18.1 39.1,16.8 38.7,18.1 37.3,18.1 38.4,19 38,20.3 39.1,19.5 40.3,20.3 39.8,19 	"/>
	<polygon points="36.5,14.5 37.6,13.7 38.7,14.5 38.3,13.2 39.4,12.4 38,12.4 37.6,11 37.2,12.4 35.8,12.4 36.9,13.2 	"/>
	<polygon points="33.4,6.8 33,8.1 31.6,8.1 32.7,8.9 32.3,10.3 33.4,9.4 34.5,10.3 34.1,8.9 35.2,8.1 33.8,8.1 	"/>
</g>
</svg>
