<?xml version="1.0" encoding="utf-8"?>
<!-- Generator: Adobe Illustrator 22.1.0, SVG Export Plug-In . SVG Version: 6.00 Build 0)  -->
<svg version="1.1" id="Livello_1" xmlns="http://www.w3.org/2000/svg" xmlns:xlink="http://www.w3.org/1999/xlink" x="0px" y="0px"
	 viewBox="0 0 278 315.3" style="enable-background:new 0 0 278 315.3;" xml:space="preserve">
<style type="text/css">
	.st0{fill:#E3D9D8;}
	.st1{fill:#C1B8B5;}
	.st2{fill:#FFFFFF;}
	.st3{fill:#A51008;}
	.st4{fill:#47542C;}
	.st5{fill:#636F31;}
	.st6{fill:#252F20;}
	.st7{fill:#4F6248;}
	.st8{fill:#2C3E19;}
	.st9{fill:#86623E;}
	.st10{fill:#9D7B5F;}
	.st11{fill:#5E3422;}
	.st12{fill:#AE0F0A;}
	.st13{fill:#8A1002;}
	.st14{fill:#770F00;}
	.st15{fill:#931004;}
	.st16{fill:#693B31;}
	.st17{fill:#001A04;}
	.st18{fill:#3A4B23;}
	.st19{fill:#897159;}
	.st20{fill:#707F40;}
	.st21{fill:#4B2F18;}
	.st22{fill:#321D08;}
	.st23{fill:#35412F;}
	.st24{fill:#4E5F37;}
	.st25{fill:#657C53;}
	.st26{fill:#8B804C;}
	.st27{fill:#575714;}
	.st28{fill:#596448;}
	.st29{fill:#BDA46E;}
	.st30{fill:#866951;}
	.st31{fill:#9D875F;}
	.st32{fill:#AE9766;}
	.st33{fill:#62703F;}
	.st34{fill:#445D37;}
	.st35{fill:#6B5440;}
</style>
<g>
	<g>
		
			<ellipse transform="matrix(0.7071 -0.7071 0.7071 0.7071 -57.8283 137.771)" class="st0" cx="137.4" cy="138.7" rx="86.2" ry="86.2"/>
		<path class="st1" d="M245.6,132.9c0-1.6-1.3-2.8-2.8-2.8h-8.1c-0.4-4.5-1.1-8.8-2.1-13.1l7.6-2.5c1.5-0.5,2.3-2.1,1.8-3.6
			l-3.6-11.1c-0.5-1.5-2.1-2.3-3.6-1.8l-7.6,2.5c-1.7-4.1-3.8-8-6-11.8l6.5-4.7c1.3-0.9,1.5-2.7,0.6-4l-6.9-9.4
			c-0.9-1.3-2.7-1.5-4-0.6l-6.5,4.7c-2.9-3.3-6-6.5-9.4-9.4l4.7-6.5c0.9-1.3,0.6-3-0.6-4l-9.4-6.9c-1.3-0.9-3-0.6-4,0.6l-4.7,6.5
			c-3.8-2.3-7.7-4.3-11.8-6l2.5-7.6c0.5-1.5-0.3-3.1-1.8-3.6l-11.1-3.6c-1.5-0.5-3.1,0.3-3.6,1.8l-2.5,7.6c-4.3-1-8.6-1.7-13.1-2.1
			v-8.1c0-1.6-1.3-2.8-2.8-2.8h-11.7c-1.6,0-2.8,1.3-2.8,2.8v8.1c-4.5,0.4-8.8,1.1-13.1,2.1l-2.5-7.6c-0.5-1.5-2.1-2.3-3.6-1.8
			l-11.1,3.6c-1.5,0.5-2.3,2.1-1.8,3.6l2.5,7.6c-4.1,1.7-8,3.8-11.8,6l-4.7-6.5c-0.9-1.3-2.7-1.5-4-0.6l-9.3,6.9
			c-1.3,0.9-1.5,2.7-0.6,4l4.7,6.5c-3.3,2.9-6.5,6-9.4,9.4L57.6,70c-1.3-0.9-3-0.6-4,0.6L46.7,80c-0.9,1.3-0.6,3,0.6,4l6.5,4.7
			c-2.3,3.8-4.3,7.7-6,11.8L40.2,98c-1.5-0.5-3.1,0.3-3.6,1.8L33,110.9c-0.5,1.5,0.3,3.1,1.8,3.6l7.6,2.5c-1,4.3-1.7,8.6-2.1,13.1
			h-7.9c-1.6,0-2.8,1.3-2.8,2.8v11.7c0,1.6,1.3,2.8,2.8,2.8h8.1c0.4,4.5,1.1,8.8,2.1,13.1L35,163c-1.5,0.5-2.3,2.1-1.8,3.6l3.6,11.1
			c0.5,1.5,2.1,2.3,3.6,1.8L48,177c1.7,4.1,3.8,8,6,11.8l-6.5,4.7c-1.3,0.9-1.5,2.7-0.6,4l6.9,9.4c0.9,1.3,2.7,1.5,4,0.6l6.5-4.7
			c2.9,3.3,6,6.5,9.4,9.4l-4.7,6.5c-0.9,1.3-0.6,3,0.6,4l9.4,6.9c1.3,0.9,3,0.6,4-0.6l4.7-6.5c3.8,2.3,7.7,4.3,11.8,6l-2.5,7.6
			c-0.5,1.5,0.3,3.1,1.8,3.6l11.1,3.6c1.5,0.5,3.1-0.3,3.6-1.8l2.5-7.6c4.3,1,8.6,1.7,13.1,2.1v8.1c0,1.6,1.3,2.8,2.8,2.8h11.5
			c1.6,0,2.8-1.3,2.8-2.8V236c4.5-0.4,8.8-1.1,13.1-2.1l2.5,7.6c0.5,1.5,2.1,2.3,3.6,1.8l11.1-3.6c1.5-0.5,2.3-2.1,1.8-3.6l-2.5-7.6
			c4.1-1.7,8-3.8,11.8-6l4.7,6.5c0.9,1.3,2.7,1.5,4,0.6l9.4-6.9c1.3-0.9,1.5-2.7,0.6-4l-4.7-6.5c3.3-2.9,6.5-6,9.4-9.4l6.5,4.7
			c1.3,0.9,3,0.6,4-0.6l6.9-9.4c0.9-1.3,0.6-3-0.6-4l-6.5-4.7c2.3-3.8,4.3-7.7,6-11.8l7.6,2.5c1.5,0.5,3.1-0.3,3.6-1.8l3.6-11.1
			c0.5-1.5-0.3-3.1-1.8-3.6l-7.6-2.5c1-4.3,1.7-8.6,2.1-13.1h8.1c1.6,0,2.8-1.3,2.8-2.8L245.6,132.9z M205,101.2L154.8,114l-2.6-42
			l-0.6-9.1C174.5,67.1,194,81.5,205,101.2z M123.6,62.9l-0.5,7.7l-2.7,43.4l-50.2-12.8C81.2,81.5,100.6,67.1,123.6,62.9z
			 M60.4,138.8c0-3.7,0.3-7.2,0.8-10.8l47.3,18.5l-27.9,44.3C68,177.1,60.4,158.8,60.4,138.8z M137.6,215.9
			c-11.8,0-22.9-2.6-32.9-7.3l32.9-40l32.9,40C160.5,213.3,149.3,215.9,137.6,215.9z M194.6,190.8l-27.9-44.2l47.3-18.5
			c0.5,3.5,0.8,7.1,0.8,10.8C214.7,158.8,207.1,177.1,194.6,190.8z"/>
		<g>
			<polygon class="st2" points="137.6,165.8 94.2,197.3 110.8,146.3 67.4,114.8 121,114.8 137.6,63.8 154.1,114.8 207.7,114.8 
				164.4,146.3 180.9,197.3 			"/>
			<path class="st3" d="M137.6,67.4l15.3,47l0.5,1.5h1.6h49.4l-40,29l-1.3,0.9l0.5,1.5l15.3,47l-40-29l-1.3-0.9l-1.3,0.9l-40,29
				l15.3-47l0.5-1.5l-1.3-0.9l-40-29h49.4h1.6l0.5-1.5L137.6,67.4 M137.6,60.3l-17.4,53.4H64l45.4,33L92,200.1l45.4-33l45.4,33
				l-17.4-53.4l45.4-33h-56.2L137.6,60.3L137.6,60.3z"/>
		</g>
	</g>
	<path class="st4" d="M200.7,20.7c-0.7-0.9-1.5-1.7-2.3-2.6c-0.5-0.5-1.6-2.2-2.5-1.8c-0.9,0.3-0.3,1.9-1.1,2.5
		c-1.4,1-2.3-0.6-2.8-1.6c-0.6-1.1-1.5-1.6-2.3-2.5c-0.8-1-1.3-2.2-2.2-3.1c-0.9-1.1-2.2-2.2-3.3-3c-1.5-0.9-3.1-2.5-4.9-2.6
		c-2.1-0.1-0.9,0.5-1.5,1.5c-0.6,0.9-1.3,0.4-1.9,0c-1.3-0.9-1.6-2.5-3.4-2.8c-2-0.3-3.2-0.1-4.9-1.3c-2.2-1.6-8.5-2.6-10.7-0.4
		c-1.1,1,0.1,1.4,0.1,2.4c0,1.3-1.3,1.1-2.3,1.1c-2.1,0-3.9,0.7-3.3,3c0.3,0.9,0.5,1.9,1.3,2.6c0.9,0.7,2.1,0.7,3,1.3
		c2,1.3-0.1,3.7,0.5,5.4c0.9,2.4,2.6,2.4,4.9,2.6c2.1,0.2,3.9,0.7,6,0.7c0.9,0,2.1,0.3,2.1,1.4s-1.2,1.3-1.7,2.2
		c-1.1,2.3,2.1,1.8,3.3,1.4c1.1-0.3,1.4-0.8,2.5-0.1c1.1,0.7,1.9,1.9,3.1,2.4c1.5,0.6,3.2,0.2,4.5-0.6c1.3-0.9,4.3-1.5,5.3,0.2
		c1.4,2.5-2.9,2.5-2.3,4.6c0.5,1.7,5.1,0.8,6.5,0.8s2.3-0.1,3.5-0.6c1.8-0.7,4.6-1.5,6.2-2.6c1.5-1,2-3.6,2.2-5.2
		C202.7,23.7,202.2,22.5,200.7,20.7z"/>
	<path class="st5" d="M200.2,24.3c-1,0.4-5.1,0.4-7.7-0.4s-4.4-1-7.3,0.1c-2.9,1.2-6.3,1.3-8.2,1.3c-2,0-2.7-0.7-1-0.7
		c5.1,0,10-2.2,9.7-3c-0.4-0.8-3.4-3-4.8-3.5s-3.1-1-5-1.4c-1.8-0.4-5.9-2.2-7.3-2.5s-3.7-1.7-6.1-3c-2.5-1.3-2.5-3.4-1.2-2.1
		s3.8,1.8,5,2.7c1.2,0.9,3.3,1.2,1.8-0.4c-1.4-1.6-2.9-5.1-2.9-5.1s4,4.4,5.3,5.7c1.3,1.3,4,2.6,5.1,3.1c1,0.5,0.7-1.3,0.3-2.9
		s-2.1-3.1-0.4-2.6s3.8,5.6,5,6s3.1,1.8,5.5,3.3c2.3,1.4,1.4-1.4,0.5-2.9c-0.7-1.1-1.9-3.2-2.4-4.1c-0.2-0.3-0.3-0.5-0.3-0.5
		s0.1,0.2,0.3,0.5c0.4,0.7,1.2,1.6,2,1c0.5-0.4,0.6-1.4,0.5-2.5c-0.8-0.8-1.6-1.5-2.4-2c-1.5-0.9-3.1-2.5-4.9-2.6
		c-2.1-0.1-0.9,0.5-1.5,1.5c-0.6,0.9-1.3,0.4-1.9,0c-1.3-0.9-1.6-2.5-3.4-2.8c-2-0.3-3.2-0.1-4.9-1.3c-2.2-1.6-8.5-2.6-10.7-0.4
		c-1.1,1,0.1,1.4,0.1,2.4c0,1.3-1.3,1.1-2.3,1.1c-2.1,0-3.9,0.7-3.3,3c0.3,0.9,0.5,1.9,1.3,2.6c0.9,0.7,2.1,0.7,3,1.3
		c2,1.3-0.1,3.7,0.5,5.4c0.9,2.4,2.6,2.4,4.9,2.6c2.1,0.2,3.9,0.7,6,0.7c0.9,0,2.1,0.3,2.1,1.4s-1.2,1.3-1.7,2.2
		c-1.1,2.3,2.1,1.8,3.3,1.4c1.1-0.3,1.4-0.8,2.5-0.1c1.1,0.7,1.9,1.9,3.1,2.4c1.5,0.6,3.2,0.2,4.5-0.6c1.3-0.9,4.3-1.5,5.3,0.2
		c1.4,2.5-2.9,2.5-2.3,4.6c0.5,1.7,5.1,0.8,6.5,0.8s2.3-0.1,3.5-0.6c1.8-0.7,4.6-1.5,6.2-2.6c1.5-1,2-3.6,2.2-5.2
		c0.1-1.1,0.1-1.9-0.1-2.6C201.6,23.8,200.8,24.1,200.2,24.3z"/>
	<path class="st6" d="M204.9,19.8c-0.8-0.3-1.8-0.4-2.5-0.1c-1,0.5-0.8,1.5-1.4,2.1c-1.1,1.2-5.2,0.1-6.8,0c-2-0.1-3.3,1.1-3.4,3
		c-0.1,1.2,0.4,2.8,0.8,4c0.3,1.2,1.4,2.1,1.2,3.5c-0.2,1.5-2.1,1.4-2.8,2.7c-0.8,1.5-0.1,2.7,0.5,4c0.5,1.2,1.7,2.9,3,3.3
		c1.8,0.5,3.9-0.2,5.6,0.3c1.4,0.4,2.7,1.6,2.6,3.1c-0.1,2.5-3,3.4-4,5.4c-0.4,1-0.4,2.6,0.4,3.4c0.9,0.8,2.7,0.6,3.9,0.7
		c1.5,0.1,4.1-0.4,4.6,1.3c0.4,1.4-0.6,2.8-0.5,4.3c0.1,1.6,1.9,2.5,3.2,3.1c1.7,0.8,3.9,0.8,5.7,0.8c2.6-0.1,5.2-0.7,7.8-0.8
		c1.1-0.1,2.3,0.2,3.1-0.5c2-1.9,1.8-6,1.3-8.5c-0.4-1.8-1.3-3.7-2-5.4c-1.6-3.8-2.6-7.9-4.5-11.6c-0.6-1.2-1.6-2.1-2.4-3.2
		c-0.5-0.8-1-1.7-1.5-2.6c-0.6-0.9-1.4-1.7-2-2.7c-0.4-0.6-0.5-1.4-0.9-2c-0.6-0.9-1.4-1.8-2.1-2.6c-1-1.1-2.4-0.7-3.2-2
		C207.8,21.6,206.5,20.4,204.9,19.8z"/>
	<path class="st7" d="M227.2,55c-0.4-1.8-1.3-3.7-2-5.4c-1.6-3.8-2.6-7.9-4.5-11.6c-0.6-1.2-1.6-2.1-2.4-3.2c-0.5-0.8-1-1.7-1.5-2.6
		c-0.4-0.7-1-1.3-1.5-2c-2.7,4.1-5.8,6.4-8.8,3.1c-5.4-5.9-11.5-9-14.8-10.4c-0.5,0.5-0.8,1.2-0.8,2c-0.1,1.2,0.4,2.8,0.8,4
		c0.3,1.2,1.4,2.1,1.2,3.5c-0.2,1.5-2.1,1.4-2.8,2.7c-0.8,1.5-0.1,2.7,0.5,4c0.5,1.2,1.7,2.9,3,3.3c1.8,0.5,3.9-0.2,5.6,0.3
		c1.4,0.4,2.7,1.6,2.6,3.1c-0.1,2.5-3,3.4-4,5.4c-0.4,1-0.4,2.6,0.4,3.4c0.9,0.8,2.7,0.6,3.9,0.7c1.5,0.1,4.1-0.4,4.6,1.3
		c0.4,1.4-0.6,2.8-0.5,4.3c0.1,1.6,1.9,2.5,3.2,3.1c1.7,0.8,3.9,0.8,5.7,0.8c2.6-0.1,5.2-0.7,7.8-0.8c1.1-0.1,2.3,0.2,3.1-0.5
		C227.9,61.6,227.7,57.4,227.2,55z"/>
	<path class="st6" d="M191.5,28.4c0,0-0.6,3.3,0.1,5.3c0.9-0.5,1.2-1,1.2-1.7C192.8,30.9,191.7,29.6,191.5,28.4z"/>
	<path class="st8" d="M198.8,49.8c0,0-0.1,1.3,2.3,1.5s3.8-0.1,5.1,1.2c0.8,0.7,2.3,2.8,0.4,2.8c-2.3,0.1-6.7,0.5-8.2-0.3
		C197.2,54.4,196.5,51.9,198.8,49.8z"/>
	<path class="st6" d="M203.5,45.7c0,0-0.1,1.6,2.2,3.1c2.3,1.5,1.5,4.4,1.5,4.4s3.9-0.7,3.8-2.8C210.7,48.3,209.7,47,203.5,45.7z"/>
	<path class="st4" d="M207.9,22.8c-0.7-0.1-1.4-0.3-2.2-0.2c-1.9,0.4-1.4,2-1.7,3.4c-0.3,1.4-1.1,2.6-1.2,4.2
		c-0.1,1.7,0.7,2.5,1.5,3.8s0.6,2.9-0.6,3.9c-1.3,1.1-2.2,2-2.4,3.7c-0.1,1.3,0,2.7,1.1,3.5c2.3,1.7,5.8,1.4,7.7,3.9
		c1,1.3,0,2.4-1.1,3.1c-0.9,0.5-1.8,1-2.6,1.5c-0.6,0.3-1.5,0.5-2,1.2c-1.2,1.3,0,3,1.5,3.4c0.8,0.2,1.5,0.6,2.3,1
		c0.7,0.3,1.6,0.3,2.3,0.5c1,0.2,2.4,0.3,3.2,1c0.5,0.4,0.7,1.2,1.1,1.7c2.3,2.9,6.5,2.6,9.8,2.7c0.8,0,1.9,0,2.6,0.5
		c1.6,1.4-0.7,2.5-1.3,3.4c-1.1,1.8,2.5,2.1,3.5,2.3c0.8,0.2,1.7,0.7,2.6,0.5c0.7-0.1,1.2-0.6,1.8-0.9c0.8-0.5,1.7-0.6,2.5-1
		c2.3-1.1,2.2-3.5,2.5-5.7c0.2-1.2,0.2-2.4-0.1-3.6c-0.2-1.3-0.2-2.5-0.7-3.7c-0.3-0.6-0.7-1-1-1.5c-1-1.8-1.3-3.2-1.3-5.4
		c0-1.6,0.6-3.1,0.3-4.8c-0.3-1.5-0.9-2.9-1.8-4.1c-0.5-0.7-1-1.1-1.2-2.1c-0.2-0.9-0.2-1.8-0.3-2.7c-0.1-1.1-1-3.9-2.6-2.8
		c-1,0.7-1.8,2.6-2.3,3.6c-0.5,0.9-1.6,1.2-2,0.1c-0.5-1.4-0.1-3-0.5-4.5c-0.4-1.4-0.6-2.9-1.5-4.1c-0.8-1.2-1.7-2.5-2.8-3.5
		c-0.7-0.7-2.5-1.6-3.5-1.5c-1.5,0.2-0.7,2.7-2.5,2.1c-0.7-0.2-1.5-1-2.1-1.4c-0.7-0.4-1.5-0.9-2.3-1.1
		C209.5,22.7,208.7,22.8,207.9,22.8z"/>
	<path class="st8" d="M219.4,63.9c0,0-2.8,1.3-8.1,0.7c-5.3-0.6-6.5-3.5-4.6-6.6C208.6,54.9,218.1,59.5,219.4,63.9z"/>
	<path class="st9" d="M18.7,138.1c-0.8-2.8-2.5,2.9-3.9,3.2c-1.3,0.3-1,2-1.1,3.2c-0.3,4.7,4.7,2.7,5.4,10.9
		C19.7,162.3,21.4,148.1,18.7,138.1z"/>
	<path class="st9" d="M23.5,111.7c0,0-1.2-4.2-3.8-7.1c-2.1-2.4-1.3,5.2-1.3,6.2c0,0.9,2.9,3.1,2,11.5S23.5,111.7,23.5,111.7z"/>
	<path class="st9" d="M32,91c0,0-1.9-2.8-3.2-2.1c-1.3,0.7-1.1,2-2,1.1s-1.5-1.1-1.5,1.1c0,2.1,0,2.7,1.1,3.9
		c1.1,1.2,2.1,2.5,2.1,3.8C28.5,99.8,32,91,32,91z"/>
	<path class="st9" d="M46,59.6c0,0,0.9,4.6,0.4,6.3c-0.5,1.7-2.5,3.8-2.5,3.8s0.4-3.9,0-7C43.5,59.6,46,59.6,46,59.6z"/>
	<path class="st9" d="M32.4,93.8c0,0,3.1,0.8,6.2-0.5c3.1-1.3,1.7,2-1.1,2.8s-6.6,0.3-6.6,0.3L32.4,93.8z"/>
	<path class="st9" d="M30.5,114c0,0-5.6,1.8-7.2,4c-1.7,2.3,1.5-8.2,2.5-9.2c1.1-1.1,2.7,0.3,2.4,1.6c-0.3,1.3-2.1,1.6-1.6,2.4
		s2.5,0.5,4.7,0.1C33.4,112.5,30.5,114,30.5,114z"/>
	<path class="st9" d="M58.8,46.9c0,0-2.8,1.1-2.7,2.9c0.1,1.9,0.5,3.5,0.5,3.5l-2.7,3.2c0,0-0.1-5.4,0.3-7.6
		c0.4-2.3,4.4-4.7,6.8-6.6C63.4,40.5,58.8,46.9,58.8,46.9z"/>
	<path class="st10" d="M38.1,199.1c0,0-1.2,5.5-0.7,7.4s-1.9,0.9-2.8,0.3c-0.9-0.7-2,0-0.3,1.9s2.5,3.1,3.8,3.6
		c0.5,1.6,2.5,7.9,5.6,11.8c0.1,3.1-0.3,5.8,5.9,12.1c6.2,6.3,15.5,10,15.5,10s-0.5-7.6-6.6-10.7c-6-3.1-7.6-6.4-8.6-8
		c-0.9-1.6,0.4-2.8-1.6-3.2c-2-0.4,0.3-1.7-2.8-2.8c-1.9-3.5-3.1-6.6-3.8-9.1s1.1-5,2.5-5.1C45.9,207,40.8,202.3,38.1,199.1z"/>
	<g>
		<path class="st10" d="M147.9,285.3c0,0,5.9,4.8,8.6,6.6c2.8,1.9,5.4,3.5,8.3,5.5s5.8,4.6,6,5.9c0.3,1.3,0.2,3.3,1.4,4.5
			c1.1,1.3,2,1.8,3.1,1.8s2.4,0.6,3,1.9c0.6,1.3,1,2.8,2,3.8s5.1,0.9,7.1,0s4.1-3,5-3.9s3.3-0.9,4.8-1.8c1.5-0.9,3.1-2.1,1.6-3.9
			c-1.5-1.8-3-1.5-5.3-1.4s-7-3.1-12.8-7.1s-8-8.6-8-8.6l-23.7-4.9L147.9,285.3z"/>
		<path class="st11" d="M170.8,303.3c0.3,1.3,0.2,3.3,1.4,4.5c1.1,1.3,2,1.8,3.1,1.8s2.4,0.6,3,1.9c0.6,1.2,1,2.6,1.9,3.6
			c-0.1-1.1,0.3-2.4,0.7-3.1c0.7-1.1,2.3-2,3.4-2.9c1.2-0.9,0.1-1.5-0.6-1.1s-2,1.8-3,2.7s-1.3-0.6-0.8-1.4c0.6-0.8,2.4-1.6,1.8-1.7
			c-0.6-0.1-2.2-1-3.1-2.2s-3.4-2.5-5.4-4.2s-4.8-3.3-5.6-4.1s0.8-1,2.1-1.1c0.9-0.1,6.7,0.1,9.6,0.1c-4.7-3.7-6.6-7.6-6.6-7.6
			l-23.3-4.8l-0.8,0.5l-0.8,1c0,0,5.9,4.8,8.6,6.6c2.8,1.9,5.4,3.5,8.3,5.5C167.7,299.4,170.6,302.1,170.8,303.3z M173.5,304.9
			c0.5-0.6,1.6-0.5,2.4,0.1c0.8,0.7,1,1.7,0.5,2.4c-0.5,0.6-1.6,0.5-2.4-0.1C173.2,306.6,172.9,305.5,173.5,304.9z"/>
		<path class="st10" d="M131.3,286.2c0,0-3,4-5,5.5s-4.4,2.4-5.6,3.6c-1.3,1.3-2.6,2-3,3s0.1,2.3-0.6,3c-0.8,0.8-2.1,0.6-3.3,0.6
			c-1.1,0-1.4,0.5-2.4,1.4s-1.9,1.9-2.6,2.1c-0.8,0.3-1.5,0.4-1,0.9s2.1,2.5,1.1,3.4s-1.9,0.9-2.8,1.5s-2,0.8-3,0.6
			c-1-0.1-2,1.8-2.6,2.8s-0.1,2.1-2.1,2.6s-6,0.3-8.4-1.4s-4.4-3.6-5.1-4.5c-0.8-0.9-2.1-0.6-3.1-0.9c-1-0.3-1-1.3-0.3-2.4
			c0.8-1.1,1.6-2.3,2.5-2.1c0.9,0.1,3-0.4,4.5-1.6c1.5-1.3,4-3.1,4.4-3.4c0.4-0.3-0.3-2.8,1.1-3.5c1.4-0.8,1.8-1,3.1-1.1
			c1.4-0.1,3.3,0,4-0.4c0.8-0.4,1.5-1.1,2.5-1.5s2.5-0.9,3.3-1.9s4.3-3.8,4.3-3.8L131.3,286.2z"/>
		<path class="st11" d="M111.1,288.8c0,0-3.5,2.8-4.3,3.8c-0.1,0.1-0.2,0.2-0.4,0.4c1.1-0.1,2.5-0.2,3.2-0.3c1.4-0.3,3.8-1,5.2-0.3
			c1.3,0.7,1.4,1.5,0.8,3.1c-0.7,1.7-2.2,2.3-3.8,3.1c-1.7,0.8-3.4,2-3.9,2.8s-2.9,2.5-3.6,3.8s-1.7,2.3-1.3,2.7
			c0.4,0.4,0.7-0.1,1.4-0.9s1.7-1.1,2.4-1c0.2,0,0.5,0,0.8,0.1c0.2-0.2,0.6-0.3,1.1-0.5c0.8-0.3,1.6-1.3,2.6-2.1
			c1-0.9,1.3-1.4,2.4-1.4s2.5,0.1,3.3-0.6c0.8-0.8,0.3-2,0.6-3c0.4-1,1.8-1.8,3-3c1.3-1.3,3.6-2.1,5.6-3.6s5-5.5,5-5.5L111.1,288.8z
			 M105.3,309.2c-1,0.5-1.9,0.4-2.4-0.5s-1.8-0.5-2,0.1c-0.3,0.6-0.5,1.8-1.8,0.9c-1.3-0.9-4.5-2-7-1.8c-2.5,0.3-6.1-0.1-4.4,0.5
			c1.8,0.6,2.6-0.1,7.8,1.4c3.2,0.9,4.5,3.1,5.1,4.6c0.6-1,1.6-2.7,2.5-2.6c1,0.1,2.1,0,3-0.6s1.8-0.6,2.8-1.5
			c0.8-0.7,0-2.1-0.7-2.9C107.2,307.4,106.1,308.8,105.3,309.2z M95.1,301.2c1.3,0.3,2.8,0.2,4.3-0.7s3-3.3,3.2-4.7
			c0-0.3,0-0.5-0.1-0.7c-0.3,0.2-0.7,0.5-1,0.7c0,0.5-0.3,1.3-1,2.2c-0.8,0.9-1.8,2.2-4.4,2c-1.4-0.1-2.2-1.4-2.2-2.4
			c-0.6,0.4-0.8,1.1-0.8,1.8C93.4,300.3,94.2,300.9,95.1,301.2z"/>
		<g>
			<path class="st12" d="M56.5,298.7c-1.6,0-2.6-0.1-3-0.2c-2.1-0.7-18-10.4-26.1-15.7c-4.7-3.1-8-4.7-10.8-6.2
				c-2.1-1.1-4.1-2.1-6.3-3.5s-6.7-9.8-7.6-12.2c0-0.1,0-0.3,0-0.4c6.6-9.3,10.1-22.1,10.1-22.2c0-0.2,0.2-0.3,0.4-0.3l18.8-0.2
				l1.1-7.4c0-0.1,0.1-0.2,0.2-0.3c0.1,0,0.1,0,0.2,0c0.1,0,0.1,0,0.2,0c4.9,2.4,6.9,4.7,6.2,7.1c-0.1,0.3-0.2,0.6-0.3,0.9
				c-0.5,1.6-1.2,3.5-1.1,8.2c0.1,5.6,2.1,9.9,3.1,10.7c1.2,1,16.1,12,17.1,12.3c0.4,0,12.5-1,18.2-1.4l-1.1-1
				c-0.1-0.1-0.2-0.4,0-0.5c0,0,2.6-3.1,5.5-9.8c2.3-5.5,2.8-9,3.1-10.9c0.1-0.6,0.2-1.1,0.3-1.4c0.4-1.2,2.7-2.5,4.5-2.5
				c0.3,0,0.6,0,0.9,0.1c1.3,0.4,22.2,8.1,23.2,8.8c0.9,0.6,7.5,8.8,8.7,10.3l4.3-0.1c1.4-0.8,7.5-4.3,8.6-4.3c1,0,3.9,0.6,4.6,0.7
				l4.4-2.8c0.1,0,0.1-0.1,0.2-0.1s0.2,0,0.3,0.1l5.4,5.6l9.9,0.1c1.1-1.8,5.5-8.8,6.7-9.5c1.1-0.6,19.7-8.8,22-9.4
				c0.3-0.1,0.6-0.1,0.9-0.1c2.3,0,6,1.9,6.2,3.1c0.1,0.9,3,14.8,3.2,16l3.9,4.9c0.1,0.1,0.1,0.3,0,0.5l-1.1,1.3
				c2.7,0.2,12.5,1.1,17.2,1.1c1.6,0,2.1-0.1,2.3-0.2c1.7-0.6,13.3-10.1,17.8-13.8l1.2-15.5c-0.1-0.3-0.7-1.3-1.5-2
				c-1.1-1-1.3-2.2-0.6-3.3c0.6-0.9,4.7-4.8,4.9-4.9c0.1-0.1,0.2-0.1,0.3-0.1c0.1,0,0.1,0,0.2,0.1l2,1.4c0.1,0.1,0.1,0.1,0.2,0.2
				l1.2,6.1h12.6c0.5,0,1,0,1.5-0.1c0.5,0,1-0.1,1.4-0.1c1.1,0,2.4,0.1,3.2,1.2c1.3,1.5,0.8,3.1,0.5,3.6l10.2,19.3
				c0.1,0.1,0.1,0.3,0,0.4c-0.3,0.3-6.7,8-8.7,9.9c-1.2,1.1-2.6,1.7-3.8,2.2c-0.8,0.3-1.6,0.7-2.2,1.1c-1.6,1.1-17.2,11.5-20.5,13.7
				c-4.1,2.7-13.7,8.9-15.1,9.2c-0.2,0-0.6,0.1-2.3,0.1c-5.3,0-19.3-0.6-25.2-1.4c-7.2-1-19.4-3.4-22.4-4.2
				c-1.6-0.4-3.4-0.6-5.6-0.8c-1.8-0.2-3.9-0.3-6.1-0.7c-4.3-0.8-12.7-3.7-14-4.1c-1.4,1-8.7,6-10.3,6h-0.1c-1.5-0.2-7.9-3.8-9-4.5
				c-1.8,0.3-21.3,3.3-23.7,3.6c-0.8,0.1-2.6,0.6-4.9,1.3c-4.5,1.3-11.2,3.2-17.9,4.2C75.6,297.7,62.3,298.7,56.5,298.7L56.5,298.7z
				"/>
			<path class="st13" d="M242.8,229l2,1.4l1.3,6.4c0,0,10.5,0,12.9,0c1,0,2-0.1,2.9-0.1c1.2,0,2.2,0.2,2.9,1
				c1.4,1.7,0.4,3.4,0.4,3.4l10.3,19.5c0,0-6.7,8-8.7,9.8s-4.3,2.2-6,3.3c-1.7,1.2-17.2,11.5-20.5,13.7s-13.7,8.8-15,9.2
				c-0.2,0.1-1,0.1-2.2,0.1c-5.5,0-19.4-0.6-25.1-1.4c-7-1-19.3-3.3-22.3-4.2s-7-0.7-11.7-1.5s-14.2-4.2-14.2-4.2s-8.6,6-10.3,6
				c0,0,0,0-0.1,0c-1.5-0.2-9-4.5-9-4.5s-21.3,3.3-23.8,3.7s-12.7,4-22.8,5.5c-8.2,1.2-21.5,2.2-27.4,2.2c-1.5,0-2.5-0.1-2.9-0.2
				c-2-0.7-17.8-10.3-26-15.7c-8.2-5.3-11.8-6.3-17.2-9.7c-2-1.3-6.5-9.5-7.5-12c6.7-9.5,10.2-22.3,10.2-22.3l19.2-0.2l1.2-7.7
				c5.5,2.7,6.5,4.9,6,6.7s-1.5,3.5-1.4,9.3s2.1,10.1,3.3,11s16.6,12.4,17.3,12.4s19.1-1.5,19.1-1.5l-1.8-1.6c0,0,2.7-3,5.5-9.9
				c3.1-7.4,3-11.2,3.4-12.4c0.3-1,2.4-2.2,4.1-2.2c0.3,0,0.5,0,0.8,0.1c1.8,0.5,22.3,8.1,23.1,8.8s8.8,10.4,8.8,10.4l4.6-0.1
				c0,0,7.4-4.3,8.5-4.3s4.6,0.8,4.6,0.8l4.5-2.9l5.5,5.8l10.3,0.1c0,0,5.5-8.9,6.6-9.5s19.8-8.8,21.9-9.4c0.3-0.1,0.5-0.1,0.8-0.1
				c2.3,0,5.7,1.9,5.8,2.7c0.1,1,3.3,16.1,3.3,16.1l4,5l-1.5,1.9c0,0,12.4,1.2,17.9,1.2c1.2,0,2.1-0.1,2.4-0.2c2.1-0.8,18-14,18-14
				l1.3-15.8c0,0-0.6-1.4-1.6-2.3s-1.1-1.9-0.5-2.8S242.8,229,242.8,229 M242.8,228.3c-0.2,0-0.4,0.1-0.5,0.2c-0.4,0.4-4.3,4.1-5,5
				c-0.9,1.2-0.6,2.7,0.6,3.8c0.7,0.6,1.2,1.5,1.4,1.8l-1.2,15.2c-6.1,5.1-16.1,13.2-17.5,13.7c-0.1,0-0.5,0.1-2.2,0.1
				c-4.4,0-13.1-0.7-16.5-1.1l0.6-0.8c0.2-0.3,0.2-0.7,0-0.9l-3.9-4.9c-0.9-4.3-3.1-15.1-3.2-15.9c-0.2-1.5-4.2-3.4-6.5-3.4
				c-0.4,0-0.7,0-1.1,0.1c-2.2,0.7-20.9,8.8-22,9.4s-4.9,6.5-6.7,9.4l-9.5-0.1l-5.3-5.5c-0.1-0.2-0.3-0.2-0.5-0.2
				c-0.1,0-0.3,0-0.4,0.1l-4.2,2.7c-0.9-0.2-3.5-0.7-4.5-0.7c-1.2,0-6.4,2.9-8.7,4.3l-4.1,0.1c-1.7-2.1-7.8-9.6-8.7-10.2
				c-1.1-0.8-22-8.5-23.4-8.9c-0.3-0.1-0.6-0.1-1-0.1c-1.9,0-4.4,1.4-4.8,2.7c-0.1,0.3-0.2,0.8-0.3,1.5c-0.3,1.9-0.8,5.4-3.1,10.9
				c-2.8,6.6-5.4,9.6-5.4,9.7c-0.3,0.3-0.2,0.8,0.1,1l0.5,0.5c-6.9,0.6-16,1.3-17.2,1.4c-1.6-0.9-15.3-10.9-16.9-12.2
				c-0.8-0.6-2.8-4.6-3-10.4c-0.1-4.6,0.5-6.6,1-8.1c0.1-0.3,0.2-0.6,0.3-0.9c0.7-2.6-1.4-5-6.4-7.5c-0.1-0.1-0.2-0.1-0.3-0.1
				s-0.2,0-0.3,0.1c-0.2,0.1-0.4,0.3-0.4,0.6l-1.1,7L13,237.9c-0.3,0-0.6,0.2-0.7,0.6c0,0.1-3.5,12.8-10.1,22.1
				c-0.1,0.2-0.2,0.5-0.1,0.7c1,2.5,5.5,10.9,7.8,12.4c2.3,1.4,4.3,2.4,6.4,3.5c2.9,1.5,6.1,3.1,10.8,6.2c8.1,5.3,24,15,26.2,15.8
				c0.3,0.1,0.9,0.2,3.1,0.2c5.8,0,19.1-1,27.5-2.2c6.7-1,13.5-2.9,18-4.2c2.3-0.7,4-1.2,4.8-1.3c2.4-0.3,21-3.2,23.6-3.6
				c1.7,1,7.6,4.3,9.1,4.5h0.1c1.7,0,8-4.3,10.4-5.9c1.8,0.6,9.7,3.3,13.9,4.1c2.2,0.4,4.3,0.6,6.1,0.7c2.1,0.2,3.9,0.3,5.5,0.8
				c2.9,0.8,15.3,3.2,22.4,4.2c5.9,0.8,19.9,1.4,25.2,1.4c1.7,0,2.2-0.1,2.4-0.1c1.4-0.3,10.1-6,15.2-9.3
				c3.4-2.2,18.9-12.5,20.5-13.7c0.6-0.4,1.4-0.7,2.2-1.1c1.2-0.5,2.6-1.1,3.9-2.3c2-1.8,8.5-9.6,8.7-9.9c0.2-0.2,0.2-0.6,0.1-0.8
				l-10.2-19.2c0.3-0.7,0.6-2.3-0.7-3.9c-1-1.2-2.4-1.3-3.5-1.3c-0.5,0-0.9,0-1.4,0.1c-0.5,0-1,0.1-1.5,0.1h-12.3l-1.1-5.8
				c0-0.2-0.1-0.4-0.3-0.5l-2-1.4C243.1,228.3,243,228.3,242.8,228.3L242.8,228.3z"/>
		</g>
		<path class="st14" d="M163.1,260.2c1.1-0.6,24.3-13.5,26-14.5s2.5-1.9-0.6-1.5c-3.1,0.3-7.2,2.6-11,4.2c-3.8,1.6-9.4,4.3-10.7,5
			c-0.9,0.5-2.8,3.5-4.1,5.5C161.9,260.3,162.5,260.6,163.1,260.2z"/>
		<path class="st14" d="M38.1,236.2c-0.5-1.4-3.6-3.3-5-4.1l-0.9,6.1C35.9,238.6,38.6,237.7,38.1,236.2z"/>
		<path class="st14" d="M16.7,240.4c-1.5,0-2.5,1.1-0.1,2.2c11.5,5.1,17,9.1,23.7,13.6c-0.9-2-1.8-5.2-1.9-9
			c-0.1-3.7,0.3-5.7,0.7-7.1C34.8,240.1,18,240.4,16.7,240.4z"/>
		<path class="st14" d="M261.3,240c2.4-1.2,0.5-1.2-1.8-1.3c-1.9-0.1-14.8-0.1-19.5-0.1c0.1,0.1,0.1,0.2,0.1,0.2l-1.3,15.8
			c0,0-0.3,0.3-0.9,0.8c7-5.7,7.7-6.8,12.8-9.6S258.9,241.2,261.3,240z"/>
		<path class="st14" d="M88.2,244.8c1.3,1.3,14.4,8.5,22,11.9c4.7,2.1,8,2.8,9.9,3.1c-2.3-2.8-6.7-8.2-7.3-8.6
			c-0.8-0.6-17.6-6.9-22.1-8.4C88,242.6,87.3,243.8,88.2,244.8z"/>
		<path class="st14" d="M139.5,267.6c0.2,1.6,1.3,3.5,2,5.1s3.6,4.7-0.2,9.3c-1.2,0.8-3.1,2.2-4.4,2s-2.8-0.1-3.8,0.7
			s-5,1.2-6.5,1.8c-0.7,0.3-4.7,1.4-9,2.4c6.3-1,13-2,13-2s7.5,4.3,9,4.5s10.3-6,10.3-6s0.3,0.1,0.7,0.2c0.5-0.7,1-1.2,1.4-1.5
			c1.6-1.3,6.1-3.8,6.9-4.6s1.4-1.5,1.5-3.9s0.7-3.7-0.8-5.5s-12.2-11.3-12.2-11.3s2.3,3.4,10,12c1.4,1.6,0.8,3.6,0.6,4.6
			c-0.2,1-1.5,1.3-2.8,0.8s-1.8,0.2-1.8,0.2s-0.8,1.7-1.3,2.9s-1.4,3.1-2.3,3.2c-0.9,0.1-1.4-0.6-2.5,0.5c-1.2,1-4.4,4-5.4,4.5
			s-2.5,0.1-4-1.3c3.9-1.4,4.6-2,5.3-2.8c0.7-0.8,1.6-2.4,2.7-3.3c1-0.9,0.5-3.7-0.7-5.7s-1.3-3.1-2.4-5.1c-1.2-2-2-6.7-3.5-8.4
			s-5.8-1.2-10.2-1.1l-1.7,0.9c3.5-0.2,7.8-0.5,9.5,0.5C138.1,262.1,139.2,266,139.5,267.6z"/>
		<path class="st14" d="M245.7,236.6l-1.1-5.7l-0.2-0.1c-0.9,0.6-2.5,1.8-3.5,2.8C239.6,234.9,240.3,237,245.7,236.6z"/>
		<g>
			<path class="st2" d="M18.6,270.8c-0.1,0-0.1,0-0.2-0.1l-2-1.3c-1.3-0.9-1.8-1.7-1.9-3l-0.5-5.1v-4.5c0-0.1,0.1-0.2,0.1-0.3
				c0,0,0.1,0,0.2,0h0.1c0.8,0.4,1.9,0.8,3,0.8s1.9-0.4,2.5-1.3c0.4-0.6,0.5-1.3,0.4-1.9c-0.2-0.8-0.7-1.5-1.5-2
				c-0.4-0.2-0.8-0.5-1.3-0.7l-6.6,9.9c-0.7,1-1.5,2.2-0.8,3c0.1,0.1,0.1,0.2,0,0.3s-0.2,0.2-0.3,0.2H9.7L5.5,262
				c-0.1-0.1-0.2-0.3-0.1-0.4c0.1-0.1,0.2-0.2,0.3-0.2l0,0c0.1,0,0.2,0,0.3,0c0.9,0,1.6-1.1,2.1-1.9l0.2-0.3l5.5-8.3l0.2-0.3
				c0.7-0.9,1.5-2.1,0.8-3c-0.1-0.1-0.1-0.2,0-0.3c0.1-0.1,0.2-0.2,0.3-0.2h0.1l5.2,3.5c1.5,1,2.4,2.2,2.8,3.4
				c0.4,1.2,0.2,2.5-0.5,3.5c-0.9,1.3-2.4,2-4.2,2c-0.6,0-1.2-0.1-1.8-0.3l0.5,5.6c0.1,1.6,0.7,3.6,1.5,5.3c0.1,0.1,0,0.3-0.1,0.4
				C18.7,270.8,18.6,270.8,18.6,270.8L18.6,270.8z"/>
			<path class="st13" d="M15.2,247.5l5.2,3.5c2.9,2,3.5,4.6,2.2,6.6c-0.9,1.3-2.4,1.9-3.9,1.9c-0.7,0-1.4-0.1-2.1-0.4l0.5,6.1
				c0.2,1.8,0.8,3.8,1.5,5.4l-2-1.3c-1.2-0.8-1.7-1.5-1.8-2.8l-0.5-5.1V257c1,0.5,2.1,0.8,3.1,0.8c1.1,0,2.1-0.4,2.8-1.4
				c1.1-1.6,0.3-3.4-1.2-4.3c-0.5-0.3-1-0.6-1.6-0.8l-6.5,9.8c-0.7,1-1.9,2.5-1,3.7v0.1l-4.2-2.8V262c0.1,0,0.2,0,0.4,0
				c1.2,0,2-1.5,2.6-2.4l5.5-8.3C14.8,250.2,16,248.7,15.2,247.5L15.2,247.5 M15.2,246.9c-0.2,0-0.4,0.1-0.5,0.3v0.1
				c-0.1,0.2-0.1,0.5,0,0.7c0.5,0.6-0.1,1.6-0.8,2.6c-0.1,0.1-0.2,0.2-0.2,0.3l-5.5,8.3c-0.1,0.1-0.1,0.2-0.2,0.3
				c-0.5,0.8-1.2,1.8-1.9,1.8c-0.1,0-0.1,0-0.2,0H5.8c-0.2,0-0.4,0.1-0.5,0.3v0.1c-0.2,0.3-0.1,0.6,0.2,0.8l4.2,2.8
				c0.1,0.1,0.2,0.1,0.3,0.1c0.2,0,0.4-0.1,0.5-0.3V265c0.1-0.2,0.1-0.5,0-0.7c-0.5-0.6,0.1-1.6,0.8-2.7l0.2-0.3l2.4-3.5v3.6
				c0,0,0,0,0,0.1l0.5,5.1c0.1,1.4,0.7,2.3,2.1,3.2l2,1.3c0.1,0.1,0.2,0.1,0.3,0.1s0.3,0,0.4-0.1c0.2-0.2,0.3-0.5,0.2-0.7
				c-0.8-1.7-1.3-3.7-1.4-5.2l-0.4-5.2c0.5,0.1,1,0.2,1.4,0.2c1.9,0,3.5-0.8,4.4-2.2c0.8-1.1,1-2.5,0.6-3.8s-1.4-2.6-2.9-3.6
				l-5.2-3.5C15.5,246.9,15.4,246.9,15.2,246.9L15.2,246.9z M14.7,256.4l3-4.5c0.4,0.2,0.8,0.4,1.1,0.6c0.7,0.4,1.2,1.1,1.3,1.8
				c0.1,0.6,0,1.2-0.3,1.7c-0.5,0.8-1.3,1.1-2.3,1.1C16.4,257.1,15.4,256.7,14.7,256.4L14.7,256.4z"/>
		</g>
		<g>
			<path class="st2" d="M27.9,276.8c-0.1,0-0.1,0-0.2,0l-9.3-5.9c-0.1,0-0.1-0.1-0.1-0.2c0-0.1,0-0.2,0-0.2c0.1-0.1,0.2-0.2,0.3-0.2
				l0,0c0.1,0,0.2,0,0.3,0c0.9,0,1.6-1.2,2.2-2l0.2-0.3l5.5-8.7c0.6-1,1.4-2.2,0.8-3.1c-0.1-0.1-0.1-0.2,0-0.3s0.2-0.2,0.3-0.2H28
				l7.2,4.6c1.2,0.8,1.7,1,1.8,1s0.1,0,0.1,0c0.1,0.1,0.2,0.2,0.2,0.3l-0.5,3c0,0.1-0.1,0.2-0.2,0.2h-0.1c-0.1,0-0.1,0-0.2,0
				c-0.1,0-0.2-0.2-0.2-0.3c-0.1-0.9-2.4-2.3-3.5-3c-0.2-0.1-0.4-0.2-0.5-0.3c-0.7-0.4-1.4-0.9-2.1-1.2l-2.3,3.7l2.4,1.5
				c0.3,0.2,0.7,0.4,0.9,0.4h0.1c0.1,0.1,0.2,0.3,0.2,0.5l-1.5,2.4c0,0.1-0.1,0.1-0.2,0.1c0,0,0,0-0.1,0s-0.1,0-0.2,0
				c-0.1-0.1-0.2-0.2-0.2-0.3c0-0.7-0.7-1.2-1.4-1.6l-1.5-0.9l-3,4.8l2.4,1.9c1.1,0.8,2.5,1.3,3.8,1.3l0,0c0.3,0,0.6,0,0.9-0.1l0,0
				c0.1,0,0.1,0,0.2,0c0.1,0.1,0.2,0.2,0.2,0.3s0,0.2-0.1,0.3l-2.8,2.3C28,276.8,27.9,276.8,27.9,276.8L27.9,276.8z"/>
			<path class="st13" d="M27.9,256l7.1,4.5c0.4,0.2,1.7,1.1,2,1.1h0.1l-0.5,3h-0.1c-0.2-1.2-3.2-2.8-4.2-3.5c-0.8-0.5-1.6-1-2.4-1.3
				l-2.6,4.1l2.6,1.7c0.4,0.2,0.7,0.5,1.1,0.5h0.1l-1.5,2.4h-0.1c0.1-0.9-0.9-1.4-1.6-1.9l-1.6-1l-3.3,5.3l2.7,2.1
				c1.1,0.9,2.6,1.4,4,1.4c0.3,0,0.6,0,0.9-0.1h0.1l-2.8,2.3l-9.3-5.9v-0.1c0.1,0,0.2,0,0.3,0c1.2,0,2-1.5,2.6-2.4l5.3-8.4
				C27.5,258.8,28.7,257.2,27.9,256L27.9,256 M27.9,255.4c-0.2,0-0.4,0.1-0.5,0.3v0.1c-0.1,0.2-0.1,0.5,0,0.7
				c0.5,0.6-0.1,1.6-0.8,2.7l-0.2,0.3l-5.3,8.4l-0.2,0.3c-0.5,0.8-1.2,1.9-1.9,1.9c-0.1,0-0.1,0-0.2,0h-0.1c-0.2,0-0.4,0.1-0.5,0.3
				v0.1c-0.1,0.1-0.1,0.3-0.1,0.5s0.1,0.3,0.3,0.4l9.3,5.9c0.1,0.1,0.2,0.1,0.3,0.1s0.3,0,0.4-0.1l2.8-2.3c0.2-0.1,0.2-0.3,0.2-0.5
				s-0.1-0.4-0.3-0.5H31c-0.1-0.1-0.2-0.1-0.3-0.1h-0.1c-0.3,0-0.6,0.1-0.8,0.1c-1.3,0-2.6-0.4-3.6-1.2l-2.2-1.7l2.7-4.3l1.1,0.7
				h0.1c0.6,0.4,1.3,0.8,1.2,1.3c0,0.2,0.1,0.4,0.3,0.5h0.1c0.1,0.1,0.2,0.1,0.3,0.1h0.1c0.2,0,0.3-0.1,0.4-0.3l1.5-2.4
				c0.2-0.3,0.1-0.6-0.2-0.8h-0.1c-0.1-0.1-0.2-0.1-0.3-0.1c-0.2,0-0.5-0.2-0.8-0.4l-2.1-1.4l2-3.2c0.6,0.3,1.2,0.7,1.8,1
				c0.1,0.1,0.3,0.2,0.5,0.3c0.9,0.5,3.2,2,3.4,2.7c0,0.2,0.1,0.3,0.3,0.4h0.1c0.1,0.1,0.2,0.1,0.3,0.1s0.2,0,0.2-0.1
				c0.2-0.1,0.3-0.3,0.3-0.5l0.5-3c0-0.2-0.1-0.5-0.3-0.6h-0.1c-0.1-0.1-0.2-0.1-0.3-0.1s-0.5-0.2-1.6-0.9l-0.1-0.1l-7.1-4.5
				C28.1,255.5,28,255.4,27.9,255.4L27.9,255.4z"/>
		</g>
		<g>
			<path class="st2" d="M34,280.9C34,280.9,33.9,280.9,34,280.9l-4.6-2.7c-0.1,0-0.1-0.1-0.1-0.2c0-0.1,0-0.2,0-0.2
				c0.1-0.1,0.2-0.2,0.3-0.2l0,0c0.1,0,0.2,0,0.2,0c0.9,0,1.6-1.2,2.1-2.1l5.4-9.1c0.6-0.9,1.4-2.2,0.7-3.1c-0.1-0.1-0.1-0.2,0-0.3
				c0-0.1,0.1-0.2,0.2-0.2c0,0,0.1,0,0.2,0h0.1l5.5,3.3c1.5,0.9,2.6,2.1,3.2,3.4c0.6,1.4,0.5,2.8-0.3,4.1c-0.9,1.5-2.5,2.4-4.4,2.4
				c-1.2,0-2.4-0.4-3.5-1c-0.7-0.4-1.2-0.9-1.6-1.4c-0.1-0.1-0.1-0.3,0-0.4c0.1-0.1,0.1-0.1,0.2-0.1h0.1c0.8,0.4,1.8,0.7,2.6,0.7
				c1,0,2.3-0.3,3.1-1.6c1.3-2.2-0.3-3.6-1.4-4.3c-0.5-0.3-0.9-0.5-1.4-0.7l-6,10c-0.8,1.3-1.2,2-0.5,3.2c0.1,0.1,0.1,0.2,0,0.3
				C34.1,280.8,34,280.9,34,280.9C34.1,280.9,34,280.9,34,280.9L34,280.9z"/>
			<path class="st13" d="M38.4,263.1l5.5,3.3c2.9,1.8,4.3,4.5,2.8,7c-0.9,1.5-2.5,2.2-4.1,2.2c-1.1,0-2.3-0.3-3.4-1
				c-0.6-0.3-1.1-0.7-1.5-1.3c0.8,0.4,1.8,0.7,2.8,0.7c1.3,0,2.6-0.5,3.3-1.8c1.2-2,0.3-3.6-1.6-4.7c-0.5-0.3-1.1-0.6-1.7-0.8
				l-6.1,10.2c-0.8,1.3-1.3,2.2-0.5,3.5v0.1l-4.5-2.7v-0.1c0.1,0,0.2,0,0.3,0c1.2,0,2-1.6,2.6-2.5l5.1-8.5
				C38.1,265.9,39.3,264.3,38.4,263.1L38.4,263.1 M38.4,262.5c-0.1,0-0.1,0-0.2,0c-0.2,0-0.3,0.1-0.4,0.3v0.1
				c-0.1,0.2-0.1,0.5,0,0.7c0.5,0.7-0.2,1.9-0.7,2.7l-0.2,0.3l-5.1,8.5l-0.2,0.3c-0.5,0.8-1.1,1.9-1.9,1.9c-0.1,0-0.1,0-0.2,0h-0.1
				c-0.2,0-0.4,0.1-0.5,0.3v0.1c-0.1,0.1-0.1,0.3-0.1,0.5s0.1,0.3,0.3,0.4l4.5,2.7c0.1,0.1,0.2,0.1,0.3,0.1H34
				c0.2,0,0.3-0.1,0.4-0.3V281c0.1-0.2,0.1-0.4,0-0.6c-0.6-1-0.3-1.6,0.5-2.9v-0.1l2.2-3.6l0,0c0.4,0.6,0.9,1,1.7,1.5
				c1.1,0.7,2.4,1,3.7,1c2,0,3.7-0.9,4.7-2.5c0.8-1.4,0.9-2.9,0.3-4.4c-0.6-1.3-1.7-2.6-3.3-3.5l-5.5-3.3
				C38.7,262.5,38.6,262.5,38.4,262.5L38.4,262.5z M37.8,272.8l3.1-5.2c0.4,0.2,0.7,0.4,1.1,0.6c1.2,0.7,2.5,2,1.3,3.9
				c-0.7,1.2-1.9,1.5-2.8,1.5c-0.8,0-1.7-0.2-2.5-0.6C38,272.8,37.9,272.8,37.8,272.8L37.8,272.8z"/>
		</g>
		<g>
			<path class="st2" d="M49.6,290c-0.1,0-0.2-0.1-0.2-0.1l-0.4-0.5c-1-1.4-1.4-2-1.4-4.1l0.3-11.5c0-0.2,0-0.4,0-0.6
				c0-1.2,0.1-2.5-0.5-3.5c0-0.1-0.1-0.2,0-0.3c0-0.1,0.1-0.2,0.2-0.2c0.1,0,0.1-0.1,0.2-0.1c0,0,0,0,0.1,0l3.6,1.4
				c0.1,0,0.1,0.1,0.2,0.2c0,0.1,0,0.2,0,0.2l-0.1,0.3c-0.2,0.4-0.2,1.6-0.2,2.2L51.1,285l6.4-7c1.5-1.6,2.5-2.9,1.6-3.8
				c-0.1-0.1-0.1-0.2-0.1-0.3s0.1-0.2,0.2-0.2c0.1,0,0.1-0.1,0.2-0.1c0,0,0,0,0.1,0l3.6,1.5c0.1,0,0.2,0.1,0.2,0.2
				c0,0.1,0,0.2-0.1,0.3L50,289.8C49.8,290,49.7,290,49.6,290L49.6,290z"/>
			<path class="st13" d="M47.8,269.5l3.6,1.4l-0.1,0.3c-0.2,0.5-0.2,1.9-0.2,2.5l-0.4,12.2l6.8-7.5c1.4-1.5,3-3.1,1.7-4.4v-0.1
				l3.6,1.5l-13.2,14.2c-1.3-1.8-1.7-2.2-1.7-4.4l0.3-11.5C48.3,272.4,48.5,270.8,47.8,269.5L47.8,269.5 M47.8,268.9
				c-0.1,0-0.2,0-0.2,0c-0.1,0.1-0.3,0.2-0.3,0.3v0.1c-0.1,0.2,0,0.4,0,0.5c0.5,0.9,0.5,2.1,0.5,3.3c0,0.2,0,0.4,0,0.6l-0.3,11.5
				c-0.1,2.2,0.4,2.8,1.4,4.3l0.4,0.5c0.1,0.1,0.3,0.2,0.5,0.3l0,0c0.2,0,0.3-0.1,0.4-0.2l13.2-14.2c0.1-0.1,0.2-0.3,0.1-0.5
				c0-0.2-0.2-0.4-0.4-0.4l-3.6-1.5c-0.1,0-0.1,0-0.2,0c-0.1,0-0.2,0-0.2,0c-0.1,0.1-0.3,0.2-0.3,0.3v0.1c-0.1,0.2,0,0.5,0.1,0.7
				c0.7,0.7-0.2,1.8-1.6,3.4l-0.1,0.2l-5.7,6.3l0.3-10.6v-0.2c0-0.5,0-1.7,0.2-2.1l0.1-0.3c0.1-0.2,0.1-0.3,0-0.5s-0.2-0.3-0.3-0.3
				l-3.6-1.4C47.9,268.9,47.9,268.9,47.8,268.9L47.8,268.9z"/>
		</g>
		<g>
			<path class="st2" d="M63.7,292.5c-0.2,0-0.3-0.1-0.3-0.3v-0.1c0-0.1,0.1-0.2,0.2-0.3c1-0.4,0.9-1.9,0.9-3l-0.3-10.3v-0.4
				c0-1.1,0-2.6-1.1-2.9c-0.1,0-0.2-0.1-0.2-0.3c0-0.1,0-0.2,0.1-0.3s0.1-0.1,0.2-0.1l6.2-0.2c0.1,0,0.3,0,0.4,0
				c3.4,0,5.5,1.5,5.5,3.9c0,1.4-0.6,2.5-2,3.4c2.4,0.7,3.8,2.4,3.9,4.6c0.1,2-1.2,4-3.2,5c-1.7,0.9-3.7,1-5.6,1
				C68.5,292.4,63.7,292.5,63.7,292.5L63.7,292.5z M69.8,289.9c0.1,0,0.2,0,0.4,0l0,0c1.2,0,2.2-0.4,2.8-1c0.5-0.5,0.8-1.2,0.7-2.1
				c-0.1-2.3-2.2-3.1-4-3.1c-0.2,0-0.4,0-0.5,0l-1.6,0.1l0.2,5.9L69.8,289.9z M67.5,281.5h0.6c1,0,1.9-0.3,2.6-0.6
				c0.8-0.5,1.2-1.1,1.2-1.9c0-1.5-1.3-2.2-2.6-2.2c-0.1,0-0.3,0-0.4,0l-1.5,0.2L67.5,281.5z"/>
			<path class="st13" d="M69.8,274.7c3.2,0,5.2,1.4,5.2,3.6c0.1,1.8-1,2.8-2.5,3.5c2.4,0.4,4.4,1.9,4.4,4.5c0.1,2-1.3,3.8-3,4.7
				c-1.8,1-3.9,0.9-5.9,1l-4.3,0.1V292c1.3-0.5,1.1-2.5,1-3.7l-0.3-9.9c0-1.2,0.1-3.1-1.3-3.6v-0.1l6.2-0.2
				C69.5,274.7,69.7,274.7,69.8,274.7 M67.2,281.8h0.9c1.7-0.1,4.1-0.7,4.1-2.9c-0.1-1.6-1.5-2.5-2.9-2.5c-0.2,0-0.3,0-0.5,0
				l-1.8,0.2L67.2,281.8 M70.2,290.2c2,0,3.9-1.1,3.9-3.4c-0.1-2.3-2.2-3.4-4.3-3.4c-0.2,0-0.4,0-0.6,0l-1.8,0.2l0.2,6.5l2.3,0.1
				C69.9,290.2,70,290.2,70.2,290.2 M69.8,274.1c-0.1,0-0.3,0-0.4,0l-6.2,0.2c-0.2,0-0.3,0.1-0.4,0.2c-0.1,0.1-0.2,0.3-0.2,0.4v0.1
				c0,0.2,0.2,0.5,0.4,0.5c0.8,0.3,0.8,1.3,0.9,2.6c0,0.1,0,0.3,0,0.4l0.3,9.9v0.4c0.1,1.3,0,2.4-0.7,2.7c-0.2,0.1-0.4,0.3-0.4,0.6
				v0.1c0,0.3,0.3,0.6,0.6,0.6l0,0l4.3-0.1h0.4c1.9-0.1,3.9-0.1,5.7-1.1c2.1-1.1,3.4-3.1,3.3-5.3c-0.1-2.2-1.4-3.9-3.5-4.7
				c1.1-0.9,1.7-2,1.6-3.3C75.5,275.7,73.3,274.1,69.8,274.1L69.8,274.1z M67.7,277.1l1.2-0.2c0.1,0,0.2,0,0.4,0
				c1.1,0,2.3,0.6,2.3,2c0,0.7-0.3,1.3-1.1,1.7c-0.6,0.3-1.5,0.5-2.4,0.6h-0.3L67.7,277.1L67.7,277.1z M67.9,284.1l1.3-0.1
				c0.2,0,0.3,0,0.5,0c1.7,0,3.7,0.7,3.7,2.8c0,0.8-0.2,1.4-0.7,1.9c-0.6,0.6-1.5,0.9-2.6,0.9c-0.1,0-0.2,0-0.3,0l-1.8-0.1
				L67.9,284.1L67.9,284.1z"/>
		</g>
		<g>
			<path class="st2" d="M77.8,291.6c-0.2,0-0.3-0.1-0.3-0.3v-0.1c0-0.1,0.1-0.2,0.2-0.3c1-0.5,0.8-1.9,0.7-3.1l-1-10.2v-0.4
				c-0.1-1.1-0.2-2.6-1.2-2.8c-0.1,0-0.2-0.1-0.2-0.3s0.1-0.4,0.3-0.4l6.2-0.6c0.4,0,0.7-0.1,1.1-0.1c3,0,4.9,1.3,5.1,3.6
				c0.1,1.4-0.4,2.6-1.8,3.5c2.4,0.5,4,2.1,4.2,4.4c0.2,2-0.9,4-2.8,5.2c-1.7,1-3.6,1.2-5.5,1.4C82.5,291.1,77.8,291.6,77.8,291.6
				L77.8,291.6z M81.7,288.5h2c1.3,0,2.4-0.4,3-1.2c0.5-0.6,0.8-1.3,0.7-2.2c-0.2-2.1-2.1-2.9-3.8-2.9c-0.3,0-0.6,0-0.9,0.1
				l-1.5,0.2L81.7,288.5z M80.9,280.3l0.6-0.1c0.6-0.1,3.8-0.5,3.6-2.8c-0.1-1.4-1.4-2.1-2.5-2.1c-0.2,0-0.4,0-0.6,0.1l-1.5,0.3
				L80.9,280.3z"/>
			<path class="st13" d="M83.4,273.4c2.8,0,4.6,1.2,4.8,3.3c0.2,1.8-0.9,2.9-2.3,3.7c2.4,0.3,4.5,1.7,4.7,4.2c0.2,2-1,3.9-2.7,4.9
				c-1.7,1.1-3.8,1.2-5.8,1.4l-4.3,0.4v-0.1c1.3-0.6,0.9-2.5,0.8-3.7l-1-9.9c-0.1-1.2-0.1-3.1-1.5-3.5V274l6.2-0.6
				C82.7,273.4,83,273.4,83.4,273.4 M80.6,280.6l0.9-0.1c1.7-0.2,4.1-1,3.9-3.1c-0.2-1.5-1.5-2.3-2.8-2.3c-0.2,0-0.5,0-0.7,0.1
				l-1.7,0.4L80.6,280.6 M81.4,288.8h2.3c2.2,0,4.2-1.2,4-3.7c-0.2-2.2-2.1-3.1-4.1-3.1c-0.3,0-0.7,0-1,0.1l-1.8,0.3L81.4,288.8
				 M83.4,272.8L83.4,272.8c-0.4,0-0.7,0-1.1,0.1l-6.2,0.6c-0.3,0-0.6,0.3-0.5,0.6v0.1c0,0.3,0.2,0.5,0.4,0.5c0.8,0.2,0.9,1.3,1,2.6
				c0,0.1,0,0.3,0,0.4l1,9.9v0.4c0.1,1.3,0.2,2.4-0.5,2.8c-0.2,0.1-0.4,0.3-0.3,0.6v0.1c0,0.3,0.3,0.5,0.6,0.5c0,0,0,0,0.1,0
				l4.3-0.4h0.4c1.9-0.2,3.9-0.4,5.6-1.4c2-1.2,3.2-3.4,3-5.5c-0.2-2.2-1.6-3.8-3.8-4.5c1.1-0.9,1.5-2.1,1.4-3.4
				C88.5,274.2,86.5,272.8,83.4,272.8L83.4,272.8z M80.7,276l1.2-0.2c0.2,0,0.4-0.1,0.6-0.1c1,0,2.1,0.6,2.2,1.8
				c0.2,2-2.7,2.4-3.3,2.5h-0.3L80.7,276L80.7,276z M81.4,282.9l1.3-0.2c0.3,0,0.6-0.1,0.9-0.1c1.6,0,3.3,0.7,3.5,2.6
				c0.1,0.8-0.1,1.5-0.6,2c-0.6,0.7-1.6,1.1-2.8,1.1h-1.8L81.4,282.9L81.4,282.9z"/>
		</g>
		<g>
			<path class="st2" d="M91.9,289c-0.1,0-0.3-0.1-0.3-0.2v-0.1c0-0.1,0-0.3,0.2-0.3c0.9-0.5,0.7-2,0.5-3.1l-1.7-10.5
				c-0.2-1.2-0.4-2.6-1.5-2.8c-0.1,0-0.2-0.1-0.2-0.2c0-0.2,0.1-0.4,0.2-0.4l5-0.8l0,0c0.1,0,0.1,0,0.2,0.1c0.1,0,0.1,0.1,0.1,0.2
				c0,0.1,0,0.3-0.1,0.4c-0.9,0.5-0.7,1.9-0.5,3.1l0.1,0.4l1.8,11.1l3.3-0.3c1.6-0.2,3-0.9,4.1-2.2c0-0.1,0.1-0.1,0.2-0.1
				c0,0,0,0,0.1,0s0.2,0,0.2,0.1c0.1,0.1,0.1,0.2,0.1,0.3l-0.8,3.7c0,0.1-0.1,0.2-0.2,0.2L91.9,289L91.9,289L91.9,289z"/>
			<path class="st13" d="M94.1,270.8L94.1,270.8c-1.2,0.8-0.7,2.7-0.6,3.8l1.8,11.3l3.6-0.3c1.8-0.2,3.2-1,4.3-2.3h0.1l-0.8,3.7
				l-10.7,1.7v-0.1c1.3-0.7,0.8-2.6,0.6-3.7l-1.6-9.8c-0.2-1.2-0.3-3.1-1.7-3.4v-0.1L94.1,270.8 M94.1,270.2L94.1,270.2L89,271
				c-0.3,0.1-0.5,0.4-0.5,0.7v0.1c0,0.3,0.2,0.5,0.5,0.5c0.8,0.2,1,1.2,1.2,2.5l0.1,0.4l1.6,9.8l0.1,0.3c0.2,1.2,0.3,2.4-0.4,2.8
				c-0.2,0.1-0.3,0.4-0.3,0.6v0.1c0.1,0.3,0.3,0.5,0.6,0.5H92l10.7-1.7c0.2,0,0.4-0.2,0.5-0.5l0.8-3.7c0-0.2,0-0.4-0.2-0.5
				c-0.1-0.1-0.3-0.2-0.4-0.2h-0.1h-0.1c-0.1,0-0.3,0.1-0.4,0.2c-1.1,1.3-2.4,2-4,2.1l-3,0.3l-1.7-10.8c0-0.1,0-0.3-0.1-0.4
				c-0.2-1.3-0.4-2.4,0.3-2.8c0.2-0.1,0.3-0.4,0.3-0.6v-0.1c0-0.2-0.1-0.3-0.2-0.4C94.4,270.2,94.3,270.2,94.1,270.2L94.1,270.2z"/>
		</g>
		<g>
			<path class="st2" d="M104.7,286.5c-0.1,0-0.3-0.1-0.3-0.2v-0.1c0-0.1,0-0.3,0.2-0.3c0.9-0.5,0.7-2,0.5-3.1l-1.6-10.1l-0.1-0.4
				c-0.2-1.1-0.4-2.5-1.4-2.8c-0.1,0-0.2-0.1-0.2-0.2c0-0.2,0.1-0.4,0.2-0.4l4.9-0.8l0,0c0.1,0,0.1,0,0.2,0.1c0.1,0,0.1,0.1,0.1,0.2
				c0,0.1,0,0.3-0.1,0.4c-0.9,0.5-0.7,2-0.5,3.1l1.6,10.1l0.1,0.3c0.2,1.1,0.4,2.6,1.4,2.8c0.1,0,0.2,0.1,0.2,0.2c0,0.1,0,0.2,0,0.3
				s-0.1,0.1-0.2,0.2L104.7,286.5L104.7,286.5L104.7,286.5z"/>
			<path class="st13" d="M106.9,268.3L106.9,268.3c-1.2,0.8-0.7,2.7-0.6,3.8l1.6,9.8c0.2,1.2,0.3,3.1,1.7,3.4v0.1l-4.9,0.8v-0.1
				c1.2-0.7,0.8-2.6,0.6-3.7l-1.6-9.8c-0.2-1.2-0.3-3.1-1.7-3.4v-0.1L106.9,268.3 M106.9,267.7C106.8,267.7,106.8,267.7,106.9,267.7
				l-5,0.8c-0.3,0.1-0.5,0.4-0.5,0.7v0.1c0,0.3,0.2,0.4,0.5,0.5c0.8,0.2,1,1.2,1.2,2.5c0,0.1,0,0.3,0.1,0.4l1.6,9.8l0.1,0.4
				c0.2,1.2,0.4,2.4-0.3,2.8c-0.2,0.1-0.3,0.4-0.3,0.6v0.1c0.1,0.3,0.3,0.5,0.6,0.5h0.1l4.9-0.8c0.2,0,0.3-0.1,0.4-0.2
				c0.1-0.1,0.1-0.3,0.1-0.5v-0.1c0-0.2-0.2-0.4-0.5-0.5c-0.8-0.2-1-1.3-1.2-2.5l-0.1-0.3l-1.6-9.8l-0.1-0.3
				c-0.2-1.3-0.4-2.4,0.3-2.8c0.2-0.1,0.3-0.4,0.3-0.6v-0.1c0-0.2-0.1-0.3-0.2-0.4C107.1,267.8,107,267.7,106.9,267.7L106.9,267.7z"
				/>
		</g>
		<g>
			<path class="st2" d="M118,284c-5.1,0-8.6-2.9-9.3-7.8c-0.4-2.7,0.1-5.2,1.6-7.1c1.4-1.9,3.7-3.2,6.4-3.6c0.8-0.1,1.7-0.2,2.7-0.2
				c0.7,0,1.4,0,2.2,0.1c0.1,0,0.3,0.1,0.3,0.3l0.5,3c0,0.1,0,0.2-0.1,0.3c-0.1,0-0.1,0.1-0.2,0.1H122c-1.2-0.5-2.5-0.8-3.6-0.8
				c-0.4,0-0.8,0-1.2,0.1c-1.7,0.3-3,1.1-3.9,2.4c-0.9,1.3-1.2,2.9-0.9,4.7c0.6,3.5,3.2,6,6.4,6c0.3,0,0.7,0,1-0.1
				c2.1-0.3,4-1.5,5.1-2.5l0.1-0.1c0,0,0,0,0.1,0s0.2,0,0.2,0.1c0.1,0.1,0.1,0.2,0.1,0.3l-0.8,3.2c0,0.1-0.1,0.1-0.1,0.2
				c-1.1,0.7-2.4,1.2-3.9,1.5C119.5,283.9,118.7,284,118,284L118,284z"/>
			<path class="st13" d="M119.3,265.5c0.7,0,1.4,0,2.1,0.1l0.5,3c-1.2-0.5-2.5-0.8-3.8-0.8c-0.4,0-0.9,0-1.3,0.1
				c-3.6,0.6-5.7,3.6-5.1,7.4c0.6,3.5,3.2,6.3,6.7,6.3c0.4,0,0.7,0,1.1-0.1c1.9-0.3,3.8-1.3,5.3-2.5h0.1l-0.8,3.2
				c-1.1,0.8-2.4,1.2-3.8,1.4c-0.8,0.1-1.6,0.2-2.3,0.2c-4.9,0-8.3-2.8-9-7.6c-0.9-5.4,2.4-9.6,7.7-10.4
				C117.5,265.5,118.4,265.5,119.3,265.5 M119.3,264.9c-1,0-1.9,0.1-2.8,0.2c-2.8,0.4-5.1,1.8-6.6,3.7c-1.5,2-2.1,4.6-1.6,7.4
				c0.8,5.1,4.4,8.1,9.6,8.1c0.8,0,1.6-0.1,2.4-0.2c1.6-0.3,2.9-0.8,4-1.5c0.1-0.1,0.2-0.2,0.2-0.3l0.8-3.2c0.1-0.2,0-0.4-0.1-0.6
				c-0.1-0.1-0.3-0.2-0.4-0.2h-0.1h-0.1c-0.1,0-0.2,0.1-0.3,0.1c-1.1,0.9-2.9,2.1-5,2.4c-0.3,0.1-0.7,0.1-1,0.1
				c-3,0-5.5-2.4-6.1-5.7c-0.3-1.7,0-3.2,0.9-4.4c0.8-1.2,2.1-2,3.7-2.2c0.4-0.1,0.8-0.1,1.2-0.1c1.2,0,2.4,0.3,3.5,0.8
				c0.1,0,0.2,0,0.2,0c0.1,0,0.3,0,0.4-0.1c0.2-0.1,0.3-0.4,0.2-0.6l-0.5-3c0-0.3-0.3-0.5-0.5-0.5
				C120.7,264.9,120,264.9,119.3,264.9L119.3,264.9z"/>
		</g>
		<g>
			<path class="st2" d="M125.5,283.3c-0.1,0-0.3-0.1-0.3-0.2V283c0-0.1,0-0.2,0.1-0.3c1.2-0.8,1.4-2.1,1.7-3.5l0.1-0.4l2.6-11.7
				c0.1-0.6,0.3-1.2,0-1.6c-0.1-0.2-0.3-0.3-0.6-0.3c-0.1,0-0.2-0.1-0.3-0.3c0-0.2,0.1-0.4,0.2-0.4l4.1-0.7l0,0
				c0.1,0,0.2,0.1,0.3,0.1l7.8,12.8c0.7,1.2,1.4,2.4,2.8,2.8c0.1,0,0.2,0.1,0.2,0.2c0,0.2-0.1,0.4-0.2,0.4l-5.3,0.9l0,0
				c-0.1,0-0.1,0-0.2-0.1c-0.1,0-0.1-0.1-0.1-0.2c0-0.1,0-0.3,0.1-0.4c0.9-0.6,0.9-0.6,0-2l-2.1-3.6l-6.1,1l-0.7,3.7
				c-0.1,0.7-0.2,1.3-0.1,1.6c0.1,0.2,0.2,0.5,0.9,0.6c0.1,0,0.2,0.1,0.2,0.2c0,0.1,0,0.2,0,0.3s-0.1,0.1-0.2,0.2L125.5,283.3
				C125.6,283.3,125.6,283.3,125.5,283.3L125.5,283.3z M130.9,273.3l4.3-0.7l-3-5.1L130.9,273.3z"/>
			<path class="st13" d="M133.4,264.2l7.5,12.5c0.8,1.4,1.5,2.8,3.1,3.3v0.1l-5.3,0.9v-0.1c1.2-0.8,0.9-1-0.1-2.7l-2-3.4l-6.5,1.1
				l-0.8,3.9c-0.3,1.5-0.4,2.3,0.9,2.6v0.1l-4.8,0.8v-0.1c1.4-1,1.6-2.5,1.9-4.1l2.6-11.5c0.2-1,0.5-2.2-0.8-2.4v-0.1L133.4,264.2
				 M130.5,273.7l5.1-0.8l-3.6-6.1L130.5,273.7 M133.4,263.6C133.3,263.6,133.3,263.6,133.4,263.6l-4.2,0.7
				c-0.3,0.1-0.5,0.4-0.5,0.7v0.1c0,0.3,0.2,0.5,0.5,0.5c0.1,0,0.3,0.1,0.4,0.2c0.2,0.2,0,0.9-0.1,1.3v0.1l-2.6,11.5l-0.1,0.4
				c-0.3,1.4-0.5,2.6-1.6,3.3c-0.2,0.1-0.3,0.4-0.2,0.6v0.1c0.1,0.3,0.3,0.5,0.6,0.5h0.1l4.8-0.8c0.2,0,0.3-0.1,0.4-0.2
				c0.1-0.1,0.1-0.3,0.1-0.5V282c0-0.2-0.2-0.4-0.5-0.5c-0.6-0.1-0.6-0.3-0.6-0.4c-0.1-0.3,0-0.9,0.1-1.5l0.7-3.5l5.7-0.9l1.8,3.1
				l0.2,0.3c0.3,0.5,0.6,1.1,0.6,1.2c0,0-0.1,0.1-0.5,0.4c-0.2,0.1-0.3,0.4-0.3,0.6v0.1c0,0.2,0.1,0.3,0.2,0.4
				c0.1,0.1,0.2,0.1,0.4,0.1h0.1l5.3-0.9c0.3-0.1,0.5-0.4,0.5-0.7v-0.1c0-0.2-0.2-0.4-0.4-0.5c-1.3-0.4-1.9-1.5-2.6-2.7l-0.2-0.4
				l-7.5-12.5C133.8,263.7,133.6,263.6,133.4,263.6L133.4,263.6z M131.3,272.9l1-4.6l2.4,4.1L131.3,272.9L131.3,272.9z"/>
		</g>
		<g>
			<path class="st2" d="M161.4,283.6c-0.2,0-0.3-0.2-0.3-0.3s0.1-0.3,0.3-0.3c1-0.2,1.3-1.7,1.4-2.8l1.6-10.1l0.1-0.4
				c0.2-1.1,0.4-2.5-0.5-3.1c-0.1-0.1-0.2-0.2-0.1-0.3c0-0.2,0.2-0.3,0.3-0.3l5,0.8c0.2,0,0.3,0.2,0.3,0.3s-0.1,0.3-0.2,0.3
				c-1,0.2-1.3,1.7-1.4,2.8l-1.7,10.5c-0.2,1.1-0.4,2.6,0.5,3.1c0.1,0.1,0.2,0.2,0.1,0.3c0,0.2-0.2,0.3-0.3,0.3L161.4,283.6z"/>
			<path class="st13" d="M164.2,266.2l4.9,0.8v0.1c-1.4,0.3-1.5,2.2-1.7,3.4l-1.6,9.8c-0.2,1.2-0.6,3,0.6,3.7v0.1l-4.9-0.8v-0.1
				c1.4-0.3,1.5-2.2,1.7-3.4l1.6-9.8C164.9,268.9,165.4,267,164.2,266.2L164.2,266.2 M164.2,265.6c-0.3,0-0.5,0.2-0.6,0.5v0.1
				c0,0.2,0.1,0.5,0.3,0.6c0.7,0.4,0.6,1.5,0.3,2.8c0,0.1,0,0.3-0.1,0.4l-1.6,9.8l-0.1,0.3c-0.2,1.3-0.4,2.4-1.2,2.5
				c-0.3,0-0.4,0.3-0.5,0.5v0.1c0,0.3,0.2,0.6,0.5,0.7l4.9,0.8h0.1c0.3,0,0.5-0.2,0.6-0.5v-0.1c0-0.2-0.1-0.5-0.3-0.6
				c-0.7-0.4-0.6-1.5-0.3-2.8l0.1-0.3l1.6-9.8l0.1-0.3c0.2-1.3,0.4-2.4,1.2-2.6c0.3-0.1,0.4-0.3,0.5-0.5v-0.1c0-0.3-0.2-0.6-0.5-0.7
				L164.2,265.6L164.2,265.6L164.2,265.6z"/>
		</g>
		<g>
			<path class="st2" d="M173.2,285.9c-0.1,0-0.2-0.1-0.2-0.1c0-0.1-0.1-0.1-0.1-0.2c0-0.1,0.1-0.3,0.2-0.3c1-0.3,1.2-1.7,1.3-2.8
				l1.5-11.7l-2-0.3c-0.2,0-0.5,0-0.7,0c-0.9,0-1.7,0.2-2.3,0.6c-0.1,0-0.1,0.1-0.2,0.1l0,0c-0.1,0-0.2-0.1-0.3-0.2
				c0-0.1-0.1-0.2-0.1-0.3l1.3-3c0-0.1,0.2-0.2,0.3-0.2l0,0h0.2c0.2,0.1,0.4,0.2,0.6,0.2c0.1,0,0.2,0,0.3,0.1l10.3,1.3
				c0.2,0,0.4,0,0.6,0s0.4,0,0.5-0.1h0.1l0,0c0.1,0,0.2,0.1,0.3,0.2c0,0.1,0.1,0.2,0.1,0.3l-1.2,3c0,0.1-0.2,0.2-0.3,0.2l0,0
				c-0.1,0-0.3-0.1-0.3-0.2c-0.1-0.6-0.7-1-1.9-1.1l-2.1-0.3l-1.5,11.6c-0.2,1.5-0.3,2.4,0.8,3.2c0.1,0.1,0.1,0.2,0.1,0.3
				s-0.1,0.2-0.1,0.2c-0.1,0-0.1,0.1-0.2,0.1L173.2,285.9z"/>
			<path class="st13" d="M172,267.8L172,267.8c0.4,0.2,0.7,0.2,1,0.3l10.4,1.3c0.2,0,0.4,0,0.6,0s0.4,0,0.6-0.1h0.1l-1.2,3h-0.1
				c-0.2-1-1.3-1.2-2.1-1.3l-2.4-0.3l-1.5,11.9c-0.2,1.5-0.3,2.5,0.9,3.5v0.1l-5.2-0.7v-0.1c1.4-0.3,1.5-2.3,1.6-3.4l1.5-11.6
				l-2.3-0.3c-0.3,0-0.5,0-0.8,0c-0.9,0-1.8,0.2-2.5,0.7h-0.1L172,267.8 M172,267.2c-0.2,0-0.5,0.1-0.5,0.4l-1.3,3
				c-0.1,0.2-0.1,0.4,0,0.5c0.1,0.2,0.3,0.3,0.5,0.3h0.1c0,0,0,0,0.1,0s0.2,0,0.4-0.1c0.7-0.5,1.5-0.6,2.1-0.6c0.2,0,0.5,0,0.7,0
				l1.7,0.2l-1.4,11.1v0.4c-0.1,1.2-0.3,2.4-1.1,2.6c-0.2,0.1-0.4,0.3-0.5,0.5v0.1c0,0.2,0,0.3,0.1,0.5c0.1,0.1,0.2,0.2,0.4,0.2
				l5.2,0.7c0,0,0,0,0.1,0s0.3,0,0.4-0.1s0.2-0.2,0.2-0.4v-0.1c0-0.2-0.1-0.4-0.2-0.5c-0.9-0.7-0.9-1.4-0.7-2.9v-0.1l1.4-11.3
				l1.8,0.2c1.3,0.2,1.5,0.5,1.6,0.9c0.1,0.2,0.3,0.4,0.5,0.5h0.1h0.1c0.2,0,0.5-0.1,0.6-0.4l1.2-3c0.1-0.2,0.1-0.4,0-0.5
				c-0.1-0.2-0.3-0.3-0.4-0.3h-0.1H185c-0.1,0-0.1,0-0.2,0s-0.2,0.1-0.4,0.1c-0.1,0-0.3,0-0.6,0l-10.4-1.3c-0.1,0-0.2,0-0.3-0.1
				c-0.2,0-0.4-0.1-0.5-0.2c-0.1,0-0.1-0.1-0.2-0.1L172,267.2C172.1,267.2,172.1,267.2,172,267.2L172,267.2z"/>
		</g>
		<g>
			<path class="st2" d="M195.1,289.8c-0.2,0-0.3-0.2-0.3-0.3s0.1-0.3,0.2-0.3c1-0.3,1-0.3,0.6-1.9l-1-4l-6.2-0.8l-1.7,3.3
				c-0.3,0.6-0.6,1.1-0.6,1.5c0,0.2,0.1,0.5,0.7,0.8c0.1,0.1,0.2,0.2,0.2,0.3c0,0.2-0.2,0.3-0.3,0.3l-4.8-0.6
				c-0.2,0-0.3-0.2-0.3-0.3s0.1-0.3,0.2-0.3c1.4-0.5,2-1.6,2.6-2.9l0.2-0.4l5.8-10.4c0.3-0.5,0.6-1.1,0.5-1.5
				c-0.1-0.2-0.2-0.3-0.5-0.4c-0.1-0.1-0.2-0.2-0.2-0.3c0-0.2,0.2-0.3,0.3-0.3l4.2,0.5c0.1,0,0.2,0.1,0.3,0.2l3.8,14.5
				c0.4,1.4,0.7,2.7,1.9,3.5c0.1,0.1,0.1,0.2,0.1,0.3s-0.1,0.2-0.1,0.2c-0.1,0-0.1,0.1-0.2,0.1L195.1,289.8z M194,280.5l-1.4-5.7
				l-2.8,5.2L194,280.5z"/>
			<path class="st13" d="M190.5,271.5l4.1,0.5l3.7,14.1c0.4,1.6,0.7,3.1,2.1,4v0.1l-5.4-0.7v-0.1c1.4-0.4,1.2-0.7,0.7-2.6l-0.9-3.9
				l-6.6-0.8l-1.8,3.5c-0.7,1.4-1,2.1,0.2,2.8v0.1l-4.8-0.6v-0.1c1.6-0.6,2.2-2,3-3.4l5.7-10.3C191.1,273.1,191.7,272.1,190.5,271.5
				L190.5,271.5 M194.4,280.9l-1.7-6.9l-3.4,6.3L194.4,280.9 M190.5,270.9c-0.3,0-0.6,0.2-0.6,0.5v0.1c0,0.3,0.1,0.5,0.3,0.6
				c0.1,0.1,0.3,0.2,0.3,0.3c0.1,0.3-0.2,0.8-0.5,1.3l-0.1,0.1l-5.7,10.3l-0.2,0.4c-0.7,1.2-1.2,2.3-2.5,2.7
				c-0.2,0.1-0.4,0.3-0.4,0.5v0.1c0,0.3,0.2,0.6,0.5,0.7l4.8,0.6h0.1c0.3,0,0.6-0.2,0.6-0.5v-0.1c0-0.3-0.1-0.5-0.3-0.6
				c-0.5-0.3-0.5-0.4-0.5-0.5c0-0.3,0.3-0.9,0.6-1.4l1.6-3.1l5.8,0.7l0.8,3.5l0.1,0.3c0.1,0.6,0.3,1.2,0.2,1.3c0,0-0.1,0.1-0.6,0.3
				c-0.2,0.1-0.4,0.3-0.4,0.5v0.1c0,0.3,0.2,0.6,0.5,0.7l5.4,0.7c0,0,0,0,0.1,0s0.3,0,0.4-0.1s0.2-0.2,0.2-0.4v-0.1
				c0-0.2-0.1-0.4-0.3-0.6c-1.1-0.7-1.4-1.9-1.7-3.3l-0.1-0.4l-3.7-14.1c-0.1-0.2-0.3-0.4-0.5-0.4L190.5,270.9
				C190.6,270.9,190.6,270.9,190.5,270.9L190.5,270.9z M190.2,279.8l2.3-4.1l1.1,4.6L190.2,279.8L190.2,279.8z"/>
		</g>
		<g>
			<path class="st2" d="M201.9,290.8c-0.2,0-0.3-0.2-0.3-0.3s0.1-0.3,0.2-0.4c1-0.3,1.1-1.8,1.2-2.9l0.6-10.6
				c0.1-1.2,0.2-2.6-0.8-3.1c-0.1-0.1-0.2-0.2-0.2-0.3c0-0.2,0.2-0.4,0.3-0.4l5,0.3c0.1,0,0.2,0,0.2,0.1c0.1,0.1,0.1,0.1,0.1,0.2
				c0,0.1-0.1,0.3-0.2,0.3c-1,0.3-1.1,1.7-1.1,2.9v0.4l-0.7,11.2l3.3,0.4c0.3,0,0.5,0,0.7,0l0,0c1.3,0,2.6-0.4,3.8-1.3
				c0.1,0,0.1-0.1,0.2-0.1l0,0c0.1,0,0.2,0.1,0.3,0.1c0.1,0.1,0.1,0.2,0.1,0.3L213,291c0,0.1-0.2,0.2-0.3,0.2L201.9,290.8z"/>
			<path class="st13" d="M202.9,273.2l5,0.3v0.1c-1.4,0.4-1.3,2.4-1.4,3.6l-0.7,11.5l3.6,0.4c0.3,0,0.5,0,0.8,0c1.5,0,2.8-0.5,4-1.4
				h0.1l-1.6,3.4l-10.8-0.6v-0.1c1.4-0.4,1.3-2.3,1.4-3.5l0.6-9.9C203.9,275.8,204.2,273.8,202.9,273.2L202.9,273.2 M202.9,272.6
				c-0.3,0-0.6,0.2-0.6,0.5v0.1c0,0.3,0.1,0.5,0.4,0.6c0.7,0.3,0.7,1.4,0.6,2.8v0.4l-0.6,9.9v0.3c-0.1,1.3-0.2,2.4-0.9,2.6
				c-0.2,0.1-0.4,0.3-0.4,0.5v0.1c0,0.3,0.2,0.6,0.6,0.6l10.8,0.6l0,0c0.2,0,0.4-0.1,0.5-0.3l1.6-3.4c0.1-0.2,0.1-0.4,0-0.6
				c-0.1-0.2-0.3-0.3-0.5-0.3h-0.1l0,0c-0.1,0-0.3,0-0.4,0.1c-1.1,0.8-2.3,1.3-3.6,1.3c-0.2,0-0.5,0-0.7,0l-3-0.4l0.6-10.9
				c0-0.1,0-0.3,0-0.4c0.1-1.3,0.2-2.4,0.9-2.6c0.2-0.1,0.4-0.3,0.4-0.5v-0.1c0-0.2,0-0.3-0.1-0.4c-0.1-0.1-0.3-0.2-0.4-0.2
				L202.9,272.6L202.9,272.6L202.9,272.6z"/>
		</g>
		<g>
			<path class="st2" d="M216.7,291.4c-0.2,0-0.3-0.1-0.3-0.3c0-0.1,0.1-0.3,0.2-0.4c1-0.4,1-1.9,1-3v-10.3V277c0-1.1,0-2.6-1-3
				c-0.1,0-0.2-0.2-0.2-0.3s0-0.2,0.1-0.3s0.1-0.1,0.2-0.1h5c0.2,0,0.3,0.1,0.3,0.3c0,0.1-0.1,0.3-0.2,0.4c-1,0.4-1,1.9-1,3v10.6
				c0,1.1,0,2.6,1,3c0.1,0,0.2,0.2,0.2,0.3c0,0.2-0.1,0.4-0.3,0.4L216.7,291.4z"/>
			<path class="st13" d="M216.7,273.8h5v0.1c-1.3,0.5-1.2,2.4-1.2,3.6v9.9c0,1.2-0.2,3.1,1.2,3.6v0.1h-5V291
				c1.3-0.5,1.2-2.4,1.2-3.6v-9.9C217.9,276.3,218.1,274.3,216.7,273.8L216.7,273.8 M216.7,273.2c-0.2,0-0.3,0.1-0.4,0.2
				c-0.1,0.1-0.2,0.3-0.2,0.4v0.1c0,0.3,0.2,0.5,0.4,0.6c0.7,0.3,0.8,1.4,0.8,2.7c0,0.1,0,0.3,0,0.4v9.9v0.4c0,1.3,0,2.4-0.8,2.7
				c-0.2,0.1-0.4,0.3-0.4,0.6v0.1c0,0.3,0.3,0.6,0.6,0.6h5l0,0c0.3,0,0.6-0.3,0.6-0.6v-0.1c0-0.3-0.1-0.5-0.4-0.6
				c-0.7-0.3-0.8-1.4-0.8-2.7v-0.4v-9.9v-0.4c0-1.3,0-2.4,0.8-2.7c0.2-0.1,0.4-0.3,0.4-0.6v-0.1c0-0.3-0.3-0.6-0.6-0.6L216.7,273.2
				L216.7,273.2L216.7,273.2z"/>
		</g>
		<g>
			<path class="st2" d="M227.3,291.6c-0.1,0-0.2,0-0.2-0.1v-0.1c-0.1-0.1-0.1-0.2,0-0.3c0.7-1.3,0.4-2.5,0.1-3.9l-0.1-0.4l-2.6-11.7
				c-0.2-0.9-0.4-1.5-0.9-1.5c-0.1,0-0.2,0-0.4,0.1h-0.1c-0.1,0-0.2,0-0.2-0.1c-0.1-0.1-0.1-0.4,0-0.5l3.4-2.4
				c0.1,0,0.1-0.1,0.2-0.1s0.1,0,0.2,0l12.5,8.3c1.1,0.7,2,1.4,3.3,1.4c0.1,0,0.3,0,0.4,0l0,0c0.1,0,0.2,0,0.2,0.1s0.1,0.2,0.1,0.3
				s0,0.2-0.1,0.2l-4.4,3.1c-0.1,0-0.1,0.1-0.2,0.1s-0.2,0-0.2-0.1c-0.1-0.1-0.1-0.3-0.1-0.4c0.5-0.9,0.5-0.9-0.9-1.9l-3.4-2.3
				l-5.1,3.5l0.9,3.6c0.3,1.3,0.5,1.8,1.1,1.8c0.1,0,0.3,0,0.5-0.1c0,0,0,0,0.1,0s0.2,0,0.2,0.1c0.1,0.1,0.1,0.4,0,0.5l-4,2.7
				C227.4,291.6,227.4,291.6,227.3,291.6L227.3,291.6z M228,280.3l3.6-2.4l-4.9-3.3L228,280.3z"/>
			<path class="st13" d="M226.3,271l12.2,8c1.2,0.8,2.3,1.7,3.8,1.7c0.2,0,0.3,0,0.5,0v0.1l-4.4,3.1v-0.1c0.7-1.2,0.4-1.3-1.2-2.4
				l-3.3-2.3l-5.5,3.8l1,3.8c0.3,1.3,0.6,2,1.4,2c0.2,0,0.3,0,0.5-0.1v0.1l-4,2.7v-0.1c0.8-1.5,0.4-3,0-4.5l-2.6-11.5
				c-0.2-0.9-0.4-1.9-1.3-1.9c-0.1,0-0.3,0-0.5,0.1v-0.1L226.3,271 M227.8,280.8l4.3-2.9l-5.9-4L227.8,280.8 M226.3,270.4
				c-0.1,0-0.2,0-0.3,0.1l-3.4,2.4c-0.3,0.2-0.3,0.6-0.2,0.8v0.1c0.1,0.2,0.3,0.3,0.5,0.3c0.1,0,0.1,0,0.2,0s0.2,0,0.3,0
				c0.3,0,0.4,0.4,0.6,1.3v0.1l2.6,11.5l0.1,0.4c0.3,1.4,0.6,2.5,0,3.7c-0.1,0.2-0.1,0.4,0,0.6v0.1c0.1,0.2,0.3,0.3,0.5,0.3
				c0.1,0,0.2,0,0.3-0.1l4-2.7c0.3-0.2,0.3-0.6,0.2-0.8v-0.1c-0.1-0.2-0.3-0.3-0.5-0.3h-0.1c-0.2,0-0.3,0.1-0.4,0.1
				c-0.3,0-0.5-0.1-0.8-1.6l-0.9-3.4l4.8-3.3l2.9,2l0.3,0.2c0.5,0.3,1,0.7,1.1,0.8c0,0,0,0.1-0.3,0.6c-0.1,0.2-0.1,0.5,0,0.7v0.1
				c0.1,0.2,0.3,0.3,0.5,0.3c0.1,0,0.2,0,0.3-0.1l4.4-3.1c0.1-0.1,0.2-0.2,0.3-0.4c0-0.2,0-0.3-0.1-0.5v-0.1
				c-0.1-0.2-0.3-0.3-0.5-0.3h-0.1c-0.1,0-0.3,0-0.4,0c-1.1,0-2-0.6-3.1-1.3l-0.3-0.2l-12.2-8C226.6,270.4,226.5,270.4,226.3,270.4
				L226.3,270.4z M228.2,279.8l-1.1-4.6l3.9,2.6L228.2,279.8L228.2,279.8z"/>
		</g>
		<g>
			<path class="st2" d="M243.2,280.9c-0.1,0-0.2-0.1-0.2-0.1v-0.1c-0.1-0.1-0.1-0.2,0-0.3c0.6-1.3,0-2-0.8-3.2l-6.3-8.4
				c-0.8-1.1-1.3-1.7-2.4-1.7c-0.1,0-0.2,0-0.4,0l0,0c-0.1,0-0.2,0-0.2-0.1c-0.1-0.1-0.1-0.4,0-0.5l3.1-2.3c0.1,0,0.1-0.1,0.2-0.1
				c0,0,0,0,0.1,0s0.2,0.1,0.2,0.1c0.2,0.1,0.3,0.1,0.5,0.2l0.6,0.2l14.1,3.8l-5.4-7.3c-0.8-1.1-1.3-1.8-2.4-1.8c-0.1,0-0.3,0-0.4,0
				l0,0c-0.1,0-0.2,0-0.2-0.1s-0.1-0.2-0.1-0.3s0-0.2,0.1-0.2l3.7-2.8c0.1,0,0.1-0.1,0.2-0.1s0.2,0,0.2,0.1c0.1,0.1,0.1,0.3,0.1,0.4
				c-0.6,1.3,0,2,0.8,3.2l8.8,11.9c0.1,0.1,0.1,0.2,0,0.3c0,0.1-0.1,0.2-0.2,0.2c-0.8,0.3-1.5,0.4-2.2,0.4c-0.9,0-1.7-0.2-2.8-0.5
				l-13.2-3.6l5.6,7.5c0.8,1.1,1.3,1.8,2.4,1.8l0,0c0.1,0,0.2,0,0.4,0l0,0c0.1,0,0.2,0,0.2,0.1c0.1,0.1,0.1,0.4,0,0.5l-3.9,2.7
				C243.3,280.8,243.3,280.9,243.2,280.9L243.2,280.9z"/>
			<path class="st13" d="M246.9,256.2L246.9,256.2c-0.6,1.5,0,2.4,0.9,3.5l8.8,11.9c-0.8,0.3-1.5,0.4-2.1,0.4
				c-0.9,0-1.7-0.2-2.7-0.5l-14.1-3.8l6.1,8.2c0.8,1.1,1.4,1.9,2.7,1.9c0.1,0,0.3,0,0.4,0v0.1l-3.7,2.8v-0.1c0.6-1.5,0-2.3-0.9-3.5
				l-6.3-8.4c-0.8-1.1-1.4-1.9-2.7-1.9c-0.1,0-0.3,0-0.4,0v-0.1l3.1-2.3l0,0c0.3,0.2,0.4,0.2,0.7,0.3l0.6,0.2l15,4l-6-8
				c-0.8-1.1-1.4-1.9-2.6-1.9c-0.1,0-0.3,0-0.4,0v-0.1L246.9,256.2 M246.9,255.6c-0.1,0-0.3,0-0.4,0.1l-3.7,2.8
				c-0.1,0.1-0.2,0.2-0.2,0.4s0,0.3,0.1,0.4v0.1c0.1,0.2,0.3,0.2,0.5,0.2c0,0,0,0,0.1,0s0.2,0,0.4,0c0.9,0,1.3,0.5,2.1,1.6v0.1
				l4.9,6.6l-13.3-3.6l-0.6-0.2c0,0,0,0-0.1,0c-0.2,0-0.3-0.1-0.5-0.2c-0.1-0.1-0.2-0.1-0.3-0.1h-0.1c-0.1,0-0.3,0-0.4,0.1l-3.1,2.3
				c-0.3,0.2-0.3,0.6-0.1,0.8v0.1c0.1,0.2,0.3,0.2,0.5,0.2c0,0,0,0,0.1,0s0.2,0,0.3,0c0.9,0,1.4,0.5,2.2,1.6l6.3,8.4
				c0.9,1.2,1.3,1.8,0.8,2.9c-0.1,0.2-0.1,0.4,0.1,0.6v0.1c0.1,0.1,0.2,0.2,0.4,0.2h0.1c0.1,0,0.3,0,0.4-0.1l3.7-2.8
				c0.3-0.2,0.3-0.6,0.1-0.8v-0.1c-0.1-0.2-0.3-0.3-0.5-0.3c0,0,0,0-0.1,0s-0.2,0-0.3,0c-0.9,0-1.3-0.5-2.2-1.6l-0.1-0.1l-5-6.8
				l12.4,3.4c1.1,0.3,2,0.5,2.9,0.5c0.7,0,1.5-0.1,2.3-0.4c0.2-0.1,0.3-0.2,0.4-0.4s0-0.4-0.1-0.5l-8.8-11.9
				c-0.9-1.2-1.3-1.8-0.8-2.9c0.1-0.2,0.1-0.4-0.1-0.6v-0.1C247.3,255.7,247.1,255.6,246.9,255.6L246.9,255.6z"/>
		</g>
		<g>
			<path class="st2" d="M256.9,271.3c-0.1,0-0.1-0.1-0.2-0.1v-0.1c-0.1-0.1-0.1-0.2,0-0.3c0.7-1.3,0.4-2.5,0.1-3.9l-0.1-0.4
				l-2.6-11.7c-0.2-0.9-0.4-1.5-0.9-1.5c-0.1,0-0.2,0-0.4,0.1h-0.1c-0.1,0-0.2,0-0.3-0.1c-0.1-0.1-0.1-0.4,0-0.5l3.4-2.3
				c0.1,0,0.1-0.1,0.2-0.1s0.1,0,0.2,0.1l12.5,8.3c1.1,0.7,2,1.4,3.3,1.4c0.1,0,0.3,0,0.4,0l0,0c0.1,0,0.2,0.1,0.3,0.1
				c0.1,0.1,0.1,0.4,0,0.5l-4.5,3c-0.1,0-0.1,0.1-0.2,0.1s-0.2,0-0.2-0.1c-0.1-0.1-0.1-0.3-0.1-0.4c0.5-0.9,0.5-0.9-0.8-1.9
				l-3.4-2.4l-5.1,3.5l0.9,3.6c0.3,1.3,0.5,1.8,1.1,1.8l0,0c0.1,0,0.3,0,0.5-0.1c0,0,0,0,0.1,0s0.2,0,0.2,0.1c0.1,0.1,0.1,0.4,0,0.5
				l-4,2.7C257.1,271.3,257,271.3,256.9,271.3C257,271.3,256.9,271.3,256.9,271.3z M257.7,259.9l3.6-2.4l-4.9-3.4L257.7,259.9z"/>
			<path class="st13" d="M256.1,250.6l12.1,8.1c1.2,0.8,2.3,1.7,3.8,1.7c0.2,0,0.3,0,0.5,0v0.1l-4.5,3v-0.1c0.7-1.2,0.4-1.3-1.2-2.5
				l-3.3-2.3l-5.5,3.7l1,3.8c0.3,1.3,0.6,2,1.4,2c0.2,0,0.3,0,0.5-0.1v0.1l-4,2.7v-0.1c0.8-1.5,0.4-3,0-4.5l-2.5-11.4
				c-0.2-0.9-0.4-1.9-1.3-1.9c-0.1,0-0.3,0-0.4,0.1v-0.1L256.1,250.6 M257.5,260.4l4.3-2.9l-5.9-4L257.5,260.4 M256.1,250
				c-0.1,0-0.2,0-0.3,0.1l-3.4,2.3c-0.3,0.2-0.3,0.6-0.2,0.8v0.1c0.1,0.2,0.3,0.3,0.5,0.3c0.1,0,0.1,0,0.2,0s0.2,0,0.3,0
				c0.3,0,0.4,0.4,0.6,1.3v0.1l2.5,11.5l0.1,0.4c0.3,1.4,0.6,2.5,0,3.7c-0.1,0.2-0.1,0.4,0,0.6v0.1c0.1,0.1,0.2,0.2,0.4,0.3h0.1
				c0.1,0,0.2,0,0.3-0.1l4-2.7c0.3-0.2,0.3-0.6,0.2-0.8v-0.1c-0.1-0.2-0.3-0.3-0.5-0.3h-0.1c-0.2,0-0.3,0.1-0.4,0.1
				c-0.3,0-0.5-0.1-0.8-1.6l-0.9-3.4l4.8-3.3l2.9,2l0.3,0.2c0.5,0.3,1,0.7,1,0.8c0,0,0,0.1-0.3,0.6c-0.1,0.2-0.1,0.5,0,0.7v0.1
				c0.1,0.2,0.3,0.3,0.5,0.3c0.1,0,0.2,0,0.3-0.1l4.5-3c0.3-0.2,0.3-0.5,0.2-0.8v-0.1c-0.1-0.2-0.3-0.3-0.5-0.3c0,0,0,0-0.1,0
				s-0.3,0-0.4,0c-1.1,0-2-0.6-3.1-1.3l-0.3-0.2l-12.1-8.1C256.4,250.1,256.3,250,256.1,250L256.1,250z M257.9,259.4l-1-4.6l3.9,2.7
				L257.9,259.4L257.9,259.4z"/>
		</g>
		<path class="st15" d="M201.9,265.8l-3-0.1c-16-2.1-20.6-2.9-29.4-5c4.3-2,1.4-1.2,9.1-1.4c3.7-0.1,18.4-3.2,18.4-3.2l0.9,4.6
			L201.9,265.8z"/>
		<path class="st15" d="M77.6,268.4c0,0,4.4,0.3,18.1-3.6c12.5-3.6,17.5-3.6,18.6-3.7c1.1-0.1-5.5-2.1-9.3-4.1
			c-6.5-3.2-22.9-1.7-22.9-1.7s-2.4,6.7-6.1,11.4C76.5,267.3,77.6,268.4,77.6,268.4z"/>
	</g>
	<path class="st10" d="M68,40.8c0,0-9.1,6.2-18.4,19.4c-9.3,13.2-15.2,22-23.4,40.6c-8.1,18.7-8.2,29.8-8.6,39.2
		c-0.4,9.3,2.1,22.5,2.1,25.7s1.9,4.2,2.7,6.2s4.1,10.2,4.8,12.3c0.8,2.2,6.5,11.8,12.2,18.3s12.8,15.9,14.9,21.8
		c2,6,1.3,10.7,3.6,14.1s6.2,7.4,6.2,7.4s0,3.4,4.8,2.7c3.3,2.5,20.3,13.7,26.8,16.4c7.5-2.5,11.1-2.6,16.8-3.6
		c-5.5-2.4-12.1-7.3-15.4-10.2c-3.2-2.8-3.1-4.6-6.7-4.8c-3.6-0.2-2.9,3.3-2.9,3.3s-7.7-5-10.7-7.4c-2.9-2.4-7.5-5.2-12.2-13.8
		c-4.7-8.6-3.9-13.2-3.8-15.4c0.1-2.2-1-2.5-1.9-2.5s-1.8,0.9-2.2,2c-2.2-2.5-5.2-7.9-9.5-13.3c-4.3-5.5-10.7-12.9-15-20.8
		s-7.7-16.4-9.3-31.5c-1.5-15.1-0.4-28.7,5.6-42.7s9.9-23.1,17.6-32.9C54,61.6,68,40.8,68,40.8z"/>
	<g>
		<path class="st16" d="M43.1,204.6c0,0,0.8-2.4,0-3.9s-3.3-2.9-3.3-4.2c0-1.2-0.3-1.1,0.1-1.7c0.4-0.7,0.8-1.1,2-1.5
			c0.3-0.1,0.4-0.3,0.3-0.6c-0.8-1-1.6-2-2.3-3c-1.4-0.4-6.1-1.2-6.4-0.5c-0.4,0.8-1.3,1.5-1.3,1.5s-0.8-4.3-3.4-8.4
			c-2.3-3.7-3.3-4.1-4.1-4.8c1.1,2.7,2.2,5.6,2.7,6.8c0.8,2.2,6.5,11.8,12.2,18.3s12.8,15.9,14.9,21.8c1.7,4.9,1.8,7.5,2.4,10.1
			c2.1,1.3,4.1,2.6,5,3.8c0,0-4-13.1-9.2-21.2S43.1,204.6,43.1,204.6z"/>
		<path class="st16" d="M19.8,165.7c0,3.2,1.9,4.2,2.7,6.2c0.2,0.6,0.7,1.7,1.2,3.1c-0.3-1.7-0.6-4.2-1.9-6.2c-2-3.2-2-4.2-1.6-7.8
			c0.4-3.6-0.9-9.6-1.9-11.9c-0.2-0.4-0.3-0.4-0.4-0.2C18.5,156.3,19.8,163.4,19.8,165.7z"/>
	</g>
	<path class="st8" d="M245.7,167.4c-0.2-1-0.2-2.2-0.2-3.3c-0.1-1.7-1.3-4-0.8-5.6c0.3-0.9,2.2-2.5,3.3-2.5c0.7,0,0.7,0.2,1.1,0.6
		c0.8,0.7,1.3,1.4,2.4,2c1.3,0.7,0.9,0.6,2.9-0.4c2.9-1.5,5.2-3.5,5.5-7c0.2-1.7,0.1-3.3,0.5-4.8c0.3-1-0.1-3.9,1-4.6
		c1.2-0.7,2.1,1,3,1.5c2.3,1.2,2.2-2.8,4-3.2c1.2-0.2,1.6,0.9,2.7,0.1c1-0.8,3.3-5,4.4-1.7c0.3,1-0.2,2-0.3,3c0,1.2,0.3,1.8,0.8,2.7
		c0.6,1,1,1.8,0.8,3c-0.1,1.2-0.7,1.6-1.2,2.6c-0.3,0.6-0.5,0.6-0.1,1.2c0.5,0.8,0.8,0.2,1.5,0.5c0.8,0.5,1.1,1.6,1,2.6
		c-0.2,2.1-1.7,3.9-3,5.4c-0.5,0.6-2,1.4-1,2.2c0.9,0.7,1.9-0.2,2.4,1.4c0.8,2.4-1.2,4.6-2.9,6.1c-2,1.7-5.3,2.7-7.8,3.4
		c-2.6,0.8-5.8,0.5-8.6,0.4c-2,0-4.6,0.1-6.6-0.3C247.8,172.1,246.3,170.3,245.7,167.4z"/>
	<path class="st17" d="M246.1,168.7c-0.1-1.2-0.5-3.2-0.3-4.4c0.2-1.1,0.7-2.5,1.3-3.6c0.9-1.7,2.1-1.3,3.7-1.3
		c2.3,0,4.9-3.2,6.2-5.2c2-3.1,2.2-6.9,3.7-9.9c0.6-1.3,0.9-2.7,2.2-2c2.7,1.5,2,4.7,1.9,7.1c-0.1,3-0.6,6.1-0.7,9.2
		c-0.1,1.9-0.4,2.7,1.7,2.1c1.8-0.5,3.7-0.6,5.1,1.3c0.9,1.2,1.1,2.4,2.9,2.2c1.1-0.2,2.7-0.8,2.2,1.1c-0.3,1.4-1.4,2.5-2.4,3.3
		c-2.5,2.1-6.7,3.9-10,3.9c-4.2,0-8.5-1.2-12.5-2.5c-1.3-0.4-3.6-0.4-4.6-1.1L246.1,168.7z"/>
	<path class="st6" d="M218.5,145.3c-0.6,1.2-0.6,1.6-1.9,2c-1.2,0.3-2.2,0.2-3.1,1.2c-1.5,1.5-1.8,4.1-1.1,6.1
		c0.8,2.5,3.6,3.2,4.7,5.3c1.1,2.1,1,4.4,0.9,6.8c-0.1,2.2,0.6,5.4-0.4,7.3c-1,2.1-3.8-0.9-5.3,1.3c-0.7,1-0.4,1.9,0.2,2.9
		c0.7,1.2,0.8,1.8,0.6,3.2c-0.3,1.8-0.7,3.2,0.9,4.5c1.1,0.9,2.7,1.4,3.9,2.1c1.6,0.8,1.4,2.1,2.2,3.4c0.9,1.4,5.7,2.1,4.8,4.5
		c-0.5,1.4-1.9,0.5-3,0.5c-1.2,0-1.7,0.7-1.9,1.9c-0.2,1.3,0.3,1.4,1.2,2.2c0.8,0.7,1.3,1.7,2,2.4c0.6,0.5,1.3,0.6,2,0.9
		c0.9,0.4,0.9,0.9,1.7,1.5c2.2,1.5,4-3,5.3-4.2c1.6-1.5,2.4-2.7,3.4-4.9c0.6-1.5,1-3.3,1.8-4.6c1-1.7,3.4-3.2,4-5.2
		c0.4-1.2,0-3.4-0.1-4.6c-0.1-1.5-0.1-2.7,0.4-4c0.4-1.1,1-2,1-3.2c0-0.9-0.2-2.1-1-2.6c-0.9-0.7-2.2,0-3.1-0.5
		c-1.6-0.8-1.9-4.7-4.5-3.4c-0.8,0.5-1.8,2.2-3,1.3c-1.2-0.9,0.2-2.3,0.3-3.2c0.2-1.8-1.2-2.8-1.6-4.4c-0.3-0.9,0-1.7,0.3-2.6
		c0.3-1,0.3-1.9,0.4-2.9c0.3-2.1,1.4-4.1,1.6-6.3c0.1-1.3-0.7-2.1-1.4-3c-0.9-1.2-0.8-2.3-0.8-3.7c0-0.8,0.1-2.5-0.8-2.8
		s-1.2,1.1-1.5,1.8c-0.4,0.8-0.9,2.2-1.9,1.6c-0.7-0.4-1.5-1.8-1.9-2.5c-1-1.3-2.7-2-3.9-0.6C219,142.1,219.2,143.9,218.5,145.3z"/>
	<path class="st18" d="M231.4,195.8c0,0,0.2-5.8-0.6-9.4c-2.2-0.1-6.8-0.5-7.3-0.8s-0.2-0.9,3-0.8c3.1,0.1,3.9-0.3,3.9-0.3
		s-2-9.3-2.8-11.7c-0.8-2.4-0.7-3.9-0.7-3.9s0.5-2.8,0.8-0.4c0.4,2.3,1.4,5.2,1.8,6.6s0.6,2.2,1.1,0.8c0.4-1.4,1.6-2.4,1.3-1.1
		c-0.4,1.3-1.3,3.1-1.2,4.4c0.1,1.3,1.4,5.6,1.4,6.9c1.3-0.4,2-0.3,2.9-1.3c0.9-1.1,1-0.1,0.2,0.9s-2.4,1.4-2.8,1.8s0.4,4.5,0.3,6.4
		C232.4,195.7,231.4,195.8,231.4,195.8z"/>
	<path class="st19" d="M169.5,260.7l7.1-4c0,0-1-5.6,2.7-7.6c3.7-1.9,6.6-1.9,8.2,1.9c6.6-3.7,11.6-7.7,14.7-10.2
		c3.1-2.4,5.3-7.1,6.9-11.3c1.6-4.2,4.5-9.7,4.5-9.7s-1-7.1-0.8-8.4s1.3-2.3,2.7-2.1c1.5,0.2,2.6,0.6,2.7,2.6
		c2.7-3.2,7-9.7,9.7-13.5c2.6-3.8,13.1-15.3,15.2-18.9s5.2-13.4,6.9-18.4c1.8-5,2.9-11.1,2.3-16.1s-1-13.2-2.1-20s-3.2-8.3-3.7-10.3
		s-2.5-0.4-2.5-2.1c0-1.8,1.8-1.8,1.2-4.2c-0.6-2.4-3.7-10.3-5.3-14.8s-7.4-17.9-8-20s3.4-6.9,5.1-1.8s7.6,21.1,9.1,23.9
		s4.8,9.8,5.8,15.1s2.1,6.6,2.9,7.9s2,1.8,2.1,3.8s-0.4,4.1,0.5,6.8s3.1,1.2,3.6,4.4c0.6,3.2,0.2,3.3,0.3,5.6
		c0.1,2.3,2.4,4.1,1.3,14.1s-10.4,25.3-16.5,34.1s-10.3,13.3-10.9,14.1s-0.6,3.9-2.9,5.9s-3,1.4-4.6,4s-4,5.8-7.4,16.3
		c5.3-5.4,8-9.6,9.5-12.1s5-7.4,5.8-9s1.4-4.8,2.8-6.9s2.9-0.5,4.8-3s0.5-8,0.5-8l3-5.2l3.3,9.1c0,0-6.3,12.6-7.8,14s-2.5,2.1-3.3,3
		s0,3.3-1.1,5s-3.2,4.8-4.3,6.5c-1.1,1.7-3.5,4.1-4.5,5.8s-2.9,3.9-5.3,6.6s-3.9,3.2-4.7,5.7c-0.8,2.5-0.8,3.7-4.5,6.9
		s-4.8,3.4-8,5.3s-5.9,3.9-7,4.8s-4.4,2.4-6.9,5.1s-3.1,2.8-3.1,2.8S176.9,262.9,169.5,260.7z"/>
	<path class="st17" d="M223.5,154.6c0,0,2.2,1.9,3.3,3.1c1.1,1.2,1.3,2.3,0.7,4.3c-0.6,2-1,4-0.8,5.6s0.2,4.3-1.4,5.6
		c-1.6,1.3-0.5,2.5-2.2,2.6s-3.4-0.4-3.4-0.4l0.5-13.5L223.5,154.6z"/>
	<path class="st20" d="M216.2,174.8c2.3,0.5,2.8,1.4,4.9,0c1.3-0.8,0.3-3,1.6-4.8c1.3-1.8-0.5-2.2-1-3.4c-0.5-1.2,1.6-5,2.2-6.9
		c0.7-2,0.3-6.3-2.6-7.3s-2.2,3.4-6,1.6c-2.1-1-2.3-3.1-2.2-4.9c-1.1,1.5-1.3,3.8-0.7,5.6c0.8,2.5,3.6,3.2,4.7,5.3
		c1.1,2.1,1,4.4,0.9,6.8c-0.1,2.2,0.6,5.4-0.4,7.3C217.3,174.6,216.8,174.8,216.2,174.8z"/>
	<g>
		<path class="st21" d="M215.5,240.9c-1.5,0-0.7,1.2-1,2.7s-1.4,1-3.1,1s-1.5,1-2.4,2.1c-0.9,1-2.2,1.9-3.3,1.7s-1.5-0.5-1.5,0.9
			s-0.2,2.1-1.2,1.9s-2.1,0.5-2.7,1.4c-0.7,0.9-1.4,1.7-2.6,1.7s-2.1,0.7-2.9,1s-2.2,0.2-2.9,1.5c-0.7,1.4-0.9,1.9-1.9,1.7
			s-1.8-2.2-3.7-4.3c-2.2,5-7.5,3.3-8.5,2.6s-1.2-0.5-1.1-0.2c0.4,0.6,5.4,6,5.4,6l-1.3,0.4c4.8,0.8,8.7,1.2,8.7,1.2s0.6,0,3.1-2.8
			s5.8-4.3,6.9-5.1s3.8-2.9,7-4.8s4.3-2,8-5.3c2.7-2.4,3.5-3.6,4-5.1C217.8,241.1,216.5,240.9,215.5,240.9z"/>
		<path class="st21" d="M230.9,224.5c-0.4-0.1-1.5,1.3-1.7,1.6c-0.4,0.6-1.2,0.9-2.2,1.9s-2.4,2.9-3.4,4.1s-1.7,1-3.1,0.5
			s-0.7-2.4,0.3-4.3c0.3-0.5,0.5-1.1,0.7-1.7c-0.4,0.4-0.8,0.8-1.2,1.3c3.4-10.5,5.8-13.6,7.4-16.3c1.2-2,2-2.1,3.2-2.9
			c-0.7,0-1-0.7-1.7-0.1c-0.9,0.7-0.3,1.4-1.5,2.2c-1.2,0.9-4.5,5.2-5.5,7.7s-3.4,8.1-4.3,10.5s-1.5,5.7-2.1,7.2
			c-0.5,1.5,0.9,2.4,2.4,2.7c0.4,0.1,0.6,0.3,0.8,0.5l0,0c0.8-2.5,2.3-3,4.7-5.7s4.3-4.9,5.3-6.6
			C229.2,226.8,230.6,224.9,230.9,224.5z"/>
		<path class="st22" d="M261.3,139.4c-0.1-2.3,0.3-2.5-0.3-5.6c-0.6-3.2-2.8-1.8-3.6-4.4s-0.4-4.8-0.5-6.8s-1.4-2.5-2.1-3.8
			s-1.9-2.5-2.9-7.9s-4.3-12.4-5.8-15.1c-1.3-2.3-5.6-13.9-8-20.6c-1-0.3-1.7-0.5-2-0.4c-0.7,0.1-2.4,1.1-3.1,2.2
			c1.9,4.9,5.5,13.3,6.8,16.7c1.6,4.5,4.7,12.3,5.3,14.8c0.6,2.4-1.2,2.4-1.2,4.2c0,1.8,2,0.2,2.5,2.1c0.4,1.7,2.1,3.1,3.3,8.1
			c1.3-0.2,3-0.3,4.3-0.1c1.4,0.2,1.7,1,1.7,2.9s0.7,2.9,1,4.3s0.7,3.9,0.7,5.5c0,1.5,2.1,4.1,2.2,5.5c0.2,1.4,0,4.5-0.7,5.8
			c-0.7,1.4-0.7,3.8-1.2,5.8c-0.5,2.1-0.2,4.3-0.2,6.2c0,1.9-0.7,3.1-1.2,4.6s-1.2,4.3-1.9,5.7c-0.7,1.4-3.6,5.8-6.5,4.1
			c-0.7-0.4-1.4-0.3-2.2,0.1c-1,2.6-1.9,4.9-2.7,6.2c-1.1,1.9-4.6,6-8,10.1c0.1,0,0.1,0,0.2,0c3.6-0.2,3.3,4.3,3.1,6.2
			c-0.2,1.9-2.4,4.1-3.3,5s-0.9,2.2-1.4,3.8c-0.3,0.8-0.6,1.7-1,2.4c1.7-2,1.8-4.5,2.3-5.3s3.8-4.2,8.7-11.1
			c0.1,0.5,0.1,1.1,0.1,1.7c1-1.7,2.3-3.6,3.7-5.3l-0.4-1.3c6.1-9,14.2-22.9,15.2-32.3C263.7,143.5,261.4,141.7,261.3,139.4z"/>
		<path class="st21" d="M238.3,199.9c-0.8,1.3-1.4,2.9-1.8,4.3c0.5-0.7,0.9-1.4,1.1-1.8c0.4-0.8,1.4-2.3,2.4-3.8
			C239.4,198.8,238.9,199,238.3,199.9z"/>
		<path class="st21" d="M233.7,215c-0.8-0.5-1-1.8-1.3-3.1c-0.9,1.4-1.8,2.7-2.4,3.8c0,1.5,1,0.7,2.6,1
			C234,217,234.5,215.5,233.7,215z"/>
	</g>
	<path class="st20" d="M234.1,64.3l-2-3.8l-4.7-7.9l-4.2-7.1l-5.8-6.9l-5.2-6.6l-5.1-5.9l-2.6-2.9c-0.5,0.7-0.3,1.7-0.5,2.7
		c-0.3,1.4-1.1,2.6-1.2,4.2c-0.1,1.7,0.7,2.5,1.5,3.8s0.6,2.9-0.6,3.9c-1.3,1.1-2.2,2-2.4,3.7c-0.1,1.3,0,2.7,1.1,3.5
		c2.3,1.7,5.8,1.4,7.7,3.9c1,1.3,0,2.4-1.1,3.1c-0.9,0.5-1.8,1-2.6,1.5c-0.6,0.3-1.5,0.5-2,1.2c-1.2,1.3,0,3,1.5,3.4
		c0.8,0.2,1.5,0.6,2.3,1c0.7,0.3,1.6,0.3,2.3,0.5c1,0.2,2.4,0.3,3.2,1c0.5,0.4,0.7,1.2,1.1,1.7c2.3,2.9,6.5,2.6,9.8,2.7
		c0.8,0,1.9,0,2.6,0.5c1.6,1.4-0.7,2.5-1.3,3.4c-1.1,1.8,2.5,2.1,3.5,2.3c0.8,0.2,1.7,0.7,2.6,0.5c0.7-0.1,1.2-0.6,1.8-0.9
		c0.8-0.5,1.7-0.6,2.5-1l0,0L234.1,64.3z"/>
	<path class="st23" d="M205.6,24.4l7,9.1c0,0-3.5-0.2-5.4,0.5c2.1,0.1,4.2-0.3,6.9,2.2c2.7,2.5,4.3,5.3,5.5,6.5s2.7,3.3,2.7,3.3
		s-6.1-0.8-9.4,0c3.3,0,8.3,0.6,10.3,2.1s2.2,3.3,3.6,5.2c1.4,1.9,2.7,4.8,2.7,4.8s-5.6-0.3-7.2-0.3s1.3,0.7,2.7,0.8
		c1.4,0.1,3.3,0.4,4.2,0.5c0.9,0.1,1.7,0,2.2,1.3s2,4.7,2,4.7s3,1.7-0.1-4s-6.1-9.7-6.5-11.1s1.2-1.3,2-2.6c0.8-1.3,0.4-3,0.4-4.7
		s0.3-2.6,0.3-2.6s-0.9,2.3-1,4.4s-0.8,2.9-1.7,2.9c-0.9,0-1.6-0.4-3.1-2.6c-1.6-2.1-2.5-2.5-2.7-3.6c-0.3-1,0.1-6.5,0.1-6.5
		s-0.5,6-1.4,5.5s-1.7-2.6-3.4-4.2c-1.7-1.6-1.2-2.6-1.4-4.9c-0.1-2.3,0-1.4-0.5,0.7c-0.6,2.1-1.1,0.4-2.8-1.8
		C209.6,27.8,205.6,24.4,205.6,24.4z"/>
	<path class="st24" d="M235.1,79.5c0.9,2.6,3.5,3.6,5.1,5.8c1.4,2,3.6,3.6,5.2,5.6c1.1,1.3,4,3.8,2.9,5.8c-0.5,1-2.2,1.2-2.7,2.2
		s-0.8,2.7-0.8,3.8c0.1,3.2,3.1,3.6,4.9,5.5c0.8,0.9,0.9,1.3,2.3,1.7c0.9,0.3,2.2,0.4,2.9,1.1c1.9,2-2.6,3.1-0.7,5.5
		c1.2,1.5,4.8,1.8,5.5,3.8c0.4,1.1-0.9,1.7-1.1,2.6c-0.3,1.3,0.3,1.9,1.1,2.7c1.5,1.4,2.2,3.6,1.6,5.7c-0.4,1.2-3.4,3.6-2.2,5.2
		c0.4,0.5,2.1,0.6,2.6,0.3c1-0.5,0.9-1.8,1.1-2.8c0.3-1.7,0.9-3.3,1.7-4.9c0.7-1.3,1.5-2.6,2.1-4c0.5-1.1,0.3-2.2,0.6-3.3
		c0.6-2.2,2.2-3.7,3.3-5.8c0.8-1.5,1.9-4.6,1.4-6.3c-0.9-3.1-4.3,0.3-4.8-1.8c-0.3-1.4,1.5-3,2.2-4.1c0.9-1.4,1.5-2.8,1.6-4.5
		c0.1-2.1,0.2-4.4-0.6-6.2c-0.4-1-0.7-2-1.9-1.9c-1.3,0-1.4,1.1-1.8,2.1c-0.6,1.4-1.7,4.3-3.7,3.9c-1.7-0.3-0.6-2.7-0.1-3.6
		c0.9-1.8,1.9-3.3,2-5.5c0.1-1.1,0.1-2,0.3-3.1c0.3-3-1.9-5.3-2.1-8.1c-0.1-1-0.6-7-2.6-4.5c-0.5,0.6-0.2,2.2-1.4,2.5
		c-1.3,0.4-1.5-1.2-1.4-2.1c0.2-2.2,0.9-4,0.6-6.3c-0.1-0.9-0.8-1.9-1.3-2.7c-0.8-1.2-1.8-2.2-2.6-3.5c-0.6-1.1-0.8-2.2-2.2-1.5
		c-0.9,0.5-1.6,1.5-2.9,0.7c-1-0.6-0.9-2-0.9-3c0-2.9-1-3.3-3.4-4.4c-1-0.4-3.6-3.5-4.9-2.7c-1.5,0.9,0.5,4.4-0.1,5.8
		c-0.4,0.9-1.2,1.1-1.9,1.6c-0.9,0.6-1.2,1.4-1.8,2.3c-1.7,2.7-4.2,5.7-3.9,9.1C232.6,72.2,233.9,75.9,235.1,79.5z"/>
	<path class="st8" d="M255.4,69.2c0,0,0.7,4.2-2.1,5.9c-3.4,2-0.3,5.3,1.3,8.1c1.6,2.7,2.7,6,2.7,6s3.6-2.5,3.4-6.8
		C260.5,76.9,257,77,255.4,69.2z"/>
	<path class="st8" d="M263.7,113.7c0,0,4.3-4.9,5.4-5c1-0.1,1.7-0.1,0.1,2.4s-2.5,5.6-3.3,7.7s-2.2,3.5-2.2,3.5
		S264.3,118.8,263.7,113.7z"/>
	<path class="st8" d="M261.4,106c0,0,2.6-2.9,6-8.6c-0.1,3.8-0.4,4.3-4.6,10.7C262.7,106.8,261.4,106,261.4,106z"/>
	<path class="st8" d="M240.8,50.3c0.3,2.4,1.1,6.2,3,9.3c3.1,5.2,4,7.6,3.9,11.3c-4.3-3.4-6.4-6.5-8.1-7s1.3-1.6-0.3-4.4
		c-1-1.9-0.3-2.1,0.8-2.4C241.8,56.7,240.1,53.7,240.8,50.3z"/>
	<path class="st8" d="M257.5,94c-5.6-1.8-7.8-3.5-7.8-3.5l-0.4-3c0,0,3.3,2.3,7.2,3.3c-2.9-3.8-4.3-9.4-6.4-13.4s-5.5-4-7.4-5.5
		c-2.4-1.8-5.2-6.3-5.2-6.3c1.3,7.5-4.4,0.9-4.4,0.9l-0.7,3.5c0.5,3.3,1.6,6.5,2.6,9.6c0.9,2.6,3.5,3.6,5.1,5.8
		c1.4,2,3.6,3.6,5.2,5.6c1.1,1.3,4,3.8,2.9,5.8c-0.5,1-2.1,1.2-2.7,2.1c1.5,0.9,3.8,2.2,5.3,3.2c2.5,1.6,5.6,4,6.5,5.9
		c0.9,1.8,1,2-2.2,0.7c-5.6-2.4-0.7-0.8-1.7,1.8c0.5,0.1,1,0.4,1.4,0.7c1.9,2-2.6,3.1-0.7,5.5c1.2,1.5,4.8,1.8,5.5,3.8
		c0.4,1.1-0.9,1.7-1.1,2.6c-0.3,1.3,0.3,1.9,1.1,2.7c1.1,1,1.8,2.5,1.8,4.1c0.1,0,0.2,0.1,0.2,0.1C263.9,118.1,261.1,101.8,257.5,94
		z"/>
	<path class="st6" d="M1.1,144.9c-1.8,0.7-0.7,6-0.7,8.5s-1.7,9.7,1.7,21.3c3.3,11.7,7.8,17.7,9.7,20.8c1.8,3.2,14.3,19.2,16.5,21.2
		s4.5,4.5,6.6,6.2s4.3,3.8,5.5,4.6s3.5,1.1,4.3,1.3s1.5-2.5-0.9-3.1s-3.5-1.1-5.5-4.6s-4.1-8.5-6-12s-2.8-7.3-3.3-12.6
		s-4.5-13.1-8.6-22.8s-6.9-12.8-8.5-15.5c-1.6-2.8-5.4-8.5-6.6-10.6S3.1,144.2,1.1,144.9z"/>
	<path class="st25" d="M30.1,50.8c-2.2-0.9-6.3,5-9.6,9.9S10.7,78.2,7.2,91.3s-1.9,27.1-1.5,34.9s2.8,14.4,6.6,18.6s5.6-1.9,3.3-1.6
		s-3-0.3-3.1-3.4s1.9-11.5,4.8-20.6s6.1-21.9,9.6-37S33.7,52.3,30.1,50.8z"/>
	<path class="st26" d="M64.6,19.5c-1.9-1-6.1,2.8-13.6,11.3S36.5,54.9,33.1,62.2c-3.4,7.2-6.7,17.8-8.6,22.3s-5.4,16.8-3.6,14.5
		s5.4-8.9,7.9-13.1s10.6-14.5,14.9-20.5S55,47.9,58.6,40.5C62.1,33,67.2,20.9,64.6,19.5z"/>
	<path class="st4" d="M118.7,0.4c-0.8-1-4.8,0.3-6.7,1c-1.8,0.7-4.3,2.5-7.5,3.7S97,7.6,88.3,13.9s-11.2,10.7-17,16.2
		S57.2,45.3,56.5,46.5c-0.7,1.2-0.5,3.1,3,0.9s27.3-18.7,34.5-23c7.2-4.3,16.2-8.3,20.5-14.3C118.9,4.1,120.1,2.1,118.7,0.4z"/>
	<path class="st27" d="M59.4,27.1c0,0-7.9,10-18.3,27.1C30.8,71.3,25,85.1,25,85.1l-0.4,2.5c0,0,9.3-19.3,15.8-29.7
		C46.8,47.4,59.4,27.1,59.4,27.1z"/>
	<path class="st28" d="M43.7,225.8c-2.4-0.6-3.5-1.1-5.5-4.6s-4.1-8.5-6-12s-2.8-7.3-3.3-12.6s-4.5-13.1-8.6-22.8
		s-6.9-12.8-8.5-15.5c-1.6-2.8-5.4-8.5-6.6-10.6s-2.1-3.4-4.1-2.7c-1.8,0.7-0.7,6-0.7,8.5s-1.7,9.7,1.7,21.3
		c3.3,11.7,7.8,17.7,9.7,20.8c0.7,1.2,2.8,4.1,5.3,7.4l0,0c3,4,7.9,7.3,7.9,7.3s-0.5-1.3-1.1-1.9s-2.8-4.3-2.8-4.3l-1.6-1.8h1
		c0,0-7.7-16.6-10.8-25.8c-5.3-15.9-8.2-30.6-8.2-30.6s8.1,29.8,15.1,44.6c7,14.6,13.6,25.1,17.8,30s7.3,6.3,8.1,7.9
		c0.9,0.2,1.8,0.3,2.2,0.4C45.3,229,46.1,226.4,43.7,225.8z"/>
	<path class="st6" d="M111.4,13.5c-0.2,0.1-15.4,4-29.5,14C67.7,37.6,65.1,39.2,65.1,39.2s7.3-6.2,9.6-8.8c2.3-2.6,7.4-7.3,10.3-9.1
		c2.9-1.8,12.2-7.7,12.2-7.7S86.7,19,84.7,20.4s-4.7,2.9-8.3,6.4c-0.6,0.6-1,0.9-1.3,1c8.4-11.1,23.4-20.5,27.1-21.5
		c3.4-1,6.6-3,8.3-4.3c-1.6,0.9-3.6,2.1-6,3c-3.2,1.2-7.5,2.5-16.2,8.8S77.1,24.5,71.3,30S57.2,45.2,56.5,46.4
		c-0.7,1.2-0.5,3.1,3,0.9s27.3-18.7,34.5-23C99.8,21,106.7,17.7,111.4,13.5z"/>
	<path class="st26" d="M122.7,12.9c0.1-1.6-11.3-1-31.7,10.3C70.7,34.5,63.5,48.4,61.8,49.9s11-4.8,21.5-8.8s19-10,26-14.3
		S122.6,15.9,122.7,12.9z"/>
	<path class="st27" d="M110.6,17.5c0,0-13.4,10.8-40.1,25.4C83.2,38.5,107.4,23.9,110.6,17.5z"/>
	<path class="st28" d="M75.2,35.1c-2.5-0.7-9.7,6.2-14.5,13.3c-4.8,7.2-11.5,16.2-13.5,19.3c-2,3.2-6,8.5-6,12.3s-5.2,6.7-3.5,17.3
		c1.7,10.7,20.3-22.7,28-31.5s10-17.7,10.8-22.3C77.4,38.9,77.7,35.8,75.2,35.1z"/>
	<path class="st4" d="M15.6,143.1c-2.4,0.3-3-0.3-3.1-3.4s1.9-11.5,4.8-20.6s6.1-21.9,9.6-37c3.3-14.4,6.5-28.5,3.7-31.1
		C25.8,58.4,9.8,86.4,9,135.5c0,1.4,0,2.7,0,3.9c1,2,2.1,3.8,3.5,5.3C16.2,149,17.9,142.9,15.6,143.1z"/>
	<path class="st6" d="M14.5,71.5c-2.7,5.7-5.4,12.6-7.3,19.8c-3.5,13.1-1.9,27.1-1.5,34.9s2.8,14.4,6.6,18.6c0.4,0.4,0.8,0.7,1.1,1
		l0,0c0.3-2-1.7-3.1-2.2-3.9c-0.5-0.9-1.9-1.4-1.3-3.5c0.6-2.2-0.5-2.9-0.5-5.8c0.7-20.8,2.9-29,4.2-37.9c-3.8,14.4-5,31-5,34
		s-0.4,4.9-0.6,4.2c-0.3-0.8-0.9-4.4-0.9-7.7s-0.7-7.6-0.7-9.2s-1.5-12.5,1.8-25C11.6,77.9,14.5,71.6,14.5,71.5z"/>
	<path class="st6" d="M48.7,65.6c-0.6,0.9-1.1,1.6-1.4,2.1c-2,3.2-6,8.5-6,12.3s-5.2,6.7-3.5,17.3l0,0c0.7-0.2,1.5-0.7,2.3-1.8
		c2.6-3.5,18.2-27.3,18.7-27.8s2.5-4,0.3-2.6c-2.3,1.4-1.4,0-0.3-2.1c1.1-2.1,7.6-11.8,10.2-19.1c0,0-2.9,5.3-10.8,16.6
		C50.3,71.8,48.9,73,46.5,76.4s-2.2-2.5-0.2-5C47.5,69.9,48.2,67.4,48.7,65.6z"/>
	<path class="st25" d="M24,136.7c-1.1,2.5-1,3.8-1.9,4.8s-0.9,2.1,0.2,2.6c1,0.5,1.4-0.5,2.2-2.9c0.9-2.4,3.6-7.1,5.9-9.5
		c2.2-2.4,9.5-13.1,14.5-20s9.7-15.6,12.6-24c2.8-8.3,5.7-18.8,3-21.2C57.8,64.2,46,81.7,41.2,89.2s-8.9,15.2-11.5,23
		C27.1,120.1,26.4,131,24,136.7z"/>
	<path class="st4" d="M55.1,85.8c-1.3-1,2.9-11.5,2.9-11.5S51.4,86,49.1,84.9c-1.8-0.8,4.3-9.4,4.3-9.4s-7.7,10.7-8.7,10.4
		c-0.7-0.2,1-3.4,2.6-6.1c-2.5,3.5-4.8,7-6.4,9.5c-4.8,7.5-8.9,15.2-11.5,23c-2.5,7.8-3.2,18.7-5.6,24.4c-1.1,2.5-1,3.8-1.9,4.8
		s-0.9,2.1,0.2,2.6c1,0.5,1.4-0.5,2.2-2.9c0.9-2.4,3.6-7.1,5.9-9.5c2.2-2.4,9.5-13.1,14.5-20s9.7-15.6,12.6-24
		c0.9-2.5,1.7-5.2,2.4-7.9C58.1,82.9,55.9,86.4,55.1,85.8z"/>
	<path class="st6" d="M60.3,78c0,0-4,7.1-6.6,16.7s-11,17.8-11,17.8s2.3-5.2,2.8-7.9c-1.4,4.5-3,6.2-4.7,8.8c-1.6,2.6-3.6,6-5.6,12
		c3-4.2,6.7-9.6,9.7-13.6c5-6.9,9.7-15.6,12.6-24C58.5,84.6,59.5,81.2,60.3,78L60.3,78z"/>
	<path class="st6" d="M61.4,143c-2.1,0.1-10.3,5.6-20.3,23.6s-10.5,33.3-10,36s2,5.3,3.1,6s2,0.1,1.3-1.6s-1.3-4.3-0.1-6.3
		s4.8-9,6.4-11.5s9.4-15.3,12.9-21.1s5.3-8.4,6.9-13.5C63.2,149.6,63.6,142.9,61.4,143z"/>
	<path class="st28" d="M41.8,189.3c0.2-0.4,0.6-0.9,1-1.6c-1-1.7-1.6-4.2-1.8-6.6c-3,2.3-5.6,12.2-7.8,19.6
		c2.8-15.2,5.8-20.4,7.6-22.1c-0.1-1.2,0-2.4,0-3.5c-1.6,0.7-4.1,3.5-6,6.1c-3.8,11.2-3.9,19.6-3.6,21.5c0.5,2.8,2,5.3,3.1,6
		s2,0.1,1.3-1.6s-1.3-4.3-0.1-6.3S40.2,191.8,41.8,189.3z"/>
	<path class="st6" d="M67.7,154.6c-1.1-1.2-5.4,3.1-10.9,13.5s-7.3,35-6.6,37.9s6.9-12,10.4-17.8c3.5-5.8,5.3-13,6.4-20
		S68.8,155.9,67.7,154.6z"/>
	<path class="st4" d="M60.9,169.3c1.9-6.6,5.6-11.4,7.2-13.3c-0.1-0.6-0.2-1.1-0.5-1.4c-1.1-1.2-5.4,3.1-10.9,13.5s-7.3,35-6.6,37.9
		c0.5,2.5,5.5-8.7,9-15.3C60.7,181.2,58.7,176.8,60.9,169.3z"/>
	<path class="st6" d="M52.4,137.5c-1.6,0.3-4.6,8.8-5.8,15.5c-1.1,6.8-2.4,29.6-2,34s1.8,20.3,2.5,23.1s2.6,8,2.6,10.1
		s0.3,4-0.9,4.4s-0.1,1.6,1.1,1.4s1.8-1.1,1.9-3.1s0.6-4.4,1-7.4s1-8.5,2.5-13.8s2.4-9.9,2.8-13.4s2.3-13.1,1.1-29.3
		C58.2,143,54.6,137.1,52.4,137.5z"/>
	<path class="st28" d="M59.3,159.1c-1.1-16.1-4.8-22-6.9-21.6c-1.6,0.3-4.6,8.8-5.8,15.5c-1.1,6.8-2.4,29.6-2,34
		c0.3,3.3,1.1,13.1,1.9,19l0,0c1.2,1.7,3.2,5.1,3,2.8c-0.3-2.3,0-13.5,0.5-19.8s1.6-26.7,1.6-26.7c0.1,7.4-0.1,19.9-0.5,35.2
		c-0.3,10.6,1,15.8,1.8,18l0,0c0.4-3,1-8.5,2.5-13.8s2.4-9.9,2.8-13.4S60.4,175.3,59.3,159.1z"/>
	<path class="st29" d="M107.8,297.4c2.2-1.9,5-3,6.3-2.6s0.3,2.1-1.6,2.6s-4.3,1.7-5.6,3.2c-1.3,1.5-1.9,2.2-2.8,2.7
		c-0.9,0.6-1.8-0.2-0.6-1.4C104.5,300.8,106.1,298.8,107.8,297.4z"/>
	<path class="st16" d="M99.9,305.6c-0.8,0.6-1.9,1.5-1.2,1.9c0.6,0.4,1.1,0.1,1.6-0.6c0.5-0.6,1-1,0.7-1.4
		C100.6,305.1,99.9,305.6,99.9,305.6z"/>
	<path class="st29" d="M178.2,296.3c-0.6-0.4-1.7,0.3-0.8,1.2c0.8,0.8,6.3,5.4,8.7,6.8s3,1.9,4,1.8c1.1-0.2,2.9-0.3,2.2-1.2
		s-2.2-1.2-5-2.6C184.5,300.9,179.5,297.2,178.2,296.3z"/>
	<path class="st6" d="M232,216.4c1.6,0.3,2.7-0.4,1.5-1.9s-1.5-2-1.3-4.4c0.2-2.5-0.2-2.6-1.2-2.7c-1.5-0.1-1,1.5-0.9,2.3
		c0.2,1.6,0.5,1.2,0.2,2.9C230,214.4,229.5,215.9,232,216.4z"/>
	<path class="st29" d="M213.1,232.6c-1.2,1.7-2.5,2-3.8,4c-1.2,2-1.2,3.8-0.1,5.2c1.1,1.5,2.5,0.5,2.8-1.7c0.3-2.3,1.3-2.9,2-4.3
		c0.7-1.3,1.2-2.1,0.8-3.2C214.4,231.5,213.8,231.7,213.1,232.6z"/>
	<path class="st30" d="M102.6,261.5c0,0-7.2-3.2-7.2-3.8c0-0.5,3.1-2.1,3.1-2.1l-3.9-2.1c0,0,0,1.6-2,1.6s-4.2-0.9-5.1-2.4
		c-2.1-1.5-8.7-6.8-10.7-8.3s-6.2-4.2-6.2-4.2s-1.1,1.6-1.7,1.6c-0.7,0-1.2,0.1,0,1.2s7.6,5.1,8.7,6c1.1,0.9,0.3,1.7-1.1,1.1
		c-1.3-0.7-6.6-3.9-6.6-3.9s5.1,4.7,7.1,6s14.3,8.6,15.9,9.5c1.6,0.9,4.4,2,4.4,2S100.6,262.2,102.6,261.5z"/>
	<path class="st29" d="M226.5,207.3c-1.2,1.7-8.2,11.7-8.7,15.7s1.1,2.1,1.5,0s2.7-6.6,3.8-8.2c1.1-1.6,3.4-5.4,4-6.6
		C227.7,207,227.5,205.8,226.5,207.3z"/>
	<path class="st29" d="M234,197.2c-0.4,1.3-0.3,2.8,0.7,1.3c0.9-1.5,1.3-2.9,2-4s-0.1-1.7-0.8-0.8
		C235.2,194.7,234.3,196.2,234,197.2z"/>
	<path class="st29" d="M99.8,315.5c-0.3,1.1-1.4,1.7-4.6,1.5c-3.2-0.2-7.1-2.8-8.5-4.5s-1.4-2.1-3.8-2.4c-2.4-0.3-1.8-1.1-1.2-1.6
		s2.2-1.2,4-0.5s2.4,1,4.8,1.2C92.7,309.4,101,311.1,99.8,315.5z"/>
	<path class="st29" d="M198.4,305.8c0.9,0.9,0.6,2.3-1.3,3.3s-3.8,0.7-5.2,2c-1.3,1.2-2.9,2.9-5.1,3.8c-2.4,0.9-5.5,0.6-6-0.1
		c-0.4-0.7-0.2-2.5,1.2-3.5c1.3-0.8,2.6-2.2,4.2-2.7c1.6-0.6,3.3-0.7,5.3-1.4s2.2-2.1,3.5-2.3C196.3,304.6,197.4,304.7,198.4,305.8z
		"/>
	<path class="st29" d="M254.8,153.7c-0.3,1.7-1.9,8.6-2.9,10.8c-1,2.2,0.7,2.5,1.6,0.5c0.8-2.1,2.3-8.6,2.5-10.6
		C256.3,152.5,255.2,151.6,254.8,153.7z"/>
	<path class="st21" d="M252.5,139.2c-0.3,0.1-0.6,0.1-0.5,0.3c0.1,0.7,0.3,3.4,0.5,4.7c0.2,1.1-0.4,2.8,1.1,2.7
		c1.5-0.1,2.2-0.6,2.4-1.4c0.2-0.8-0.6-1.5-1.4-2.9c-0.8-1.5-1.2-2.8-1.5-3.8C253,138.6,252.8,139.1,252.5,139.2z"/>
	<path class="st21" d="M94.1,250.2c0,0-2.6,2.4-5.8,0.4c-0.1,0.8-0.2,3.5,2.4,3.8C93.1,254.7,94.9,253.6,94.1,250.2z"/>
	<g>
		<path class="st31" d="M190.1,257c-0.3,0-0.7-0.1-1.1-0.3c-0.7-0.4-2.3-2.5-2.5-3.4c-0.1-0.4,0.2-0.8,0.6-0.9
			c0.4-0.1,0.8,0.2,0.9,0.5c0.1,0.5,1.4,2.2,1.9,2.4c0.4,0.2,0.5,0.2,1.2-0.6c0.3-0.4,0.7-0.7,1.1-1c0.5-0.3,1-0.3,1.3-0.4
			c0.3,0,0.5,0,0.6-0.1l0,0c0,0,0.1-0.1,0.1-0.2c0.2-0.2,0.4-0.5,0.7-0.7c0.5-0.3,1.1-0.2,1.7-0.2c0.4,0,0.8,0.1,1-0.1
			c0.4-0.2,0.9-0.8,1.4-1.3c0.8-0.9,1.7-1.9,2.8-2.2c0-0.1,0-0.2,0-0.3c0-0.4,0.3-0.8,0.7-0.8c0.4,0,0.8,0.3,0.8,0.7
			c0,0.3,0,0.5-0.1,0.7c0,0.1-0.1,0.2-0.1,0.4c0,0.2-0.1,0.4-0.3,0.6c-0.2,0.1-0.4,0.2-0.6,0.2c-0.6-0.1-1.5,0.9-2.2,1.7
			c-0.6,0.7-1.2,1.3-1.8,1.6c-0.6,0.3-1.2,0.3-1.8,0.2c-0.4,0-0.7-0.1-0.9,0c0,0-0.1,0.1-0.2,0.2c-0.2,0.2-0.4,0.5-0.7,0.7
			c-0.4,0.2-0.8,0.2-1.1,0.3c-0.3,0-0.5,0.1-0.7,0.2c-0.2,0.1-0.5,0.4-0.7,0.7C191.6,256.2,191,257,190.1,257L190.1,257z"/>
	</g>
	<g>
		<path class="st31" d="M205.8,247.7c-0.7,0-1.3-0.3-1.7-0.7c-0.4-0.5-0.4-1.1-0.1-1.8c0.2-0.4,0.6-0.5,1-0.3s0.5,0.6,0.3,1
			c0,0.1-0.1,0.2,0,0.2c0.1,0.1,0.3,0.2,0.6,0.1c0.2,0,0.4-0.2,0.5-0.4c0.1-0.5-0.1-0.7-1-1.4c-0.6-0.4-1.2-0.9-1.4-1.6
			c-0.1-0.3,0-0.6,0.2-0.7c0.2-0.2,0.5-0.3,0.7-0.2c0.7,0.2,1.2,0.6,1.7,1c0.5,0.3,0.9,0.6,1.4,0.8c0.4,0.1,0.7,0,1.3-0.3
			c0.4-0.2,0.9-0.4,1.5-0.5c1.4-0.1,1.5-0.2,1.8-1.3c0-0.2,0.1-0.4,0.1-0.5c0.3-1.4,0.6-2.1,2.7-2.1c0.4,0,0.7,0.4,0.7,0.8
			s-0.3,0.7-0.8,0.7c-1,0-1,0-1.2,0.8c0,0.2-0.1,0.3-0.1,0.5c-0.4,2-1.5,2.3-3.1,2.4c-0.4,0-0.7,0.2-1.1,0.4c-0.6,0.3-1.2,0.6-2,0.4
			c0.1,0.3,0.1,0.6,0,1c-0.2,0.8-0.8,1.3-1.6,1.5C206.1,247.7,205.9,247.7,205.8,247.7L205.8,247.7z"/>
	</g>
	<path class="st21" d="M213.1,212.4c0,0,0.5,2.2,3.9,0.9c-1.2,1.9-2.4,4.2-2.8,5.7C213.9,220.3,213.5,215.9,213.1,212.4z"/>
	<path class="st21" d="M218.3,212l4.4-6.1C222.8,205.9,221,213.2,218.3,212z"/>
	<path class="st11" d="M44.8,229.8c0.5,1.2,2.9,5.2,8.4,9.5c4.5,3.5,9.8,6.3,12,6.8c1.8,0.4,3-0.5,3.6-1.8c0.6-1.4,0-2.7-0.6-3.4
		c-0.7-0.8-3.8-1.8-3.8-1.8s2.4,1.4,3,2.2c0.6,0.7,0.8,1.7,0.4,2.5c-0.5,0.9-1.5,1-2.3,0.9c-2.1-0.3-7.5-3.4-11.2-6
		c-5.3-3.7-7.1-6.9-7.9-7.8c-0.7-0.9-1-1.3-1.1-1.5C45.3,229,44.5,229.1,44.8,229.8z"/>
	<path class="st11" d="M64.1,245.9c0,0,0.2,3.2,4.8,2.5c2.9,2,16.5,11.6,26.8,16.4c0.6-0.2,1.6-0.5,1.6-0.5s-9.6-4.6-16.9-9.5
		s-11-7.5-11-7.5S65.1,248.5,64.1,245.9z"/>
	<path class="st32" d="M33.9,87.5c-1.1,0-2.4,4.4-2.8,5.6c-0.6,2-1.9,3.8-3,5.7c-1.2,2.1-1.8,4.5-2.6,6.8c-0.7,2-1.7,3.8-2,6
		c-1.1-0.3-1.7-2-2.9-2.4c-0.4,1.5,1.1,2.6,1.4,4c0.3,1.5-0.3,3.2-0.6,4.4c-0.6,2.5-1,5.1-1.5,7.6c-0.3,1.7-0.1,3.4-0.4,5.2
		c-0.5,3.1-0.3,6.4-1,9.4c-0.3,1.2-1.3,3.3-1.1,4.6c0.1,0.9,0.7,2.4,1.2,3.2c0.7,1.1,1.4,1.8,2.9,1.8c1.1-1.1,1-2.3,0.1-3.7
		c-1-1.5-1.4-1.9-1.4-3.9c0.1-3.6,0.5-7.6,1-11.2s0.8-7.3,1.4-10.8c0.3-1.4,0.6-3.1,1.2-4.4c0.4-0.9,1.2-1.5,1.4-2.7
		c0.1-0.8,0-1.6,0.1-2.4c0.5-2.7,1.4-5.7,2.5-8.2c0.4-0.8,0.9-1.3,1.2-2.2c0.3-0.8,0.1-1.8,0.5-2.6c0.4-0.9,1.1-1,1.8-1.6
		c1.2-1.1,1.1-1.5,1.3-2.9C33,91.2,32.9,88.5,33.9,87.5"/>
	<path class="st11" d="M37.9,200.1c0,0-3.2,12.1,5.9,23.9c-0.5-3.1-3.2-6-4.5-11.1c-1.7-6.5-0.7-12.4-0.7-12.4L37.9,200.1z"/>
	<path class="st11" d="M44,68.3c0,0-4.6,6-13.7,23.6c3.4-3.3,5.8-9,6.3-9.8c0.5-0.9,3.6-6.5,4.3-7.2c0.7-0.8,1.7-3.5,2.3-4.1
		C43.8,70.2,44,68.3,44,68.3z"/>
	<path class="st11" d="M28.1,96.6c0,0-3.4,7.9-5.6,13.7c0.8-0.7,1.9-1.2,2-2.4c0.1-1.2,1.6-3.1,1.6-4.5c0.1-1.4,1.7-4.2,1.9-4.6
		C28.3,98.3,28.1,96.6,28.1,96.6z"/>
	<path class="st11" d="M20.5,117.1c0,0-2.1,5.8-2.8,20.5c1.4-2.7,1.8-3.9,1.6-7c-0.2-3.2,0-3.8,0.3-6.7s0.6-2.9,1-3.9
		C21.1,119,20.5,117.1,20.5,117.1z"/>
	<path class="st17" d="M232.6,65.6c0,0,1.2,4,5.2,3.9c2.2,2.6,4,6.1,4.2,7.4s-3.6,1.7-2.9,3.1s2.1,2,2.9,2.8
		c0.7,0.7,4.3,1.8,5.5,3.3c1.3,1.5,1.8,2.8,1.7,4.8c-0.1,2,0.1,3.5,0.2,4.6s-0.7,0.6-1.9-0.2c-1.2-0.9-0.7,0.3-2.9-2.3
		c-2.1-2.7-7.1-5.1-8.5-7.6c-1.3-2.4,0.3-4.6,0.3-6.9c0-2-1.5-3.1-2.7-4.1c-1.2-1.1-0.9-2.4-1.2-3.5
		C231.8,67.8,232.6,65.6,232.6,65.6z"/>
	<path class="st24" d="M215.5,66.4c0.1,0.7,0.2,1.2-0.1,2c-0.3,0.8-0.5,1.4-0.6,2.2c-0.2,1.5-1.2,2.5-1.3,3.9
		c-0.1,1.3,1.2,2.6,0.8,3.8c-0.2,0.7-1,0.8-1.6,1c-0.7,0.3-1.4,1-1.7,1.8c-0.3,0.8-0.1,1.8,0.2,2.5c0.3,0.6,0.4,1.4,0.7,2.1
		c0.3,0.7,0.6,1.3,1.2,1.8c0.5,0.5,1.6,0.8,1.9,1.5c0.5,0.8,0,1.7-0.6,2.2c-0.7,0.5-1.4,0.2-2.2,0.6c-1.7,1-0.8,3.3-0.4,4.8
		c0.4,1.4,1.7,2.5,2.7,3.5c0.7,0.8,2,1.1,3,1.6c1,0.4,2.1,1,3.2,1.3c1.3,0.4,2.6,0.7,3.8,1c1,0.2,1.3,0.6,2,1.3
		c1.6,1.3,2.7,3,4.2,4.3c1.3,1,2.5,2,3.7,3.2c0.6,0.6,0.8,1.1,1.1,1.9c0.7,1.9,0.7,4.1,1.9,5.9c0.2,0.3,0.4,0.6,0.5,0.9
		c0.4,0.8,1,1.2,1.5,1.8c0.5,0.6,1,1.4,1.2,2.2c0.7,2.5,2.1,4.4,3.6,6.4c0.8,1.1,1.9,2.1,3,2.8c1.3,0.9,2.3,2.1,3.1,3.4
		c0.4,0.6,0.7,1.5,1.6,1.3c1.9-0.3,2.1-3.9,2.5-5.3c0.7-2.7,0.4-8.1-3.8-6.4c-1.3,0.5-2.8,2.2-4.2,0.6c-1.1-1.3,0.3-4.4,0.7-5.8
		c0.3-1.1,0.5-1.9,1.2-2.9c0.5-0.7,1-1.3,1-2.2c0.1-1.5-0.3-2.9-2.1-2.8c-1.5,0.1-2.6,2.5-4,2c-1.5-0.5-1-2.5-1-3.7
		c0-2.1,0.9-3.9,1.3-6c0.3-1.5,1.1-3.5-0.2-4.7c-0.5-0.4-0.9-0.9-1.5-1.1s-1.4-0.2-1.9-0.5c-1.4-0.9-0.1-2.8,1.1-3.2
		c1.6-0.4,2.7-1.8,3.8-3.1c0.6-0.7,0.6-1.1,0.6-2.1c0-1.5-0.5-3.2-0.1-4.6s1.7-2.5,1.2-4.1c-0.4-1.6-2.3-1.4-3.8-1.4
		c-3.4,0-5,3.4-7.1,5.5c-1,0.9-3.1,1.2-4,0.1c-1.1-1.3,0.2-2.8,1-3.8c0.8-0.9,1.2-1.2,2.1-1.7c2.6-1.6,2-5.4,0.6-7.6
		c-0.3-0.4-0.4-0.4-0.5-0.8c-0.1-0.3-0.1-0.6-0.2-0.9c-0.2-0.6-0.3-1.5-0.7-2.2c-0.6-1.1-2.4-2.5-3.1-0.6c-0.5,1.5-0.4,2.9-1.3,4.3
		c-0.6,0.9-2.4,2.9-3.1,0.9c-0.5-1.5,0.6-3.2,0.4-4.7c-0.2-1.7-1.2-2.2-2.6-2.5c-0.6-0.1-1.3-0.5-1.9-0.9c-1.5-1.2-2.4-2.8-4.4-3.2
		C216.6,63.8,215.3,64.6,215.5,66.4z"/>
	<path class="st8" d="M238.6,96.7c0.4-2.7-2.2-2.5-2.7-1.1s-1,1.4-2,0.8c-1.1-0.5-1.5-2.6-2.2-5.9s-1.5-5.6-3.9-6.5s-6-5.2-6.1-6.9
		c-0.1-1.8,0.8-7.1-1.1-8.2c-1.3-0.7-2.8-3.2-3.7-4.7c-0.9,0.3-1.4,1-1.3,2.2c0.1,0.7,0.2,1.2-0.1,2c-0.3,0.8-0.5,1.4-0.6,2.2
		c-0.2,1.5-1.2,2.5-1.3,3.9c-0.1,1.3,1.2,2.6,0.8,3.8c-0.2,0.7-1,0.8-1.6,1c-0.7,0.3-1.4,1-1.7,1.8c-0.3,0.8-0.1,1.8,0.2,2.5
		c0.3,0.6,0.4,1.4,0.7,2.1c0.3,0.7,0.6,1.3,1.2,1.8c0.5,0.5,1.6,0.8,1.9,1.5c0.5,0.8,0,1.7-0.6,2.2c-0.7,0.5-1.4,0.2-2.2,0.6
		c-1.7,1-0.8,3.3-0.4,4.8c0.4,1.4,1.7,2.5,2.7,3.5c0.7,0.8,2,1.1,3,1.6c1,0.4,2.1,1,3.2,1.3c1.3,0.4,2.6,0.7,3.8,1
		c1,0.2,1.3,0.6,2,1.3c1.6,1.3,2.7,3,4.2,4.3c1.3,1,2.5,2,3.7,3.2c0.6,0.6,0.8,1.1,1.1,1.9c0.2,0.4,0.3,0.9,0.4,1.4
		c0.1-0.1,0.1-0.2,0.2-0.3c1-3.4-0.5-3.1-0.7-4.5c-0.1-1.4-4.4-8-4.4-8s-0.4-1-1.8-1.5s-2.9-1.1-2.9-1.1s1.1-0.4,2.9-0.1
		c-1.5-2.6-3.7-8-4.2-8.9c-0.5-0.8-1.8-0.7-3.1-1.5c-1.4-0.8-2.3-2.6-1.5-2c0.8,0.5,4.4,1.5,4.4,1.5s-0.5-1.4-0.8-2.9
		s-1.2-5.6-1.2-5.6s1.5,1.9,2,3.9s1.4,3.5,1.4,3.5s0.7-2.7,1.9-3.4c1.2-0.7,1.8,0.6,0.8,1.4s-1.5,2.3-2,4.4
		c0.7,3.5,6.7,13.6,6.7,13.6s0.8-2.5,1.5-5.4s1.1-0.7,1.1,0.8s-1.6,6.5-1.6,6.5s2.3,5,2,3.1s0.8-4.8,1.2-6.3
		C238.2,101.7,238.2,99.4,238.6,96.7z"/>
	<path class="st22" d="M239.6,209c0,0,1.4-3.4-1.8-6.9c1.7-2.7,2.4-3.1,3.5-3.7c1.1-0.7,2.7-1.4,2.8-5.6c0.1-4.1,2.7-4.8,4-1
		c1.2,3.8-0.2,6.1-1.3,8.9C245.6,203.5,241.6,207.2,239.6,209z"/>
	<path class="st33" d="M251.8,167c-2-0.2-4.4-0.4-6.2,0.9c-2.3,1.7-0.8,3.6,0.5,5.4c0.7,1.1,0.7,1.6,0.6,2.9c-0.2,1.1-0.5,2-0.8,3
		c-0.4,1.1-0.9,1.7-1.6,2.7c-0.7,0.9-0.8,1.8-1.1,2.8c-0.3,0.9-0.5,2.3-0.1,3.2c0.4,1.3,1.7,2,2.6,2.9c1.1,1.2,3.4,3.6,1,4.8
		c-1,0.5-1.7,0-2.5,1.1c-0.7,0.9-0.6,2-0.4,3.1c0.2,1,0.6,2.4-0.2,3.3c-0.8,0.9-2,0.7-2.6,2c-0.7,1.6,0.2,2.1,0.8,3.4
		c0.7,1.5-0.2,2.5-0.9,3.7c-0.7,1.2-0.9,2.6-1.2,3.9c-0.5,2.2-1.2,3.3-2.4,5c-0.5,0.7-0.8,1.6-1.9,1.5c-0.7-0.1-1.2-1.1-1.8-1.3
		c-1.7-0.7-3.3,1.3-3.1,2.9c1.9,0.8,4.1,1.5,6.1,0.3c0.8-0.5,1.5-1.5,2.4-1.8c1-0.3,2.2,0.3,3.3,0.3c1.3-0.1,2-1,3.2-1.7
		c1.5-1,2.9-1.1,4.7-1.6c1.4-0.4,3.2-0.6,3.8-2c0.4-0.9,0.4-2.2-0.1-3c-0.5-0.9-1.7-1.5-1.5-2.7s1.4-1.6,2.2-2.3
		c1.1-0.8,2-1.9,3.2-2.7c1.7-1.2,2.9-1.5,4-3.4c0.7-1.3,1.3-2.2,2.2-3.3c1-1.1,1.6-2.8,1.4-4.4c-1.1-0.6-2.2,0.1-3.3,0
		c-0.3-1.2,0.7-1.7,1.5-2.4c1.8-1.7,2.8-4,4.3-6c0.9-1.2,1.4-2.5,1.9-3.9c0.7-1.8,1.8-3.3,2.6-5.1c1.1-2.4,1.9-8.5-2.2-8.3
		c-1,0.1,0.2-10.9-4.4-11.2c-1.7-0.1-3.1,1.2-4.3,2.3c-1.5,1.2-2.1,2.9-3.3,4.3C256.4,167.2,253.6,167.1,251.8,167z"/>
	<path class="st34" d="M256.8,195.2c0,0,2.7-11.2-4.1-19.2c-6.8-7.9-5.2-6.7-3.3-7.4c1.9-0.7,2.2-2.5,7,0.7s4.1,4.2,4.1,4.8
		c0,0.5,0.8-1.9,2.1-2.2c1.2-0.3,1.8-2.1,0.4-4.1c-1.4-2.1-1.5-2.3-0.1-1.4c1.4,1,1,2.7,1.4,1c0.4-1.8,1.1-3.6,1.1-4.5
		c0-1,0.7,1.1,0.3,3.3c-0.4,2.2,0.1,3,1.1,1.4s0.8-4.8,1-1.6c0.1,3.1,0.1,4.2,1.8,4.1c1.6-0.1,2.9,0.1,3.7,2.6
		c0.8,2.5-1.8,8.4-3,11.1s-2.9,5.3-4.4,7.3c-1.5,1.9-1.6,3.4-3.6,4.5C260.2,196.6,256.2,200.2,256.8,195.2z"/>
	<path class="st34" d="M248.3,185.9c0,0,7.2,3.1,4.3,17.4c-2.9,14.3,0.7,5.4,1.6,0.4C255,198.6,255.8,188.7,248.3,185.9z"/>
	<path class="st6" d="M261.7,196c-0.3-1.2,0.7-1.7,1.5-2.4c0.4-0.4,0.8-0.8,1.2-1.3c-0.4-0.6-0.3-2.2,1.6-6.6c0,0-3.5,4.6-5.1,3.1
		c0-2.2,1.7-8.1,2.1-9.3c0.4-1.2-1.3,2.1-2.3,4.2s0.1,2.6-1.3,5.7s-2.2,2.6-2.3,4.2c-0.1,1.6-0.3,5.1-1.8,6.3
		c-1.6,1.2-2.6,3.4-3.7,3.9c-1,0.5-1.4,3.9-2.1,5.6s-2.1,4.3-2.9,5.5s-1.4,4-2.7,4.3c-1.3,0.3-2.6,0.9-3.8,2.2
		c-1.2,1.3-1.6,0.5-2.9,2.6c0.5-0.5,1.1-1,1.7-1.2c1-0.3,2.2,0.3,3.3,0.3c1.3-0.1,2-1,3.2-1.7c1.5-1,2.9-1.1,4.7-1.6
		c1.4-0.4,3.2-0.6,3.8-2c0.4-0.9,0.4-2.2-0.1-3c-0.5-0.9-1.7-1.5-1.5-2.7s1.4-1.6,2.2-2.3c1.1-0.8,2-1.9,3.2-2.7
		c1.7-1.2,2.9-1.5,4-3.4c0.7-1.3,1.3-2.2,2.2-3.3c1-1.1,1.6-2.8,1.4-4.4C263.9,195.5,262.9,196.1,261.7,196z"/>
	<path class="st35" d="M233.4,216.8c0.6,0.1,0.7-0.7,0.9-1c0.3-0.8,0.2-1.5-0.1-2.4c-0.1-0.4-0.4-1-0.5-1.5s0.2-1.1,0.7-0.7
		c0.3,0.2,0.2,0.9,0.4,1.2c0.1,0.2,0.3,0.3,0.5,0.5c0.5,0.7,1.2,0.9,1.8,1.4c0.6,0.5-0.9,2.6-1.1,2.8c-0.5,0.5-1.4,2.3-2.5,3.7
		c-0.2,0.3-0.2-0.2-0.6-0.2c-0.5,0-2.1,1.7-2.6,1.3c-0.6-0.5-0.2-1-0.1-1.7c0.1-0.8,0.2-1.9,0.9-2.5c0.5-0.4,0.5-0.6,1.1-0.8
		L233.4,216.8z"/>
	<path class="st35" d="M230.9,221.6c-0.1,0.4-0.7,1.2-0.8,1.8c-0.1,0.6,0,1.1,0.3,1.2s-0.8,1.2-0.8,1.2s-0.9,1.3-2.7,2.8
		c-1.8,1.6-1.6,2.1-2.5,3s-1.6,2-2.3,1.8c-0.7-0.2-1.3-0.3-1.5-0.6c-0.2-0.3-0.9-0.8,0.7-1.8s2.5-1.9,3.6-3c1.2-1.2,2.6-2.4,3.1-2.9
		s1.2-1.1,1.3-1.6c0.2-0.6,0.1-1.8,0.7-2.7C230.6,220.1,231.3,220.5,230.9,221.6z"/>
	<path class="st11" d="M67.6,239.1c0,0,2.6,0.4,4.8,2.4C74.6,243.4,69.3,240.6,67.6,239.1z"/>
	<path class="st30" d="M53.7,217.8c0.3,0.8,0.9,1.7,1.3,2.5c0.9,1.6,1.8,3.1,2.5,4.7c0.4,0.9,0.9,1.9,1.3,2.8c0.4,1,0.9,1.9,1.2,2.9
		c0.4,1.4,1.1,2.7,1.6,4.1c0.5,1.3,0.3,2.8,1.9,3.1c0.7,0.2,2.2,1,2.8,0.7c1-0.5,0-2-0.3-2.6c-0.4-0.8-1-1.5-1.4-2.3
		c-0.6-1.3-1.5-2.4-2.1-3.7c-0.7-1.3-1.5-2.6-2-4c-0.6-1.3-1-2.6-1.7-3.7c-0.8-1.3-1.4-2.8-2-4.2c-0.4-0.9-1-1.7-1.4-2.6
		c-0.2-0.5-0.3-1.8-1-1.9c-0.9-0.2-0.6,1-0.6,1.4C53.7,215.9,53.4,216.8,53.7,217.8z"/>
	<path class="st22" d="M48.7,61.4c0,0,5.2-7.7,12.4-14.9c2.4-1.9,2.2-1.6,1.5-0.7s-4.6,6.5-5.5,7.8s0.1-1.7-1.6,0.9
		c-1.7,2.6-1.7,1-2.7,2.6C51.8,58.6,51.6,60.9,48.7,61.4z"/>
</g>
</svg>
