<?xml version="1.0" encoding="utf-8"?>
<!-- Generator: Adobe Illustrator 22.1.0, SVG Export Plug-In . SVG Version: 6.00 Build 0)  -->
<svg version="1.1" id="Capa_1" xmlns="http://www.w3.org/2000/svg" xmlns:xlink="http://www.w3.org/1999/xlink" x="0px" y="0px"
	 viewBox="0 0 154.3 215.5" style="enable-background:new 0 0 154.3 215.5;" xml:space="preserve">
<style type="text/css">
	.st0{fill:#FFFFFF;}
</style>
<path class="st0" d="M23,154.3c0,0.2,0,0.4-0.1,0.4c-0.1,0.1-0.2,0.1-0.4,0.1h-8.3c-0.1,0-0.2,0-0.2-0.1c0-0.1,0-0.2,0-0.3
	c0-0.6,0-1.1,0.1-1.6c0.1-0.4,0.1-0.8,0.2-1.1c0.1-0.3,0.1-0.5,0.2-0.7c0.1-0.2,0.2-0.4,0.2-0.5c0.2-0.5,0.5-0.9,0.9-1.3
	c0.4-0.4,0.8-0.7,1.2-1.1c0.4-0.4,0.9-0.7,1.3-1c0.4-0.3,0.8-0.7,1.2-1.1c0.4-0.4,0.6-0.7,0.9-1.2c0.2-0.4,0.3-0.9,0.3-1.4
	c0-0.7-0.2-1.2-0.5-1.5c-0.3-0.3-0.8-0.5-1.4-0.5c-0.5,0-0.9,0.1-1.2,0.4c-0.3,0.3-0.5,0.5-0.7,0.8c-0.2,0.3-0.3,0.6-0.4,0.8
	c-0.1,0.3-0.2,0.4-0.4,0.4c-0.1,0-0.2,0-0.3-0.1l-1.5-0.5c-0.2-0.1-0.2-0.2-0.2-0.3c0-0.2,0.1-0.6,0.3-1c0.2-0.4,0.5-0.9,0.8-1.3
	c0.4-0.4,0.9-0.8,1.5-1.1c0.6-0.3,1.4-0.5,2.3-0.5c1.4,0,2.4,0.4,3.2,1.1c0.8,0.7,1.1,1.8,1.1,3.3c0,0.9-0.1,1.6-0.4,2.2
	c-0.3,0.6-0.6,1.1-1,1.6c-0.4,0.5-0.9,0.9-1.4,1.3c-0.5,0.4-1,0.8-1.5,1.2c-0.3,0.3-0.6,0.5-0.8,0.7c-0.2,0.2-0.4,0.4-0.5,0.6
	c-0.1,0.2-0.2,0.4-0.2,0.5c0,0.2-0.1,0.4-0.1,0.6h5.4c0.2,0,0.3,0,0.4,0.1c0,0.1,0.1,0.2,0.1,0.4V154.3z"/>
<path class="st0" d="M35.1,147.1c0,2.6-0.5,4.6-1.4,6c-0.9,1.4-2.3,2-4.1,2c-1.8,0-3.1-0.7-4.1-2.1c-0.9-1.4-1.4-3.4-1.4-6
	c0-2.6,0.4-4.6,1.4-6c0.9-1.4,2.3-2.1,4.1-2.1c1.8,0,3.1,0.7,4.1,2.1C34.6,142.5,35.1,144.5,35.1,147.1 M29.6,152.7
	c0.5,0,0.9-0.2,1.3-0.4c0.3-0.3,0.6-0.7,0.8-1.2c0.2-0.5,0.3-1.1,0.4-1.8c0.1-0.7,0.1-1.4,0.1-2.2c0-0.8,0-1.5-0.1-2.2
	c-0.1-0.7-0.2-1.3-0.4-1.8c-0.2-0.5-0.4-0.9-0.8-1.2c-0.3-0.3-0.8-0.4-1.3-0.4c-0.5,0-0.9,0.1-1.2,0.4c-0.3,0.3-0.6,0.7-0.8,1.2
	c-0.2,0.5-0.3,1.1-0.4,1.8c-0.1,0.7-0.1,1.4-0.1,2.2c0,0.8,0,1.5,0.1,2.2c0.1,0.7,0.2,1.3,0.4,1.8c0.2,0.5,0.5,0.9,0.8,1.2
	C28.7,152.5,29.1,152.7,29.6,152.7"/>
<path class="st0" d="M45.2,154.5c0,0.1,0,0.2,0,0.3c0,0.1-0.1,0.1-0.3,0.1h-7c-0.1,0-0.2,0-0.3-0.1c0-0.1-0.1-0.1-0.1-0.3V153
	c0-0.1,0-0.2,0.1-0.3c0-0.1,0.1-0.1,0.3-0.1h2.3v-9.7l-2.4,1.5c-0.1,0-0.1,0.1-0.2,0.1c-0.1,0-0.1,0.1-0.2,0.1
	c-0.1,0-0.2-0.1-0.3-0.3l-0.6-1c-0.1-0.1-0.1-0.2-0.1-0.3c0-0.1,0.1-0.2,0.3-0.4l4.3-3.1h1.6c0.2,0,0.3,0,0.4,0.1
	c0,0.1,0.1,0.2,0.1,0.4v12.7h1.8c0.1,0,0.2,0,0.3,0.1c0,0.1,0,0.1,0,0.3V154.5z"/>
<path class="st0" d="M55.7,154.7c0,0.2,0,0.3-0.1,0.4c-0.1,0.1-0.2,0.1-0.4,0.1h-2c-0.2,0-0.3,0-0.4-0.1c0,0-0.1-0.2-0.1-0.4v-3
	h-5.6c-0.2,0-0.3,0-0.4,0c-0.1-0.1-0.1-0.2-0.1-0.4v-2.4l5.7-9.5c0.1-0.2,0.2-0.3,0.3-0.3c0.1,0,0.1,0,0.2,0c0,0,0.1,0,0.2,0.1
	l1.4,0.6c0.1,0,0.2,0.1,0.2,0.1c0.1,0.1,0.1,0.1,0.1,0.2c0,0.1,0,0.1-0.1,0.2c0,0.1-0.1,0.1-0.1,0.2l-5.4,9.1h3.5l0.4-3.7
	c0-0.2,0.1-0.3,0.1-0.4c0.1-0.1,0.2-0.1,0.4-0.1h1.6c0.2,0,0.3,0,0.4,0.1c0.1,0,0.1,0.2,0.1,0.4v3.7H57c0.2,0,0.4,0,0.4,0.1
	c0,0.1,0.1,0.2,0.1,0.5v1.3c0,0.2,0,0.3-0.1,0.4c-0.1,0-0.2,0-0.4,0h-1.3V154.7z"/>
<path class="st0" d="M23,174.8c0,0.2,0,0.4-0.1,0.4c-0.1,0.1-0.2,0.1-0.4,0.1h-8.3c-0.1,0-0.2,0-0.2-0.1c0,0,0-0.2,0-0.3
	c0-0.6,0-1.1,0.1-1.6c0.1-0.4,0.1-0.8,0.2-1.1c0.1-0.3,0.1-0.5,0.2-0.7c0.1-0.2,0.2-0.4,0.2-0.5c0.2-0.5,0.5-0.9,0.9-1.3
	c0.4-0.4,0.8-0.7,1.2-1.1c0.4-0.4,0.9-0.7,1.3-1c0.4-0.3,0.8-0.7,1.2-1c0.4-0.4,0.6-0.7,0.9-1.2c0.2-0.4,0.3-0.9,0.3-1.4
	c0-0.7-0.2-1.2-0.5-1.5c-0.3-0.3-0.8-0.5-1.4-0.5c-0.5,0-0.9,0.1-1.2,0.4c-0.3,0.2-0.5,0.5-0.7,0.8c-0.2,0.3-0.3,0.6-0.4,0.8
	c-0.1,0.2-0.2,0.4-0.4,0.4c-0.1,0-0.2,0-0.3-0.1l-1.5-0.6c-0.2-0.1-0.2-0.2-0.2-0.3c0-0.2,0.1-0.6,0.3-1c0.2-0.4,0.5-0.9,0.8-1.3
	c0.4-0.4,0.9-0.8,1.5-1.1c0.6-0.3,1.4-0.5,2.3-0.5c1.4,0,2.4,0.4,3.2,1.1c0.8,0.7,1.1,1.8,1.1,3.2c0,0.9-0.1,1.6-0.4,2.2
	c-0.3,0.6-0.6,1.1-1,1.6c-0.4,0.5-0.9,0.9-1.4,1.2c-0.5,0.4-1,0.8-1.5,1.2c-0.3,0.3-0.6,0.5-0.8,0.7c-0.2,0.2-0.4,0.4-0.5,0.6
	c-0.1,0.2-0.2,0.4-0.2,0.5c0,0.2-0.1,0.4-0.1,0.6h5.4c0.2,0,0.3,0,0.4,0.1c0,0.1,0.1,0.2,0.1,0.4V174.8z"/>
<path class="st0" d="M35.1,167.6c0,2.6-0.5,4.7-1.4,6c-0.9,1.4-2.3,2.1-4.1,2.1c-1.8,0-3.1-0.7-4.1-2.1c-0.9-1.4-1.4-3.4-1.4-6
	c0-2.6,0.4-4.6,1.4-6c0.9-1.4,2.3-2.1,4.1-2.1c1.8,0,3.1,0.7,4.1,2C34.6,163,35.1,165,35.1,167.6 M29.6,173.2c0.5,0,0.9-0.1,1.3-0.4
	c0.3-0.3,0.6-0.7,0.8-1.2c0.2-0.5,0.3-1.1,0.4-1.8c0.1-0.7,0.1-1.4,0.1-2.2c0-0.7,0-1.5-0.1-2.2c-0.1-0.7-0.2-1.3-0.4-1.8
	c-0.2-0.5-0.4-0.9-0.8-1.2c-0.3-0.3-0.8-0.4-1.3-0.4c-0.5,0-0.9,0.2-1.2,0.4c-0.3,0.3-0.6,0.7-0.8,1.2c-0.2,0.5-0.3,1.1-0.4,1.8
	c-0.1,0.7-0.1,1.4-0.1,2.2c0,0.8,0,1.5,0.1,2.2c0.1,0.7,0.2,1.3,0.4,1.8c0.2,0.5,0.5,0.9,0.8,1.2C28.7,173.1,29.1,173.2,29.6,173.2"
	/>
<path class="st0" d="M45.3,174.8c0,0.2,0,0.4-0.1,0.4c-0.1,0.1-0.2,0.1-0.4,0.1h-8.3c-0.1,0-0.2,0-0.2-0.1c0,0-0.1-0.2-0.1-0.3
	c0-0.6,0-1.1,0.1-1.6c0.1-0.4,0.1-0.8,0.2-1.1c0.1-0.3,0.1-0.5,0.2-0.7c0.1-0.2,0.1-0.4,0.2-0.5c0.2-0.5,0.5-0.9,0.9-1.3
	c0.4-0.4,0.8-0.7,1.2-1.1c0.4-0.4,0.9-0.7,1.3-1c0.4-0.3,0.8-0.7,1.2-1c0.4-0.4,0.7-0.7,0.9-1.2c0.2-0.4,0.3-0.9,0.3-1.4
	c0-0.7-0.2-1.2-0.5-1.5c-0.3-0.3-0.8-0.5-1.4-0.5c-0.5,0-0.9,0.1-1.2,0.4c-0.3,0.2-0.5,0.5-0.7,0.8c-0.2,0.3-0.3,0.6-0.4,0.8
	c-0.1,0.2-0.2,0.4-0.4,0.4c-0.1,0-0.1,0-0.2-0.1l-1.5-0.6c-0.2-0.1-0.3-0.2-0.3-0.3c0-0.2,0.1-0.6,0.3-1c0.2-0.4,0.5-0.9,0.8-1.3
	c0.4-0.4,0.9-0.8,1.5-1.1c0.6-0.3,1.4-0.5,2.3-0.5c1.4,0,2.4,0.4,3.2,1.1c0.8,0.7,1.1,1.8,1.1,3.2c0,0.9-0.1,1.6-0.4,2.2
	c-0.3,0.6-0.6,1.1-1,1.6c-0.4,0.5-0.9,0.9-1.4,1.2c-0.5,0.4-1,0.8-1.5,1.2c-0.3,0.3-0.6,0.5-0.8,0.7c-0.2,0.2-0.4,0.4-0.5,0.6
	c-0.1,0.2-0.2,0.4-0.2,0.5c0,0.2-0.1,0.4-0.1,0.6h5.4c0.2,0,0.3,0,0.4,0.1c0,0.1,0.1,0.2,0.1,0.4V174.8z"/>
<path class="st0" d="M57.4,167.6c0,2.6-0.5,4.7-1.4,6c-0.9,1.4-2.3,2.1-4.1,2.1c-1.8,0-3.1-0.7-4.1-2.1c-0.9-1.4-1.4-3.4-1.4-6
	c0-2.6,0.4-4.6,1.4-6c0.9-1.4,2.3-2.1,4.1-2.1c1.8,0,3.1,0.7,4,2C56.9,163,57.4,165,57.4,167.6 M51.9,173.2c0.5,0,0.9-0.1,1.3-0.4
	c0.3-0.3,0.6-0.7,0.8-1.2c0.2-0.5,0.3-1.1,0.4-1.8c0.1-0.7,0.1-1.4,0.1-2.2c0-0.7,0-1.5-0.1-2.2c-0.1-0.7-0.2-1.3-0.4-1.8
	c-0.2-0.5-0.4-0.9-0.8-1.2c-0.3-0.3-0.8-0.4-1.3-0.4c-0.5,0-0.9,0.2-1.3,0.4c-0.3,0.3-0.6,0.7-0.8,1.2c-0.2,0.5-0.3,1.1-0.4,1.8
	c-0.1,0.7-0.1,1.4-0.1,2.2c0,0.8,0,1.5,0.1,2.2c0.1,0.7,0.2,1.3,0.4,1.8c0.2,0.5,0.4,0.9,0.8,1.2C51,173.1,51.4,173.2,51.9,173.2"/>
<path class="st0" d="M74.6,174.2c0,1-0.2,1.1-1.1,1.1H60c-0.9,0-1.1-0.1-1.1-1.1v-2.8c0-1,0.2-1.1,1.1-1.1h2.7v-25.7H60
	c-0.9,0-1.1-0.1-1.1-1.1v-2.8c0-0.9,0.2-1.1,1.1-1.1h12.5c4.3,0,12.5,0,12.5,9.8c0,8.6-6.6,11.6-12.2,11.6H70v9.3h3.5
	c0.9,0,1.1,0.2,1.1,1.1V174.2 M71.6,155.5c3.2,0,6.2-0.5,6.2-5.8c0-4.5-2.8-4.7-5.6-4.7H70v10.5H71.6z"/>
<path class="st0" d="M99.3,176.5c-8.3,0-13.3-6.1-13.3-18.7c0-12.7,5.1-18.7,13.3-18.7c8.2,0,13.3,6.1,13.3,18.7
	C112.6,170.4,107.5,176.5,99.3,176.5 M105,157.8c0-8.2-1.7-13.3-5.7-13.3c-4,0-5.7,5.2-5.7,13.3c0,8.1,1.7,13.2,5.7,13.2
	C103.3,171,105,165.9,105,157.8"/>
<path class="st0" d="M142.7,174.2c0,1-0.2,1.1-1.1,1.1h-6.9c-0.8,0-0.8-0.1-1.2-0.7l-7.2-14h-2.6v9.7h2.5c0.9,0,1.1,0.2,1.1,1.1v2.8
	c0,1-0.2,1.1-1.1,1.1h-12.5c-0.9,0-1.1-0.1-1.1-1.1v-2.8c0-1,0.2-1.1,1.1-1.1h2.7v-25.7h-2.7c-0.9,0-1.1-0.1-1.1-1.1v-2.8
	c0-0.9,0.2-1.1,1.1-1.1h12.5c4.1,0,12.5,0.3,12.5,10.1c0,6.7-4.1,8.7-6.1,9.6l6.5,11h2.5c0.9,0,1.1,0.2,1.1,1.1V174.2 M125.1,155.1
	c3.5,0,6.4-0.5,6.4-5.3c0-4.5-3.1-4.7-5.8-4.7h-2v10H125.1z"/>
<rect x="13.4" y="133.4" class="st0" width="129.3" height="1"/>
<path class="st0" d="M15.4,190.2c0,0.3-0.1,0.3-0.3,0.3h-1.3c-0.2,0-0.3,0-0.3-0.3v-8.9c0-0.3,0.1-0.3,0.3-0.3h2.3
	c1.1,0,3.2,0,3.2,2.6c0,2.3-1.7,3.1-3.1,3.1h-0.7V190.2 M15.8,185.2c0.8,0,1.6-0.1,1.6-1.5c0-1.2-0.7-1.2-1.4-1.2h-0.5v2.8H15.8z"/>
<path class="st0" d="M21.8,190.2c0,0.3-0.1,0.3-0.3,0.3h-1.3c-0.2,0-0.3,0-0.3-0.3v-8.9c0-0.3,0-0.3,0.3-0.3h2.2
	c1.1,0,3.2,0.1,3.2,2.7c0,1.8-1.1,2.3-1.6,2.6l2.1,3.6c0,0.1,0.1,0.2,0.1,0.3c0,0.1-0.1,0.1-0.3,0.2l-1.2,0.3
	c-0.1,0-0.1,0.1-0.2,0.1c-0.1,0-0.2-0.2-0.3-0.4l-1.9-3.7h-0.7V190.2 M22.1,185.1c0.9,0,1.7-0.1,1.7-1.4c0-1.2-0.8-1.2-1.5-1.2h-0.5
	v2.6H22.1z"/>
<path class="st0" d="M29.8,190.7c-2.1,0-3.4-1.6-3.4-5c0-3.4,1.3-5,3.4-5c2.1,0,3.4,1.6,3.4,5C33.2,189.1,31.9,190.7,29.8,190.7
	 M31.2,185.7c0-2.2-0.4-3.5-1.5-3.5c-1,0-1.5,1.4-1.5,3.5c0,2.1,0.4,3.5,1.5,3.5C30.8,189.2,31.2,187.9,31.2,185.7"/>
<path class="st0" d="M40.4,189.6c0,0.6-1.6,1.1-2.7,1.1c-2.4,0-3.7-1.6-3.7-4.9c0-3.3,1.3-5,3.7-5c1.2,0,2.6,0.6,2.6,0.8
	c0,0.1,0,0.1-0.1,0.2l-0.5,0.9c-0.1,0.1-0.1,0.2-0.2,0.2c-0.1,0-0.8-0.6-1.8-0.6c-1.4,0-1.9,1.3-1.9,3.4c0,2.2,0.4,3.5,1.8,3.5
	c0.5,0,0.9-0.2,1-0.2v-2h-1c-0.2,0-0.3-0.1-0.3-0.3v-0.9c0-0.3,0.1-0.3,0.3-0.3h2.4c0.2,0,0.3,0.1,0.3,0.3V189.6"/>
<path class="st0" d="M43.3,190.2c0,0.3-0.1,0.3-0.3,0.3h-1.3c-0.2,0-0.3,0-0.3-0.3v-8.9c0-0.3,0.1-0.3,0.3-0.3H44
	c1.1,0,3.2,0.1,3.2,2.7c0,1.8-1.1,2.3-1.6,2.6l2,3.6c0,0.1,0.1,0.2,0.1,0.3c0,0.1-0.1,0.1-0.3,0.2l-1.2,0.3c-0.1,0-0.1,0.1-0.2,0.1
	c-0.1,0-0.2-0.2-0.3-0.4l-1.9-3.7h-0.7V190.2 M43.7,185.1c0.9,0,1.7-0.1,1.7-1.4c0-1.2-0.8-1.2-1.5-1.2h-0.5v2.6H43.7z"/>
<path class="st0" d="M50,190.2c-0.1,0.3-0.1,0.3-0.3,0.3h-1.4c-0.2,0-0.3,0-0.3-0.1c0-0.1,0-0.2,0.1-0.2l2.7-8.9
	c0-0.2,0.1-0.2,0.3-0.2h1.4c0.2,0,0.2,0.1,0.3,0.2l2.7,8.9c0,0.1,0.1,0.2,0.1,0.2c0,0.1-0.1,0.1-0.3,0.1h-1.6c-0.1,0-0.2,0-0.2-0.3
	l-0.6-2.3h-2.4L50,190.2 M52,184.3c-0.1-0.6-0.2-1.3-0.3-1.9h0c0,0.6-0.2,1.4-0.3,1.9l-0.6,2.4h1.8L52,184.3z"/>
<path class="st0" d="M64.1,190.2c0,0.3-0.1,0.3-0.3,0.3h-1.2c-0.2,0-0.3,0-0.3-0.3l-0.1-4.7c0-0.5,0-1.7,0-2.2h0
	c-0.1,0.5-0.3,1.6-0.5,2.1l-0.8,2.7c-0.1,0.2-0.1,0.2-0.3,0.2h-0.8c-0.2,0-0.2-0.1-0.3-0.2l-0.8-2.7c-0.2-0.5-0.4-1.7-0.5-2.1h0
	c0,0.5,0,1.7,0,2.2l-0.1,4.7c0,0.3,0,0.3-0.3,0.3h-1c-0.2,0-0.3,0-0.3-0.3l0.4-8.9c0-0.3,0-0.3,0.3-0.3h1.3c0.2,0,0.2,0,0.3,0.2
	l1.1,3.5c0.2,0.5,0.3,1.1,0.4,1.7h0c0.1-0.5,0.1-0.7,0.4-1.7l1.2-3.5c0.1-0.2,0.1-0.2,0.3-0.2h1.3c0.2,0,0.3,0.1,0.3,0.4L64.1,190.2
	"/>
<path class="st0" d="M73,190.2c0,0.3-0.1,0.3-0.3,0.3h-1.2c-0.2,0-0.3,0-0.3-0.3l-0.1-4.7c0-0.5-0.1-1.7-0.1-2.2h0
	c-0.1,0.5-0.3,1.6-0.5,2.1l-0.8,2.7c-0.1,0.2-0.1,0.2-0.3,0.2h-0.8c-0.2,0-0.2-0.1-0.3-0.2l-0.8-2.7c-0.1-0.5-0.4-1.7-0.5-2.1h0
	c0,0.5,0,1.7,0,2.2l-0.1,4.7c0,0.3-0.1,0.3-0.3,0.3h-1c-0.2,0-0.3,0-0.3-0.3l0.4-8.9c0-0.3,0.1-0.3,0.3-0.3h1.3c0.2,0,0.2,0,0.3,0.2
	l1.1,3.5c0.2,0.5,0.3,1.1,0.4,1.7h0c0.1-0.5,0.1-0.7,0.4-1.7l1.2-3.5c0.1-0.2,0.1-0.2,0.3-0.2h1.3c0.2,0,0.3,0.1,0.3,0.4L73,190.2"
	/>
<path class="st0" d="M75.7,190.2c0,0.3-0.1,0.3-0.3,0.3H74c-0.2,0-0.3,0-0.3-0.1c0-0.1,0-0.2,0-0.2l2.7-8.9c0.1-0.2,0.1-0.2,0.3-0.2
	h1.4c0.2,0,0.2,0.1,0.3,0.2l2.7,8.9c0,0.1,0.1,0.2,0.1,0.2c0,0.1-0.1,0.1-0.3,0.1h-1.5c-0.1,0-0.2,0-0.2-0.3l-0.6-2.3h-2.4
	L75.7,190.2 M77.7,184.3c-0.1-0.6-0.2-1.3-0.3-1.9h0c0,0.6-0.2,1.4-0.3,1.9l-0.6,2.4h1.8L77.7,184.3z"/>
<path class="st0" d="M88.2,190.7c-2.1,0-3.4-1.6-3.4-5c0-3.4,1.3-5,3.4-5c2.1,0,3.4,1.6,3.4,5C91.6,189.1,90.3,190.7,88.2,190.7
	 M89.7,185.7c0-2.2-0.4-3.5-1.5-3.5c-1,0-1.5,1.4-1.5,3.5c0,2.1,0.5,3.5,1.5,3.5C89.2,189.2,89.7,187.9,89.7,185.7"/>
<path class="st0" d="M94.4,190.2c0,0.3-0.1,0.3-0.3,0.3h-1.3c-0.2,0-0.3,0-0.3-0.3v-8.9c0-0.3,0.1-0.3,0.3-0.3H95
	c1.1,0,3.2,0,3.2,2.6c0,2.3-1.7,3.1-3.1,3.1h-0.7V190.2 M94.8,185.2c0.8,0,1.6-0.1,1.6-1.5c0-1.2-0.7-1.2-1.4-1.2h-0.5v2.8H94.8z"/>
<path class="st0" d="M104.2,190.2c0,0.3,0,0.3-0.3,0.3h-4.6c-0.2,0-0.3,0-0.3-0.3v-8.9c0-0.3,0-0.3,0.3-0.3h4.5c0.3,0,0.3,0,0.3,0.1
	c0,0.1,0,0.1,0,0.2l-0.3,0.9c-0.1,0.2-0.2,0.2-0.3,0.2H101v2.3h2.3c0.2,0,0.3,0.1,0.3,0.3v0.9c0,0.3-0.1,0.3-0.3,0.3H101v2.7h2.9
	c0.2,0,0.3,0,0.3,0.3V190.2"/>
<path class="st0" d="M106.8,190.2c0,0.3-0.1,0.3-0.3,0.3h-1.3c-0.2,0-0.3,0-0.3-0.3v-8.9c0-0.3,0-0.3,0.3-0.3h2.2
	c1,0,3.2,0.1,3.2,2.7c0,1.8-1.1,2.3-1.6,2.6l2.1,3.6c0,0.1,0.1,0.2,0.1,0.3c0,0.1-0.2,0.1-0.3,0.2l-1.2,0.3c-0.1,0-0.1,0.1-0.2,0.1
	c-0.1,0-0.2-0.2-0.3-0.4l-1.8-3.7h-0.7V190.2 M107.2,185.1c0.9,0,1.7-0.1,1.7-1.4c0-1.2-0.8-1.2-1.5-1.2h-0.5v2.6H107.2z"/>
<path class="st0" d="M113.5,190.2c-0.1,0.3-0.1,0.3-0.3,0.3h-1.4c-0.2,0-0.3,0-0.3-0.1c0-0.1,0.1-0.2,0.1-0.2l2.7-8.9
	c0.1-0.2,0.1-0.2,0.3-0.2h1.4c0.2,0,0.2,0.1,0.3,0.2l2.7,8.9c0,0.1,0,0.2,0,0.2c0,0.1-0.1,0.1-0.3,0.1h-1.5c-0.2,0-0.2,0-0.3-0.3
	l-0.6-2.3h-2.4L113.5,190.2 M115.5,184.3c-0.1-0.6-0.2-1.3-0.3-1.9h0c-0.1,0.6-0.2,1.4-0.3,1.9l-0.6,2.4h1.8L115.5,184.3z"/>
<path class="st0" d="M121.8,190.2c0,0.3-0.1,0.3-0.3,0.3h-1.3c-0.2,0-0.3,0-0.3-0.3v-7.5h-1.8c-0.2,0-0.2-0.1-0.2-0.2v-1.2
	c0-0.2,0-0.2,0.2-0.2h5.7c0.3,0,0.3,0,0.3,0.1c0,0.1,0,0.1,0,0.2l-0.3,1.1c0,0.2-0.2,0.2-0.3,0.2h-1.7V190.2"/>
<path class="st0" d="M128.5,190.2c0,0.3-0.1,0.3-0.3,0.3h-3.4c-0.2,0-0.3,0-0.3-0.3v-0.7c0-0.2,0.1-0.3,0.3-0.3h0.8v-6.8h-0.8
	c-0.2,0-0.3-0.1-0.3-0.3v-0.8c0-0.3,0.1-0.3,0.3-0.3h3.4c0.2,0,0.3,0,0.3,0.3v0.8c0,0.2-0.1,0.3-0.3,0.3h-0.8v6.8h0.8
	c0.2,0,0.3,0.1,0.3,0.3V190.2"/>
<path class="st0" d="M133.7,190.3c0,0.2-0.1,0.2-0.3,0.2h-1.6c-0.2,0-0.3,0-0.3-0.2l-2.4-8.8c0-0.1-0.1-0.2-0.1-0.3
	c0-0.1,0.2-0.1,0.3-0.2l1.4-0.2c0.1,0,0.1,0,0.2,0c0.1,0,0.1,0,0.2,0.3l1.2,5.6c0.1,0.4,0.3,1.4,0.3,2.1h0c0.1-0.6,0.3-1.6,0.4-2.1
	l1.3-5.6c0.1-0.3,0.1-0.3,0.2-0.3c0.1,0,0.1,0,0.2,0l1.2,0.2c0.1,0,0.3,0.1,0.3,0.1c0,0.1,0,0.2-0.1,0.3L133.7,190.3"/>
<path class="st0" d="M139.4,190.7c-2.1,0-3.4-1.6-3.4-5c0-3.4,1.3-5,3.4-5c2.1,0,3.4,1.6,3.4,5C142.9,189.1,141.6,190.7,139.4,190.7
	 M140.9,185.7c0-2.2-0.4-3.5-1.5-3.5c-1,0-1.5,1.4-1.5,3.5c0,2.1,0.4,3.5,1.5,3.5C140.5,189.2,140.9,187.9,140.9,185.7"/>
<path class="st0" d="M15.4,204.4c0,0.2-0.1,0.3-0.3,0.3h-1.3c-0.2,0-0.3,0-0.3-0.3v-8.9c0-0.2,0.1-0.3,0.3-0.3h2.2
	c1.1,0,3.2,0.1,3.2,2.7c0,1.8-1.1,2.3-1.6,2.6l2.1,3.7c0,0.1,0.1,0.2,0.1,0.3c0,0.1-0.1,0.1-0.3,0.2l-1.2,0.3c-0.1,0-0.2,0-0.2,0
	c-0.1,0-0.2-0.2-0.3-0.4l-1.9-3.7h-0.7V204.4 M15.8,199.3c0.9,0,1.7-0.1,1.7-1.4c0-1.2-0.8-1.3-1.5-1.3h-0.5v2.7H15.8z"/>
<path class="st0" d="M26,204.4c0,0.2,0,0.3-0.3,0.3h-4.5c-0.2,0-0.3,0-0.3-0.3v-8.9c0-0.2,0.1-0.3,0.3-0.3h4.5c0.3,0,0.3,0,0.3,0.2
	c0,0.1,0,0.1,0,0.2l-0.3,0.9c0,0.2-0.2,0.2-0.3,0.2h-2.7v2.3h2.3c0.3,0,0.3,0,0.3,0.3v0.9c0,0.2,0,0.3-0.3,0.3h-2.3v2.7h2.9
	c0.2,0,0.3,0.1,0.3,0.3V204.4"/>
<path class="st0" d="M33.4,203.8c0,0.6-1.6,1.1-2.7,1.1c-2.4,0-3.7-1.6-3.7-4.9c0-3.3,1.2-5,3.7-5c1.2,0,2.6,0.6,2.6,0.9
	c0,0,0,0.1-0.1,0.2l-0.5,0.9c0,0.1-0.1,0.1-0.2,0.1c-0.1,0-0.9-0.6-1.8-0.6c-1.4,0-1.9,1.3-1.9,3.4c0,2.1,0.4,3.5,1.9,3.5
	c0.5,0,0.9-0.2,1-0.2v-2h-1c-0.2,0-0.3,0-0.3-0.3V200c0-0.3,0.1-0.3,0.3-0.3h2.4c0.2,0,0.3,0,0.3,0.3V203.8"/>
<path class="st0" d="M38.4,204.4c0,0.2-0.1,0.3-0.3,0.3h-3.4c-0.2,0-0.3,0-0.3-0.3v-0.7c0-0.3,0.1-0.3,0.3-0.3h0.8v-6.8h-0.8
	c-0.2,0-0.3-0.1-0.3-0.3v-0.8c0-0.2,0.1-0.3,0.3-0.3h3.4c0.2,0,0.3,0.1,0.3,0.3v0.8c0,0.3-0.1,0.3-0.3,0.3h-0.8v6.8h0.8
	c0.2,0,0.3,0.1,0.3,0.3V204.4"/>
<path class="st0" d="M42.8,204.9c-2.1,0-3.4-1.6-3.4-5c0-3.4,1.3-5,3.4-5c2.1,0,3.4,1.6,3.4,5C46.2,203.3,44.9,204.9,42.8,204.9
	 M44.3,199.9c0-2.1-0.4-3.5-1.5-3.5c-1,0-1.5,1.4-1.5,3.5c0,2.2,0.5,3.5,1.5,3.5C43.8,203.4,44.3,202.1,44.3,199.9"/>
<path class="st0" d="M54.1,204.4c0,0.2,0,0.3-0.3,0.3h-0.9c-0.2,0-0.2,0-0.3-0.2l-2.5-4.7c-0.4-0.7-0.7-1.2-0.8-1.9h0
	c0,0.2,0,0.9,0,1.5v5c0,0.2-0.1,0.3-0.3,0.3h-1c-0.2,0-0.3,0-0.3-0.3v-8.9c0-0.2,0-0.3,0.3-0.3h1.1c0.2,0,0.3,0,0.3,0.2l2.3,4.3
	c0.4,0.7,0.6,1.4,0.8,2h0c0-0.4,0-1.4,0-1.8v-4.4c0-0.2,0.1-0.3,0.3-0.3h1c0.2,0,0.3,0.1,0.3,0.3V204.4"/>
<path class="st0" d="M61.2,204.4c0,0.2,0,0.3-0.3,0.3h-4.5c-0.2,0-0.3,0-0.3-0.3v-8.9c0-0.2,0-0.3,0.3-0.3h4.5c0.3,0,0.3,0,0.3,0.2
	c0,0.1,0,0.1,0,0.2l-0.3,0.9c0,0.2-0.2,0.2-0.3,0.2h-2.7v2.3h2.3c0.3,0,0.3,0,0.3,0.3v0.9c0,0.2-0.1,0.3-0.3,0.3h-2.3v2.7h3
	c0.2,0,0.3,0.1,0.3,0.3V204.4"/>
<path class="st0" d="M71.5,204.4c-0.1,0.2-0.1,0.3-0.3,0.3h-4.5c-0.2,0-0.3,0-0.3-0.3v-8.9c0-0.2,0.1-0.3,0.3-0.3h1.3
	c0.2,0,0.3,0.1,0.3,0.3v7.5h3.3c0.2,0,0.2,0.1,0.2,0.2c0,0,0,0.1,0,0.2L71.5,204.4"/>
<path class="st0" d="M74.3,204.4c0,0.2-0.1,0.3-0.3,0.3h-1.4c-0.2,0-0.3,0-0.3-0.1c0-0.1,0-0.2,0.1-0.2l2.7-8.9
	c0-0.2,0.1-0.2,0.3-0.2h1.4c0.2,0,0.2,0.1,0.3,0.2l2.7,8.9c0,0.1,0,0.1,0,0.2c0,0.1-0.1,0.1-0.3,0.1h-1.5c-0.1,0-0.2,0-0.2-0.3
	l-0.6-2.3h-2.4L74.3,204.4 M76.4,198.5c-0.1-0.5-0.2-1.3-0.3-1.9h0c-0.1,0.6-0.2,1.4-0.3,1.9l-0.6,2.4h1.8L76.4,198.5z"/>
<path class="st0" d="M86.5,204.4c-0.1,0.2-0.1,0.3-0.3,0.3h-5.5c-0.2,0-0.2,0-0.2-0.2v-1.2l3.7-6.4h-3.4c-0.1,0-0.2-0.1-0.2-0.1
	c0-0.1,0-0.1,0-0.2l0.3-1.1c0.1-0.2,0.1-0.3,0.3-0.3h4.7c0.3,0,0.3,0.1,0.3,0.3v1.2l-3.7,6.3h4c0.1,0.1,0.2,0.1,0.2,0.2
	c0,0,0,0.1,0,0.1L86.5,204.4"/>
<path class="st0" d="M91.1,204.4c0,0.2-0.1,0.3-0.3,0.3h-3.4c-0.2,0-0.3,0-0.3-0.3v-0.7c0-0.3,0-0.3,0.3-0.3h0.8v-6.8h-0.8
	c-0.2,0-0.3-0.1-0.3-0.3v-0.8c0-0.2,0-0.3,0.3-0.3h3.4c0.2,0,0.3,0.1,0.3,0.3v0.8c0,0.3-0.1,0.3-0.3,0.3h-0.8v6.8h0.8
	c0.2,0,0.3,0.1,0.3,0.3V204.4"/>
<path class="st0" d="M95.5,204.9c-2.1,0-3.4-1.6-3.4-5c0-3.4,1.3-5,3.4-5c2.1,0,3.4,1.6,3.4,5C98.9,203.3,97.6,204.9,95.5,204.9
	 M97,199.9c0-2.1-0.4-3.5-1.5-3.5c-1,0-1.5,1.4-1.5,3.5c0,2.2,0.4,3.5,1.5,3.5C96.5,203.4,97,202.1,97,199.9"/>
<polygon class="st0" points="93,5.4 81.3,22.7 63.4,19.7 80.7,33 80.7,53 90.1,39.8 110.6,41.4 95.3,31.3 108,17.5 93.4,22.3 "/>
<path class="st0" d="M115,55.6c0,0-0.1-0.1-0.3-0.2L115,55.6z"/>
<path class="st0" d="M113,55.1L113,55.1C113,55.1,113,55.1,113,55.1"/>
<path class="st0" d="M113,55.1L113,55.1C113,55.1,113,55.1,113,55.1C113,55.1,113,55.1,113,55.1"/>
<path class="st0" d="M114.7,55.4l-0.2-0.1C114.6,55.3,114.6,55.4,114.7,55.4"/>
<path class="st0" d="M130.2,65.4L130.2,65.4C130.2,65.4,130.2,65.4,130.2,65.4L130.2,65.4z"/>
<path class="st0" d="M130.6,65.5C130.6,65.6,130.6,65.6,130.6,65.5C130.6,65.6,130.6,65.6,130.6,65.5"/>
<path class="st0" d="M114.7,68.9c0,0,0-0.1-0.1-0.1c0,0,0,0,0,0C114.6,68.9,114.6,68.9,114.7,68.9"/>
<path class="st0" d="M114.8,69.1C114.8,69.1,114.8,69.1,114.8,69.1c0,0,0,0.1,0,0.1l0.1,0.2C115,69.5,114.9,69.3,114.8,69.1"/>
<path class="st0" d="M44.1,69.9C44.1,69.9,44.2,69.8,44.1,69.9c0.1,0,0.1-0.1,0.1,0C44.2,69.8,44.2,69.8,44.1,69.9
	C44.2,69.8,44.1,69.9,44.1,69.9"/>
<path class="st0" d="M115,68.3C115.1,68.3,115.1,68.3,115,68.3C115.1,68.3,115.1,68.2,115,68.3C115,68.2,115,68.2,115,68.3"/>
<path class="st0" d="M114.1,71.6l0.4,0.1l-0.2-0.3C114.3,71.5,114.2,71.5,114.1,71.6"/>
<path class="st0" d="M114.9,67.7c0,0,0-0.1-0.1-0.1C114.9,67.7,114.9,67.7,114.9,67.7L114.9,67.7C115,67.8,115,67.8,114.9,67.7
	c0.3,0.4,0-0.2,0.4,0.4c0-0.1,0.1-0.2-0.2-0.7C115,67.6,114.4,67.5,114.9,67.7"/>
<path class="st0" d="M18.1,101.3c-0.2,0.2-0.3,0.4-0.3,0.6C17.9,101.8,18.1,101.6,18.1,101.3"/>
<path class="st0" d="M15.8,95.8c-0.5,1.4-0.7,2.4-1.2,3.6c-0.2,1.1-0.3,2.2-0.5,3.4c-0.1,0.3-0.3,0.5-0.5,0.7l1-0.8
	c0.5-0.4-0.2-1.6,0-2.4c0-0.2,0.8,0.3,0.8,0c0.1-0.7,0-1.4,0.3-1.9c-0.1-0.3,1.1-0.2,1-0.6C16.6,97,16.2,94.9,15.8,95.8"/>
<path class="st0" d="M48.9,72.8c-0.1,0.1,0-0.9-0.1-0.7c-0.3,0.3-0.5,0.7-0.8,0.7c-0.1,0.2-0.3-0.9-0.4-0.7c-0.3,0.3-1,1.5-0.6,1.5
	c0.6-0.1,1.1-0.4,1.6-0.5L50,72c0.1,0,0.3,0,0.4,0.1l-0.5-0.5C49.6,71.4,49.3,72.6,48.9,72.8"/>
<path class="st0" d="M47.7,71.2l0.2-0.1c-0.1-0.5-0.5-1.1-0.5-1.1c-0.8,0-1.5-0.1-2.3-0.2c-0.1,0.2-0.1,0.4-0.2,0.3
	c-0.1-0.2-0.1-0.3-0.2-0.4l-0.3-0.1l-0.1,0.1l0-0.1l-0.7-0.2l-0.1,0.1c-0.2,0.1-0.4,0.2-0.5-0.2l-0.1,0l0,0.1l0-0.1l-0.5-0.1
	l-1.1-0.3c-2-0.5-3.9-0.6-5.9-0.8c1.1-1.7,2.4-3.4,3.6-4.9c3.6-4.4,5.6-9.4,11.3-10.5c2-0.4,4.9-2.6,6.7-3.3
	c1.8-2.6-0.9-5.9-1.2-6.1c-3-2.4-3.7-0.3-8.2,0c2.9-0.3-0.5,2.8-4,2.6c-5.7-0.4-7.5,6.4-10.6,9.8c-0.8,0.9-1.3,2.1-2,3.2
	c-1.8,2.3-3.1,4.7-4.2,7.3c-1.2-0.1-2.5-0.4-3.8-1.6c-1-0.8-2.7-0.4-3.7-0.2c-1.2,1.6-0.6,5.8-0.5,6c0.8,3.5,1.4,1.6,3,3.6
	c-1.1-1.2,0.8-2.3,1.8,0.1c-0.4,1-0.9,2-1.4,3c-0.8,1.7-0.6,3.6-0.8,5.2c-0.3,1.1-1.3,2-1.6,2.9c-0.6,1.3-0.8,2.6-1,3.9
	c0.4-1.3,0.6-2.3,1.1-3.7c0.4-0.9,0.8,1.2,0.8,1.9c0.1,0.4-1.1,0.3-1,0.7c-0.3,0.5-0.1,1.2-0.2,1.9c0.1,0.3-0.8-0.1-0.7,0.1
	c-0.2,0.9,0.6,2.1,0.1,2.5l-0.9,0.9l-0.4,0.6v0.5c0,1.3-0.2,2.8-0.3,4.1l0.1,0l-0.1,0.4c0.5,0,1.5-0.7,1.5-0.7
	c0.8-1.7,1.6-3.3,2.5-4.8c-0.1-0.2-0.3-0.4-0.1-0.5l0.5-0.2l0.4-0.7l0-0.3l0,0.2l0.9-1.5l0.1-0.4c0.1-0.4,0.1-0.9,0.7-0.9l0.2-0.3
	l-0.1,0l0.1-0.1l0.7-1.1l1.3-2.3c1.9-3.2,3.4-6.3,5.1-9.5c2.7,0.9,5.1-0.6,7.9-0.3c0.8,0,1.4-0.9,2.1-1.4c0.5-0.2,1,0.3,1.4,0.3
	c0.6,0,1.1-0.4,1.6-0.8c-0.5,0.2-1,0.4-1.6,0.6c-0.4,0.1,0.3-1.2,0.6-1.5c0.1-0.2,0.3,0.8,0.4,0.6c0.3,0,0.5-0.4,0.8-0.7
	c0.1-0.2,0.1,0.8,0.1,0.6c0.4-0.2,0.7-1.4,0.9-1.2l0.5,0.5c0.1,0.1,0.2,0.1,0.3,0.1l0.2-0.2C46.6,72.1,47.2,71.6,47.7,71.2
	L47.7,71.2z M44.2,69.8C44.2,69.8,44.1,69.9,44.2,69.8C44.1,69.9,44.2,69.8,44.2,69.8C44.2,69.8,44.2,69.8,44.2,69.8
	C44.2,69.8,44.2,69.8,44.2,69.8"/>
<path class="st0" d="M86.9,87l0.5,0.5l0-0.5C87.4,86.8,87.2,86.9,86.9,87"/>
<polygon class="st0" points="88.1,88.1 88.2,88.1 88,88 "/>
<path class="st0" d="M88.6,88.2c0.1,0.2,0.3,0.3,0.5,0.4C89,88.4,88.8,88.3,88.6,88.2"/>
<path class="st0" d="M88.2,88.1L88.2,88.1l0.4,0.1l-0.1-0.4C88.4,88,88.4,88.1,88.2,88.1"/>
<path class="st0" d="M92.1,86.1c0.3-0.1,0,1,0.3,0.9c0.6,0,2.1-0.8,1.5-1c-1-0.2-1.6-0.4-2.5-0.7c-0.8-0.2-1.8-0.2-2.6-0.6
	c-0.2-0.1-0.3-0.4-0.4-0.6l0.3,1c0.1,0.6,1.4-0.1,2,0.2c0.1,0-0.4,0.7-0.2,0.7C91.2,86.1,91.8,85.9,92.1,86.1"/>
<path class="st0" d="M85.2,83.8c0.1-0.9-0.1-1.5-0.5-2c-0.2,0.2-0.5,0.3-0.5,0.5c0.2,0.1,0.5,0.2,0.5,0.2c-0.3,0.8,0.2,1.2,0.8,1.5
	l0.2-0.5C85.4,83.3,85.2,83.4,85.2,83.8"/>
<polygon class="st0" points="84.8,81.8 84.5,81.5 84.5,81.5 84.7,81.8 "/>
<path class="st0" d="M95.7,58.6c0-0.1-0.1-0.1-0.2-0.2C95.6,58.5,95.6,58.6,95.7,58.6"/>
<path class="st0" d="M91.9,67.6c0,0-0.1-0.1-0.1-0.1c1.3,0.7,3.3,1.1,4,1.5c1.5-0.9,4.2-4.1,4-4.5c0.6-3.8-1.5-3-4.1-5.9
	c1.4,1.7-2.3,1.3-4.5-1.2c-1.1-2-6.1-2.7-9.6,1.8C78.2,66.4,82.7,69,83,71c0.5,1.1,1.4,1.9,2.3,2.8c1.6,2.6,4.4,4.9,5.6,5.8
	c1.9,1.8,3.8,3.6,4.9,5.7c0.6,0.8,1.4,1.3,2,1.5c-0.5,0.4-1.1,1.2-1.3,1l-0.8-0.5c-0.1-0.1-0.3-0.2-0.5-0.2L95,87.3
	c-0.9,0.4-2.1,0.4-3.2,0.4l0,0.1l-0.3-0.1c0,0.6,0.4,1.5,0.5,1.5c1.5,0.6,3,1.1,4.5,1.3c0.1-0.2,0.2-0.4,0.4-0.3
	c0.1,0.2,0.2,0.3,0.4,0.4l0.6,0.1l0.2-0.1l-0.1,0.1l1.6,0.1l0.3-0.1c0.4-0.2,0.7-0.4,1,0l0.3-0.1l-0.1-0.1l0.2,0
	c0.4-0.2,0.9-0.3,1.2-0.6c0.8-0.6,1.4-1.7,1.3-2.7c-0.5-6.1-4.1-9-7.1-13.3C94.7,71.6,93.1,69.7,91.9,67.6"/>
<path class="st0" d="M77.5,90.5c-0.3,0.1-0.6,0.1-0.9,0.2l0.5,0.1C77.3,91,77.4,90.8,77.5,90.5"/>
<path class="st0" d="M75.5,91.3c-0.1-0.1-0.2-0.2,0-0.3h0l-0.4,0.2L75.5,91.3z"/>
<polygon class="st0" points="75.6,90.9 75.5,91 75.8,90.9 "/>
<path class="st0" d="M75.1,91.2c-0.2,0-0.5,0-0.8,0.1C74.5,91.4,74.8,91.3,75.1,91.2"/>
<path class="st0" d="M75.6,94.1c-0.2,0.1-0.2-0.6-0.6-0.4c-0.8,0.3-1.6,0.7-2.4,0.7c-0.4,0.2-1-0.8-1.3-0.6
	c-0.9,0.2-3.4,0.5-2.1,0.9c2.1,0.3,3.5,0.2,5.3-0.1c1.5-0.4,2.7-1.1,3.9-1.8c0.4-0.2,0.7-0.2,1.1-0.3l-1.5,0.2
	C77.3,92.5,76.7,93.7,75.6,94.1"/>
<path class="st0" d="M81.9,89.2c1,0,1.8-0.5,2.5-1c-0.2-0.1-0.3-0.4-0.5-0.3c-0.1,0.2-0.3,0.5-0.3,0.5c-0.9-0.1-1.4,0.5-2,1.1
	l0.5,0.2C82.3,89.4,82.3,89.2,81.9,89.2"/>
<polygon class="st0" points="84.3,88.2 84.4,88.3 84.8,87.9 84.7,87.9 "/>
<path class="st0" d="M71.8,93L71.8,93l0.5-0.1c-0.4-0.4-1.5-1.1-1.4-1.1c-2.2-0.3-4-1.3-5.6-2.5c-0.2,0-0.4,0.1-0.5-0.1l-0.2-0.5
	L64,88.1l-0.3-0.2l0.2,0l-1.3-1.4l-0.3-0.3c-0.4-0.3-0.7-0.7-0.6-1.2l-0.2-0.3l0,0.1l0-0.1l-0.7-1.3c-0.4-0.9-0.6-1.9-1-2.8
	c-0.9-3.1-1.5-6.4-1.3-9.6c0.1,0,0.2,0.1,0.3,0.1c-0.1,0-0.2-0.1-0.3-0.1c0-0.3,0-0.5,0-0.8c1.2-0.3,3.8-0.2,5.6,0.7
	c2.4,1.1,5,1.1,8.6-0.6c0.9-0.8,2.3-0.6,3.7-4.2c0.4-2.4,0-2.2,0-3.4c0-1.7-0.7-3.7-1.5-5.7c-1.1-2-3.3-3.7-5.9-4.4
	c-6.2-2.5-13.5,3.5-14.3,7.9c-0.4,0.9-0.6,1.9-0.9,2.8c-0.4,0-0.7-0.1-1-0.1c-2.7,0.7-2.5,4-2.3,4.3c0.6,1.3,1.4,1.8,2.3,2.2
	c-0.1,1.6,0,3.1,0.1,4.7c0.1,2.6,1.6,4.6,2.4,6.4c0.7,1.4,1,3,1.5,4.2c1.1,1.7,2.2,3.1,3.5,4.1c-1.3-1.3-2.1-2.4-3.4-4.1
	c-0.6-1.2,1.3,0.4,2,0.9c0.3,0.2,0,1.2,0.3,1.4c0.4,0.7,1.1,1.1,2,1.6c0.4,0.2-0.2,0.6,0,0.7c1,0.8,2.3,0.6,2.7,1.3l1.2,1.2l0.8,0.6
	l0.7,0.2C68.4,93.1,70.2,93.3,71.8,93 M60.7,62.6c1.3-3.3,4.5-3.8,6.5-3c2.1,0.6,0.3,2.4,2.8,4.5c-2.4-1.3-4.9,0.9-8-0.4
	c-0.5-0.1-1.1-0.1-1.7-0.2C60.4,63.1,60.5,62.8,60.7,62.6"/>
<path class="st0" d="M111.6,87.7L111.6,87.7C111.7,87.7,111.7,87.7,111.6,87.7"/>
<path class="st0" d="M113.5,80.8L113.5,80.8C113.5,80.9,113.5,80.8,113.5,80.8"/>
<path class="st0" d="M112.3,84.9c-0.1,0-0.1,0-0.1-0.1C112.2,84.9,112.2,84.9,112.3,84.9"/>
<line class="st0" x1="114.3" y1="74.5" x2="114.4" y2="74.5"/>
<line class="st0" x1="105.7" y1="72.3" x2="105.6" y2="72.3"/>
<path class="st0" d="M115.3,67.4C115.4,67.4,115.4,67.5,115.3,67.4C115.4,67.5,115.4,67.4,115.3,67.4"/>
<path class="st0" d="M115.3,63.7C115.3,63.7,115.3,63.7,115.3,63.7"/>
<path class="st0" d="M112.2,85.1C112.1,85.2,112.1,85.2,112.2,85.1C112.2,85.2,112.2,85.2,112.2,85.1"/>
<polyline class="st0" points="106.2,81.9 106.2,81.9 106.2,81.9 106.2,81.9 "/>
<path class="st0" d="M106.5,82.1c0.1,0-0.1-0.1-0.3-0.2C106.2,82,106.3,82,106.5,82.1"/>
<path class="st0" d="M106.3,81.7C106.4,81.7,106.4,81.7,106.3,81.7"/>
<path class="st0" d="M105.6,84.4C105.6,84.4,105.6,84.4,105.6,84.4C105.6,84.4,105.6,84.4,105.6,84.4L105.6,84.4z"/>
<path class="st0" d="M105.8,83.8c0,0-0.1,0-0.1,0C105.7,83.9,105.7,83.8,105.8,83.8"/>
<polygon class="st0" points="105.9,80.2 105.9,80.2 105.9,80.2 "/>
<path class="st0" d="M105.3,96C105.3,96,105.3,96,105.3,96C105.3,96,105.3,96,105.3,96"/>
<path class="st0" d="M105.9,82.5c0,0-0.1,0-0.1,0C105.8,82.5,105.9,82.5,105.9,82.5"/>
<path class="st0" d="M105.6,84.5L105.6,84.5c0-0.1-0.1-0.1-0.2-0.1L105.6,84.5z"/>
<path class="st0" d="M106.1,81.1C106.1,81.1,106.1,81.1,106.1,81.1C106.1,81.1,106.1,81.1,106.1,81.1"/>
<path class="st0" d="M105.6,80.2c0.1,0.1,0.2,0,0.3,0C105.8,80.2,105.7,80.2,105.6,80.2"/>
<path class="st0" d="M106.3,86.5c0,0-0.1,0-0.2,0C106.2,86.5,106.3,86.5,106.3,86.5"/>
<path class="st0" d="M106.2,85.1c0,0,0.1,0.1,0.1,0.1C106.3,85.2,106.3,85.2,106.2,85.1"/>
<path class="st0" d="M117.1,71.6c0,0,0,0.1,0.1,0.1C117.1,71.7,117.1,71.6,117.1,71.6"/>
<path class="st0" d="M119.3,71.5L119.3,71.5C119.3,71.5,119.3,71.5,119.3,71.5"/>
<path class="st0" d="M115.8,71.8C115.8,71.8,115.8,71.8,115.8,71.8c0,0-0.1,0-0.1,0L115.8,71.8z"/>
<path class="st0" d="M123.6,70.1L123.6,70.1C123.6,70.1,123.6,70.1,123.6,70.1"/>
<path class="st0" d="M121,70.9c0-0.1,0-0.1,0-0.1C120.9,70.7,120.9,70.8,121,70.9"/>
<path class="st0" d="M113,70.4C113,70.4,113,70.4,113,70.4"/>
<line class="st0" x1="126.9" y1="67.9" x2="126.9" y2="68"/>
<line class="st0" x1="122.2" y1="60.4" x2="122.2" y2="60.4"/>
<path class="st0" d="M120.8,70.8C120.8,70.8,120.8,70.8,120.8,70.8C120.8,70.8,120.8,70.9,120.8,70.8"/>
<polyline class="st0" points="118.7,64.8 118.7,64.8 118.7,64.8 118.7,64.8 "/>
<path class="st0" d="M118.8,65.1c0.1,0,0-0.1-0.1-0.3C118.7,64.8,118.7,64.8,118.8,65.1"/>
<path class="st0" d="M118.9,64.8C118.9,64.8,118.9,64.8,118.9,64.8"/>
<path class="st0" d="M117.3,65.3C117.3,65.3,117.3,65.3,117.3,65.3C117.3,65.3,117.3,65.3,117.3,65.3L117.3,65.3z"/>
<path class="st0" d="M117.5,65.1C117.6,65.1,117.6,65.1,117.5,65.1C117.6,65.1,117.6,65.1,117.5,65.1"/>
<polygon class="st0" points="119.2,63.8 119.2,63.8 119.2,63.8 "/>
<path class="st0" d="M134.9,58.8c-0.2-0.2-0.3-0.4-0.6-0.6c0-0.1,0.4,0.2,0.2,0c-0.2-0.1-0.6-0.5-1-0.7l0-0.1
	c-0.2-0.2,0.1,0.2-0.2-0.1l0.4,0.4c-0.1,0-0.2-0.1-0.4-0.2c0.1,0.2,0.7,0.7,0.4,0.6l0,0c0,0.1-0.3-0.2-0.4-0.3l0,0l-0.3-0.1
	c0.2,0.1-0.1-0.3-0.1-0.2c-0.2,0,0.1,0.1,0.1,0.2c0,0.1-0.2-0.2-0.4-0.3l0,0.1c-0.2-0.2,0,0-0.2-0.2l0.1,0.3
	c-0.5-0.4,0.2,0.3-0.3-0.1c-0.1-0.2-0.2-0.1-0.3-0.3l-0.1,0.2c-0.1-0.1-0.1-0.2-0.1-0.1c-0.2-0.1,0.1,0.1,0.1,0.2
	c-0.2-0.1-0.1,0.1-0.4-0.2c-0.3-0.1,0.4,0.4,0.1,0.3c-0.2-0.2,0-0.1-0.2-0.3l0,0.2c-0.1-0.1-0.3-0.3-0.2-0.3c-0.5,0-1.6-0.9-1.6-0.4
	c-0.3-0.2-0.1-0.2-0.3-0.3c0.2,0.4-0.7-0.3-0.8-0.2l0.2,0.2c-0.8-0.4-0.6,0.1-1,0.1l0.2,0.1c0.2,0.2,0.1,0.3,0.2,0.4
	c-0.1-0.1-0.4-0.4-0.4-0.3c0.1,0.1,0.2,0.1,0.3,0.2c-0.7-0.4-0.9,0.1-1.4,0.1c-0.2,0.5-0.9,0.5-1.2,0.9c0-0.1,0.5,0.5,0.3,0.4
	c-0.9-0.8-0.1,0.3-0.7-0.2c0,0.5-0.8-0.1-0.4,0.7l-0.2-0.2c-0.1-0.1,0,0.1,0,0.1l-0.1-0.1c-0.2,0,0,0.3-0.2,0.2l0.2,0.3
	c0,0.1-0.2-0.2-0.1,0l-0.1-0.1l0.2,0.3c-0.4-0.5-0.2,0.1-0.4-0.1c0,0.1,0.1,0.4-0.1,0.4c-0.2-0.2-0.3-0.1-0.5-0.2
	c-0.1,0.2-0.2,0.4-0.5,0.5l0.3,0.3l0,0.1c-0.1-0.1-0.1-0.1-0.1-0.1c-0.3-0.3,0,0.2-0.2,0c0.3,0.3,0.1,0,0.1,0
	c0.2,0.1,0.4,0.5,0.2,0.3l-0.1-0.1l0.1,0.2c-0.2-0.2-0.3-0.3-0.5-0.6c-0.1,0.2,0.1,0.7-0.1,0.7c-0.2-0.3-0.1,0.2-0.4-0.4
	c0,0.3,0.3,0.4,0.5,0.8c0,0,0,0.2-0.1,0c-0.1-0.1-0.3-0.3-0.3-0.3l0,0.1c0,0-0.1-0.1-0.1-0.1c0.1,0.4-0.5-0.1-0.4,0.2
	c0.1,0.2,0.1,0,0.2,0.2c0.2,0.5-0.3-0.2-0.3,0.1l-0.2-0.3c0.1,0.2,0.2,0.4,0,0.3c-0.2-0.3-0.1-0.3-0.2-0.4c0,0-0.1,0.2,0.1,0.4
	c0,0.1-0.2-0.1-0.3-0.2c0.1,0.1,0.2,0.2,0.3,0.3c-0.2-0.1-0.3,0-0.4,0c-0.1-0.1-0.1-0.2-0.2-0.2c0.2,0.4-0.3-0.2-0.3-0.1
	c-0.2,0.3-0.2,0.9-0.5,0.9c0.2,0.4,0.2,0.5,0.1,0.6l-0.4-0.5l0.1,0.2c-0.1-0.1,0-0.1-0.2-0.3l0.2,0.3c-0.1-0.2-0.3,0-0.4-0.5
	l-0.2,0.2c-0.1,0,0.3,0.5,0.1,0.4c-0.1-0.1-0.1-0.1-0.2-0.3c-0.5-0.3,0.5,1.2,0.2,1l0-0.1c0.1,0.2,0,0.2,0.1,0.3
	c0.4,0.5-0.2-0.3,0.1,0c0.3,0.4,0.1,0.3,0.3,0.6c-0.2-0.1,0,0.1,0,0.2c-0.3-0.2-0.2,0-0.5-0.3c0.1,0.2,0.3,0.6,0.3,0.7
	c-0.3-0.3-0.2-0.3-0.4-0.4l0.2,0.3c-0.1,0-0.1-0.1-0.2-0.2c-0.1,0,0.2,0.4,0,0.3l-0.1-0.3c0,0.1,0,0.1-0.1,0.1
	c-0.1-0.2-0.1-0.2,0-0.1c-0.3-0.4,0,0.2,0,0.2c0.1,0.1,0.2,0.1,0.3,0.4c-0.1,0,0.2,0.4-0.1,0.1l-0.1-0.3c0.1,0.3,0.2,0.4,0,0.3
	c0,0-0.1-0.1-0.1-0.1c0.2,0.4-0.1,0.1-0.2,0.1l0-0.1c0,0.1,0.2,0.4,0.1,0.3c0.1,0.1,0.2,0.2,0.4,0.5c-0.3-0.4,0.2,0.6,0,0.4
	c-0.1-0.2-0.2-0.3-0.1-0.2c-0.3-0.5-0.5-0.8-0.6-1.1c0,0.1,0,0.2-0.1,0l0.3,0.4c0,0-0.1,0-0.1,0c0.2,0.3,0.3,0.4,0.4,0.6
	c0,0.2-0.3-0.4-0.2-0.2c0,0.2,0.3,0.5,0.1,0.4c0,0,0-0.1,0-0.1c-0.2-0.1-0.1,0.2-0.4-0.3c-0.1-0.1-0.2-0.3-0.1-0.2l0,0.1
	c-0.2-0.4,0,0.1-0.2-0.2c0.1,0.2,0,0.2-0.1,0.1l0.2,0.3c0.5,1-0.4-0.6-0.4-0.4c0.1,0.3,0.1,0.1,0.2,0.3c-0.1,0-0.3-0.3-0.3-0.1
	c-0.1-0.1-0.2-0.2-0.5-0.6c0,0.2-0.2-0.1,0,0.3c0.3,0.2-0.2-0.4,0.2,0l0.2,0.3c-0.1,0,0,0.2-0.2,0.1c0.1,0.1,0.1,0.1,0.2,0.2
	c0,0.2,0.2,0.5,0,0.5c-0.2-0.3-0.1-0.3-0.1-0.3c-0.2-0.2-0.1,0-0.2,0c-0.2-0.3,0.1,0-0.1-0.3l0,0.1c0,0,0,0,0-0.1
	c0.3,0.5-0.1,0-0.1,0.2c-0.1,0.1,0.2,0.7,0.4,1.1c-0.1-0.1-0.2-0.2-0.2-0.3c0.2,0.2,0.1,0,0-0.1c0,0.1-0.4-0.4-0.5-0.6
	c0,0.2,0.2,0.2,0.2,0.4l-0.1,0c0.2,0.2,0.2,0.3,0.3,0.5c0,0.1-0.1,0.1-0.1,0.1c-0.1-0.1-0.2-0.3-0.2-0.4c-0.1-0.1-0.1-0.1,0,0.2
	c0.2,0.2,0,0.3,0.3,0.6l-0.2-0.2c0,0-0.1-0.2,0-0.1c-0.2-0.3,0,0.1,0,0.2c-0.1-0.1-0.1,0-0.2-0.2c0,0.1-0.1,0.1-0.2-0.1
	c0,0.1,0.1,0.2,0.2,0.4l-0.1,0c-0.1-0.2-0.5-0.7-0.5-0.8c0.1,0.2,0.3,0.6,0.3,0.6c-0.2-0.4-0.3-0.2-0.5-0.7
	c-0.2-0.3-0.3-0.2-0.3-0.1c0.2,0.3,0.2,0.1,0.3,0.4c-0.1,0.2,0.4,1.1,0.2,1l0.1,0.1c0,0.2,0,0.2,0.1,0.5c-0.2-0.4-0.7-1-0.8-0.8
	c0.1,0.2,0.3,0.3,0.5,0.6l0,0.1c0,0-0.1-0.1-0.1-0.2c0,0.2-0.4-0.4-0.2,0l-0.4-0.5l0.2,0.2c0.1,0.2,0.1,0.3,0.1,0.4
	c0.1,0.3-0.1,0.1-0.3-0.1c0.1,0.2,0.4,0.5,0.3,0.6c-0.4-0.6-0.3-0.2-0.5-0.5c0,0-0.2-0.1,0,0.1l-0.2-0.4c0.1,0,0.1-0.1-0.1-0.1
	c0.1,0,0.2,0,0.3,0.1c-0.2-0.3-0.4-0.4-0.8-0.7c0.8,0.1,0-0.2,0.4-0.1l-0.3,0c0.2,0,0.3-0.2,0.5-0.1l-0.4-0.1l0.3,0
	c0-0.1-0.2-0.5,0.4-0.5c-0.5-0.4-0.3-1-0.1-1.4c-0.3-0.1-0.3-0.2-0.3-0.3l0.4-0.1c-0.1-0.1-0.6-0.3-0.3-0.3c0,0,0.1,0,0.1,0
	c-0.1-0.1,0.1-0.2-0.2-0.3c0-0.1,0.2-0.2,0.6-0.1c-0.6-0.1,0.1-0.2,0.1-0.2s0.1-0.4,0.3-0.9c0.2-0.5,0.3-1.3,0.4-2.1
	c0.1-0.8,0.1-1.6-0.1-2.4c-0.2-0.8-0.6-1.5-1.4-2c-0.3-0.1-0.5-0.3-0.8-0.3c-0.1-0.1,0.5,0,0.2-0.1c-0.2,0.1-0.8-0.2-1.2-0.2
	l-0.1-0.1c-0.2-0.1,0.2,0.2-0.2,0.1l0.6,0.2c-0.1,0.1-0.2,0.1-0.4,0c0.2,0.1,1,0.3,0.6,0.4l0-0.1c0,0.1-0.4,0-0.5,0l0,0l-0.3,0
	c0.2,0-0.2-0.3-0.2-0.2c-0.2,0.1,0.1,0,0.2,0.1c0,0.1-0.3,0-0.5,0l0,0.1c-0.3-0.1,0-0.1-0.3-0.1l0.2,0.2c-0.7-0.1,0.3,0.2-0.4,0.2
	c-0.1-0.2-0.2,0-0.4-0.1l0,0.3c-0.1,0-0.2-0.1-0.2-0.1c-0.2,0,0.1,0.1,0.1,0.2c-0.2,0,0,0.2-0.5,0.1c-0.3,0.1,0.5,0.2,0.3,0.3
	c-0.3,0,0-0.2-0.3-0.1l0.1,0.2c-0.1,0-0.4-0.1-0.4-0.2c-0.5,0.5-1.9,0.5-1.7,1.1c-0.3,0-0.2-0.1-0.4-0.2c0.4,0.4-0.8,0.4-0.8,0.7
	l0.3,0c-0.9,0.3-0.5,0.9-0.9,1.4l0.2,0c0.3,0.1,0.3,0.2,0.4,0.3c-0.1,0-0.6-0.1-0.5,0c0.1,0,0.2-0.1,0.3,0c-0.7,0.3-0.7,1.3-1.1,1.9
	c0.1,1-0.5,1.9-0.4,2.9c0-0.1,0.7,0,0.5,0.1c-1.2,0.2,0.2,0.5-0.6,0.7c0.3,0.6-0.7,1,0.1,1.5l-0.3,0c-0.1,0.1,0.1,0.1,0.1,0.2
	l-0.1,0c-0.1,0.2,0.2,0.4,0,0.5l0.4,0c0,0.1-0.3,0-0.1,0.2l-0.2,0l0.3,0.2c-0.6-0.1-0.1,0.3-0.4,0.4c0.1,0.1,0.4,0.4,0.2,0.6
	c-0.3,0-0.3,0.3-0.5,0.4c0.1,0.3,0.1,0.8,0,1.2l0.4,0l0,0.1c-0.1,0-0.1,0-0.2,0c-0.5,0,0.1,0.2-0.2,0.3c0.4,0,0.1-0.1,0.1-0.1
	c0.2-0.1,0.6,0,0.4,0.1l-0.1,0l0.2,0.1c-0.3,0-0.5,0-0.8,0c0,0.3,0.6,0.6,0.4,0.9c-0.4-0.1,0.1,0.3-0.5,0.1c0.2,0.2,0.5,0,0.9,0.1
	c0,0.1,0.1,0.1-0.1,0.1c-0.1,0-0.4,0-0.4,0l0,0.1c0,0-0.1,0-0.2,0c0.3,0.3-0.4,0.4-0.1,0.7c0.2,0,0.1-0.1,0.3-0.1
	c0.4,0.3-0.4,0.2-0.1,0.5l-0.3-0.1c0.2,0.1,0.5,0.2,0.2,0.3c-0.4,0-0.3-0.1-0.4-0.2c0,0.1,0,0.3,0.4,0.3c0.1,0.1-0.2,0.1-0.3,0.2
	c0.1,0,0.3-0.1,0.4,0c-0.2,0.1-0.2,0.4-0.3,0.5c-0.1,0-0.2,0-0.3,0c0.5,0.2-0.4,0.1-0.3,0.3c0.1,0.5,0.5,1.3,0.3,1.8
	c0.5,0.2,0.5,0.3,0.6,0.5l-0.6,0l0.2,0.2c-0.2,0-0.1-0.1-0.4,0l0.4,0.1c-0.2,0-0.2,0.3-0.6,0.1l-0.1,0.5c0,0.1,0.5,0.1,0.4,0.2
	c-0.2,0-0.1-0.1-0.4-0.1c-0.5,0.4,1.2,0.6,0.9,0.9l-0.1,0c0.2,0.1,0.1,0.2,0.2,0.2c0.6,0-0.3-0.1,0-0.2c0.5,0.1,0.3,0.2,0.7,0.2
	c-0.2,0.1,0.1,0.1,0.1,0.2c-0.4,0.1-0.1,0.3-0.6,0.4c0.2,0.1,0.7,0.2,0.7,0.3c-0.4,0.1-0.4-0.1-0.6,0.1l0.3,0.1
	c-0.1,0.1-0.1,0.1-0.3,0.1c0,0.1,0.4,0.1,0.2,0.3l-0.3-0.1c0.1,0.1,0.1,0.2,0,0.3c-0.2,0-0.2-0.1-0.1-0.1c-0.5,0,0.2,0.2,0.1,0.2
	c0.1,0,0.2-0.1,0.5,0c-0.1,0.1,0.4,0.2,0,0.2l-0.3-0.1c0.2,0.2,0.4,0.1,0.2,0.3c0,0-0.1,0-0.2,0c0.4,0.2,0,0.3,0,0.4l-0.1,0
	c0.1,0.1,0.4,0.1,0.4,0.2c0.2-0.1,0.3,0,0.6,0c-0.5,0.1,0.6,0.3,0.3,0.4c-0.2,0-0.4-0.1-0.2-0.1c-0.5-0.1-1-0.2-1.2-0.3
	c0.1,0.1,0.2,0.2,0,0.1l0.5,0.1c0,0,0,0.1,0,0.1c0.3,0,0.5,0,0.7,0.1c0.1,0.1-0.5,0-0.3,0.1c0.2,0.2,0.5,0.1,0.3,0.3
	c0,0-0.1-0.1-0.1-0.1c-0.2,0.1,0.1,0.3-0.5,0.3c-0.1,0-0.3-0.1-0.3-0.1l0.1,0c-0.4-0.2,0,0.1-0.3,0c0.2,0,0.1,0.2,0.1,0.2l0.4,0
	c1.1,0.3-0.7-0.1-0.6,0.2c0.2,0.2,0.1,0,0.4,0.1c-0.1,0.1-0.4,0.1-0.3,0.3c-0.1,0-0.4,0.1-0.8,0.1c0.2,0.1-0.2,0.3,0.2,0.4
	c0.4-0.1-0.4-0.2,0.1-0.3l0.4,0.1c0,0.1,0.1,0.3,0,0.4c0.1,0,0.2,0,0.3,0c0.1,0.2,0.5,0.3,0.4,0.5c-0.4,0-0.3-0.1-0.3-0.2
	c-0.3,0.1,0,0.1-0.2,0.3c-0.3,0,0-0.1-0.3-0.2l0.1,0.2c0,0,0,0-0.1,0c0.5,0.1-0.1,0.1,0.1,0.3c0,0.3,0.7,0.4,1.1,0.6
	c-0.1,0-0.3,0-0.4,0c0.2,0,0.1-0.1-0.1-0.1c0,0.1-0.5,0.2-0.8,0.1c0.1,0.2,0.3,0,0.4,0.1l-0.1,0.2c0.3,0,0.3-0.1,0.5,0.1
	c0.1,0.1,0,0.1,0,0.3c-0.1,0-0.4,0-0.4-0.1c-0.1,0-0.1,0.1,0.1,0.2c0.3-0.1,0.2,0.2,0.6,0.2l-0.3,0.1c0,0-0.2,0-0.1-0.1
	c-0.4,0,0.1,0.1,0.1,0.2c-0.1,0-0.1,0.2-0.3,0.1c0.1,0.1,0,0.1-0.2,0.1c0.1,0.1,0.3,0,0.4,0.1l-0.1,0.2c-0.2,0-0.9-0.1-0.9-0.1
	c0.2,0.1,0.7,0.1,0.6,0.2c-0.4-0.1-0.4,0.1-0.9,0c-0.3,0-0.3,0.2-0.2,0.4c0.3,0.1,0.2-0.1,0.6-0.1c0.1,0.3,1.1,0.4,0.9,0.6l0.1,0
	c0.2,0.2,0.1,0.1,0.4,0.2c-0.4-0.1-1.2,0-1.1,0.3c0.2,0,0.4-0.1,0.8,0l0.1,0.2c0,0-0.1,0-0.2,0c0.1,0.1-0.6,0.2-0.1,0.3l-0.7,0.1
	l0.3,0c0.2,0,0.3,0.2,0.4,0.2c0.2,0.2,0,0.2-0.3,0.3c0.2,0,0.6,0,0.7,0.1c-0.7-0.1-0.3,0.2-0.7,0.2c0,0.1-0.2,0.1,0.1,0.1l-0.4,0
	c0.6,0.1,0.6,0.2,0.7,0.4c-0.9-0.1,0.1,0.2-0.7,0.1c0.6,0.1,0.2,0.3,0.7,0.3c0,0.1-0.5,0.1-0.7,0.1l0.2,0.1c-0.3,0-0.3,0.2-0.5,0.3
	l0.5,0.2l-0.2,0c0.1,0,0.2,0.1,0.4,0.1l0,0.1c0.6,0.1,0.1,0.1,0.4,0.2c-0.1,0-0.2,0-0.3,0c0,0.1-0.3,0-0.5,0c0.1,0,1,0.3,1.3,0.2
	c0.2,0,0.4,0.1,0.3,0.2l-0.5,0l0.5,0.1c0.1,0.1-0.3,0.1-0.3,0.2c0-0.1-1-0.3-1-0.1c-0.1-0.1-0.3-0.2-0.4-0.2c0,0-0.1,0.1-0.3,0
	c0.1,0.2,0.3,0.1,0.4,0.2c-0.4,0-0.6,0-0.8,0.1l0.3-0.1c0.1,0,0.1,0,0.1,0c0.1,0,0.1,0,0.3,0c0,0,0.5,0.2,0.3,0.2
	c0.7-0.1,0.5,0.3,0.9,0.3c0.1,0,0.1,0.1-0.1,0.1c-0.3-0.2-0.5,0-0.8,0c0.1,0.1,0.3-0.1,0.5,0c0,0.1-0.3,0.1-0.4,0.1l-0.1,0l-0.2,0.1
	c0.2,0,0.4-0.1,0.5,0c-0.1,0,0,0.1-0.2,0.1c-0.3-0.1-0.7-0.1-0.8-0.2c0,0.1,0.1,0.3,0.5,0.3l0,0.1c0.2,0,0.6-0.2,0.6,0l-0.1,0
	l0.3,0.2l-0.2,0c0.1,0,0.2,0,0.2,0.1c-0.1,0-0.2,0-0.4,0c0,0.1,0.2,0.1,0.4,0.2c0,0.1-0.1,0.1-0.3,0c-0.1,0.1,0,0.3-0.3,0.3
	c0.2,0.2,0.1,0,0.4,0.1c-0.8,0.1-0.4,0.4-0.3,0.7c0.7,0,0.1,0.1,0.7,0.2c-0.2-0.1-0.6,0.2-0.7,0l0.1,0.1c-0.4,0.1-0.3-0.2-0.8-0.1
	c0,0.1,0.8,0.3,0.5,0.4c-0.5-0.1,0.1,0.1-0.4,0.1c-0.2,0-0.1-0.1-0.1-0.1l-0.1,0c-0.2,0.3,0.6,0.1,0.9,0.3c0,0.2-0.4,0.1-0.6,0.1
	c-0.1,0,0,0.1,0,0.1c-0.1-0.1,0.4-0.1,0.7-0.1c-0.6,0-0.1,0.3,0.1,0.3c0.6-0.2,0-0.2,0.7-0.4c-0.2,0-0.7-0.1-0.5-0.2
	c0.2,0.1,0.3,0,0.4,0c-0.3,0-0.1-0.1-0.2-0.2c0.2,0,0.7,0.1,0.8,0l-0.7-0.1c0.1,0,0.5,0.1,0.3-0.1c0.3,0.1,0.5,0,0.6,0.2
	c0.6-0.1-0.3-0.3-0.5-0.5c0,0,0.1,0,0.2,0c-0.2,0-0.2-0.1-0.2-0.2c0.2-0.1,0.3,0.1,0.5,0.1v-0.2c0,0,0,0,0,0c-0.1-0.1-0.1-0.1,0-0.1
	c0.2,0.1,0.4,0.1,0.6,0.2l-0.5-0.2c0.2,0,0.4-0.1,0.5,0l-0.1-0.3l0.5,0c-0.1-0.1-0.2-0.1-0.2,0c0.1-0.1-0.8-0.5,0.1-0.3
	c-0.4-0.2-0.2-0.3-0.4-0.6c0.4,0.2,0.6-0.2,0.7,0c0.2-0.1-0.3-0.2-0.3-0.3c0.2-0.1,0.6,0,0.8,0.1l-0.2-0.1l0.1,0l-0.2-0.1
	c0.3-0.1,0.5,0,0.5-0.1l-0.4-0.1l0.2,0c-0.2,0-0.3-0.1-0.3-0.1l0.1,0l-0.1-0.1c0.2,0.1,0.1-0.1,0.4,0c0-0.1,0-0.1,0-0.2l-0.3,0
	c-0.2-0.2,0.4,0,0.4-0.1l-0.3,0c0.6-0.2-0.3-0.4,0.1-0.5c0.1,0.1,0.4,0.1,0.3,0.1c-0.1-0.1,0-0.4-0.4-0.5c0.5,0,0.6,0,0.8-0.1
	c0-0.1-0.1-0.1-0.3-0.2c0.2-0.1-0.1-0.3,0.3-0.3c-0.3,0,0.1-0.1-0.2-0.2h0.1l-0.3,0c0.7-0.1-0.4-0.3,0.3-0.5l0.1,0l-0.1-0.1
	c0.1,0,0.2,0,0.4,0.1l0.1-0.4l-0.2,0c0-0.1-0.3-0.2-0.1-0.2c0.5,0.2,0-0.1,0.4-0.1l0.1,0.1c0-0.1,0-0.1-0.3-0.1
	c-0.1-0.1,0.6,0,0.3-0.2l0,0.1c-0.2,0-0.4-0.1-0.4-0.1c0.1,0,0.2,0,0.2,0c-0.1-0.1,0.1-0.3,0-0.3c0.1,0,0.3,0,0.4,0
	c-0.3-0.3,0.1-0.1-0.2-0.4l0.2,0l-0.2-0.1l0.4-0.1l-0.2,0c0-0.1-0.1-0.1,0-0.2l0.3,0.1c-0.1-0.2,0.5-0.2,0.1-0.4c0,0,0.1,0,0.2,0
	c-0.4-0.2,0.5-0.1,0-0.3c0.1,0,0.2,0,0.3,0l-0.2-0.1l0.4,0l-0.5-0.1l0.4,0l-0.2,0c0.7,0,0.2-0.2,0.7-0.3l-0.5,0
	c-0.9-0.4,0.6-0.7,0.2-1.1l0.4,0l-0.4-0.2c0.3-0.1,0.3,0.1,0.5,0.1c-0.2-0.2-0.5-0.1-0.6-0.3c0.3-0.1,0.3,0.1,0.4,0.1
	c-0.2-0.2-0.3-0.5-0.1-0.6c0,0-0.1,0-0.1,0c-0.1-0.1,0-0.3,0-0.4c0.2,0,0.2,0.1,0.2,0.1c0,0,0.1-0.1,0-0.2l0.3,0.1
	c0.1-0.1-0.2-0.3,0.2-0.3c-0.1,0-0.4,0-0.4-0.1c0.6,0-0.2-0.3,0.1-0.4c0.1,0,0.1,0.1,0.2,0.1c0.2-0.1-0.1-0.1-0.3-0.2l0.2,0
	l-0.3-0.4c0.6,0,0-0.3,0.4-0.3c0-0.1-0.3,0.1-0.3-0.1c0.2,0-0.1-0.1,0.3-0.1l0,0l0-0.1l0.3,0.1c-0.1-0.1-0.4-0.2-0.7-0.2
	c0.2-0.1,0.1-0.2,0.4-0.2l0.1,0c-0.1-0.3,1-0.3,0.4-0.6c0.1,0,0.1,0,0.1,0l0-0.1l0.3,0.1l-0.4-0.3l0.2,0c0.1-0.2,0-0.4,0-0.6l0.1,0
	c-0.3-0.3,0.2-0.2,0-0.4c0,0,0.1,0,0.1,0l0-0.2l0.2,0.1c-0.4-0.1,0.5-0.3,0.2-0.2c-0.2-0.1-0.4-0.2-0.6-0.3c0-0.2,0.2,0,0.4-0.1
	c0-0.1-0.3-0.2-0.1-0.3l0.2,0c0-0.1-0.1-0.1-0.2-0.2l0.1,0c-0.4-0.2,0.6-0.2-0.2-0.4c0.2-0.1,0.1-0.2,0.4-0.2
	c-0.2-0.2-0.3-0.4-0.4-0.6c0.6,0,0,0,0.3-0.1l-0.3,0c0-0.3,0.8-0.6,0.7-0.9l0.3,0l-0.3-0.1c0.2-0.3,0.4-0.8,0.4-1.1
	c-0.2-0.1-0.5-0.3-0.4-0.4l0,0c-0.2-0.3-0.3-0.6-0.1-0.8c0.1,0,0.2,0,0.3,0.1c-0.3-0.1,0-0.2,0-0.2l-0.2,0c-0.3-0.1,0-0.2,0.2-0.2
	l-0.3-0.2c0,0,0.1,0,0.1,0l-0.2,0l0.4,0c-0.1,0-0.2-0.2-0.6-0.3c0.1,0,0.3-0.1,0.3,0l0.2-0.5l-0.2,0.1c-0.3,0-0.5-0.2-0.4-0.2
	c0.2,0.1,0.4,0.1,0.7,0c-0.2-0.1-0.3,0-0.5,0c-0.2-0.1-0.3-0.3-0.2-0.3l0.1,0.1c-0.1-0.1,0.4-0.1,0.4-0.2c-0.2-0.1,0-0.2-0.6-0.2
	c-0.1-0.2,0.4,0,0.4-0.1c-0.3-0.1-0.1-0.3,0.2-0.3c-0.8-0.1,0.3-0.4-0.3-0.4l0.4-0.1c-0.2,0-0.6-0.1-0.6-0.2c0.2-0.1,0.5,0,0.7,0
	l-0.3,0c0-0.1,0-0.1-0.1-0.2c0,0,0-0.1,0-0.2c0,0,0.1-0.1,0.1-0.1c0,0.1,0.1,0.1,0.1,0.3c-0.1-0.4,0-0.3,0-0.5
	c0.1,0.4,0.4,0.4,0.4,0.6c0.2,0.1-0.1-0.3-0.1-0.4c0.1,0.1,0.3,0.5,0.4,0.7l0-0.2l0,0.1l-0.1-0.3c0.2,0.2,0.2,0.4,0.3,0.4l-0.2-0.4
	l0.2,0.2c-0.1-0.2-0.1-0.2-0.1-0.3l0,0.1l0-0.1c0.1,0.2,0.1,0.1,0.2,0.3c0.1,0,0,0,0.1-0.1l-0.1-0.2c0-0.3,0.2,0.4,0.3,0.3l-0.2-0.3
	c0.4,0.4,0-0.4,0.3-0.1c0,0.1,0.2,0.4,0.1,0.3c0-0.1,0.2-0.1,0.1-0.5c0.3,0.4,0.3,0.5,0.5,0.6c0-0.1,0-0.1-0.1-0.3
	c0.1,0.1,0.1-0.2,0.3,0.1c-0.1-0.2,0.1,0,0-0.2l0.1,0.1l-0.2-0.3c0.5,0.6,0-0.4,0.4,0l0,0.1l0-0.1c0.1,0.1,0.1,0.2,0.2,0.4l0.2-0.1
	l-0.2-0.2c0-0.1-0.1-0.3,0-0.2c0.2,0.5,0.1,0,0.3,0.3l0,0.1c0-0.1,0-0.1-0.1-0.3c0-0.1,0.4,0.5,0.3,0.2l-0.1,0
	c-0.1-0.2-0.2-0.4-0.2-0.4c0,0,0.1,0.1,0.1,0.2c0-0.1,0.2,0,0.1-0.2c0.1,0.1,0.2,0.3,0.2,0.3c0-0.3,0.1,0,0.1-0.3l0.1,0.2l-0.1-0.2
	l0.3,0.3l-0.1-0.2c0-0.1,0-0.2,0.1-0.1l0.1,0.2c0-0.2,0.4,0.3,0.3-0.1c0,0,0.1,0.1,0.1,0.2c-0.1-0.4,0.3,0.4,0.2-0.1
	c0,0.1,0.1,0.2,0.1,0.2l0-0.2l0.2,0.3l-0.2-0.5l0.2,0.3l-0.1-0.2c0.4,0.6,0.2,0.1,0.5,0.5l-0.3-0.4c-0.3-0.9,0.7,0.2,0.6-0.3
	l0.2,0.3l-0.1-0.4c0.2,0.2,0.1,0.3,0.3,0.4c0-0.2-0.2-0.5-0.2-0.6c0.2,0.2,0.1,0.2,0.2,0.4c0-0.2,0-0.5,0.2-0.3c0,0-0.1-0.1-0.1-0.1
	c0-0.2,0.1-0.1,0.2-0.2c0.1,0.1,0.1,0.2,0.1,0.2c0,0,0.1,0.1,0.1-0.1l0.1,0.3c0.1,0,0-0.3,0.2,0c-0.1-0.1-0.2-0.3-0.2-0.4
	c0.3,0.4,0-0.3,0.2-0.1c0.1,0.1,0,0.2,0,0.2c0.1,0.1,0-0.1-0.1-0.3l0.1,0.2l0-0.4c0.3,0.4,0.1-0.2,0.3,0.2c0.1,0-0.2-0.2-0.1-0.3
	c0.1,0.2,0-0.1,0.2,0.2l0,0l0-0.1l0.2,0.3c0-0.1-0.2-0.4-0.3-0.6c0.2,0.1,0.1,0,0.3,0.2l0,0.1c0-0.2,0.7,0.7,0.5,0.1
	c0,0,0.1,0.1,0.1,0.1l0.1,0l0.1,0.2l-0.1-0.4l0.1,0.2c0.1,0,0.2-0.2,0.3-0.3l0,0.1c0-0.3,0.2,0.1,0.2-0.2c0,0,0,0.1,0,0.1l0.1-0.1
	l0.1,0.2c-0.2-0.4,0.5,0.3,0.2,0.1c-0.1-0.2-0.1-0.4-0.2-0.6c0.1-0.1,0.2,0.2,0.3,0.3c0.1,0-0.1-0.3,0.1-0.2l0.1,0.1
	c0-0.1,0-0.2,0-0.2l0,0.1c-0.1-0.4,0.4,0.4,0-0.3c0.1,0.1,0.1,0,0.3,0.3c0-0.3,0-0.4,0-0.6c0.4,0.5,0,0,0.3,0.2l-0.2-0.3
	c0.1-0.1,0.8,0.4,0.9,0.2l0.2,0.3l-0.2-0.3c0.3,0,0.6-0.1,0.7-0.2c-0.1-0.2-0.2-0.5-0.1-0.5l0,0c0-0.2,0.1-0.5,0.3-0.4
	c0.1,0.1,0.1,0.2,0.2,0.3c-0.2-0.3,0.1-0.1,0.1-0.1l-0.2-0.2c-0.1-0.3,0.1-0.1,0.3,0.1l-0.1-0.3c0,0,0.1,0.1,0.1,0.1l-0.1-0.1
	l0.3,0.3c0-0.1,0-0.2-0.2-0.6c0.1,0.1,0.2,0.1,0.2,0.2l0.3-0.1l-0.1-0.1c-0.2-0.3-0.3-0.5-0.1-0.4c0.1,0.2,0.3,0.4,0.4,0.5
	c-0.1-0.2-0.2-0.2-0.3-0.4c-0.1-0.2-0.1-0.3,0-0.3l0.1,0.1c0-0.1,0.3,0.3,0.4,0.2c-0.1-0.2,0.1-0.1-0.3-0.5c0-0.1,0.3,0.3,0.3,0.3
	c-0.1-0.2,0.1-0.2,0.3,0c-0.5-0.7,0.4,0.1,0-0.5l0.3,0.3c-0.1-0.1-0.3-0.5-0.4-0.6c0.2,0.1,0.3,0.4,0.5,0.5l-0.4-0.5
	c0.7,0.4,0.7-0.2,1.4,0c0-0.2,0-0.6,0.2-0.6l0,0.1l0.3,0l-0.3-0.2c0-0.1-0.1-0.2,0-0.2c0.3,0.1,0.7,0.2,0.7-0.2
	c-0.4-0.7,0.5,0.5,0.3-0.1c0,0.1,0.1,0.1,0.1,0.2c0-0.3-0.1-0.5-0.2-0.9c0.5,0.6,0.1-0.1,0.3,0.2l-0.2-0.2c0.2,0.1,0.3,0.1,0.4,0.3
	l-0.2-0.3l0.2,0.2c0.1,0,0.1-0.4,0.5,0.1c-0.1-0.5,0.2-0.6,0.5-0.8c-0.1-0.2-0.1-0.3-0.1-0.4l0.3,0.2c0-0.1-0.3-0.5-0.1-0.4
	c0,0,0,0.1,0.1,0.1c0-0.1,0.2,0,0-0.3c0.1,0,0.3,0.1,0.5,0.3c-0.4-0.5,0.2,0,0.2,0s1-0.4,1.8-1.2C135.4,61.6,135.9,60.3,134.9,58.8
	 M114.6,68.8c0,0,0,0.1,0.1,0.1C114.6,68.9,114.6,68.9,114.6,68.8C114.6,68.8,114.6,68.8,114.6,68.8 M114.8,69.1
	C114.8,69.1,114.8,69.1,114.8,69.1c0.1,0.2,0.2,0.4,0.1,0.3l-0.1-0.2C114.8,69.2,114.8,69.2,114.8,69.1 M114.1,68
	C114.1,68,114.1,68,114.1,68C114.1,68,114.1,68,114.1,68 M113,70.4C113,70.4,113,70.4,113,70.4C113,70.4,113,70.4,113,70.4
	 M114.5,71.7l-0.4-0.1c0.1-0.1,0.2-0.1,0.2-0.2L114.5,71.7z M115,68.3C115,68.2,115,68.2,115,68.3C115.1,68.2,115.1,68.3,115,68.3
	C115.1,68.3,115.1,68.3,115,68.3 M115.3,68.2c-0.4-0.7-0.1,0-0.4-0.4c0,0,0,0,0,0l0,0c0,0,0-0.1-0.1-0.1c0,0,0,0.1,0.1,0.1
	c-0.5-0.2,0-0.2,0.2-0.2C115.4,68,115.3,68,115.3,68.2"/>
<path class="st0" d="M118.3,64.7C118.2,64.7,118.2,64.7,118.3,64.7C118.2,64.7,118.2,64.7,118.3,64.7"/>
<path class="st0" d="M117.2,65.2L117.2,65.2c0,0,0-0.1-0.1-0.2L117.2,65.2z"/>
<path class="st0" d="M119,64.4C119,64.3,119,64.3,119,64.4C119,64.3,119,64.3,119,64.4"/>
<path class="st0" d="M119.2,63.8c0-0.1-0.1-0.1-0.2-0.2C119,63.7,119.1,63.7,119.2,63.8"/>
<path class="st0" d="M116.8,66.7c0,0,0-0.1-0.1-0.1C116.8,66.6,116.8,66.6,116.8,66.7"/>
<path class="st0" d="M114,68C114.1,68,114.1,68,114,68"/>
<path class="st0" d="M117.4,66.1c0,0,0,0,0-0.1C117.3,66,117.4,66.1,117.4,66.1"/>
<path class="st0" d="M116.1,67.6C116.1,67.6,116.1,67.6,116.1,67.6C116,67.5,116.1,67.5,116.1,67.6"/>
<path class="st0" d="M115.3,67.5c0.1,0.1,0.1,0.2,0.1,0.3C115.4,67.7,115.4,67.7,115.3,67.5"/>
<path class="st0" d="M19.4,107.7c0,0.2-0.1,0.2-0.3,0.2h-2.7v1.5h2.2c0.2,0,0.3,0,0.3,0.3v1.6c0,0.2-0.1,0.3-0.3,0.3h-2.2v3.3
	c0,0.3-0.1,0.3-0.3,0.3h-2.1c-0.3,0-0.3,0-0.3-0.3V106c0-0.3,0-0.3,0.3-0.3h5.3c0.2,0,0.3,0,0.3,0.2c0,0,0,0.1,0,0.2L19.4,107.7z"/>
<path class="st0" d="M23.7,115.3c-2.6,0-3.7-1.8-3.7-5c0-2.1,0.7-4.8,3.8-4.8c2.6,0,3.8,1.8,3.8,4.8
	C27.5,113.5,26.3,115.3,23.7,115.3 M23.7,107.5c-0.6,0-1.1,0.7-1.1,3c0,2.2,0.5,2.9,1.1,2.9c0.6,0,1.1-0.7,1.1-2.9
	C24.8,108.1,24.3,107.5,23.7,107.5"/>
<path class="st0" d="M35.6,115.1h-1.6c-0.2,0-0.3,0-0.4-0.3l-2.1-3.8c-0.2-0.3-0.3-0.7-0.6-1.4c0.1,0.7,0.2,1.2,0.2,1.6v3.6
	c0,0.3-0.1,0.3-0.3,0.3H29c-0.3,0-0.3,0-0.3-0.3V106c0-0.2,0-0.3,0.3-0.3h1.7c0.2,0,0.3,0,0.4,0.2l2,3.4c0.2,0.3,0.4,0.8,0.6,1.4
	c-0.1-0.7-0.2-1.2-0.2-1.6V106c0-0.2,0-0.3,0.3-0.3h1.8c0.3,0,0.3,0,0.3,0.3v8.8C35.9,115.1,35.9,115.1,35.6,115.1"/>
<path class="st0" d="M40.6,115.1h-2.9c-0.3,0-0.3,0-0.3-0.3V106c0-0.2,0.1-0.3,0.3-0.3h2.4c3.2,0,4.5,1.2,4.5,4.6
	C44.6,113.2,43.6,115.1,40.6,115.1 M41.9,110.1c0-1.2-0.1-2.2-1.5-2.2H40v5.1h0.4c1.4,0,1.5-0.8,1.5-2.5V110.1z"/>
<path class="st0" d="M49.3,115.3c-2.6,0-3.7-1.8-3.7-5c0-2.1,0.7-4.8,3.8-4.8c2.6,0,3.8,1.8,3.8,4.8
	C53.1,113.5,51.9,115.3,49.3,115.3 M49.3,107.5c-0.6,0-1.1,0.7-1.1,3c0,2.2,0.5,2.9,1.1,2.9c0.6,0,1.1-0.7,1.1-2.9
	C50.4,108.1,49.9,107.5,49.3,107.5"/>
<path class="st0" d="M63,107.7c0,0.2-0.1,0.2-0.3,0.2H60v1.4h2.2c0.2,0,0.3,0,0.3,0.3v1.6c0,0.2-0.1,0.3-0.3,0.3H60v1.6h2.8
	c0.3,0,0.3,0,0.3,0.3v1.6c0,0.3,0,0.3-0.3,0.3h-5.2c-0.3,0-0.3,0-0.3-0.3V106c0-0.2,0-0.3,0.3-0.3H63c0.2,0,0.3,0,0.3,0.2
	c0,0,0,0.1,0,0.2L63,107.7z"/>
<path class="st0" d="M67.9,115.3c-2.7,0-3.5-1.3-3.5-3.4v-5.9c0-0.2,0-0.3,0.3-0.3h2.1c0.3,0,0.3,0,0.3,0.3v5.7c0,1.2,0.3,1.5,1,1.5
	c0.8,0,1.2-0.4,1.2-1.5v-5.7c0-0.2,0-0.3,0.3-0.3h2c0.3,0,0.3,0,0.3,0.3v5.8C71.8,114.3,70.3,115.3,67.9,115.3"/>
<path class="st0" d="M80.5,114.8c0,0.1-0.1,0.1-0.2,0.2l-2.1,0.4c-0.1,0-0.1,0-0.1,0c-0.1,0-0.1,0-0.2-0.2l-1.8-3.7h-0.1v3.3
	c0,0.3-0.1,0.3-0.3,0.3h-2c-0.3,0-0.3,0-0.3-0.3V106c0-0.3,0-0.3,0.3-0.3h2.7c1.3,0,2.1,0.2,2.6,0.6c0.5,0.5,0.9,1.3,0.9,2.1
	c0,1.2-0.6,2.1-1.4,2.6l2,3.5C80.4,114.6,80.5,114.7,80.5,114.8 M76.3,107.7h-0.4v1.9h0.3c0.8,0,1.1-0.3,1.1-1
	C77.3,107.9,77,107.7,76.3,107.7"/>
<path class="st0" d="M84.9,115.3c-2.6,0-3.7-1.8-3.7-5c0-2.1,0.7-4.8,3.8-4.8c2.6,0,3.8,1.8,3.8,4.8
	C88.7,113.5,87.5,115.3,84.9,115.3 M84.9,107.5c-0.6,0-1.1,0.7-1.1,3c0,2.2,0.5,2.9,1.1,2.9c0.6,0,1.1-0.7,1.1-2.9
	C86,108.1,85.5,107.5,84.9,107.5"/>
<path class="st0" d="M93,111.6h-0.4v3.2c0,0.3-0.1,0.3-0.3,0.3h-2.1c-0.3,0-0.3,0-0.3-0.3V106c0-0.3,0-0.3,0.3-0.3h2.7
	c1.3,0,2.1,0.2,2.6,0.6c0.5,0.5,0.9,1.3,0.9,2.1C96.4,110.4,95,111.6,93,111.6 M92.9,107.7h-0.4v2h0.3c0.8,0,1.1-0.3,1.1-1
	C94,107.9,93.6,107.7,92.9,107.7"/>
<path class="st0" d="M103.1,107.7c0,0.2-0.1,0.2-0.3,0.2h-2.7v1.4h2.2c0.2,0,0.3,0,0.3,0.3v1.6c0,0.2-0.1,0.3-0.3,0.3h-2.2v1.6h2.8
	c0.3,0,0.3,0,0.3,0.3v1.6c0,0.3,0,0.3-0.3,0.3h-5.2c-0.3,0-0.3,0-0.3-0.3V106c0-0.2,0-0.3,0.3-0.3h5.3c0.2,0,0.3,0,0.3,0.2
	c0,0,0,0.1,0,0.2L103.1,107.7z"/>
<path class="st0" d="M107.8,115.3c-2.6,0-3.7-1.8-3.7-5c0-2.1,0.7-4.8,3.8-4.8c2.6,0,3.8,1.8,3.8,4.8
	C111.6,113.5,110.4,115.3,107.8,115.3 M107.8,107.5c-0.6,0-1.1,0.7-1.1,3c0,2.2,0.5,2.9,1.1,2.9c0.6,0,1.1-0.7,1.1-2.9
	C108.9,108.1,108.4,107.5,107.8,107.5"/>
<path class="st0" d="M16.7,127.3c-1,0-3.2-0.5-3.2-1c0,0,0-0.1,0-0.1l0.5-1.7c0-0.1,0.1-0.1,0.1-0.1c0,0,0.1,0,0.1,0
	c0.7,0.4,1.8,0.8,2.4,0.8c0.6,0,0.8-0.3,0.8-0.7c0-0.6-0.3-0.7-1.6-1.3c-1.4-0.6-2.3-1.2-2.3-2.7c0-1.7,1.3-2.8,3.4-2.8
	c1.2,0,3,0.5,3,1c0,0,0,0,0,0.1l-0.6,1.6c0,0.1-0.1,0.1-0.1,0.1c0,0-0.1,0-0.1,0c-0.5-0.2-1.5-0.6-2.1-0.6c-0.6,0-0.9,0.2-0.9,0.6
	c0,0.4,0.3,0.5,1,0.9c1.6,0.7,2.9,1.3,2.9,3.2C20.1,126.2,18.7,127.3,16.7,127.3"/>
<path class="st0" d="M25.6,127.1c-0.1,0.2-0.1,0.2-0.3,0.2h-2.2c-0.2,0-0.2,0-0.3-0.2l-2.5-8.8c0-0.1,0-0.1,0-0.2
	c0-0.1,0.1-0.1,0.2-0.2l2.3-0.2c0.1,0,0.2,0.1,0.2,0.2l0.9,4.5c0.1,0.5,0.1,1,0.3,1.9c0.1-0.7,0.2-1.4,0.3-1.9l1-4.5
	c0-0.2,0.1-0.2,0.2-0.2l2.2,0.2c0.2,0,0.3,0.1,0.3,0.2c0,0,0,0.1,0,0.2L25.6,127.1z"/>
<path class="st0" d="M32.8,127.2h-3.6c-0.3,0-0.3,0-0.3-0.3v-1.4c0-0.3,0-0.3,0.3-0.3h0.4v-5.4h-0.4c-0.3,0-0.3,0-0.3-0.3v-1.4
	c0-0.2,0-0.3,0.3-0.3h3.6c0.3,0,0.3,0,0.3,0.3v1.4c0,0.3,0,0.3-0.3,0.3h-0.5v5.4h0.5c0.3,0,0.3,0.1,0.3,0.3v1.4
	C33,127.1,33,127.2,32.8,127.2"/>
<path class="st0" d="M39.8,126.9c0,0.2-0.1,0.2-0.3,0.2h-5.1c-0.3,0-0.3,0-0.3-0.3v-8.8c0-0.2,0-0.3,0.3-0.3h2.1
	c0.2,0,0.3,0,0.3,0.3v6.7h3c0.2,0,0.3,0,0.3,0.2c0,0,0,0.1,0,0.1L39.8,126.9z"/>
<path class="st0" d="M44,127.4c-2.7,0-3.5-1.3-3.5-3.4v-5.9c0-0.2,0-0.3,0.3-0.3h2.1c0.3,0,0.3,0,0.3,0.3v5.7c0,1.2,0.3,1.5,1,1.5
	c0.8,0,1.2-0.4,1.2-1.5v-5.7c0-0.2,0-0.3,0.3-0.3h2c0.3,0,0.3,0,0.3,0.3v5.8C47.9,126.3,46.3,127.4,44,127.4"/>
<path class="st0" d="M52.4,123.7H52v3.2c0,0.3-0.1,0.3-0.3,0.3h-2.1c-0.3,0-0.3,0-0.3-0.3v-8.8c0-0.3,0-0.3,0.3-0.3h2.7
	c1.3,0,2.1,0.1,2.6,0.6c0.5,0.5,0.9,1.3,0.9,2.1C55.8,122.4,54.5,123.7,52.4,123.7 M52.4,119.7H52v2h0.3c0.8,0,1.1-0.3,1.1-1
	C53.4,120,53.1,119.7,52.4,119.7"/>
<path class="st0" d="M60,123.7h-0.4v3.2c0,0.3-0.1,0.3-0.3,0.3h-2.1c-0.3,0-0.3,0-0.3-0.3v-8.8c0-0.3,0-0.3,0.3-0.3h2.7
	c1.3,0,2.1,0.1,2.6,0.6c0.5,0.5,0.9,1.3,0.9,2.1C63.4,122.4,62,123.7,60,123.7 M59.9,119.7h-0.4v2h0.3c0.8,0,1.1-0.3,1.1-1
	C61,120,60.6,119.7,59.9,119.7"/>
<path class="st0" d="M68,127.4c-2.6,0-3.7-1.8-3.7-5c0-2.1,0.7-4.8,3.8-4.8c2.6,0,3.8,1.8,3.8,4.8C71.8,125.5,70.6,127.4,68,127.4
	 M68,119.6c-0.6,0-1.1,0.7-1.1,3c0,2.2,0.5,2.9,1.1,2.9c0.6,0,1.1-0.7,1.1-2.9C69.1,120.2,68.6,119.6,68,119.6"/>
<path class="st0" d="M83.2,126.8c0,0.1-0.1,0.1-0.2,0.2l-2.1,0.4c-0.1,0-0.1,0-0.1,0c-0.1,0-0.1,0-0.2-0.2l-1.8-3.7h-0.1v3.3
	c0,0.3-0.1,0.3-0.3,0.3h-2c-0.3,0-0.3,0-0.3-0.3v-8.8c0-0.3,0-0.3,0.3-0.3H79c1.3,0,2.1,0.1,2.6,0.6c0.5,0.5,0.9,1.3,0.9,2.1
	c0,1.2-0.6,2.1-1.4,2.6l2,3.5C83.2,126.7,83.2,126.8,83.2,126.8 M79.1,119.7h-0.4v1.9H79c0.8,0,1.1-0.3,1.1-1
	C80.1,120,79.7,119.7,79.1,119.7"/>
<path class="st0" d="M89.7,119.7c0,0.2-0.1,0.2-0.3,0.2h-2.7v1.4H89c0.2,0,0.3,0,0.3,0.3v1.6c0,0.2-0.1,0.3-0.3,0.3h-2.2v1.6h2.8
	c0.3,0,0.3,0,0.3,0.3v1.6c0,0.3,0,0.3-0.3,0.3h-5.2c-0.3,0-0.3,0-0.3-0.3v-8.8c0-0.2,0-0.3,0.3-0.3h5.3c0.2,0,0.3,0,0.3,0.1
	c0,0,0,0.1,0,0.2L89.7,119.7z"/>
<path class="st0" d="M94.9,127.4c-2.8,0-4.1-1.7-4.1-4.8v-0.1c0-3.1,1.3-5,4.1-5c1,0,2.2,0.3,2.9,0.9c0.1,0,0.1,0.1,0.1,0.2
	c0,0,0,0.1,0,0.1l-0.8,1.6c0,0.1-0.1,0.1-0.1,0.1c-0.1,0-0.1,0-0.2-0.1c-0.4-0.2-1-0.6-1.8-0.6c-0.8,0-1.5,0.5-1.5,2.6
	c0,1.1,0.2,2.9,1.5,2.9c0.2,0,0.5,0,0.7-0.1v-1.3l-1.1,0c-0.2,0-0.3,0-0.3-0.2v-1.5c0-0.3,0-0.3,0.3-0.3h3.1c0.2,0,0.3,0.1,0.3,0.3
	v4C98,126.8,96.1,127.4,94.9,127.4"/>
<path class="st0" d="M102.9,127.2h-3.6c-0.3,0-0.3,0-0.3-0.3v-1.4c0-0.3,0-0.3,0.3-0.3h0.4v-5.4h-0.4c-0.3,0-0.3,0-0.3-0.3v-1.4
	c0-0.2,0-0.3,0.3-0.3h3.6c0.3,0,0.3,0,0.3,0.3v1.4c0,0.3,0,0.3-0.3,0.3h-0.5v5.4h0.5c0.3,0,0.3,0.1,0.3,0.3v1.4
	C103.2,127.1,103.1,127.2,102.9,127.2"/>
<path class="st0" d="M107.8,127.4c-2.6,0-3.7-1.8-3.7-5c0-2.1,0.7-4.8,3.8-4.8c2.6,0,3.8,1.8,3.8,4.8
	C111.6,125.5,110.4,127.4,107.8,127.4 M107.8,119.6c-0.6,0-1.1,0.7-1.1,3c0,2.2,0.5,2.9,1.1,2.9c0.6,0,1.1-0.7,1.1-2.9
	C108.9,120.2,108.4,119.6,107.8,119.6"/>
<path class="st0" d="M119.7,127.2h-1.6c-0.2,0-0.3,0-0.4-0.3l-2.1-3.8c-0.2-0.3-0.3-0.7-0.6-1.4c0.1,0.7,0.2,1.2,0.2,1.6v3.6
	c0,0.3-0.1,0.3-0.3,0.3h-1.8c-0.3,0-0.3,0-0.3-0.3v-8.8c0-0.2,0-0.3,0.3-0.3h1.7c0.2,0,0.3,0,0.4,0.2l2,3.4c0.2,0.3,0.4,0.8,0.6,1.4
	c-0.1-0.7-0.2-1.2-0.2-1.6v-3.2c0-0.2,0-0.3,0.3-0.3h1.8c0.3,0,0.3,0,0.3,0.3v8.8C120,127.1,119.9,127.2,119.7,127.2"/>
<path class="st0" d="M129.4,127c0,0.1-0.1,0.2-0.3,0.2h-2.3c-0.2,0-0.2,0-0.3-0.2L126,125h-1.8l-0.6,1.9c-0.1,0.2-0.1,0.2-0.3,0.2
	h-2.1c-0.2,0-0.3-0.1-0.3-0.1c0-0.1,0-0.1,0.1-0.2l2.8-8.8c0.1-0.2,0.1-0.2,0.3-0.2h2c0.2,0,0.2,0,0.3,0.2l2.9,8.8
	C129.4,126.9,129.4,127,129.4,127 M125.3,121.6c-0.1-0.4-0.2-1.1-0.2-1.6c-0.1,0.4-0.2,1.2-0.2,1.6l-0.4,1.6h1.1L125.3,121.6z"/>
<path class="st0" d="M136,126.9c0,0.2-0.1,0.2-0.3,0.2h-5.1c-0.3,0-0.3,0-0.3-0.3v-8.8c0-0.2,0-0.3,0.3-0.3h2.1c0.2,0,0.3,0,0.3,0.3
	v6.7h3c0.2,0,0.3,0,0.3,0.2c0,0,0,0.1,0,0.1L136,126.9z"/>
<path class="st0" d="M142.6,119.7c0,0.2-0.1,0.2-0.3,0.2h-2.7v1.4h2.2c0.2,0,0.3,0,0.3,0.3v1.6c0,0.2-0.1,0.3-0.3,0.3h-2.2v1.6h2.8
	c0.3,0,0.3,0,0.3,0.3v1.6c0,0.3,0,0.3-0.3,0.3h-5.2c-0.3,0-0.3,0-0.3-0.3v-8.8c0-0.2,0-0.3,0.3-0.3h5.3c0.2,0,0.3,0,0.3,0.1
	c0,0,0,0.1,0,0.2L142.6,119.7z"/>
<path class="st0" d="M118.4,115.2h-2.9c-0.3,0-0.3,0-0.3-0.3v-8.8c0-0.3,0.1-0.3,0.3-0.3h2.4c3.1,0,4.5,1.2,4.5,4.6
	C122.4,113.3,121.4,115.2,118.4,115.2 M119.7,110.2c0-1.2-0.1-2.3-1.5-2.3h-0.4v5.1h0.4c1.4,0,1.5-0.8,1.5-2.5V110.2z"/>
<path class="st0" d="M127.2,115.2h-3.6c-0.3,0-0.3,0-0.3-0.3v-1.4c0-0.3,0-0.3,0.3-0.3h0.4v-5.4h-0.4c-0.3,0-0.3,0-0.3-0.3v-1.4
	c0-0.3,0-0.3,0.3-0.3h3.6c0.3,0,0.3,0,0.3,0.3v1.4c0,0.2,0,0.3-0.3,0.3h-0.5v5.4h0.5c0.3,0,0.3,0.1,0.3,0.3v1.4
	C127.4,115.1,127.4,115.2,127.2,115.2"/>
</svg>
