<?xml version="1.0" encoding="utf-8"?>
<!-- Generator: Adobe Illustrator 22.1.0, SVG Export Plug-In . SVG Version: 6.00 Build 0)  -->
<svg version="1.1" id="Capa_1" xmlns="http://www.w3.org/2000/svg" xmlns:xlink="http://www.w3.org/1999/xlink" x="0px" y="0px"
	 viewBox="0 0 595.3 162" style="enable-background:new 0 0 595.3 162;" xml:space="preserve">
<style type="text/css">
	.st0{fill:#FFFFFF;}
</style>
<g>
	<path class="st0" d="M36.4,72.7h0.2c2.5-5.1,7.9-8,13.7-8c7,0,12.5,3.5,15.3,9.9c2.9-6.5,9-9.9,15.9-9.9c14,0,16.9,9.6,16.9,21.5
		v34.2h-5.3V85.4c0-8.4-1.3-15.8-11.7-15.8c-11.3,0-14,9.9-14,19.4v31.4h-5.3V86.7c0-8.5-1.5-17.1-12.2-17.1
		c-11.4,0-13.6,11.9-13.6,20.8v30h-5.3V65.8h5.3V72.7z"/>
	<path class="st0" d="M125.5,108.3c9.5,10,22.8,9.8,31.7,0.8c6-6,7.3-14.4,4.8-22.4l5-1.3c3.2,10.2,0.8,20.1-6.8,27.7
		c-11.4,11.4-28,9.4-38.9-1.5c-10.8-10.8-12.6-27.5-1.3-38.7c11.7-11.7,28-9.3,39,1.9L125.5,108.3z M151.7,75.1
		c-8-6.2-20.2-6.7-28.1,1.3c-7.8,7.8-8.2,20.5-1.6,28.5L151.7,75.1z"/>
	<path class="st0" d="M186.8,120.3h-5.3v-74h5.3V120.3z"/>
	<path class="st0" d="M213.3,120.3H208V70.8h-6v-5h6V46.3h5.3v19.5h9.6v5h-9.6V120.3z"/>
	<path class="st0" d="M244,47.6c0,2.7-2.1,4.8-4.8,4.8s-4.8-2.1-4.8-4.8c0-2.6,2.1-4.8,4.8-4.8S244,45.1,244,47.6z M241.7,120.3
		h-5.3V65.8h5.3V120.3z"/>
	<path class="st0" d="M269.7,74.3h0.2c3.2-6,9.1-9.7,16.2-9.7c14,0,17.9,8.7,17.9,22.8v32.9h-5.3V87.4c0-9.8-1.2-17.8-13.1-17.8
		c-13.7,0-15.9,12.7-15.9,23.8v26.9h-5.3V65.8h5.3V74.3z"/>
	<path class="st0" d="M373.3,87.4c0,8.4-0.2,15.9-5.4,23.1c-5.1,7-13.1,10.5-21.7,10.5c-14.3,0-26.1-8.4-26.9-23.4h5.3
		c0.6,11.3,10.1,18.4,21.1,18.4c6.8,0,13.5-2.4,17.5-8.1c4.2-6.3,4.8-13.3,4.8-20.6v0.3h-0.2c-4.8,6.5-13,10.6-21.2,10.6
		c-15.8,0-26.4-13.3-26.4-28.6c0-15.7,11.2-28.3,27.1-28.3c8.8,0,15.5,3.8,20.5,10.6h0.2v-9.4h5.3V87.4z M325.4,69.4
		c0,12.5,8.3,23.8,21.5,23.8c13.9,0,21.5-11.3,21.5-24.4c0-12.6-8.6-22.5-21.8-22.5C334,46.3,325.4,57.6,325.4,69.4z"/>
	<path class="st0" d="M399.1,52.3h0.2c4-7,12.7-11,20.8-11c16.6,0,26.9,13,26.9,28.9s-10.3,28-26.7,28c-8.4,0-16.5-3.7-21-10.6h-0.2
		v34.3h-5.3V42.5h5.3V52.3z M398.8,70.9c0,12.7,8.6,22.3,21.7,22.3c12.7,0,21.2-10.7,21.2-22.9c0-12.5-8.1-24.1-21.5-24.1
		C406.3,46.3,398.8,57.8,398.8,70.9z"/>
	<path class="st0" d="M467.6,72.9h0.2c2.1-5,6-8.3,11.8-8.3c2.1,0,3.9,0.5,5.8,1.3l-2.8,4.7c-1.3-0.7-2.4-1.1-3.8-1.1
		c-11.9,0-11.2,14.9-11.2,22.9v27.8h-5.3V65.8h5.3V72.9z"/>
	<path class="st0" d="M549.1,93.1c0,16.2-12.6,28.4-28.7,28.4c-15.7,0-28.3-12.9-28.3-28.3c0-15.7,12.5-28.6,28.3-28.6
		C536.5,64.6,549.1,76.9,549.1,93.1z M497.4,93.2c0,12.4,9.8,23.4,22.7,23.4c13.3,0,23.7-10.1,23.7-23.4c0-13.5-10.3-23.6-23.7-23.6
		C507.1,69.6,497.4,80.6,497.4,93.2z"/>
</g>
</svg>
