<?xml version="1.0" encoding="utf-8"?>
<!-- Generator: Adobe Illustrator 22.1.0, SVG Export Plug-In . SVG Version: 6.00 Build 0)  -->
<svg version="1.1" id="Capa_1" xmlns="http://www.w3.org/2000/svg" xmlns:xlink="http://www.w3.org/1999/xlink" x="0px" y="0px"
	 viewBox="0 0 57.4 51.8" style="enable-background:new 0 0 57.4 51.8;" xml:space="preserve">
<style type="text/css">
	.st0{clip-path:url(#SVGID_2_);fill:#FFFFFF;}
</style>
<g>
	<defs>
		<rect id="SVGID_1_" width="56.8" height="51.8"/>
	</defs>
	<clipPath id="SVGID_2_">
		<use xlink:href="#SVGID_1_"  style="overflow:visible;"/>
	</clipPath>
	<path class="st0" d="M46.1,12.4c-0.7,0-1.2-0.5-1.2-1.1V4.5h-7.1c-0.7,0-1.2-0.5-1.2-1.1c0-0.6,0.5-1.1,1.2-1.1h8.3
		c0.7,0,1.2,0.5,1.2,1.1v7.9C47.3,11.9,46.8,12.4,46.1,12.4 M55.6,28.1c-0.3,0-0.6-0.1-0.8-0.3L28.4,2.7L2,27.8
		c-0.5,0.4-1.2,0.4-1.7,0c-0.5-0.4-0.5-1.2,0-1.6L27.5,0.3c0.5-0.4,1.2-0.4,1.7,0l27.2,25.9c0.5,0.4,0.5,1.2,0,1.6
		C56.2,28,55.9,28.1,55.6,28.1 M48.5,51.8H34.3c-0.7,0-1.2-0.5-1.2-1.1V36h-9.5v14.6c0,0.6-0.5,1.1-1.2,1.1H8.3
		c-0.7,0-1.2-0.5-1.2-1.1V28.1c0-0.6,0.5-1.1,1.2-1.1c0.7,0,1.2,0.5,1.2,1.1v21.4h11.8V34.9c0-0.6,0.5-1.1,1.2-1.1h11.8
		c0.7,0,1.2,0.5,1.2,1.1v14.6h11.8V29.3c0-0.6,0.5-1.1,1.2-1.1s1.2,0.5,1.2,1.1v21.4C49.7,51.3,49.1,51.8,48.5,51.8"/>
</g>
</svg>
