<?xml version="1.0" encoding="utf-8"?>
<!-- Generator: Adobe Illustrator 22.1.0, SVG Export Plug-In . SVG Version: 6.00 Build 0)  -->
<svg version="1.1" id="Capa_1" xmlns="http://www.w3.org/2000/svg" xmlns:xlink="http://www.w3.org/1999/xlink" x="0px" y="0px"
	 viewBox="0 0 100 100" style="enable-background:new 0 0 100 100;" xml:space="preserve">
<style type="text/css">
	.st0{fill:white;}
</style>
<path class="st0" d="M90.6,1.6L1.6,90.6c-2.2,2.2-2.2,5.7,0,7.8c2.2,2.2,5.7,2.2,7.8,0L98.4,9.4c2.2-2.2,2.2-5.7,0-7.8
	C96.2-0.5,92.7-0.5,90.6,1.6"/>
<path class="st0" d="M98.4,90.6L9.4,1.6c-2.2-2.2-5.7-2.2-7.8,0c-2.2,2.2-2.2,5.7,0,7.8l88.9,88.9c2.2,2.2,5.7,2.2,7.8,0
	C100.5,96.2,100.5,92.7,98.4,90.6"/>
</svg>
