<?xml version="1.0" encoding="utf-8"?>
<!-- Generator: Adobe Illustrator 22.1.0, SVG Export Plug-In . SVG Version: 6.00 Build 0)  -->
<svg version="1.1" id="Capa_1" xmlns="http://www.w3.org/2000/svg" xmlns:xlink="http://www.w3.org/1999/xlink" x="0px" y="0px"
	 viewBox="0 0 488.3 148.9" style="enable-background:new 0 0 488.3 148.9;" xml:space="preserve">
<g>
	<rect x="475.3" y="37.9" width="8.8" height="71.2"/>
	<rect x="461.4" y="17.8" width="8.8" height="111.3"/>
	<rect x="447.5" y="3" width="8.8" height="141"/>
	<rect x="433.6" y="13" width="8.8" height="121"/>
	<rect x="419.7" y="4.7" width="8.8" height="137.6"/>
	<rect x="405.8" y="45.7" width="8.8" height="55.6"/>
	<rect x="391.9" y="33.2" width="8.8" height="80.6"/>
	<rect x="378" y="18.8" width="8.8" height="109.3"/>
	<rect x="364.1" y="37.9" width="8.8" height="71.2"/>
	<rect x="350.3" y="55.7" width="8.8" height="35.6"/>
	<rect x="336.4" y="13" width="8.8" height="121"/>
	<rect x="322.5" y="4.7" width="8.8" height="137.6"/>
	<rect x="308.6" y="13" width="8.8" height="121"/>
	<rect x="294.7" y="24.6" width="8.8" height="97.7"/>
	<rect x="280.8" y="15.9" width="8.8" height="115.2"/>
	<rect x="266.9" y="37.9" width="8.8" height="71.2"/>
	<rect x="253" y="47.8" width="8.8" height="51.4"/>
	<rect x="239.1" y="29" width="8.8" height="88.9"/>
	<rect x="225.2" y="14.7" width="8.8" height="117.6"/>
	<rect x="211.4" y="4.7" width="8.8" height="137.6"/>
	<rect x="197.5" y="21" width="8.8" height="105"/>
	<rect x="183.6" y="37.9" width="8.8" height="71.2"/>
	<rect x="169.7" y="21" width="8.8" height="105"/>
	<rect x="155.8" y="40.7" width="8.8" height="65.6"/>
	<rect x="141.9" y="55.7" width="8.8" height="35.6"/>
	<rect x="128" y="30.7" width="8.8" height="85.5"/>
	<rect x="114.1" y="6.7" width="8.8" height="133.7"/>
	<rect x="100.2" y="13" width="8.8" height="121"/>
	<rect x="86.3" y="21" width="8.8" height="105"/>
	<rect x="72.4" y="4.7" width="8.8" height="137.6"/>
	<rect x="58.6" y="25.9" width="8.8" height="95.2"/>
	<rect x="44.7" y="44.7" width="8.8" height="57.6"/>
	<rect x="30.8" y="30.7" width="8.8" height="85.5"/>
	<rect x="16.9" y="13" width="8.8" height="121"/>
	<rect x="3" y="37.9" width="8.8" height="71.2"/>
</g>
</svg>
