<?xml version="1.0" encoding="utf-8"?>
<!-- Generator: Adobe Illustrator 22.1.0, SVG Export Plug-In . SVG Version: 6.00 Build 0)  -->
<svg version="1.1" id="Capa_1" xmlns="http://www.w3.org/2000/svg" xmlns:xlink="http://www.w3.org/1999/xlink" x="0px" y="0px"
	 viewBox="0 0 58.9 58.9" style="enable-background:new 0 0 58.9 58.9;" xml:space="preserve">
<style type="text/css">
	.st0{clip-path:url(#SVGID_2_);fill:#FFFFFF;}
</style>
<g>
	<defs>
		<rect id="SVGID_1_" width="58.9" height="58.9"/>
	</defs>
	<clipPath id="SVGID_2_">
		<use xlink:href="#SVGID_1_"  style="overflow:visible;"/>
	</clipPath>
	<path class="st0" d="M24.9,44.4c-10.8,0-19.6-8.8-19.6-19.5c0-10.8,8.8-19.6,19.6-19.6c10.8,0,19.6,8.8,19.6,19.6
		C44.5,35.7,35.7,44.4,24.9,44.4 M57.7,54.3L43.8,40.4c3.5-4.2,5.5-9.6,5.5-15.5c0-13.5-10.9-24.4-24.4-24.4
		C11.4,0.5,0.5,11.4,0.5,24.9c0,13.5,10.9,24.4,24.4,24.4c5.9,0,11.3-2.1,15.5-5.5l13.9,13.9c0.9,0.9,2.5,0.9,3.4,0
		C58.6,56.8,58.6,55.2,57.7,54.3"/>
	<path class="st0" d="M24.9,44.4c-10.8,0-19.6-8.8-19.6-19.5c0-10.8,8.8-19.6,19.6-19.6c10.8,0,19.6,8.8,19.6,19.6
		C44.5,35.7,35.7,44.4,24.9,44.4z M57.7,54.3L43.8,40.4c3.5-4.2,5.5-9.6,5.5-15.5c0-13.5-10.9-24.4-24.4-24.4
		C11.4,0.5,0.5,11.4,0.5,24.9c0,13.5,10.9,24.4,24.4,24.4c5.9,0,11.3-2.1,15.5-5.5l13.9,13.9c0.9,0.9,2.5,0.9,3.4,0
		C58.6,56.8,58.6,55.2,57.7,54.3z"/>
</g>
</svg>
