<?xml version="1.0" encoding="utf-8"?>
<!-- Generator: Adobe Illustrator 22.1.0, SVG Export Plug-In . SVG Version: 6.00 Build 0)  -->
<svg version="1.1" id="Capa_1" xmlns="http://www.w3.org/2000/svg" xmlns:xlink="http://www.w3.org/1999/xlink" x="0px" y="0px"
	 viewBox="0 0 75.8 75.8" style="enable-background:new 0 0 75.8 75.8;" xml:space="preserve">
<style type="text/css">
	.st0{clip-path:url(#SVGID_2_);fill:black;}
</style>
<g>
	<defs>
		<rect id="SVGID_1_" width="75.8" height="75.8"/>
	</defs>
	<clipPath id="SVGID_2_">
		<use xlink:href="#SVGID_1_"  style="overflow:visible;"/>
	</clipPath>
	<path class="st0" d="M9.1,29.7c0-11.4,9.2-20.6,20.6-20.6c11.4,0,21.5,10.1,21.5,21.5c0,11.4-9.2,20.6-20.6,20.6
		C19.3,51.2,9.1,41.1,9.1,29.7 M74.1,64.2L56,46c2.7-4.5,4.3-9.8,4.3-15.4C60.3,14.2,46.1,0,29.7,0C13.3,0,0,13.3,0,29.7
		s14.2,30.6,30.6,30.6c5.5,0,10.6-1.5,15-4l18.2,18.2c1.8,1.8,4.7,1.8,6.5,0l4.5-4.5C76.6,68.2,75.9,65.9,74.1,64.2"/>
</g>
</svg>
