<?xml version="1.0" encoding="utf-8"?>
<!-- Generator: Adobe Illustrator 22.1.0, SVG Export Plug-In . SVG Version: 6.00 Build 0)  -->
<svg version="1.1" id="Capa_1" xmlns="http://www.w3.org/2000/svg" xmlns:xlink="http://www.w3.org/1999/xlink" x="0px" y="0px"
	 viewBox="0 0 105.7 105.7" style="enable-background:new 0 0 105.7 105.7;" xml:space="preserve">
<style type="text/css">
	.st0{clip-path:url(#SVGID_2_);fill:#020203;}
</style>
<g>
	<defs>
		<rect id="SVGID_1_" width="105.7" height="105.7"/>
	</defs>
	<clipPath id="SVGID_2_">
		<use xlink:href="#SVGID_1_"  style="overflow:visible;"/>
	</clipPath>
	<path class="st0" d="M58.6,66.8c-4.3-2.1-6.2-7.1-6.2-7.1s5.1-1.6,9.4,0.6c4.3,2.1,6.2,7.1,6.2,7.1S62.9,68.9,58.6,66.8 M79.4,77
		c-4.3-2.1-6.2-7.2-6.2-7.2s5.2-1.6,9.5,0.5c4.3,2.1,6.2,7.2,6.2,7.2S83.7,79.2,79.4,77 M57.8,92.9c-8.7-4.3-7.3-18.7-7.3-18.7
		s4.6,9.1,10.6,12.1c6,3,16.1,1,16.1,1S66.6,97.2,57.8,92.9 M104.3,60.1c-4.1-2.9-13.3-10.4-22-14.8c-8.8-4.3-19.8-6.7-24.7-8.2
		c-3.5-1.1-3.9,2.4-5.2,5c-22.2,45.1-2.7,60.6,1,62.4c3.7,1.8,28.1,7.5,50.1-37.3C104.8,64.8,107.4,62.2,104.3,60.1"/>
	<path class="st0" d="M25.6,38.2c-3.9,2.9-9.5,1.9-9.5,1.9s0.7-5.6,4.6-8.6c3.9-2.9,9.5-1.9,9.5-1.9S29.5,35.3,25.6,38.2 M46.2,21.9
		c4.8-0.1,8.7,3.9,8.7,3.9s-3.8,4.1-8.6,4.2c-4.8,0.1-8.7-3.9-8.7-3.9S41.4,22,46.2,21.9 M42.2,50.1c-0.7,0.1-1.4,0.3-2.1,0.5
		c-6.2,2.1-11.9,9.8-11.9,9.8s0.9-12.8,9.9-15.8c2.3-0.8,4.5-0.7,6.6-0.3c0.7-1.6,1.5-3.3,2.3-5c0.1-0.3,0.3-0.6,0.4-0.9
		c0.9-2.3,3-7.7,9.1-7.7c1,0,2,0.2,3,0.5c0.8,0.3,1.7,0.6,2.5,1c-0.5-7.4-2.2-16.1-5.8-26.5c-0.9-2.6-0.9-6.3-4.7-5.6
		C46.4,1,33.6,2,24.3,5.2c-9.4,3.2-18.1,9.6-22.6,12c-3.3,1.8-1.1,4.5-0.1,7.2c10.9,31.7,25.5,41.2,35.3,43.6
		C37.9,62.7,39.6,56.8,42.2,50.1"/>
</g>
</svg>
