<?xml version="1.0" encoding="utf-8"?>
<!-- Generator: Adobe Illustrator 22.1.0, SVG Export Plug-In . SVG Version: 6.00 Build 0)  -->
<svg version="1.1" id="Capa_1" xmlns="http://www.w3.org/2000/svg" xmlns:xlink="http://www.w3.org/1999/xlink" x="0px" y="0px"
	 viewBox="0 0 80.6 116.4" style="enable-background:new 0 0 80.6 116.4;" xml:space="preserve">
<style type="text/css">
	.st0{clip-path:url(#SVGID_2_);fill:#FFFFFF;}
</style>
<g>
	<defs>
		<rect id="SVGID_1_" width="80.6" height="116.4"/>
	</defs>
	<clipPath id="SVGID_2_">
		<use xlink:href="#SVGID_1_"  style="overflow:visible;"/>
	</clipPath>
	<path class="st0" d="M62.7,44.8v13.4c0,12.4-10,22.4-22.4,22.4c-12.4,0-22.4-10-22.4-22.4V44.8H62.7z"/>
	<path class="st0" d="M40.3,0C27.9,0,17.9,10,17.9,22.4v35.8c0,12.4,10,22.4,22.4,22.4c12.4,0,22.4-10,22.4-22.4V22.4
		C62.7,10,52.6,0,40.3,0 M40.3,9c7.4,0,13.4,6,13.4,13.4v35.8c0,7.4-6,13.4-13.4,13.4c-7.4,0-13.4-6-13.4-13.4V22.4
		C26.9,15,32.9,9,40.3,9"/>
	<path class="st0" d="M22.4,31.3v8.9h8.9c0,0,4.5-0.2,4.5-4.5c0-2.5-2-4.5-4.5-4.5H22.4z"/>
	<path class="st0" d="M22.4,17.9v8.9h8.9c0,0,4.5-0.2,4.5-4.5c0-2.5-2-4.5-4.5-4.5H22.4z"/>
	<path class="st0" d="M58.2,17.9v8.9h-8.9c0,0-4.5-0.2-4.5-4.5c0-2.5,2-4.5,4.5-4.5H58.2z"/>
	<path class="st0" d="M58.2,31.3v8.9h-8.9c0,0-4.5-0.2-4.5-4.5c0-2.5,2-4.5,4.5-4.5H58.2z"/>
	<path class="st0" d="M0,53.7v4.5c0,22.2,18.1,40.3,40.3,40.3c22.2,0,40.3-18.1,40.3-40.3v-4.5c0,0-0.4-4.5-4.5-4.5
		c-4.1,0-4.5,4.5-4.5,4.5v4.5c0,17.3-14.1,31.3-31.3,31.3S8.9,75.5,8.9,58.2v-4.5c0,0-0.5-4.5-4.5-4.5C0.5,49.2,0,53.7,0,53.7"/>
	<path class="st0" d="M49.2,111.9H31.3V95.7c0,0,0.2-4.5,4.5-4.5h8.9c2.5,0,4.5,2,4.5,4.5V111.9z"/>
	<path class="st0" d="M67.1,116.4H13.4v-4.5c0,0,0.2-4.5,4.5-4.5h44.8c2.5,0,4.5,2,4.5,4.5V116.4z"/>
</g>
</svg>
